<?xml version="1.0" encoding="utf-8" standalone="no"?>
<!DOCTYPE svg PUBLIC "-//W3C//DTD SVG 1.1//EN"
  "http://www.w3.org/Graphics/SVG/1.1/DTD/svg11.dtd">
<svg xmlns:xlink="http://www.w3.org/1999/xlink" width="864pt" height="360pt" viewBox="0 0 864 360" xmlns="http://www.w3.org/2000/svg" version="1.1">
 <metadata>
  <rdf:RDF xmlns:dc="http://purl.org/dc/elements/1.1/" xmlns:cc="http://creativecommons.org/ns#" xmlns:rdf="http://www.w3.org/1999/02/22-rdf-syntax-ns#">
   <cc:Work>
    <dc:type rdf:resource="http://purl.org/dc/dcmitype/StillImage"/>
    <dc:date>2024-12-25T08:13:30.814025</dc:date>
    <dc:format>image/svg+xml</dc:format>
    <dc:creator>
     <cc:Agent>
      <dc:title>Matplotlib v3.10.0, https://matplotlib.org/</dc:title>
     </cc:Agent>
    </dc:creator>
   </cc:Work>
  </rdf:RDF>
 </metadata>
 <defs>
  <style type="text/css">*{stroke-linejoin: round; stroke-linecap: butt}</style>
 </defs>
 <g id="figure_1">
  <g id="patch_1">
   <path d="M 0 360 
L 864 360 
L 864 0 
L 0 0 
L 0 360 
z
" style="fill: none; opacity: 0"/>
  </g>
  <g id="axes_1">
   <g id="patch_2">
    <path d="M 108 320.4 
L 777.6 320.4 
L 777.6 43.2 
L 108 43.2 
L 108 320.4 
z
" style="fill: none; opacity: 0"/>
   </g>
   <g id="matplotlib.axis_1">
    <g id="xtick_1">
     <g id="line2d_1">
      <path d="M 127.235782 320.4 
L 127.235782 43.2 
" clip-path="url(#pa4b8380a6f)" style="fill: none; stroke-dasharray: 5.12,1.28,0.8,1.28; stroke-dashoffset: 0; stroke: #b0b0b0; stroke-width: 0.8"/>
     </g>
     <g id="line2d_2">
      <defs>
       <path id="medab66d8e7" d="M 0 0 
L 0 3.5 
" style="stroke: #a9a9a9; stroke-width: 0.8"/>
      </defs>
      <g>
       <use xlink:href="#medab66d8e7" x="127.235782" y="320.4" style="fill: #a9a9a9; stroke: #a9a9a9; stroke-width: 0.8"/>
      </g>
     </g>
     <g id="text_1">
      <!-- 2021-07 -->
      <g style="fill: #a9a9a9" transform="translate(106.344376 334.998438) scale(0.1 -0.1)">
       <defs>
        <path id="DejaVuSans-32" d="M 1228 531 
L 3431 531 
L 3431 0 
L 469 0 
L 469 531 
Q 828 903 1448 1529 
Q 2069 2156 2228 2338 
Q 2531 2678 2651 2914 
Q 2772 3150 2772 3378 
Q 2772 3750 2511 3984 
Q 2250 4219 1831 4219 
Q 1534 4219 1204 4116 
Q 875 4013 500 3803 
L 500 4441 
Q 881 4594 1212 4672 
Q 1544 4750 1819 4750 
Q 2544 4750 2975 4387 
Q 3406 4025 3406 3419 
Q 3406 3131 3298 2873 
Q 3191 2616 2906 2266 
Q 2828 2175 2409 1742 
Q 1991 1309 1228 531 
z
" transform="scale(0.015625)"/>
        <path id="DejaVuSans-30" d="M 2034 4250 
Q 1547 4250 1301 3770 
Q 1056 3291 1056 2328 
Q 1056 1369 1301 889 
Q 1547 409 2034 409 
Q 2525 409 2770 889 
Q 3016 1369 3016 2328 
Q 3016 3291 2770 3770 
Q 2525 4250 2034 4250 
z
M 2034 4750 
Q 2819 4750 3233 4129 
Q 3647 3509 3647 2328 
Q 3647 1150 3233 529 
Q 2819 -91 2034 -91 
Q 1250 -91 836 529 
Q 422 1150 422 2328 
Q 422 3509 836 4129 
Q 1250 4750 2034 4750 
z
" transform="scale(0.015625)"/>
        <path id="DejaVuSans-31" d="M 794 531 
L 1825 531 
L 1825 4091 
L 703 3866 
L 703 4441 
L 1819 4666 
L 2450 4666 
L 2450 531 
L 3481 531 
L 3481 0 
L 794 0 
L 794 531 
z
" transform="scale(0.015625)"/>
        <path id="DejaVuSans-2d" d="M 313 2009 
L 1997 2009 
L 1997 1497 
L 313 1497 
L 313 2009 
z
" transform="scale(0.015625)"/>
        <path id="DejaVuSans-37" d="M 525 4666 
L 3525 4666 
L 3525 4397 
L 1831 0 
L 1172 0 
L 2766 4134 
L 525 4134 
L 525 4666 
z
" transform="scale(0.015625)"/>
       </defs>
       <use xlink:href="#DejaVuSans-32"/>
       <use xlink:href="#DejaVuSans-30" transform="translate(63.623047 0)"/>
       <use xlink:href="#DejaVuSans-32" transform="translate(127.246094 0)"/>
       <use xlink:href="#DejaVuSans-31" transform="translate(190.869141 0)"/>
       <use xlink:href="#DejaVuSans-2d" transform="translate(254.492188 0)"/>
       <use xlink:href="#DejaVuSans-30" transform="translate(290.576172 0)"/>
       <use xlink:href="#DejaVuSans-37" transform="translate(354.199219 0)"/>
      </g>
     </g>
    </g>
    <g id="xtick_2">
     <g id="line2d_3">
      <path d="M 216.840436 320.4 
L 216.840436 43.2 
" clip-path="url(#pa4b8380a6f)" style="fill: none; stroke-dasharray: 5.12,1.28,0.8,1.28; stroke-dashoffset: 0; stroke: #b0b0b0; stroke-width: 0.8"/>
     </g>
     <g id="line2d_4">
      <g>
       <use xlink:href="#medab66d8e7" x="216.840436" y="320.4" style="fill: #a9a9a9; stroke: #a9a9a9; stroke-width: 0.8"/>
      </g>
     </g>
     <g id="text_2">
      <!-- 2022-01 -->
      <g style="fill: #a9a9a9" transform="translate(195.94903 334.998438) scale(0.1 -0.1)">
       <use xlink:href="#DejaVuSans-32"/>
       <use xlink:href="#DejaVuSans-30" transform="translate(63.623047 0)"/>
       <use xlink:href="#DejaVuSans-32" transform="translate(127.246094 0)"/>
       <use xlink:href="#DejaVuSans-32" transform="translate(190.869141 0)"/>
       <use xlink:href="#DejaVuSans-2d" transform="translate(254.492188 0)"/>
       <use xlink:href="#DejaVuSans-30" transform="translate(290.576172 0)"/>
       <use xlink:href="#DejaVuSans-31" transform="translate(354.199219 0)"/>
      </g>
     </g>
    </g>
    <g id="xtick_3">
     <g id="line2d_5">
      <path d="M 304.984145 320.4 
L 304.984145 43.2 
" clip-path="url(#pa4b8380a6f)" style="fill: none; stroke-dasharray: 5.12,1.28,0.8,1.28; stroke-dashoffset: 0; stroke: #b0b0b0; stroke-width: 0.8"/>
     </g>
     <g id="line2d_6">
      <g>
       <use xlink:href="#medab66d8e7" x="304.984145" y="320.4" style="fill: #a9a9a9; stroke: #a9a9a9; stroke-width: 0.8"/>
      </g>
     </g>
     <g id="text_3">
      <!-- 2022-07 -->
      <g style="fill: #a9a9a9" transform="translate(284.092739 334.998438) scale(0.1 -0.1)">
       <use xlink:href="#DejaVuSans-32"/>
       <use xlink:href="#DejaVuSans-30" transform="translate(63.623047 0)"/>
       <use xlink:href="#DejaVuSans-32" transform="translate(127.246094 0)"/>
       <use xlink:href="#DejaVuSans-32" transform="translate(190.869141 0)"/>
       <use xlink:href="#DejaVuSans-2d" transform="translate(254.492188 0)"/>
       <use xlink:href="#DejaVuSans-30" transform="translate(290.576172 0)"/>
       <use xlink:href="#DejaVuSans-37" transform="translate(354.199219 0)"/>
      </g>
     </g>
    </g>
    <g id="xtick_4">
     <g id="line2d_7">
      <path d="M 394.5888 320.4 
L 394.5888 43.2 
" clip-path="url(#pa4b8380a6f)" style="fill: none; stroke-dasharray: 5.12,1.28,0.8,1.28; stroke-dashoffset: 0; stroke: #b0b0b0; stroke-width: 0.8"/>
     </g>
     <g id="line2d_8">
      <g>
       <use xlink:href="#medab66d8e7" x="394.5888" y="320.4" style="fill: #a9a9a9; stroke: #a9a9a9; stroke-width: 0.8"/>
      </g>
     </g>
     <g id="text_4">
      <!-- 2023-01 -->
      <g style="fill: #a9a9a9" transform="translate(373.697394 334.998438) scale(0.1 -0.1)">
       <defs>
        <path id="DejaVuSans-33" d="M 2597 2516 
Q 3050 2419 3304 2112 
Q 3559 1806 3559 1356 
Q 3559 666 3084 287 
Q 2609 -91 1734 -91 
Q 1441 -91 1130 -33 
Q 819 25 488 141 
L 488 750 
Q 750 597 1062 519 
Q 1375 441 1716 441 
Q 2309 441 2620 675 
Q 2931 909 2931 1356 
Q 2931 1769 2642 2001 
Q 2353 2234 1838 2234 
L 1294 2234 
L 1294 2753 
L 1863 2753 
Q 2328 2753 2575 2939 
Q 2822 3125 2822 3475 
Q 2822 3834 2567 4026 
Q 2313 4219 1838 4219 
Q 1578 4219 1281 4162 
Q 984 4106 628 3988 
L 628 4550 
Q 988 4650 1302 4700 
Q 1616 4750 1894 4750 
Q 2613 4750 3031 4423 
Q 3450 4097 3450 3541 
Q 3450 3153 3228 2886 
Q 3006 2619 2597 2516 
z
" transform="scale(0.015625)"/>
       </defs>
       <use xlink:href="#DejaVuSans-32"/>
       <use xlink:href="#DejaVuSans-30" transform="translate(63.623047 0)"/>
       <use xlink:href="#DejaVuSans-32" transform="translate(127.246094 0)"/>
       <use xlink:href="#DejaVuSans-33" transform="translate(190.869141 0)"/>
       <use xlink:href="#DejaVuSans-2d" transform="translate(254.492188 0)"/>
       <use xlink:href="#DejaVuSans-30" transform="translate(290.576172 0)"/>
       <use xlink:href="#DejaVuSans-31" transform="translate(354.199219 0)"/>
      </g>
     </g>
    </g>
    <g id="xtick_5">
     <g id="line2d_9">
      <path d="M 482.732509 320.4 
L 482.732509 43.2 
" clip-path="url(#pa4b8380a6f)" style="fill: none; stroke-dasharray: 5.12,1.28,0.8,1.28; stroke-dashoffset: 0; stroke: #b0b0b0; stroke-width: 0.8"/>
     </g>
     <g id="line2d_10">
      <g>
       <use xlink:href="#medab66d8e7" x="482.732509" y="320.4" style="fill: #a9a9a9; stroke: #a9a9a9; stroke-width: 0.8"/>
      </g>
     </g>
     <g id="text_5">
      <!-- 2023-07 -->
      <g style="fill: #a9a9a9" transform="translate(461.841103 334.998438) scale(0.1 -0.1)">
       <use xlink:href="#DejaVuSans-32"/>
       <use xlink:href="#DejaVuSans-30" transform="translate(63.623047 0)"/>
       <use xlink:href="#DejaVuSans-32" transform="translate(127.246094 0)"/>
       <use xlink:href="#DejaVuSans-33" transform="translate(190.869141 0)"/>
       <use xlink:href="#DejaVuSans-2d" transform="translate(254.492188 0)"/>
       <use xlink:href="#DejaVuSans-30" transform="translate(290.576172 0)"/>
       <use xlink:href="#DejaVuSans-37" transform="translate(354.199219 0)"/>
      </g>
     </g>
    </g>
    <g id="xtick_6">
     <g id="line2d_11">
      <path d="M 572.337164 320.4 
L 572.337164 43.2 
" clip-path="url(#pa4b8380a6f)" style="fill: none; stroke-dasharray: 5.12,1.28,0.8,1.28; stroke-dashoffset: 0; stroke: #b0b0b0; stroke-width: 0.8"/>
     </g>
     <g id="line2d_12">
      <g>
       <use xlink:href="#medab66d8e7" x="572.337164" y="320.4" style="fill: #a9a9a9; stroke: #a9a9a9; stroke-width: 0.8"/>
      </g>
     </g>
     <g id="text_6">
      <!-- 2024-01 -->
      <g style="fill: #a9a9a9" transform="translate(551.445757 334.998438) scale(0.1 -0.1)">
       <defs>
        <path id="DejaVuSans-34" d="M 2419 4116 
L 825 1625 
L 2419 1625 
L 2419 4116 
z
M 2253 4666 
L 3047 4666 
L 3047 1625 
L 3713 1625 
L 3713 1100 
L 3047 1100 
L 3047 0 
L 2419 0 
L 2419 1100 
L 313 1100 
L 313 1709 
L 2253 4666 
z
" transform="scale(0.015625)"/>
       </defs>
       <use xlink:href="#DejaVuSans-32"/>
       <use xlink:href="#DejaVuSans-30" transform="translate(63.623047 0)"/>
       <use xlink:href="#DejaVuSans-32" transform="translate(127.246094 0)"/>
       <use xlink:href="#DejaVuSans-34" transform="translate(190.869141 0)"/>
       <use xlink:href="#DejaVuSans-2d" transform="translate(254.492188 0)"/>
       <use xlink:href="#DejaVuSans-30" transform="translate(290.576172 0)"/>
       <use xlink:href="#DejaVuSans-31" transform="translate(354.199219 0)"/>
      </g>
     </g>
    </g>
    <g id="xtick_7">
     <g id="line2d_13">
      <path d="M 660.967855 320.4 
L 660.967855 43.2 
" clip-path="url(#pa4b8380a6f)" style="fill: none; stroke-dasharray: 5.12,1.28,0.8,1.28; stroke-dashoffset: 0; stroke: #b0b0b0; stroke-width: 0.8"/>
     </g>
     <g id="line2d_14">
      <g>
       <use xlink:href="#medab66d8e7" x="660.967855" y="320.4" style="fill: #a9a9a9; stroke: #a9a9a9; stroke-width: 0.8"/>
      </g>
     </g>
     <g id="text_7">
      <!-- 2024-07 -->
      <g style="fill: #a9a9a9" transform="translate(640.076448 334.998438) scale(0.1 -0.1)">
       <use xlink:href="#DejaVuSans-32"/>
       <use xlink:href="#DejaVuSans-30" transform="translate(63.623047 0)"/>
       <use xlink:href="#DejaVuSans-32" transform="translate(127.246094 0)"/>
       <use xlink:href="#DejaVuSans-34" transform="translate(190.869141 0)"/>
       <use xlink:href="#DejaVuSans-2d" transform="translate(254.492188 0)"/>
       <use xlink:href="#DejaVuSans-30" transform="translate(290.576172 0)"/>
       <use xlink:href="#DejaVuSans-37" transform="translate(354.199219 0)"/>
      </g>
     </g>
    </g>
    <g id="xtick_8">
     <g id="line2d_15">
      <path d="M 750.572509 320.4 
L 750.572509 43.2 
" clip-path="url(#pa4b8380a6f)" style="fill: none; stroke-dasharray: 5.12,1.28,0.8,1.28; stroke-dashoffset: 0; stroke: #b0b0b0; stroke-width: 0.8"/>
     </g>
     <g id="line2d_16">
      <g>
       <use xlink:href="#medab66d8e7" x="750.572509" y="320.4" style="fill: #a9a9a9; stroke: #a9a9a9; stroke-width: 0.8"/>
      </g>
     </g>
     <g id="text_8">
      <!-- 2025-01 -->
      <g style="fill: #a9a9a9" transform="translate(729.681103 334.998438) scale(0.1 -0.1)">
       <defs>
        <path id="DejaVuSans-35" d="M 691 4666 
L 3169 4666 
L 3169 4134 
L 1269 4134 
L 1269 2991 
Q 1406 3038 1543 3061 
Q 1681 3084 1819 3084 
Q 2600 3084 3056 2656 
Q 3513 2228 3513 1497 
Q 3513 744 3044 326 
Q 2575 -91 1722 -91 
Q 1428 -91 1123 -41 
Q 819 9 494 109 
L 494 744 
Q 775 591 1075 516 
Q 1375 441 1709 441 
Q 2250 441 2565 725 
Q 2881 1009 2881 1497 
Q 2881 1984 2565 2268 
Q 2250 2553 1709 2553 
Q 1456 2553 1204 2497 
Q 953 2441 691 2322 
L 691 4666 
z
" transform="scale(0.015625)"/>
       </defs>
       <use xlink:href="#DejaVuSans-32"/>
       <use xlink:href="#DejaVuSans-30" transform="translate(63.623047 0)"/>
       <use xlink:href="#DejaVuSans-32" transform="translate(127.246094 0)"/>
       <use xlink:href="#DejaVuSans-35" transform="translate(190.869141 0)"/>
       <use xlink:href="#DejaVuSans-2d" transform="translate(254.492188 0)"/>
       <use xlink:href="#DejaVuSans-30" transform="translate(290.576172 0)"/>
       <use xlink:href="#DejaVuSans-31" transform="translate(354.199219 0)"/>
      </g>
     </g>
    </g>
   </g>
   <g id="matplotlib.axis_2">
    <g id="ytick_1">
     <g id="line2d_17">
      <path d="M 108 307.835339 
L 777.6 307.835339 
" clip-path="url(#pa4b8380a6f)" style="fill: none; stroke-dasharray: 5.12,1.28,0.8,1.28; stroke-dashoffset: 0; stroke: #b0b0b0; stroke-width: 0.8"/>
     </g>
     <g id="line2d_18">
      <defs>
       <path id="me1846eecd7" d="M 0 0 
L -3.5 0 
" style="stroke: #a9a9a9; stroke-width: 0.8"/>
      </defs>
      <g>
       <use xlink:href="#me1846eecd7" x="108" y="307.835339" style="fill: #a9a9a9; stroke: #a9a9a9; stroke-width: 0.8"/>
      </g>
     </g>
     <g id="text_9">
      <!-- 0 -->
      <g style="fill: #a9a9a9" transform="translate(94.6375 311.634557) scale(0.1 -0.1)">
       <use xlink:href="#DejaVuSans-30"/>
      </g>
     </g>
    </g>
    <g id="ytick_2">
     <g id="line2d_19">
      <path d="M 108 279.564409 
L 777.6 279.564409 
" clip-path="url(#pa4b8380a6f)" style="fill: none; stroke-dasharray: 5.12,1.28,0.8,1.28; stroke-dashoffset: 0; stroke: #b0b0b0; stroke-width: 0.8"/>
     </g>
     <g id="line2d_20">
      <g>
       <use xlink:href="#me1846eecd7" x="108" y="279.564409" style="fill: #a9a9a9; stroke: #a9a9a9; stroke-width: 0.8"/>
      </g>
     </g>
     <g id="text_10">
      <!-- 800 -->
      <g style="fill: #a9a9a9" transform="translate(81.9125 283.363628) scale(0.1 -0.1)">
       <defs>
        <path id="DejaVuSans-38" d="M 2034 2216 
Q 1584 2216 1326 1975 
Q 1069 1734 1069 1313 
Q 1069 891 1326 650 
Q 1584 409 2034 409 
Q 2484 409 2743 651 
Q 3003 894 3003 1313 
Q 3003 1734 2745 1975 
Q 2488 2216 2034 2216 
z
M 1403 2484 
Q 997 2584 770 2862 
Q 544 3141 544 3541 
Q 544 4100 942 4425 
Q 1341 4750 2034 4750 
Q 2731 4750 3128 4425 
Q 3525 4100 3525 3541 
Q 3525 3141 3298 2862 
Q 3072 2584 2669 2484 
Q 3125 2378 3379 2068 
Q 3634 1759 3634 1313 
Q 3634 634 3220 271 
Q 2806 -91 2034 -91 
Q 1263 -91 848 271 
Q 434 634 434 1313 
Q 434 1759 690 2068 
Q 947 2378 1403 2484 
z
M 1172 3481 
Q 1172 3119 1398 2916 
Q 1625 2713 2034 2713 
Q 2441 2713 2670 2916 
Q 2900 3119 2900 3481 
Q 2900 3844 2670 4047 
Q 2441 4250 2034 4250 
Q 1625 4250 1398 4047 
Q 1172 3844 1172 3481 
z
" transform="scale(0.015625)"/>
       </defs>
       <use xlink:href="#DejaVuSans-38"/>
       <use xlink:href="#DejaVuSans-30" transform="translate(63.623047 0)"/>
       <use xlink:href="#DejaVuSans-30" transform="translate(127.246094 0)"/>
      </g>
     </g>
    </g>
    <g id="ytick_3">
     <g id="line2d_21">
      <path d="M 108 251.293479 
L 777.6 251.293479 
" clip-path="url(#pa4b8380a6f)" style="fill: none; stroke-dasharray: 5.12,1.28,0.8,1.28; stroke-dashoffset: 0; stroke: #b0b0b0; stroke-width: 0.8"/>
     </g>
     <g id="line2d_22">
      <g>
       <use xlink:href="#me1846eecd7" x="108" y="251.293479" style="fill: #a9a9a9; stroke: #a9a9a9; stroke-width: 0.8"/>
      </g>
     </g>
     <g id="text_11">
      <!-- 1600 -->
      <g style="fill: #a9a9a9" transform="translate(75.55 255.092698) scale(0.1 -0.1)">
       <defs>
        <path id="DejaVuSans-36" d="M 2113 2584 
Q 1688 2584 1439 2293 
Q 1191 2003 1191 1497 
Q 1191 994 1439 701 
Q 1688 409 2113 409 
Q 2538 409 2786 701 
Q 3034 994 3034 1497 
Q 3034 2003 2786 2293 
Q 2538 2584 2113 2584 
z
M 3366 4563 
L 3366 3988 
Q 3128 4100 2886 4159 
Q 2644 4219 2406 4219 
Q 1781 4219 1451 3797 
Q 1122 3375 1075 2522 
Q 1259 2794 1537 2939 
Q 1816 3084 2150 3084 
Q 2853 3084 3261 2657 
Q 3669 2231 3669 1497 
Q 3669 778 3244 343 
Q 2819 -91 2113 -91 
Q 1303 -91 875 529 
Q 447 1150 447 2328 
Q 447 3434 972 4092 
Q 1497 4750 2381 4750 
Q 2619 4750 2861 4703 
Q 3103 4656 3366 4563 
z
" transform="scale(0.015625)"/>
       </defs>
       <use xlink:href="#DejaVuSans-31"/>
       <use xlink:href="#DejaVuSans-36" transform="translate(63.623047 0)"/>
       <use xlink:href="#DejaVuSans-30" transform="translate(127.246094 0)"/>
       <use xlink:href="#DejaVuSans-30" transform="translate(190.869141 0)"/>
      </g>
     </g>
    </g>
    <g id="ytick_4">
     <g id="line2d_23">
      <path d="M 108 223.022549 
L 777.6 223.022549 
" clip-path="url(#pa4b8380a6f)" style="fill: none; stroke-dasharray: 5.12,1.28,0.8,1.28; stroke-dashoffset: 0; stroke: #b0b0b0; stroke-width: 0.8"/>
     </g>
     <g id="line2d_24">
      <g>
       <use xlink:href="#me1846eecd7" x="108" y="223.022549" style="fill: #a9a9a9; stroke: #a9a9a9; stroke-width: 0.8"/>
      </g>
     </g>
     <g id="text_12">
      <!-- 2400 -->
      <g style="fill: #a9a9a9" transform="translate(75.55 226.821768) scale(0.1 -0.1)">
       <use xlink:href="#DejaVuSans-32"/>
       <use xlink:href="#DejaVuSans-34" transform="translate(63.623047 0)"/>
       <use xlink:href="#DejaVuSans-30" transform="translate(127.246094 0)"/>
       <use xlink:href="#DejaVuSans-30" transform="translate(190.869141 0)"/>
      </g>
     </g>
    </g>
    <g id="ytick_5">
     <g id="line2d_25">
      <path d="M 108 194.75162 
L 777.6 194.75162 
" clip-path="url(#pa4b8380a6f)" style="fill: none; stroke-dasharray: 5.12,1.28,0.8,1.28; stroke-dashoffset: 0; stroke: #b0b0b0; stroke-width: 0.8"/>
     </g>
     <g id="line2d_26">
      <g>
       <use xlink:href="#me1846eecd7" x="108" y="194.75162" style="fill: #a9a9a9; stroke: #a9a9a9; stroke-width: 0.8"/>
      </g>
     </g>
     <g id="text_13">
      <!-- 3200 -->
      <g style="fill: #a9a9a9" transform="translate(75.55 198.550838) scale(0.1 -0.1)">
       <use xlink:href="#DejaVuSans-33"/>
       <use xlink:href="#DejaVuSans-32" transform="translate(63.623047 0)"/>
       <use xlink:href="#DejaVuSans-30" transform="translate(127.246094 0)"/>
       <use xlink:href="#DejaVuSans-30" transform="translate(190.869141 0)"/>
      </g>
     </g>
    </g>
    <g id="ytick_6">
     <g id="line2d_27">
      <path d="M 108 166.48069 
L 777.6 166.48069 
" clip-path="url(#pa4b8380a6f)" style="fill: none; stroke-dasharray: 5.12,1.28,0.8,1.28; stroke-dashoffset: 0; stroke: #b0b0b0; stroke-width: 0.8"/>
     </g>
     <g id="line2d_28">
      <g>
       <use xlink:href="#me1846eecd7" x="108" y="166.48069" style="fill: #a9a9a9; stroke: #a9a9a9; stroke-width: 0.8"/>
      </g>
     </g>
     <g id="text_14">
      <!-- 4000 -->
      <g style="fill: #a9a9a9" transform="translate(75.55 170.279909) scale(0.1 -0.1)">
       <use xlink:href="#DejaVuSans-34"/>
       <use xlink:href="#DejaVuSans-30" transform="translate(63.623047 0)"/>
       <use xlink:href="#DejaVuSans-30" transform="translate(127.246094 0)"/>
       <use xlink:href="#DejaVuSans-30" transform="translate(190.869141 0)"/>
      </g>
     </g>
    </g>
    <g id="ytick_7">
     <g id="line2d_29">
      <path d="M 108 138.20976 
L 777.6 138.20976 
" clip-path="url(#pa4b8380a6f)" style="fill: none; stroke-dasharray: 5.12,1.28,0.8,1.28; stroke-dashoffset: 0; stroke: #b0b0b0; stroke-width: 0.8"/>
     </g>
     <g id="line2d_30">
      <g>
       <use xlink:href="#me1846eecd7" x="108" y="138.20976" style="fill: #a9a9a9; stroke: #a9a9a9; stroke-width: 0.8"/>
      </g>
     </g>
     <g id="text_15">
      <!-- 4800 -->
      <g style="fill: #a9a9a9" transform="translate(75.55 142.008979) scale(0.1 -0.1)">
       <use xlink:href="#DejaVuSans-34"/>
       <use xlink:href="#DejaVuSans-38" transform="translate(63.623047 0)"/>
       <use xlink:href="#DejaVuSans-30" transform="translate(127.246094 0)"/>
       <use xlink:href="#DejaVuSans-30" transform="translate(190.869141 0)"/>
      </g>
     </g>
    </g>
    <g id="ytick_8">
     <g id="line2d_31">
      <path d="M 108 109.93883 
L 777.6 109.93883 
" clip-path="url(#pa4b8380a6f)" style="fill: none; stroke-dasharray: 5.12,1.28,0.8,1.28; stroke-dashoffset: 0; stroke: #b0b0b0; stroke-width: 0.8"/>
     </g>
     <g id="line2d_32">
      <g>
       <use xlink:href="#me1846eecd7" x="108" y="109.93883" style="fill: #a9a9a9; stroke: #a9a9a9; stroke-width: 0.8"/>
      </g>
     </g>
     <g id="text_16">
      <!-- 5600 -->
      <g style="fill: #a9a9a9" transform="translate(75.55 113.738049) scale(0.1 -0.1)">
       <use xlink:href="#DejaVuSans-35"/>
       <use xlink:href="#DejaVuSans-36" transform="translate(63.623047 0)"/>
       <use xlink:href="#DejaVuSans-30" transform="translate(127.246094 0)"/>
       <use xlink:href="#DejaVuSans-30" transform="translate(190.869141 0)"/>
      </g>
     </g>
    </g>
    <g id="ytick_9">
     <g id="line2d_33">
      <path d="M 108 81.667901 
L 777.6 81.667901 
" clip-path="url(#pa4b8380a6f)" style="fill: none; stroke-dasharray: 5.12,1.28,0.8,1.28; stroke-dashoffset: 0; stroke: #b0b0b0; stroke-width: 0.8"/>
     </g>
     <g id="line2d_34">
      <g>
       <use xlink:href="#me1846eecd7" x="108" y="81.667901" style="fill: #a9a9a9; stroke: #a9a9a9; stroke-width: 0.8"/>
      </g>
     </g>
     <g id="text_17">
      <!-- 6400 -->
      <g style="fill: #a9a9a9" transform="translate(75.55 85.467119) scale(0.1 -0.1)">
       <use xlink:href="#DejaVuSans-36"/>
       <use xlink:href="#DejaVuSans-34" transform="translate(63.623047 0)"/>
       <use xlink:href="#DejaVuSans-30" transform="translate(127.246094 0)"/>
       <use xlink:href="#DejaVuSans-30" transform="translate(190.869141 0)"/>
      </g>
     </g>
    </g>
    <g id="ytick_10">
     <g id="line2d_35">
      <path d="M 108 53.396971 
L 777.6 53.396971 
" clip-path="url(#pa4b8380a6f)" style="fill: none; stroke-dasharray: 5.12,1.28,0.8,1.28; stroke-dashoffset: 0; stroke: #b0b0b0; stroke-width: 0.8"/>
     </g>
     <g id="line2d_36">
      <g>
       <use xlink:href="#me1846eecd7" x="108" y="53.396971" style="fill: #a9a9a9; stroke: #a9a9a9; stroke-width: 0.8"/>
      </g>
     </g>
     <g id="text_18">
      <!-- 7200 -->
      <g style="fill: #a9a9a9" transform="translate(75.55 57.19619) scale(0.1 -0.1)">
       <use xlink:href="#DejaVuSans-37"/>
       <use xlink:href="#DejaVuSans-32" transform="translate(63.623047 0)"/>
       <use xlink:href="#DejaVuSans-30" transform="translate(127.246094 0)"/>
       <use xlink:href="#DejaVuSans-30" transform="translate(190.869141 0)"/>
      </g>
     </g>
    </g>
   </g>
   <g id="line2d_37">
    <path d="M 138.436364 307.729323 
L 141.358255 307.481952 
L 141.845236 307.26992 
L 143.793164 307.022549 
L 145.741091 306.633824 
L 146.715055 306.492469 
L 149.149964 306.280438 
L 150.123927 305.891712 
L 150.610909 305.255616 
L 151.097891 304.90223 
L 151.584873 303.806731 
L 152.071855 303.736054 
L 152.558836 303.347329 
L 153.5328 302.852587 
L 155.480727 301.297686 
L 157.428655 300.343542 
L 158.8896 299.672108 
L 159.376582 298.894657 
L 160.350545 298.187884 
L 160.837527 297.975852 
L 165.707345 297.269079 
L 166.194327 297.057047 
L 169.6032 296.774337 
L 171.551127 296.314935 
L 175.446982 295.784855 
L 175.933964 295.537484 
L 176.420945 295.466807 
L 177.394909 295.148759 
L 180.803782 294.58334 
L 181.777745 294.300631 
L 186.160582 293.558519 
L 187.134545 293.346487 
L 188.108509 293.311149 
L 190.056436 292.851746 
L 190.543418 292.180311 
L 192.004364 291.614893 
L 193.465309 291.226167 
L 193.952291 290.978797 
L 194.926255 290.802103 
L 196.874182 290.236685 
L 197.848145 290.166008 
L 198.822109 289.918637 
L 200.770036 289.423896 
L 201.257018 289.388557 
L 202.230982 288.929154 
L 202.717964 288.858477 
L 203.204945 288.611106 
L 208.561745 287.72764 
L 210.509673 287.162221 
L 210.996655 286.844173 
L 213.431564 286.031384 
L 214.405527 285.35995 
L 215.866473 285.07724 
L 228.528 281.508035 
L 229.014982 281.508035 
L 229.501964 281.296003 
L 230.475927 281.189987 
L 230.962909 281.013294 
L 232.910836 280.907278 
L 233.8848 280.730585 
L 234.858764 280.235844 
L 236.319709 279.705764 
L 236.806691 279.387716 
L 237.780655 278.963652 
L 238.267636 278.716281 
L 239.2416 278.398233 
L 239.728582 278.256878 
L 240.702545 277.656121 
L 241.189527 277.126041 
L 242.163491 275.641817 
L 242.650473 275.500463 
L 243.137455 275.500463 
L 244.5984 274.652335 
L 245.085382 274.404964 
L 245.572364 274.298948 
L 246.059345 273.839546 
L 247.033309 273.45082 
L 248.007273 272.991418 
L 248.494255 272.39066 
L 248.981236 271.61321 
L 249.468218 271.295162 
L 249.9552 270.447034 
L 250.442182 269.916954 
L 253.364073 268.362053 
L 254.338036 267.584602 
L 254.825018 267.266554 
L 255.312 266.524443 
L 255.798982 265.428944 
L 256.285964 264.686832 
L 256.772945 264.298107 
L 257.259927 264.086075 
L 260.6688 261.188305 
L 261.642764 260.022129 
L 263.103709 258.997308 
L 265.051636 257.831132 
L 266.0256 257.301052 
L 267.973527 256.276231 
L 270.408436 254.085233 
L 271.3824 253.696508 
L 272.356364 253.025074 
L 272.843345 252.742364 
L 273.330327 252.671687 
L 274.791273 251.858898 
L 275.278255 251.328818 
L 277.713164 250.021287 
L 278.200145 249.844594 
L 279.661091 248.855111 
L 286.965818 246.275389 
L 287.939782 245.391923 
L 288.913745 244.93252 
L 289.887709 244.40244 
L 290.374691 244.119731 
L 291.348655 243.837021 
L 291.835636 243.518973 
L 292.322618 243.377619 
L 293.783564 242.423475 
L 296.218473 241.858056 
L 297.679418 241.009928 
L 299.140364 240.691881 
L 299.627345 240.550526 
L 301.088291 239.455027 
L 303.036218 238.924947 
L 303.5232 238.536222 
L 306.445091 237.54674 
L 307.419055 237.370046 
L 308.393018 236.981321 
L 311.801891 235.744468 
L 312.775855 235.603113 
L 314.2368 235.108372 
L 316.671709 233.942196 
L 318.619636 232.882036 
L 322.515491 231.291796 
L 323.002473 231.221119 
L 323.976436 230.620362 
L 324.463418 230.549684 
L 326.411345 229.736895 
L 328.359273 229.489525 
L 329.333236 228.994783 
L 329.820218 228.570719 
L 330.3072 227.687253 
L 332.255127 227.157173 
L 333.716073 226.415061 
L 334.203055 226.309045 
L 338.098909 224.436096 
L 339.559855 224.153387 
L 340.533818 223.658645 
L 341.0208 223.446613 
L 341.507782 223.375936 
L 343.455709 222.492469 
L 344.916655 221.573664 
L 346.3776 221.290955 
L 348.812509 220.690198 
L 349.299491 220.301472 
L 350.760436 219.771393 
L 352.708364 218.993942 
L 353.195345 218.640555 
L 353.682327 218.463862 
L 354.656291 217.933782 
L 357.0912 217.120993 
L 358.552145 215.954817 
L 359.039127 215.848801 
L 360.013091 215.07135 
L 360.500073 215.000673 
L 360.987055 214.223223 
L 361.474036 214.011191 
L 361.961018 213.622465 
L 362.448 213.551788 
L 363.421964 212.951031 
L 364.395927 212.632983 
L 364.882909 212.279596 
L 365.369891 212.102903 
L 366.830836 211.078082 
L 368.778764 210.05326 
L 369.265745 209.982583 
L 370.726691 209.240471 
L 371.213673 208.427682 
L 372.187636 207.720909 
L 372.674618 207.614893 
L 373.648582 207.014135 
L 374.135564 206.908119 
L 375.109527 206.413378 
L 377.057455 205.459234 
L 377.544436 205.105848 
L 378.5184 204.151704 
L 379.492364 203.550947 
L 379.979345 203.232899 
L 380.466327 202.702819 
L 382.414255 201.35995 
L 382.901236 200.794531 
L 383.388218 200.405806 
L 384.362182 200.052419 
L 385.336145 199.380984 
L 386.797091 198.638873 
L 387.284073 198.568195 
L 388.745018 197.790745 
L 389.718982 197.189987 
L 394.5888 195.423054 
L 395.075782 195.034329 
L 397.023709 194.292217 
L 397.510691 194.150862 
L 398.484655 193.514767 
L 399.458618 193.090703 
L 400.432582 192.419268 
L 401.406545 190.475642 
L 402.380509 189.344804 
L 403.841455 188.602692 
L 404.815418 188.213967 
L 405.3024 188.14329 
L 405.789382 187.860581 
L 408.224291 187.08313 
L 408.711273 186.871098 
L 409.685236 186.199663 
L 411.146182 185.563568 
L 412.120145 185.033488 
L 412.607127 184.680101 
L 413.094109 184.468069 
L 413.581091 184.114682 
L 414.068073 183.584602 
L 415.042036 183.054523 
L 417.476945 181.746992 
L 420.398836 180.298107 
L 421.859782 179.874043 
L 423.320727 179.308624 
L 423.807709 178.955238 
L 424.781673 178.672528 
L 425.755636 178.283803 
L 426.242618 177.895078 
L 428.190545 177.223643 
L 429.164509 176.51687 
L 430.138473 176.092806 
L 431.112436 175.315355 
L 432.0864 174.961969 
L 432.573382 174.537905 
L 433.060364 174.467228 
L 434.034327 173.725116 
L 435.008291 173.230374 
L 435.495273 173.018342 
L 435.982255 172.523601 
L 439.391127 171.180732 
L 440.365091 170.756668 
L 441.826036 170.297265 
L 442.8 170.155911 
L 443.286982 169.943879 
L 443.773964 169.873202 
L 444.747927 169.449138 
L 445.234909 169.413799 
L 447.182836 168.671687 
L 448.643782 167.646866 
L 449.130764 167.470172 
L 450.104727 166.940093 
L 450.591709 166.798738 
L 453.5136 165.173159 
L 454.000582 165.067143 
L 455.461527 164.219016 
L 456.922473 163.724274 
L 457.896436 163.406226 
L 459.844364 162.77013 
L 460.818327 162.452082 
L 462.766255 162.063357 
L 463.253236 161.851325 
L 463.740218 161.780648 
L 464.714182 161.356584 
L 465.201164 161.285907 
L 465.688145 161.038536 
L 466.662109 160.861843 
L 468.123055 160.331763 
L 469.097018 160.225747 
L 470.557964 159.907699 
L 472.992873 159.483635 
L 485.6544 155.808414 
L 486.141382 155.313673 
L 487.115345 154.924947 
L 491.0112 153.476062 
L 491.498182 153.193353 
L 492.959127 152.769289 
L 493.933091 152.521918 
L 494.420073 152.20387 
L 494.907055 152.097854 
L 495.394036 151.67379 
L 496.854982 151.391081 
L 497.828945 150.931679 
L 498.315927 150.36626 
L 500.263855 149.906857 
L 503.672727 149.200084 
L 504.159709 149.200084 
L 504.646691 148.988052 
L 506.594618 148.634666 
L 507.0816 148.422634 
L 509.029527 148.069247 
L 510.003491 147.645183 
L 510.977455 147.46849 
L 513.412364 146.867732 
L 515.360291 146.266975 
L 515.847273 146.160959 
L 516.334255 145.913589 
L 517.308218 145.666218 
L 517.7952 145.383509 
L 519.256145 144.888767 
L 519.743127 144.570719 
L 520.717091 144.28801 
L 524.612945 142.945141 
L 525.586909 142.874464 
L 527.534836 142.309045 
L 528.021818 142.026336 
L 528.995782 141.743626 
L 531.430691 140.648128 
L 531.917673 140.612789 
L 537.274473 138.73984 
L 539.709382 138.103744 
L 540.683345 137.644342 
L 542.144291 137.326294 
L 544.092218 135.736054 
L 545.066182 135.453345 
L 545.553164 135.064619 
L 548.475055 133.969121 
L 548.962036 133.651073 
L 549.936 133.368363 
L 550.422982 133.050316 
L 552.857891 132.272865 
L 554.318836 131.424737 
L 554.805818 131.318721 
L 557.240727 130.011191 
L 558.701673 129.375095 
L 559.188655 129.021708 
L 560.162618 128.70366 
L 561.136582 128.138241 
L 561.623564 127.961548 
L 562.110545 127.608162 
L 568.441309 125.381826 
L 568.928291 125.27581 
L 569.415273 124.957762 
L 571.3632 124.569037 
L 572.337164 124.180311 
L 575.259055 122.766765 
L 575.746036 122.696088 
L 577.206982 121.883298 
L 578.667927 121.388557 
L 582.0768 120.010349 
L 582.563782 119.868995 
L 583.050764 119.550947 
L 584.024727 119.444931 
L 584.511709 119.126883 
L 585.485673 118.950189 
L 586.459636 118.490787 
L 586.946618 118.278755 
L 587.4336 118.208077 
L 589.868509 117.253934 
L 591.329455 116.865208 
L 592.303418 116.617838 
L 593.764364 116.193774 
L 594.738327 115.805048 
L 596.686255 114.744889 
L 597.660218 114.356163 
L 598.1472 114.038115 
L 599.121164 113.826083 
L 599.608145 113.543374 
L 600.095127 113.437358 
L 601.556073 112.624569 
L 602.530036 112.235844 
L 604.477964 111.493732 
L 606.912873 110.680942 
L 607.886836 110.186201 
L 610.321745 109.373412 
L 613.243636 108.207236 
L 615.191564 107.323769 
L 620.061382 105.45082 
L 620.548364 105.132772 
L 622.496291 104.461338 
L 622.983273 104.461338 
L 623.957236 104.037274 
L 625.905164 102.482373 
L 626.392145 102.341018 
L 626.879127 102.02297 
L 627.366109 101.916954 
L 627.853091 101.669584 
L 628.340073 101.598906 
L 628.827055 101.24552 
L 629.314036 101.139504 
L 630.288 100.538746 
L 631.748945 99.796634 
L 632.722909 99.407909 
L 633.209891 99.160538 
L 634.670836 98.842491 
L 637.105745 98.029701 
L 638.079709 97.711653 
L 639.540655 96.969541 
L 640.514618 96.510139 
L 641.488582 96.262768 
L 642.949527 95.591334 
L 647.332364 94.001094 
L 648.793309 93.117627 
L 649.280291 93.011611 
L 650.254255 92.51687 
L 651.228218 92.163483 
L 651.7152 91.739419 
L 652.689164 91.350694 
L 655.611055 90.184518 
L 657.072 89.760454 
L 657.558982 89.513084 
L 658.045964 89.442406 
L 659.506909 88.912326 
L 660.967855 88.382247 
L 661.941818 87.993521 
L 662.4288 87.604796 
L 663.889745 87.216071 
L 664.376727 86.933361 
L 665.350691 86.685991 
L 666.811636 85.873202 
L 667.298618 85.837863 
L 668.759564 85.37846 
L 669.733527 85.307783 
L 670.707491 84.919058 
L 673.629382 84.07093 
L 674.603345 84.035591 
L 678.4992 82.798738 
L 679.473164 82.268658 
L 679.960145 81.844594 
L 681.421091 80.996466 
L 682.395055 80.395709 
L 685.316945 79.476904 
L 685.803927 79.088178 
L 688.725818 77.886664 
L 690.673745 77.356584 
L 691.647709 76.93252 
L 692.134691 76.685149 
L 693.108655 76.40244 
L 693.595636 76.119731 
L 694.5696 75.943037 
L 697.004509 74.8122 
L 697.491491 74.529491 
L 698.952436 74.176104 
L 699.439418 73.858056 
L 699.9264 73.681363 
L 700.413382 73.257299 
L 700.900364 73.186622 
L 702.848291 72.409171 
L 704.796218 71.949769 
L 705.2832 71.879091 
L 705.770182 71.667059 
L 706.257164 71.631721 
L 707.231127 71.313673 
L 707.718109 71.278334 
L 709.179055 70.712915 
L 711.126982 70.147497 
L 712.100945 69.405385 
L 714.048873 68.345225 
L 715.509818 67.850484 
L 718.431709 66.542953 
L 719.405673 66.012873 
L 719.892655 65.765503 
L 720.379636 65.3061 
L 723.301527 64.351956 
L 724.275491 63.963231 
L 725.249455 63.680522 
L 725.736436 63.433151 
L 726.223418 62.973748 
L 728.171345 62.479007 
L 728.658327 62.125621 
L 734.989091 59.828607 
L 735.963055 59.651914 
L 740.345891 58.132352 
L 741.319855 57.884981 
L 741.806836 57.672949 
L 742.293818 57.63761 
L 743.267782 57.248885 
L 744.241745 56.648128 
L 744.728727 56.471435 
L 745.215709 56.436096 
L 747.163636 55.8 
L 747.163636 55.8 
" clip-path="url(#pa4b8380a6f)" style="fill: none; stroke: #1f77b4; stroke-width: 1.5; stroke-linecap: square"/>
   </g>
   <g id="line2d_38">
    <path d="M 138.923345 307.8 
L 143.306182 307.693984 
L 147.202036 307.517291 
L 149.149964 307.517291 
L 149.636945 307.375936 
L 152.071855 307.26992 
L 154.993745 306.951872 
L 157.915636 306.845856 
L 158.8896 306.73984 
L 162.298473 306.598485 
L 165.707345 306.492469 
L 168.142255 306.421792 
L 174.473018 306.315776 
L 176.907927 306.245099 
L 180.3168 306.139083 
L 182.751709 306.068406 
L 188.108509 305.96239 
L 190.056436 305.785696 
L 192.004364 305.750358 
L 194.926255 305.644342 
L 196.874182 305.609003 
L 199.309091 305.538326 
L 201.257018 305.361632 
L 205.639855 305.255616 
L 206.613818 305.184939 
L 208.561745 305.078923 
L 211.483636 304.972907 
L 213.431564 304.866891 
L 222.197236 304.336811 
L 225.606109 304.230795 
L 227.067055 304.08944 
L 229.501964 303.983424 
L 234.371782 303.736054 
L 239.2416 303.665377 
L 241.189527 303.453345 
L 243.137455 303.347329 
L 248.494255 302.852587 
L 251.903127 302.463862 
L 253.364073 302.393185 
L 257.746909 301.863105 
L 260.181818 301.792427 
L 261.642764 301.651073 
L 263.103709 301.545057 
L 276.7392 300.520236 
L 277.713164 300.343542 
L 280.635055 300.237526 
L 288.426764 299.778124 
L 291.835636 299.672108 
L 293.783564 299.460076 
L 296.218473 299.35406 
L 299.140364 299.248044 
L 301.575273 299.142028 
L 303.5232 299.106689 
L 305.958109 299.036012 
L 306.932073 298.894657 
L 313.749818 298.788641 
L 314.723782 298.682625 
L 320.567564 298.576609 
L 324.9504 298.364577 
L 328.359273 298.258561 
L 330.3072 298.046529 
L 333.716073 297.940513 
L 334.690036 297.76382 
L 337.124945 297.693143 
L 341.994764 297.622465 
L 344.429673 297.375095 
L 347.351564 297.269079 
L 349.299491 297.092385 
L 354.169309 296.845015 
L 359.039127 296.738999 
L 363.421964 296.526967 
L 364.882909 296.491628 
L 365.856873 296.350273 
L 368.291782 296.244257 
L 369.265745 296.17358 
L 370.239709 296.102903 
L 371.213673 296.032225 
L 375.596509 295.961548 
L 377.057455 295.855532 
L 390.205964 295.007404 
L 392.640873 294.901388 
L 395.075782 294.830711 
L 401.893527 294.724695 
L 402.867491 294.58334 
L 409.685236 294.477324 
L 414.555055 294.229954 
L 415.529018 294.194615 
L 416.502982 294.088599 
L 418.937891 293.982583 
L 421.3728 293.911906 
L 423.807709 293.80589 
L 426.242618 293.735212 
L 430.625455 293.629196 
L 433.547345 293.52318 
L 440.365091 293.417164 
L 445.721891 293.134455 
L 447.669818 293.063778 
L 449.130764 292.957762 
L 455.948509 292.851746 
L 458.8704 292.74573 
L 467.636073 292.639714 
L 469.584 292.604375 
L 475.427782 292.533698 
L 476.401745 292.463021 
L 483.219491 292.357005 
L 485.167418 292.321666 
L 497.828945 292.21565 
L 499.289891 292.074295 
L 521.204073 291.968279 
L 523.638982 291.897602 
L 536.300509 291.791586 
L 537.274473 291.720909 
L 539.709382 291.650231 
L 541.170327 291.508877 
L 544.092218 291.402861 
L 547.501091 291.261506 
L 551.883927 291.15549 
L 554.318836 291.084813 
L 557.727709 290.978797 
L 561.623564 290.802103 
L 564.058473 290.696088 
L 566.0064 290.660749 
L 570.389236 290.554733 
L 572.337164 290.519394 
L 578.667927 290.413378 
L 580.615855 290.37804 
L 583.050764 290.272024 
L 585.972655 290.166008 
L 589.381527 290.09533 
L 590.355491 290.024653 
L 602.043055 289.918637 
L 608.373818 289.56525 
L 610.808727 289.494573 
L 611.782691 289.388557 
L 612.756655 289.31788 
L 616.652509 289.211864 
L 619.5744 289.105848 
L 624.444218 288.999832 
L 626.879127 288.752461 
L 631.748945 288.646445 
L 632.722909 288.540429 
L 637.592727 288.434413 
L 640.027636 288.363736 
L 645.384436 288.328397 
L 646.3584 288.222381 
L 651.7152 288.116365 
L 652.689164 288.045688 
L 663.402764 287.939672 
L 666.324655 287.833656 
L 673.629382 287.72764 
L 675.577309 287.692301 
L 679.960145 287.621624 
L 680.934109 287.515608 
L 687.264873 287.409592 
L 689.699782 287.338915 
L 698.465455 287.232899 
L 699.9264 287.126883 
L 701.387345 287.020867 
L 702.848291 286.914851 
L 710.153018 286.808835 
L 713.074909 286.702819 
L 726.223418 286.596803 
L 730.606255 286.384771 
L 736.450036 286.278755 
L 737.424 286.172739 
L 744.728727 286.102061 
L 745.702691 286.031384 
L 747.163636 285.996045 
L 747.163636 285.996045 
" clip-path="url(#pa4b8380a6f)" style="fill: none; stroke: #ff7f0e; stroke-width: 1.5; stroke-linecap: square"/>
   </g>
   <g id="patch_3">
    <path d="M 108 320.4 
L 108 43.2 
" style="fill: none; stroke: #a9a9a9; stroke-width: 0.8; stroke-linejoin: miter; stroke-linecap: square"/>
   </g>
   <g id="patch_4">
    <path d="M 777.6 320.4 
L 777.6 43.2 
" style="fill: none"/>
   </g>
   <g id="patch_5">
    <path d="M 108 320.4 
L 777.6 320.4 
" style="fill: none; stroke: #a9a9a9; stroke-width: 0.8; stroke-linejoin: miter; stroke-linecap: square"/>
   </g>
   <g id="patch_6">
    <path d="M 108 43.2 
L 777.6 43.2 
" style="fill: none"/>
   </g>
   <g id="text_19">
    <!-- get_subscribe history -->
    <g style="fill: #a9a9a9" transform="translate(378.6075 37.2) scale(0.12 -0.12)">
     <defs>
      <path id="DejaVuSans-67" d="M 2906 1791 
Q 2906 2416 2648 2759 
Q 2391 3103 1925 3103 
Q 1463 3103 1205 2759 
Q 947 2416 947 1791 
Q 947 1169 1205 825 
Q 1463 481 1925 481 
Q 2391 481 2648 825 
Q 2906 1169 2906 1791 
z
M 3481 434 
Q 3481 -459 3084 -895 
Q 2688 -1331 1869 -1331 
Q 1566 -1331 1297 -1286 
Q 1028 -1241 775 -1147 
L 775 -588 
Q 1028 -725 1275 -790 
Q 1522 -856 1778 -856 
Q 2344 -856 2625 -561 
Q 2906 -266 2906 331 
L 2906 616 
Q 2728 306 2450 153 
Q 2172 0 1784 0 
Q 1141 0 747 490 
Q 353 981 353 1791 
Q 353 2603 747 3093 
Q 1141 3584 1784 3584 
Q 2172 3584 2450 3431 
Q 2728 3278 2906 2969 
L 2906 3500 
L 3481 3500 
L 3481 434 
z
" transform="scale(0.015625)"/>
      <path id="DejaVuSans-65" d="M 3597 1894 
L 3597 1613 
L 953 1613 
Q 991 1019 1311 708 
Q 1631 397 2203 397 
Q 2534 397 2845 478 
Q 3156 559 3463 722 
L 3463 178 
Q 3153 47 2828 -22 
Q 2503 -91 2169 -91 
Q 1331 -91 842 396 
Q 353 884 353 1716 
Q 353 2575 817 3079 
Q 1281 3584 2069 3584 
Q 2775 3584 3186 3129 
Q 3597 2675 3597 1894 
z
M 3022 2063 
Q 3016 2534 2758 2815 
Q 2500 3097 2075 3097 
Q 1594 3097 1305 2825 
Q 1016 2553 972 2059 
L 3022 2063 
z
" transform="scale(0.015625)"/>
      <path id="DejaVuSans-74" d="M 1172 4494 
L 1172 3500 
L 2356 3500 
L 2356 3053 
L 1172 3053 
L 1172 1153 
Q 1172 725 1289 603 
Q 1406 481 1766 481 
L 2356 481 
L 2356 0 
L 1766 0 
Q 1100 0 847 248 
Q 594 497 594 1153 
L 594 3053 
L 172 3053 
L 172 3500 
L 594 3500 
L 594 4494 
L 1172 4494 
z
" transform="scale(0.015625)"/>
      <path id="DejaVuSans-5f" d="M 3263 -1063 
L 3263 -1509 
L -63 -1509 
L -63 -1063 
L 3263 -1063 
z
" transform="scale(0.015625)"/>
      <path id="DejaVuSans-73" d="M 2834 3397 
L 2834 2853 
Q 2591 2978 2328 3040 
Q 2066 3103 1784 3103 
Q 1356 3103 1142 2972 
Q 928 2841 928 2578 
Q 928 2378 1081 2264 
Q 1234 2150 1697 2047 
L 1894 2003 
Q 2506 1872 2764 1633 
Q 3022 1394 3022 966 
Q 3022 478 2636 193 
Q 2250 -91 1575 -91 
Q 1294 -91 989 -36 
Q 684 19 347 128 
L 347 722 
Q 666 556 975 473 
Q 1284 391 1588 391 
Q 1994 391 2212 530 
Q 2431 669 2431 922 
Q 2431 1156 2273 1281 
Q 2116 1406 1581 1522 
L 1381 1569 
Q 847 1681 609 1914 
Q 372 2147 372 2553 
Q 372 3047 722 3315 
Q 1072 3584 1716 3584 
Q 2034 3584 2315 3537 
Q 2597 3491 2834 3397 
z
" transform="scale(0.015625)"/>
      <path id="DejaVuSans-75" d="M 544 1381 
L 544 3500 
L 1119 3500 
L 1119 1403 
Q 1119 906 1312 657 
Q 1506 409 1894 409 
Q 2359 409 2629 706 
Q 2900 1003 2900 1516 
L 2900 3500 
L 3475 3500 
L 3475 0 
L 2900 0 
L 2900 538 
Q 2691 219 2414 64 
Q 2138 -91 1772 -91 
Q 1169 -91 856 284 
Q 544 659 544 1381 
z
M 1991 3584 
L 1991 3584 
z
" transform="scale(0.015625)"/>
      <path id="DejaVuSans-62" d="M 3116 1747 
Q 3116 2381 2855 2742 
Q 2594 3103 2138 3103 
Q 1681 3103 1420 2742 
Q 1159 2381 1159 1747 
Q 1159 1113 1420 752 
Q 1681 391 2138 391 
Q 2594 391 2855 752 
Q 3116 1113 3116 1747 
z
M 1159 2969 
Q 1341 3281 1617 3432 
Q 1894 3584 2278 3584 
Q 2916 3584 3314 3078 
Q 3713 2572 3713 1747 
Q 3713 922 3314 415 
Q 2916 -91 2278 -91 
Q 1894 -91 1617 61 
Q 1341 213 1159 525 
L 1159 0 
L 581 0 
L 581 4863 
L 1159 4863 
L 1159 2969 
z
" transform="scale(0.015625)"/>
      <path id="DejaVuSans-63" d="M 3122 3366 
L 3122 2828 
Q 2878 2963 2633 3030 
Q 2388 3097 2138 3097 
Q 1578 3097 1268 2742 
Q 959 2388 959 1747 
Q 959 1106 1268 751 
Q 1578 397 2138 397 
Q 2388 397 2633 464 
Q 2878 531 3122 666 
L 3122 134 
Q 2881 22 2623 -34 
Q 2366 -91 2075 -91 
Q 1284 -91 818 406 
Q 353 903 353 1747 
Q 353 2603 823 3093 
Q 1294 3584 2113 3584 
Q 2378 3584 2631 3529 
Q 2884 3475 3122 3366 
z
" transform="scale(0.015625)"/>
      <path id="DejaVuSans-72" d="M 2631 2963 
Q 2534 3019 2420 3045 
Q 2306 3072 2169 3072 
Q 1681 3072 1420 2755 
Q 1159 2438 1159 1844 
L 1159 0 
L 581 0 
L 581 3500 
L 1159 3500 
L 1159 2956 
Q 1341 3275 1631 3429 
Q 1922 3584 2338 3584 
Q 2397 3584 2469 3576 
Q 2541 3569 2628 3553 
L 2631 2963 
z
" transform="scale(0.015625)"/>
      <path id="DejaVuSans-69" d="M 603 3500 
L 1178 3500 
L 1178 0 
L 603 0 
L 603 3500 
z
M 603 4863 
L 1178 4863 
L 1178 4134 
L 603 4134 
L 603 4863 
z
" transform="scale(0.015625)"/>
      <path id="DejaVuSans-20" transform="scale(0.015625)"/>
      <path id="DejaVuSans-68" d="M 3513 2113 
L 3513 0 
L 2938 0 
L 2938 2094 
Q 2938 2591 2744 2837 
Q 2550 3084 2163 3084 
Q 1697 3084 1428 2787 
Q 1159 2491 1159 1978 
L 1159 0 
L 581 0 
L 581 4863 
L 1159 4863 
L 1159 2956 
Q 1366 3272 1645 3428 
Q 1925 3584 2291 3584 
Q 2894 3584 3203 3211 
Q 3513 2838 3513 2113 
z
" transform="scale(0.015625)"/>
      <path id="DejaVuSans-6f" d="M 1959 3097 
Q 1497 3097 1228 2736 
Q 959 2375 959 1747 
Q 959 1119 1226 758 
Q 1494 397 1959 397 
Q 2419 397 2687 759 
Q 2956 1122 2956 1747 
Q 2956 2369 2687 2733 
Q 2419 3097 1959 3097 
z
M 1959 3584 
Q 2709 3584 3137 3096 
Q 3566 2609 3566 1747 
Q 3566 888 3137 398 
Q 2709 -91 1959 -91 
Q 1206 -91 779 398 
Q 353 888 353 1747 
Q 353 2609 779 3096 
Q 1206 3584 1959 3584 
z
" transform="scale(0.015625)"/>
      <path id="DejaVuSans-79" d="M 2059 -325 
Q 1816 -950 1584 -1140 
Q 1353 -1331 966 -1331 
L 506 -1331 
L 506 -850 
L 844 -850 
Q 1081 -850 1212 -737 
Q 1344 -625 1503 -206 
L 1606 56 
L 191 3500 
L 800 3500 
L 1894 763 
L 2988 3500 
L 3597 3500 
L 2059 -325 
z
" transform="scale(0.015625)"/>
     </defs>
     <use xlink:href="#DejaVuSans-67"/>
     <use xlink:href="#DejaVuSans-65" transform="translate(63.476562 0)"/>
     <use xlink:href="#DejaVuSans-74" transform="translate(125 0)"/>
     <use xlink:href="#DejaVuSans-5f" transform="translate(164.208984 0)"/>
     <use xlink:href="#DejaVuSans-73" transform="translate(214.208984 0)"/>
     <use xlink:href="#DejaVuSans-75" transform="translate(266.308594 0)"/>
     <use xlink:href="#DejaVuSans-62" transform="translate(329.6875 0)"/>
     <use xlink:href="#DejaVuSans-73" transform="translate(393.164062 0)"/>
     <use xlink:href="#DejaVuSans-63" transform="translate(445.263672 0)"/>
     <use xlink:href="#DejaVuSans-72" transform="translate(500.244141 0)"/>
     <use xlink:href="#DejaVuSans-69" transform="translate(541.357422 0)"/>
     <use xlink:href="#DejaVuSans-62" transform="translate(569.140625 0)"/>
     <use xlink:href="#DejaVuSans-65" transform="translate(632.617188 0)"/>
     <use xlink:href="#DejaVuSans-20" transform="translate(694.140625 0)"/>
     <use xlink:href="#DejaVuSans-68" transform="translate(725.927734 0)"/>
     <use xlink:href="#DejaVuSans-69" transform="translate(789.306641 0)"/>
     <use xlink:href="#DejaVuSans-73" transform="translate(817.089844 0)"/>
     <use xlink:href="#DejaVuSans-74" transform="translate(869.189453 0)"/>
     <use xlink:href="#DejaVuSans-6f" transform="translate(908.398438 0)"/>
     <use xlink:href="#DejaVuSans-72" transform="translate(969.580078 0)"/>
     <use xlink:href="#DejaVuSans-79" transform="translate(1010.693359 0)"/>
    </g>
   </g>
   <g id="legend_1">
    <g id="line2d_39">
     <path d="M 815.08 328.498438 
L 825.08 328.498438 
L 835.08 328.498438 
" style="fill: none; stroke: #1f77b4; stroke-width: 1.5; stroke-linecap: square"/>
    </g>
    <g id="text_20">
     <!-- star -->
     <g style="fill: #a9a9a9" transform="translate(843.08 331.998438) scale(0.1 -0.1)">
      <defs>
       <path id="DejaVuSans-61" d="M 2194 1759 
Q 1497 1759 1228 1600 
Q 959 1441 959 1056 
Q 959 750 1161 570 
Q 1363 391 1709 391 
Q 2188 391 2477 730 
Q 2766 1069 2766 1631 
L 2766 1759 
L 2194 1759 
z
M 3341 1997 
L 3341 0 
L 2766 0 
L 2766 531 
Q 2569 213 2275 61 
Q 1981 -91 1556 -91 
Q 1019 -91 701 211 
Q 384 513 384 1019 
Q 384 1609 779 1909 
Q 1175 2209 1959 2209 
L 2766 2209 
L 2766 2266 
Q 2766 2663 2505 2880 
Q 2244 3097 1772 3097 
Q 1472 3097 1187 3025 
Q 903 2953 641 2809 
L 641 3341 
Q 956 3463 1253 3523 
Q 1550 3584 1831 3584 
Q 2591 3584 2966 3190 
Q 3341 2797 3341 1997 
z
" transform="scale(0.015625)"/>
      </defs>
      <use xlink:href="#DejaVuSans-73"/>
      <use xlink:href="#DejaVuSans-74" transform="translate(52.099609 0)"/>
      <use xlink:href="#DejaVuSans-61" transform="translate(91.308594 0)"/>
      <use xlink:href="#DejaVuSans-72" transform="translate(152.587891 0)"/>
     </g>
    </g>
    <g id="line2d_40">
     <path d="M 815.08 343.176562 
L 825.08 343.176562 
L 835.08 343.176562 
" style="fill: none; stroke: #ff7f0e; stroke-width: 1.5; stroke-linecap: square"/>
    </g>
    <g id="text_21">
     <!-- fork -->
     <g style="fill: #a9a9a9" transform="translate(843.08 346.676562) scale(0.1 -0.1)">
      <defs>
       <path id="DejaVuSans-66" d="M 2375 4863 
L 2375 4384 
L 1825 4384 
Q 1516 4384 1395 4259 
Q 1275 4134 1275 3809 
L 1275 3500 
L 2222 3500 
L 2222 3053 
L 1275 3053 
L 1275 0 
L 697 0 
L 697 3053 
L 147 3053 
L 147 3500 
L 697 3500 
L 697 3744 
Q 697 4328 969 4595 
Q 1241 4863 1831 4863 
L 2375 4863 
z
" transform="scale(0.015625)"/>
       <path id="DejaVuSans-6b" d="M 581 4863 
L 1159 4863 
L 1159 1991 
L 2875 3500 
L 3609 3500 
L 1753 1863 
L 3688 0 
L 2938 0 
L 1159 1709 
L 1159 0 
L 581 0 
L 581 4863 
z
" transform="scale(0.015625)"/>
      </defs>
      <use xlink:href="#DejaVuSans-66"/>
      <use xlink:href="#DejaVuSans-6f" transform="translate(35.205078 0)"/>
      <use xlink:href="#DejaVuSans-72" transform="translate(96.386719 0)"/>
      <use xlink:href="#DejaVuSans-6b" transform="translate(137.5 0)"/>
     </g>
    </g>
   </g>
  </g>
 </g>
 <defs>
  <clipPath id="pa4b8380a6f">
   <rect x="108" y="43.2" width="669.6" height="277.2"/>
  </clipPath>
 </defs>
</svg>
