<?xml version="1.0" encoding="utf-8" standalone="no"?>
<!DOCTYPE svg PUBLIC "-//W3C//DTD SVG 1.1//EN"
  "http://www.w3.org/Graphics/SVG/1.1/DTD/svg11.dtd">
<svg xmlns:xlink="http://www.w3.org/1999/xlink" width="864pt" height="360pt" viewBox="0 0 864 360" xmlns="http://www.w3.org/2000/svg" version="1.1">
 <metadata>
  <rdf:RDF xmlns:dc="http://purl.org/dc/elements/1.1/" xmlns:cc="http://creativecommons.org/ns#" xmlns:rdf="http://www.w3.org/1999/02/22-rdf-syntax-ns#">
   <cc:Work>
    <dc:type rdf:resource="http://purl.org/dc/dcmitype/StillImage"/>
    <dc:date>2024-12-23T20:05:57.846959</dc:date>
    <dc:format>image/svg+xml</dc:format>
    <dc:creator>
     <cc:Agent>
      <dc:title>Matplotlib v3.10.0, https://matplotlib.org/</dc:title>
     </cc:Agent>
    </dc:creator>
   </cc:Work>
  </rdf:RDF>
 </metadata>
 <defs>
  <style type="text/css">*{stroke-linejoin: round; stroke-linecap: butt}</style>
 </defs>
 <g id="figure_1">
  <g id="patch_1">
   <path d="M 0 360 
L 864 360 
L 864 0 
L 0 0 
L 0 360 
z
" style="fill: none; opacity: 0"/>
  </g>
  <g id="axes_1">
   <g id="patch_2">
    <path d="M 108 320.4 
L 777.6 320.4 
L 777.6 43.2 
L 108 43.2 
L 108 320.4 
z
" style="fill: none; opacity: 0"/>
   </g>
   <g id="matplotlib.axis_1">
    <g id="xtick_1">
     <g id="line2d_1">
      <path d="M 127.217832 320.4 
L 127.217832 43.2 
" clip-path="url(#pbaab51345a)" style="fill: none; stroke-dasharray: 5.12,1.28,0.8,1.28; stroke-dashoffset: 0; stroke: #b0b0b0; stroke-width: 0.8"/>
     </g>
     <g id="line2d_2">
      <defs>
       <path id="mf1523b3fa2" d="M 0 0 
L 0 3.5 
" style="stroke: #a9a9a9; stroke-width: 0.8"/>
      </defs>
      <g>
       <use xlink:href="#mf1523b3fa2" x="127.217832" y="320.4" style="fill: #a9a9a9; stroke: #a9a9a9; stroke-width: 0.8"/>
      </g>
     </g>
     <g id="text_1">
      <!-- 2021-07 -->
      <g style="fill: #a9a9a9" transform="translate(106.326426 334.998438) scale(0.1 -0.1)">
       <defs>
        <path id="DejaVuSans-32" d="M 1228 531 
L 3431 531 
L 3431 0 
L 469 0 
L 469 531 
Q 828 903 1448 1529 
Q 2069 2156 2228 2338 
Q 2531 2678 2651 2914 
Q 2772 3150 2772 3378 
Q 2772 3750 2511 3984 
Q 2250 4219 1831 4219 
Q 1534 4219 1204 4116 
Q 875 4013 500 3803 
L 500 4441 
Q 881 4594 1212 4672 
Q 1544 4750 1819 4750 
Q 2544 4750 2975 4387 
Q 3406 4025 3406 3419 
Q 3406 3131 3298 2873 
Q 3191 2616 2906 2266 
Q 2828 2175 2409 1742 
Q 1991 1309 1228 531 
z
" transform="scale(0.015625)"/>
        <path id="DejaVuSans-30" d="M 2034 4250 
Q 1547 4250 1301 3770 
Q 1056 3291 1056 2328 
Q 1056 1369 1301 889 
Q 1547 409 2034 409 
Q 2525 409 2770 889 
Q 3016 1369 3016 2328 
Q 3016 3291 2770 3770 
Q 2525 4250 2034 4250 
z
M 2034 4750 
Q 2819 4750 3233 4129 
Q 3647 3509 3647 2328 
Q 3647 1150 3233 529 
Q 2819 -91 2034 -91 
Q 1250 -91 836 529 
Q 422 1150 422 2328 
Q 422 3509 836 4129 
Q 1250 4750 2034 4750 
z
" transform="scale(0.015625)"/>
        <path id="DejaVuSans-31" d="M 794 531 
L 1825 531 
L 1825 4091 
L 703 3866 
L 703 4441 
L 1819 4666 
L 2450 4666 
L 2450 531 
L 3481 531 
L 3481 0 
L 794 0 
L 794 531 
z
" transform="scale(0.015625)"/>
        <path id="DejaVuSans-2d" d="M 313 2009 
L 1997 2009 
L 1997 1497 
L 313 1497 
L 313 2009 
z
" transform="scale(0.015625)"/>
        <path id="DejaVuSans-37" d="M 525 4666 
L 3525 4666 
L 3525 4397 
L 1831 0 
L 1172 0 
L 2766 4134 
L 525 4134 
L 525 4666 
z
" transform="scale(0.015625)"/>
       </defs>
       <use xlink:href="#DejaVuSans-32"/>
       <use xlink:href="#DejaVuSans-30" transform="translate(63.623047 0)"/>
       <use xlink:href="#DejaVuSans-32" transform="translate(127.246094 0)"/>
       <use xlink:href="#DejaVuSans-31" transform="translate(190.869141 0)"/>
       <use xlink:href="#DejaVuSans-2d" transform="translate(254.492188 0)"/>
       <use xlink:href="#DejaVuSans-30" transform="translate(290.576172 0)"/>
       <use xlink:href="#DejaVuSans-37" transform="translate(354.199219 0)"/>
      </g>
     </g>
    </g>
    <g id="xtick_2">
     <g id="line2d_3">
      <path d="M 216.966084 320.4 
L 216.966084 43.2 
" clip-path="url(#pbaab51345a)" style="fill: none; stroke-dasharray: 5.12,1.28,0.8,1.28; stroke-dashoffset: 0; stroke: #b0b0b0; stroke-width: 0.8"/>
     </g>
     <g id="line2d_4">
      <g>
       <use xlink:href="#mf1523b3fa2" x="216.966084" y="320.4" style="fill: #a9a9a9; stroke: #a9a9a9; stroke-width: 0.8"/>
      </g>
     </g>
     <g id="text_2">
      <!-- 2022-01 -->
      <g style="fill: #a9a9a9" transform="translate(196.074678 334.998438) scale(0.1 -0.1)">
       <use xlink:href="#DejaVuSans-32"/>
       <use xlink:href="#DejaVuSans-30" transform="translate(63.623047 0)"/>
       <use xlink:href="#DejaVuSans-32" transform="translate(127.246094 0)"/>
       <use xlink:href="#DejaVuSans-32" transform="translate(190.869141 0)"/>
       <use xlink:href="#DejaVuSans-2d" transform="translate(254.492188 0)"/>
       <use xlink:href="#DejaVuSans-30" transform="translate(290.576172 0)"/>
       <use xlink:href="#DejaVuSans-31" transform="translate(354.199219 0)"/>
      </g>
     </g>
    </g>
    <g id="xtick_3">
     <g id="line2d_5">
      <path d="M 305.251049 320.4 
L 305.251049 43.2 
" clip-path="url(#pbaab51345a)" style="fill: none; stroke-dasharray: 5.12,1.28,0.8,1.28; stroke-dashoffset: 0; stroke: #b0b0b0; stroke-width: 0.8"/>
     </g>
     <g id="line2d_6">
      <g>
       <use xlink:href="#mf1523b3fa2" x="305.251049" y="320.4" style="fill: #a9a9a9; stroke: #a9a9a9; stroke-width: 0.8"/>
      </g>
     </g>
     <g id="text_3">
      <!-- 2022-07 -->
      <g style="fill: #a9a9a9" transform="translate(284.359643 334.998438) scale(0.1 -0.1)">
       <use xlink:href="#DejaVuSans-32"/>
       <use xlink:href="#DejaVuSans-30" transform="translate(63.623047 0)"/>
       <use xlink:href="#DejaVuSans-32" transform="translate(127.246094 0)"/>
       <use xlink:href="#DejaVuSans-32" transform="translate(190.869141 0)"/>
       <use xlink:href="#DejaVuSans-2d" transform="translate(254.492188 0)"/>
       <use xlink:href="#DejaVuSans-30" transform="translate(290.576172 0)"/>
       <use xlink:href="#DejaVuSans-37" transform="translate(354.199219 0)"/>
      </g>
     </g>
    </g>
    <g id="xtick_4">
     <g id="line2d_7">
      <path d="M 394.999301 320.4 
L 394.999301 43.2 
" clip-path="url(#pbaab51345a)" style="fill: none; stroke-dasharray: 5.12,1.28,0.8,1.28; stroke-dashoffset: 0; stroke: #b0b0b0; stroke-width: 0.8"/>
     </g>
     <g id="line2d_8">
      <g>
       <use xlink:href="#mf1523b3fa2" x="394.999301" y="320.4" style="fill: #a9a9a9; stroke: #a9a9a9; stroke-width: 0.8"/>
      </g>
     </g>
     <g id="text_4">
      <!-- 2023-01 -->
      <g style="fill: #a9a9a9" transform="translate(374.107894 334.998438) scale(0.1 -0.1)">
       <defs>
        <path id="DejaVuSans-33" d="M 2597 2516 
Q 3050 2419 3304 2112 
Q 3559 1806 3559 1356 
Q 3559 666 3084 287 
Q 2609 -91 1734 -91 
Q 1441 -91 1130 -33 
Q 819 25 488 141 
L 488 750 
Q 750 597 1062 519 
Q 1375 441 1716 441 
Q 2309 441 2620 675 
Q 2931 909 2931 1356 
Q 2931 1769 2642 2001 
Q 2353 2234 1838 2234 
L 1294 2234 
L 1294 2753 
L 1863 2753 
Q 2328 2753 2575 2939 
Q 2822 3125 2822 3475 
Q 2822 3834 2567 4026 
Q 2313 4219 1838 4219 
Q 1578 4219 1281 4162 
Q 984 4106 628 3988 
L 628 4550 
Q 988 4650 1302 4700 
Q 1616 4750 1894 4750 
Q 2613 4750 3031 4423 
Q 3450 4097 3450 3541 
Q 3450 3153 3228 2886 
Q 3006 2619 2597 2516 
z
" transform="scale(0.015625)"/>
       </defs>
       <use xlink:href="#DejaVuSans-32"/>
       <use xlink:href="#DejaVuSans-30" transform="translate(63.623047 0)"/>
       <use xlink:href="#DejaVuSans-32" transform="translate(127.246094 0)"/>
       <use xlink:href="#DejaVuSans-33" transform="translate(190.869141 0)"/>
       <use xlink:href="#DejaVuSans-2d" transform="translate(254.492188 0)"/>
       <use xlink:href="#DejaVuSans-30" transform="translate(290.576172 0)"/>
       <use xlink:href="#DejaVuSans-31" transform="translate(354.199219 0)"/>
      </g>
     </g>
    </g>
    <g id="xtick_5">
     <g id="line2d_9">
      <path d="M 483.284266 320.4 
L 483.284266 43.2 
" clip-path="url(#pbaab51345a)" style="fill: none; stroke-dasharray: 5.12,1.28,0.8,1.28; stroke-dashoffset: 0; stroke: #b0b0b0; stroke-width: 0.8"/>
     </g>
     <g id="line2d_10">
      <g>
       <use xlink:href="#mf1523b3fa2" x="483.284266" y="320.4" style="fill: #a9a9a9; stroke: #a9a9a9; stroke-width: 0.8"/>
      </g>
     </g>
     <g id="text_5">
      <!-- 2023-07 -->
      <g style="fill: #a9a9a9" transform="translate(462.392859 334.998438) scale(0.1 -0.1)">
       <use xlink:href="#DejaVuSans-32"/>
       <use xlink:href="#DejaVuSans-30" transform="translate(63.623047 0)"/>
       <use xlink:href="#DejaVuSans-32" transform="translate(127.246094 0)"/>
       <use xlink:href="#DejaVuSans-33" transform="translate(190.869141 0)"/>
       <use xlink:href="#DejaVuSans-2d" transform="translate(254.492188 0)"/>
       <use xlink:href="#DejaVuSans-30" transform="translate(290.576172 0)"/>
       <use xlink:href="#DejaVuSans-37" transform="translate(354.199219 0)"/>
      </g>
     </g>
    </g>
    <g id="xtick_6">
     <g id="line2d_11">
      <path d="M 573.032517 320.4 
L 573.032517 43.2 
" clip-path="url(#pbaab51345a)" style="fill: none; stroke-dasharray: 5.12,1.28,0.8,1.28; stroke-dashoffset: 0; stroke: #b0b0b0; stroke-width: 0.8"/>
     </g>
     <g id="line2d_12">
      <g>
       <use xlink:href="#mf1523b3fa2" x="573.032517" y="320.4" style="fill: #a9a9a9; stroke: #a9a9a9; stroke-width: 0.8"/>
      </g>
     </g>
     <g id="text_6">
      <!-- 2024-01 -->
      <g style="fill: #a9a9a9" transform="translate(552.141111 334.998438) scale(0.1 -0.1)">
       <defs>
        <path id="DejaVuSans-34" d="M 2419 4116 
L 825 1625 
L 2419 1625 
L 2419 4116 
z
M 2253 4666 
L 3047 4666 
L 3047 1625 
L 3713 1625 
L 3713 1100 
L 3047 1100 
L 3047 0 
L 2419 0 
L 2419 1100 
L 313 1100 
L 313 1709 
L 2253 4666 
z
" transform="scale(0.015625)"/>
       </defs>
       <use xlink:href="#DejaVuSans-32"/>
       <use xlink:href="#DejaVuSans-30" transform="translate(63.623047 0)"/>
       <use xlink:href="#DejaVuSans-32" transform="translate(127.246094 0)"/>
       <use xlink:href="#DejaVuSans-34" transform="translate(190.869141 0)"/>
       <use xlink:href="#DejaVuSans-2d" transform="translate(254.492188 0)"/>
       <use xlink:href="#DejaVuSans-30" transform="translate(290.576172 0)"/>
       <use xlink:href="#DejaVuSans-31" transform="translate(354.199219 0)"/>
      </g>
     </g>
    </g>
    <g id="xtick_7">
     <g id="line2d_13">
      <path d="M 661.805245 320.4 
L 661.805245 43.2 
" clip-path="url(#pbaab51345a)" style="fill: none; stroke-dasharray: 5.12,1.28,0.8,1.28; stroke-dashoffset: 0; stroke: #b0b0b0; stroke-width: 0.8"/>
     </g>
     <g id="line2d_14">
      <g>
       <use xlink:href="#mf1523b3fa2" x="661.805245" y="320.4" style="fill: #a9a9a9; stroke: #a9a9a9; stroke-width: 0.8"/>
      </g>
     </g>
     <g id="text_7">
      <!-- 2024-07 -->
      <g style="fill: #a9a9a9" transform="translate(640.913839 334.998438) scale(0.1 -0.1)">
       <use xlink:href="#DejaVuSans-32"/>
       <use xlink:href="#DejaVuSans-30" transform="translate(63.623047 0)"/>
       <use xlink:href="#DejaVuSans-32" transform="translate(127.246094 0)"/>
       <use xlink:href="#DejaVuSans-34" transform="translate(190.869141 0)"/>
       <use xlink:href="#DejaVuSans-2d" transform="translate(254.492188 0)"/>
       <use xlink:href="#DejaVuSans-30" transform="translate(290.576172 0)"/>
       <use xlink:href="#DejaVuSans-37" transform="translate(354.199219 0)"/>
      </g>
     </g>
    </g>
    <g id="xtick_8">
     <g id="line2d_15">
      <path d="M 751.553497 320.4 
L 751.553497 43.2 
" clip-path="url(#pbaab51345a)" style="fill: none; stroke-dasharray: 5.12,1.28,0.8,1.28; stroke-dashoffset: 0; stroke: #b0b0b0; stroke-width: 0.8"/>
     </g>
     <g id="line2d_16">
      <g>
       <use xlink:href="#mf1523b3fa2" x="751.553497" y="320.4" style="fill: #a9a9a9; stroke: #a9a9a9; stroke-width: 0.8"/>
      </g>
     </g>
     <g id="text_8">
      <!-- 2025-01 -->
      <g style="fill: #a9a9a9" transform="translate(730.66209 334.998438) scale(0.1 -0.1)">
       <defs>
        <path id="DejaVuSans-35" d="M 691 4666 
L 3169 4666 
L 3169 4134 
L 1269 4134 
L 1269 2991 
Q 1406 3038 1543 3061 
Q 1681 3084 1819 3084 
Q 2600 3084 3056 2656 
Q 3513 2228 3513 1497 
Q 3513 744 3044 326 
Q 2575 -91 1722 -91 
Q 1428 -91 1123 -41 
Q 819 9 494 109 
L 494 744 
Q 775 591 1075 516 
Q 1375 441 1709 441 
Q 2250 441 2565 725 
Q 2881 1009 2881 1497 
Q 2881 1984 2565 2268 
Q 2250 2553 1709 2553 
Q 1456 2553 1204 2497 
Q 953 2441 691 2322 
L 691 4666 
z
" transform="scale(0.015625)"/>
       </defs>
       <use xlink:href="#DejaVuSans-32"/>
       <use xlink:href="#DejaVuSans-30" transform="translate(63.623047 0)"/>
       <use xlink:href="#DejaVuSans-32" transform="translate(127.246094 0)"/>
       <use xlink:href="#DejaVuSans-35" transform="translate(190.869141 0)"/>
       <use xlink:href="#DejaVuSans-2d" transform="translate(254.492188 0)"/>
       <use xlink:href="#DejaVuSans-30" transform="translate(290.576172 0)"/>
       <use xlink:href="#DejaVuSans-31" transform="translate(354.199219 0)"/>
      </g>
     </g>
    </g>
   </g>
   <g id="matplotlib.axis_2">
    <g id="ytick_1">
     <g id="line2d_17">
      <path d="M 108 307.835383 
L 777.6 307.835383 
" clip-path="url(#pbaab51345a)" style="fill: none; stroke-dasharray: 5.12,1.28,0.8,1.28; stroke-dashoffset: 0; stroke: #b0b0b0; stroke-width: 0.8"/>
     </g>
     <g id="line2d_18">
      <defs>
       <path id="m1f73bb33a1" d="M 0 0 
L -3.5 0 
" style="stroke: #a9a9a9; stroke-width: 0.8"/>
      </defs>
      <g>
       <use xlink:href="#m1f73bb33a1" x="108" y="307.835383" style="fill: #a9a9a9; stroke: #a9a9a9; stroke-width: 0.8"/>
      </g>
     </g>
     <g id="text_9">
      <!-- 0 -->
      <g style="fill: #a9a9a9" transform="translate(94.6375 311.634602) scale(0.1 -0.1)">
       <use xlink:href="#DejaVuSans-30"/>
      </g>
     </g>
    </g>
    <g id="ytick_2">
     <g id="line2d_19">
      <path d="M 108 279.528728 
L 777.6 279.528728 
" clip-path="url(#pbaab51345a)" style="fill: none; stroke-dasharray: 5.12,1.28,0.8,1.28; stroke-dashoffset: 0; stroke: #b0b0b0; stroke-width: 0.8"/>
     </g>
     <g id="line2d_20">
      <g>
       <use xlink:href="#m1f73bb33a1" x="108" y="279.528728" style="fill: #a9a9a9; stroke: #a9a9a9; stroke-width: 0.8"/>
      </g>
     </g>
     <g id="text_10">
      <!-- 800 -->
      <g style="fill: #a9a9a9" transform="translate(81.9125 283.327947) scale(0.1 -0.1)">
       <defs>
        <path id="DejaVuSans-38" d="M 2034 2216 
Q 1584 2216 1326 1975 
Q 1069 1734 1069 1313 
Q 1069 891 1326 650 
Q 1584 409 2034 409 
Q 2484 409 2743 651 
Q 3003 894 3003 1313 
Q 3003 1734 2745 1975 
Q 2488 2216 2034 2216 
z
M 1403 2484 
Q 997 2584 770 2862 
Q 544 3141 544 3541 
Q 544 4100 942 4425 
Q 1341 4750 2034 4750 
Q 2731 4750 3128 4425 
Q 3525 4100 3525 3541 
Q 3525 3141 3298 2862 
Q 3072 2584 2669 2484 
Q 3125 2378 3379 2068 
Q 3634 1759 3634 1313 
Q 3634 634 3220 271 
Q 2806 -91 2034 -91 
Q 1263 -91 848 271 
Q 434 634 434 1313 
Q 434 1759 690 2068 
Q 947 2378 1403 2484 
z
M 1172 3481 
Q 1172 3119 1398 2916 
Q 1625 2713 2034 2713 
Q 2441 2713 2670 2916 
Q 2900 3119 2900 3481 
Q 2900 3844 2670 4047 
Q 2441 4250 2034 4250 
Q 1625 4250 1398 4047 
Q 1172 3844 1172 3481 
z
" transform="scale(0.015625)"/>
       </defs>
       <use xlink:href="#DejaVuSans-38"/>
       <use xlink:href="#DejaVuSans-30" transform="translate(63.623047 0)"/>
       <use xlink:href="#DejaVuSans-30" transform="translate(127.246094 0)"/>
      </g>
     </g>
    </g>
    <g id="ytick_3">
     <g id="line2d_21">
      <path d="M 108 251.222072 
L 777.6 251.222072 
" clip-path="url(#pbaab51345a)" style="fill: none; stroke-dasharray: 5.12,1.28,0.8,1.28; stroke-dashoffset: 0; stroke: #b0b0b0; stroke-width: 0.8"/>
     </g>
     <g id="line2d_22">
      <g>
       <use xlink:href="#m1f73bb33a1" x="108" y="251.222072" style="fill: #a9a9a9; stroke: #a9a9a9; stroke-width: 0.8"/>
      </g>
     </g>
     <g id="text_11">
      <!-- 1600 -->
      <g style="fill: #a9a9a9" transform="translate(75.55 255.021291) scale(0.1 -0.1)">
       <defs>
        <path id="DejaVuSans-36" d="M 2113 2584 
Q 1688 2584 1439 2293 
Q 1191 2003 1191 1497 
Q 1191 994 1439 701 
Q 1688 409 2113 409 
Q 2538 409 2786 701 
Q 3034 994 3034 1497 
Q 3034 2003 2786 2293 
Q 2538 2584 2113 2584 
z
M 3366 4563 
L 3366 3988 
Q 3128 4100 2886 4159 
Q 2644 4219 2406 4219 
Q 1781 4219 1451 3797 
Q 1122 3375 1075 2522 
Q 1259 2794 1537 2939 
Q 1816 3084 2150 3084 
Q 2853 3084 3261 2657 
Q 3669 2231 3669 1497 
Q 3669 778 3244 343 
Q 2819 -91 2113 -91 
Q 1303 -91 875 529 
Q 447 1150 447 2328 
Q 447 3434 972 4092 
Q 1497 4750 2381 4750 
Q 2619 4750 2861 4703 
Q 3103 4656 3366 4563 
z
" transform="scale(0.015625)"/>
       </defs>
       <use xlink:href="#DejaVuSans-31"/>
       <use xlink:href="#DejaVuSans-36" transform="translate(63.623047 0)"/>
       <use xlink:href="#DejaVuSans-30" transform="translate(127.246094 0)"/>
       <use xlink:href="#DejaVuSans-30" transform="translate(190.869141 0)"/>
      </g>
     </g>
    </g>
    <g id="ytick_4">
     <g id="line2d_23">
      <path d="M 108 222.915417 
L 777.6 222.915417 
" clip-path="url(#pbaab51345a)" style="fill: none; stroke-dasharray: 5.12,1.28,0.8,1.28; stroke-dashoffset: 0; stroke: #b0b0b0; stroke-width: 0.8"/>
     </g>
     <g id="line2d_24">
      <g>
       <use xlink:href="#m1f73bb33a1" x="108" y="222.915417" style="fill: #a9a9a9; stroke: #a9a9a9; stroke-width: 0.8"/>
      </g>
     </g>
     <g id="text_12">
      <!-- 2400 -->
      <g style="fill: #a9a9a9" transform="translate(75.55 226.714636) scale(0.1 -0.1)">
       <use xlink:href="#DejaVuSans-32"/>
       <use xlink:href="#DejaVuSans-34" transform="translate(63.623047 0)"/>
       <use xlink:href="#DejaVuSans-30" transform="translate(127.246094 0)"/>
       <use xlink:href="#DejaVuSans-30" transform="translate(190.869141 0)"/>
      </g>
     </g>
    </g>
    <g id="ytick_5">
     <g id="line2d_25">
      <path d="M 108 194.608762 
L 777.6 194.608762 
" clip-path="url(#pbaab51345a)" style="fill: none; stroke-dasharray: 5.12,1.28,0.8,1.28; stroke-dashoffset: 0; stroke: #b0b0b0; stroke-width: 0.8"/>
     </g>
     <g id="line2d_26">
      <g>
       <use xlink:href="#m1f73bb33a1" x="108" y="194.608762" style="fill: #a9a9a9; stroke: #a9a9a9; stroke-width: 0.8"/>
      </g>
     </g>
     <g id="text_13">
      <!-- 3200 -->
      <g style="fill: #a9a9a9" transform="translate(75.55 198.40798) scale(0.1 -0.1)">
       <use xlink:href="#DejaVuSans-33"/>
       <use xlink:href="#DejaVuSans-32" transform="translate(63.623047 0)"/>
       <use xlink:href="#DejaVuSans-30" transform="translate(127.246094 0)"/>
       <use xlink:href="#DejaVuSans-30" transform="translate(190.869141 0)"/>
      </g>
     </g>
    </g>
    <g id="ytick_6">
     <g id="line2d_27">
      <path d="M 108 166.302106 
L 777.6 166.302106 
" clip-path="url(#pbaab51345a)" style="fill: none; stroke-dasharray: 5.12,1.28,0.8,1.28; stroke-dashoffset: 0; stroke: #b0b0b0; stroke-width: 0.8"/>
     </g>
     <g id="line2d_28">
      <g>
       <use xlink:href="#m1f73bb33a1" x="108" y="166.302106" style="fill: #a9a9a9; stroke: #a9a9a9; stroke-width: 0.8"/>
      </g>
     </g>
     <g id="text_14">
      <!-- 4000 -->
      <g style="fill: #a9a9a9" transform="translate(75.55 170.101325) scale(0.1 -0.1)">
       <use xlink:href="#DejaVuSans-34"/>
       <use xlink:href="#DejaVuSans-30" transform="translate(63.623047 0)"/>
       <use xlink:href="#DejaVuSans-30" transform="translate(127.246094 0)"/>
       <use xlink:href="#DejaVuSans-30" transform="translate(190.869141 0)"/>
      </g>
     </g>
    </g>
    <g id="ytick_7">
     <g id="line2d_29">
      <path d="M 108 137.995451 
L 777.6 137.995451 
" clip-path="url(#pbaab51345a)" style="fill: none; stroke-dasharray: 5.12,1.28,0.8,1.28; stroke-dashoffset: 0; stroke: #b0b0b0; stroke-width: 0.8"/>
     </g>
     <g id="line2d_30">
      <g>
       <use xlink:href="#m1f73bb33a1" x="108" y="137.995451" style="fill: #a9a9a9; stroke: #a9a9a9; stroke-width: 0.8"/>
      </g>
     </g>
     <g id="text_15">
      <!-- 4800 -->
      <g style="fill: #a9a9a9" transform="translate(75.55 141.794669) scale(0.1 -0.1)">
       <use xlink:href="#DejaVuSans-34"/>
       <use xlink:href="#DejaVuSans-38" transform="translate(63.623047 0)"/>
       <use xlink:href="#DejaVuSans-30" transform="translate(127.246094 0)"/>
       <use xlink:href="#DejaVuSans-30" transform="translate(190.869141 0)"/>
      </g>
     </g>
    </g>
    <g id="ytick_8">
     <g id="line2d_31">
      <path d="M 108 109.688795 
L 777.6 109.688795 
" clip-path="url(#pbaab51345a)" style="fill: none; stroke-dasharray: 5.12,1.28,0.8,1.28; stroke-dashoffset: 0; stroke: #b0b0b0; stroke-width: 0.8"/>
     </g>
     <g id="line2d_32">
      <g>
       <use xlink:href="#m1f73bb33a1" x="108" y="109.688795" style="fill: #a9a9a9; stroke: #a9a9a9; stroke-width: 0.8"/>
      </g>
     </g>
     <g id="text_16">
      <!-- 5600 -->
      <g style="fill: #a9a9a9" transform="translate(75.55 113.488014) scale(0.1 -0.1)">
       <use xlink:href="#DejaVuSans-35"/>
       <use xlink:href="#DejaVuSans-36" transform="translate(63.623047 0)"/>
       <use xlink:href="#DejaVuSans-30" transform="translate(127.246094 0)"/>
       <use xlink:href="#DejaVuSans-30" transform="translate(190.869141 0)"/>
      </g>
     </g>
    </g>
    <g id="ytick_9">
     <g id="line2d_33">
      <path d="M 108 81.38214 
L 777.6 81.38214 
" clip-path="url(#pbaab51345a)" style="fill: none; stroke-dasharray: 5.12,1.28,0.8,1.28; stroke-dashoffset: 0; stroke: #b0b0b0; stroke-width: 0.8"/>
     </g>
     <g id="line2d_34">
      <g>
       <use xlink:href="#m1f73bb33a1" x="108" y="81.38214" style="fill: #a9a9a9; stroke: #a9a9a9; stroke-width: 0.8"/>
      </g>
     </g>
     <g id="text_17">
      <!-- 6400 -->
      <g style="fill: #a9a9a9" transform="translate(75.55 85.181359) scale(0.1 -0.1)">
       <use xlink:href="#DejaVuSans-36"/>
       <use xlink:href="#DejaVuSans-34" transform="translate(63.623047 0)"/>
       <use xlink:href="#DejaVuSans-30" transform="translate(127.246094 0)"/>
       <use xlink:href="#DejaVuSans-30" transform="translate(190.869141 0)"/>
      </g>
     </g>
    </g>
    <g id="ytick_10">
     <g id="line2d_35">
      <path d="M 108 53.075484 
L 777.6 53.075484 
" clip-path="url(#pbaab51345a)" style="fill: none; stroke-dasharray: 5.12,1.28,0.8,1.28; stroke-dashoffset: 0; stroke: #b0b0b0; stroke-width: 0.8"/>
     </g>
     <g id="line2d_36">
      <g>
       <use xlink:href="#m1f73bb33a1" x="108" y="53.075484" style="fill: #a9a9a9; stroke: #a9a9a9; stroke-width: 0.8"/>
      </g>
     </g>
     <g id="text_18">
      <!-- 7200 -->
      <g style="fill: #a9a9a9" transform="translate(75.55 56.874703) scale(0.1 -0.1)">
       <use xlink:href="#DejaVuSans-37"/>
       <use xlink:href="#DejaVuSans-32" transform="translate(63.623047 0)"/>
       <use xlink:href="#DejaVuSans-30" transform="translate(127.246094 0)"/>
       <use xlink:href="#DejaVuSans-30" transform="translate(190.869141 0)"/>
      </g>
     </g>
    </g>
   </g>
   <g id="line2d_37">
    <path d="M 138.436364 307.729233 
L 141.362937 307.48155 
L 141.850699 307.26925 
L 143.801748 307.021567 
L 145.752797 306.63235 
L 146.728322 306.490817 
L 149.167133 306.278517 
L 150.142657 305.889301 
L 150.63042 305.252401 
L 151.118182 304.898568 
L 151.605944 303.801685 
L 152.093706 303.730918 
L 152.581469 303.341702 
L 153.556993 302.846335 
L 155.508042 301.289469 
L 157.459091 300.33412 
L 158.922378 299.661837 
L 159.41014 298.883404 
L 160.385664 298.175737 
L 160.873427 297.963437 
L 165.751049 297.255771 
L 166.238811 297.043471 
L 169.653147 296.760404 
L 171.604196 296.300421 
L 175.506294 295.769671 
L 175.994056 295.521988 
L 176.481818 295.451222 
L 177.457343 295.132772 
L 180.871678 294.566639 
L 181.847203 294.283572 
L 186.237063 293.540522 
L 187.212587 293.328222 
L 188.188112 293.292839 
L 190.139161 292.832856 
L 190.626923 292.160573 
L 192.09021 291.59444 
L 193.553497 291.205223 
L 194.041259 290.95754 
L 195.016783 290.780623 
L 196.967832 290.21449 
L 197.943357 290.143724 
L 198.918881 289.89604 
L 200.86993 289.400674 
L 201.357692 289.365291 
L 202.333217 288.905307 
L 202.820979 288.834541 
L 203.308741 288.586858 
L 208.674126 287.702275 
L 210.625175 287.136142 
L 211.112937 286.817692 
L 213.551748 286.003875 
L 214.527273 285.331592 
L 215.990559 285.048526 
L 228.672378 281.47481 
L 229.16014 281.47481 
L 229.647902 281.262511 
L 230.623427 281.156361 
L 231.111189 280.979444 
L 233.062238 280.873294 
L 234.037762 280.696377 
L 235.013287 280.201011 
L 236.476573 279.670261 
L 236.964336 279.351811 
L 237.93986 278.927211 
L 238.427622 278.679528 
L 239.403147 278.361078 
L 239.890909 278.219545 
L 240.866434 277.618029 
L 241.354196 277.087279 
L 242.32972 275.601179 
L 242.817483 275.459646 
L 243.305245 275.459646 
L 244.768531 274.610447 
L 245.256294 274.362763 
L 245.744056 274.256613 
L 246.231818 273.79663 
L 247.207343 273.407414 
L 248.182867 272.94743 
L 248.670629 272.345914 
L 249.158392 271.567481 
L 249.646154 271.249031 
L 250.133916 270.399832 
L 250.621678 269.869082 
L 253.548252 268.312216 
L 254.523776 267.533783 
L 255.011538 267.215333 
L 255.499301 266.472283 
L 255.987063 265.3754 
L 256.474825 264.63235 
L 256.962587 264.243134 
L 257.45035 264.030834 
L 260.864685 261.129402 
L 261.84021 259.961752 
L 263.303497 258.935636 
L 265.254545 257.767987 
L 266.23007 257.237237 
L 268.181119 256.21112 
L 270.61993 254.017355 
L 271.595455 253.628138 
L 272.570979 252.955855 
L 273.058741 252.672789 
L 273.546503 252.602022 
L 275.00979 251.788206 
L 275.497552 251.257456 
L 277.936364 249.948273 
L 278.424126 249.771356 
L 279.887413 248.780623 
L 287.203846 246.197641 
L 288.179371 245.313058 
L 289.154895 244.853075 
L 290.13042 244.322325 
L 290.618182 244.039259 
L 291.593706 243.756192 
L 292.081469 243.437742 
L 292.569231 243.296209 
L 294.032517 242.340859 
L 296.471329 241.774726 
L 297.934615 240.925527 
L 299.397902 240.607077 
L 299.885664 240.465543 
L 301.348951 239.36866 
L 303.3 238.837911 
L 303.787762 238.448694 
L 306.714336 237.457961 
L 307.68986 237.281045 
L 308.665385 236.891828 
L 312.07972 235.653412 
L 313.055245 235.511879 
L 314.518531 235.016512 
L 316.957343 233.848863 
L 318.908392 232.787363 
L 322.81049 231.195114 
L 323.298252 231.124347 
L 324.273776 230.522831 
L 324.761538 230.452064 
L 326.712587 229.638248 
L 328.663636 229.390564 
L 329.639161 228.895198 
L 330.126923 228.470598 
L 330.614685 227.586015 
L 332.565734 227.055265 
L 334.029021 226.312216 
L 334.516783 226.206066 
L 338.418881 224.33075 
L 339.882168 224.047683 
L 340.857692 223.552317 
L 341.345455 223.340017 
L 341.833217 223.26925 
L 343.784266 222.384667 
L 345.247552 221.464701 
L 346.710839 221.181634 
L 349.14965 220.580118 
L 349.637413 220.190901 
L 351.100699 219.660152 
L 353.051748 218.881719 
L 353.53951 218.527885 
L 354.027273 218.350969 
L 355.002797 217.820219 
L 357.441608 217.006403 
L 358.904895 215.838753 
L 359.392657 215.732603 
L 360.368182 214.95417 
L 360.855944 214.883404 
L 361.343706 214.104971 
L 361.831469 213.892671 
L 362.319231 213.503454 
L 362.806993 213.432687 
L 363.782517 212.831171 
L 364.758042 212.512721 
L 365.245804 212.158888 
L 365.733566 211.981971 
L 367.196853 210.955855 
L 369.147902 209.929739 
L 369.635664 209.858972 
L 371.098951 209.115922 
L 371.586713 208.302106 
L 372.562238 207.59444 
L 373.05 207.48829 
L 374.025524 206.886773 
L 374.513287 206.780623 
L 375.488811 206.285257 
L 377.43986 205.329907 
L 377.927622 204.976074 
L 378.903147 204.020725 
L 379.878671 203.419208 
L 380.366434 203.100758 
L 380.854196 202.570008 
L 382.805245 201.225442 
L 383.293007 200.659309 
L 383.780769 200.270093 
L 384.756294 199.916259 
L 385.731818 199.243976 
L 387.195105 198.500927 
L 387.682867 198.43016 
L 389.146154 197.651727 
L 390.121678 197.050211 
L 394.999301 195.281045 
L 395.487063 194.891828 
L 397.438112 194.148778 
L 397.925874 194.007245 
L 398.901399 193.370345 
L 399.876923 192.945746 
L 400.852448 192.273463 
L 401.827972 190.32738 
L 402.803497 189.195114 
L 404.266783 188.452064 
L 405.242308 188.062848 
L 405.73007 187.992081 
L 406.217832 187.709014 
L 408.656643 186.930581 
L 409.144406 186.718281 
L 410.11993 186.045998 
L 411.583217 185.409099 
L 412.558741 184.878349 
L 413.046503 184.524516 
L 413.534266 184.312216 
L 414.022028 183.958382 
L 414.50979 183.427633 
L 415.485315 182.896883 
L 417.924126 181.5877 
L 420.850699 180.136984 
L 422.313986 179.712384 
L 423.777273 179.146251 
L 424.265035 178.792418 
L 425.240559 178.509351 
L 426.216084 178.120135 
L 426.703846 177.730918 
L 428.654895 177.058635 
L 429.63042 176.350969 
L 430.605944 175.926369 
L 431.581469 175.147936 
L 432.556993 174.794103 
L 433.044755 174.369503 
L 433.532517 174.298736 
L 434.508042 173.555687 
L 435.483566 173.06032 
L 435.971329 172.84802 
L 436.459091 172.352654 
L 439.873427 171.008088 
L 440.848951 170.583488 
L 442.312238 170.123505 
L 443.287762 169.981971 
L 443.775524 169.769671 
L 444.263287 169.698905 
L 445.238811 169.274305 
L 445.726573 169.238922 
L 447.677622 168.495872 
L 449.140909 167.469756 
L 449.628671 167.292839 
L 450.604196 166.762089 
L 451.091958 166.620556 
L 454.018531 164.992923 
L 454.506294 164.886773 
L 455.96958 164.037574 
L 457.432867 163.542207 
L 458.408392 163.223757 
L 460.359441 162.586858 
L 461.334965 162.268408 
L 463.286014 161.879191 
L 463.773776 161.666891 
L 464.261538 161.596125 
L 465.237063 161.171525 
L 465.724825 161.100758 
L 466.212587 160.853075 
L 467.188112 160.676158 
L 468.651399 160.145409 
L 469.626923 160.039259 
L 471.09021 159.720809 
L 473.529021 159.296209 
L 486.210839 155.616344 
L 486.698601 155.120977 
L 487.674126 154.731761 
L 491.576224 153.281045 
L 492.063986 152.997978 
L 493.527273 152.573378 
L 494.502797 152.325695 
L 494.990559 152.007245 
L 495.478322 151.901095 
L 495.966084 151.476495 
L 497.429371 151.193429 
L 498.404895 150.733446 
L 498.892657 150.167313 
L 500.843706 149.707329 
L 504.258042 148.999663 
L 504.745804 148.999663 
L 505.233566 148.787363 
L 507.184615 148.43353 
L 507.672378 148.22123 
L 509.623427 147.867397 
L 510.598951 147.442797 
L 511.574476 147.26588 
L 514.013287 146.664364 
L 515.964336 146.062848 
L 516.452098 145.956698 
L 516.93986 145.709014 
L 517.915385 145.461331 
L 518.403147 145.178265 
L 519.866434 144.682898 
L 520.354196 144.364448 
L 521.32972 144.081382 
L 525.231818 142.736816 
L 526.207343 142.666049 
L 528.158392 142.099916 
L 528.646154 141.816849 
L 529.621678 141.533783 
L 532.06049 140.4369 
L 532.548252 140.401516 
L 537.913636 138.526201 
L 540.352448 137.889301 
L 541.327972 137.429318 
L 542.791259 137.110868 
L 544.742308 135.518618 
L 545.717832 135.235552 
L 546.205594 134.846335 
L 549.132168 133.749452 
L 549.61993 133.431003 
L 550.595455 133.147936 
L 551.083217 132.829486 
L 553.522028 132.051053 
L 554.985315 131.201853 
L 555.473077 131.095703 
L 557.911888 129.786521 
L 559.375175 129.149621 
L 559.862937 128.795788 
L 560.838462 128.477338 
L 561.813986 127.911205 
L 562.301748 127.734288 
L 562.78951 127.380455 
L 569.13042 125.151306 
L 569.618182 125.045156 
L 570.105944 124.726706 
L 572.056993 124.337489 
L 573.032517 123.948273 
L 575.959091 122.53294 
L 576.446853 122.462174 
L 577.91014 121.648357 
L 579.373427 121.152991 
L 582.787762 119.773041 
L 583.275524 119.631508 
L 583.763287 119.313058 
L 584.738811 119.206908 
L 585.226573 118.888458 
L 586.202098 118.711542 
L 587.177622 118.251559 
L 587.665385 118.039259 
L 588.153147 117.968492 
L 590.591958 117.013142 
L 592.055245 116.623926 
L 593.030769 116.376243 
L 594.494056 115.951643 
L 595.46958 115.562426 
L 597.420629 114.500927 
L 598.396154 114.11171 
L 598.883916 113.79326 
L 599.859441 113.58096 
L 600.347203 113.297894 
L 600.834965 113.191744 
L 602.298252 112.377928 
L 603.273776 111.988711 
L 605.224825 111.245661 
L 607.663636 110.431845 
L 608.639161 109.936479 
L 611.077972 109.122662 
L 614.004545 107.955013 
L 615.955594 107.07043 
L 620.833217 105.195114 
L 621.320979 104.876664 
L 623.272028 104.204381 
L 623.75979 104.204381 
L 624.735315 103.779781 
L 626.686364 102.222915 
L 627.174126 102.081382 
L 627.661888 101.762932 
L 628.14965 101.656782 
L 628.637413 101.409099 
L 629.125175 101.338332 
L 629.612937 100.984499 
L 630.100699 100.878349 
L 631.076224 100.276832 
L 632.53951 99.533783 
L 633.515035 99.144566 
L 634.002797 98.896883 
L 635.466084 98.578433 
L 637.904895 97.764617 
L 638.88042 97.446167 
L 640.343706 96.703117 
L 641.319231 96.243134 
L 642.294755 95.995451 
L 643.758042 95.323168 
L 648.147902 93.730918 
L 649.611189 92.846335 
L 650.098951 92.740185 
L 651.074476 92.244819 
L 652.05 91.890986 
L 652.537762 91.466386 
L 653.513287 91.077169 
L 656.43986 89.90952 
L 657.903147 89.48492 
L 658.390909 89.237237 
L 658.878671 89.16647 
L 660.341958 88.63572 
L 661.805245 88.104971 
L 662.780769 87.715754 
L 663.268531 87.326537 
L 664.731818 86.937321 
L 665.21958 86.654254 
L 666.195105 86.406571 
L 667.658392 85.592755 
L 668.146154 85.557372 
L 669.609441 85.097388 
L 670.584965 85.026622 
L 671.56049 84.637405 
L 674.487063 83.788206 
L 675.462587 83.752822 
L 679.364685 82.514406 
L 680.34021 81.983656 
L 680.827972 81.559056 
L 682.291259 80.709857 
L 683.266783 80.10834 
L 686.193357 79.188374 
L 686.681119 78.799158 
L 689.607692 77.596125 
L 691.558741 77.065375 
L 692.534266 76.640775 
L 693.022028 76.393092 
L 693.997552 76.110025 
L 694.485315 75.826959 
L 695.460839 75.650042 
L 697.89965 74.517776 
L 698.387413 74.234709 
L 699.850699 73.880876 
L 700.338462 73.562426 
L 700.826224 73.38551 
L 701.313986 72.96091 
L 701.801748 72.890143 
L 703.752797 72.11171 
L 705.703846 71.651727 
L 706.191608 71.58096 
L 706.679371 71.36866 
L 707.167133 71.333277 
L 708.142657 71.014827 
L 708.63042 70.979444 
L 710.093706 70.413311 
L 712.044755 69.847178 
L 713.02028 69.104128 
L 714.971329 68.042628 
L 716.434615 67.547262 
L 719.361189 66.238079 
L 720.336713 65.707329 
L 720.824476 65.459646 
L 721.312238 64.999663 
L 724.238811 64.044313 
L 725.214336 63.655097 
L 726.18986 63.37203 
L 726.677622 63.124347 
L 727.165385 62.664364 
L 729.116434 62.168997 
L 729.604196 61.815164 
L 735.945105 59.515249 
L 736.920629 59.338332 
L 741.31049 57.816849 
L 742.286014 57.569166 
L 742.773776 57.356866 
L 743.261538 57.321483 
L 744.237063 56.932266 
L 745.212587 56.33075 
L 745.70035 56.153833 
L 746.188112 56.11845 
L 747.163636 55.8 
L 747.163636 55.8 
" clip-path="url(#pbaab51345a)" style="fill: none; stroke: #1f77b4; stroke-width: 1.5; stroke-linecap: square"/>
   </g>
   <g id="line2d_38">
    <path d="M 138.924126 307.8 
L 143.313986 307.69385 
L 147.216084 307.516933 
L 149.167133 307.516933 
L 149.654895 307.3754 
L 152.093706 307.26925 
L 155.02028 306.9508 
L 157.946853 306.84465 
L 158.922378 306.7385 
L 162.336713 306.596967 
L 165.751049 306.490817 
L 168.18986 306.420051 
L 174.530769 306.313901 
L 176.96958 306.243134 
L 180.383916 306.136984 
L 182.822727 306.066217 
L 188.188112 305.960067 
L 190.139161 305.783151 
L 192.09021 305.747767 
L 195.016783 305.641618 
L 196.967832 305.606234 
L 199.406643 305.535468 
L 201.357692 305.358551 
L 205.747552 305.252401 
L 206.723077 305.181634 
L 208.674126 305.075484 
L 211.600699 304.969334 
L 213.551748 304.863184 
L 222.331469 304.332435 
L 225.745804 304.226285 
L 227.209091 304.084751 
L 229.647902 303.978602 
L 234.525524 303.730918 
L 239.403147 303.660152 
L 241.354196 303.447852 
L 243.305245 303.341702 
L 248.670629 302.846335 
L 252.084965 302.457119 
L 253.548252 302.386352 
L 257.938112 301.855602 
L 260.376923 301.784836 
L 261.84021 301.643302 
L 263.303497 301.537152 
L 276.960839 300.511036 
L 277.936364 300.33412 
L 280.862937 300.22797 
L 288.667133 299.767987 
L 292.081469 299.661837 
L 294.032517 299.449537 
L 296.471329 299.343387 
L 299.397902 299.237237 
L 301.836713 299.131087 
L 303.787762 299.095703 
L 306.226573 299.024937 
L 307.202098 298.883404 
L 314.030769 298.777254 
L 315.006294 298.671104 
L 320.859441 298.564954 
L 325.249301 298.352654 
L 328.663636 298.246504 
L 330.614685 298.034204 
L 334.029021 297.928054 
L 335.004545 297.751137 
L 337.443357 297.680371 
L 342.320979 297.609604 
L 344.75979 297.361921 
L 347.686364 297.255771 
L 349.637413 297.078854 
L 354.515035 296.831171 
L 359.392657 296.725021 
L 363.782517 296.512721 
L 365.245804 296.477338 
L 366.221329 296.335805 
L 368.66014 296.229655 
L 369.635664 296.158888 
L 370.611189 296.088121 
L 371.586713 296.017355 
L 375.976573 295.946588 
L 377.43986 295.840438 
L 390.609441 294.991238 
L 393.048252 294.885088 
L 395.487063 294.814322 
L 402.315734 294.708172 
L 403.291259 294.566639 
L 410.11993 294.460489 
L 414.997552 294.212805 
L 415.973077 294.177422 
L 416.948601 294.071272 
L 419.387413 293.965122 
L 421.826224 293.894356 
L 424.265035 293.788206 
L 426.703846 293.717439 
L 431.093706 293.611289 
L 434.02028 293.505139 
L 440.848951 293.398989 
L 446.214336 293.115922 
L 448.165385 293.045156 
L 449.628671 292.939006 
L 456.457343 292.832856 
L 459.383916 292.726706 
L 468.163636 292.620556 
L 470.114685 292.585173 
L 475.967832 292.514406 
L 476.943357 292.443639 
L 483.772028 292.337489 
L 485.723077 292.302106 
L 498.404895 292.195956 
L 499.868182 292.054423 
L 521.817483 291.948273 
L 524.256294 291.877506 
L 536.938112 291.771356 
L 537.913636 291.70059 
L 540.352448 291.629823 
L 541.815734 291.48829 
L 544.742308 291.38214 
L 548.156643 291.240607 
L 552.546503 291.134457 
L 554.985315 291.06369 
L 558.39965 290.95754 
L 562.301748 290.780623 
L 564.740559 290.674473 
L 566.691608 290.63909 
L 571.081469 290.53294 
L 573.032517 290.497557 
L 579.373427 290.391407 
L 581.324476 290.356024 
L 583.763287 290.249874 
L 586.68986 290.143724 
L 590.104196 290.072957 
L 591.07972 290.00219 
L 602.786014 289.89604 
L 609.126923 289.542207 
L 611.565734 289.471441 
L 612.541259 289.365291 
L 613.516783 289.294524 
L 617.418881 289.188374 
L 620.345455 289.082224 
L 625.223077 288.976074 
L 627.661888 288.728391 
L 632.53951 288.622241 
L 633.515035 288.516091 
L 638.392657 288.409941 
L 640.831469 288.339174 
L 646.196853 288.303791 
L 647.172378 288.197641 
L 652.537762 288.091491 
L 653.513287 288.020725 
L 664.244056 287.914575 
L 667.170629 287.808425 
L 674.487063 287.702275 
L 676.438112 287.666891 
L 680.827972 287.596125 
L 681.803497 287.489975 
L 688.144406 287.383825 
L 690.583217 287.313058 
L 699.362937 287.206908 
L 700.826224 287.100758 
L 702.28951 286.994608 
L 703.752797 286.888458 
L 711.069231 286.782308 
L 713.995804 286.676158 
L 727.165385 286.570008 
L 731.555245 286.357709 
L 737.408392 286.251559 
L 738.383916 286.145409 
L 745.70035 286.074642 
L 746.675874 286.003875 
L 747.163636 286.003875 
L 747.163636 286.003875 
" clip-path="url(#pbaab51345a)" style="fill: none; stroke: #ff7f0e; stroke-width: 1.5; stroke-linecap: square"/>
   </g>
   <g id="patch_3">
    <path d="M 108 320.4 
L 108 43.2 
" style="fill: none; stroke: #a9a9a9; stroke-width: 0.8; stroke-linejoin: miter; stroke-linecap: square"/>
   </g>
   <g id="patch_4">
    <path d="M 777.6 320.4 
L 777.6 43.2 
" style="fill: none"/>
   </g>
   <g id="patch_5">
    <path d="M 108 320.4 
L 777.6 320.4 
" style="fill: none; stroke: #a9a9a9; stroke-width: 0.8; stroke-linejoin: miter; stroke-linecap: square"/>
   </g>
   <g id="patch_6">
    <path d="M 108 43.2 
L 777.6 43.2 
" style="fill: none"/>
   </g>
   <g id="text_19">
    <!-- get_subscribe history -->
    <g style="fill: #a9a9a9" transform="translate(378.6075 37.2) scale(0.12 -0.12)">
     <defs>
      <path id="DejaVuSans-67" d="M 2906 1791 
Q 2906 2416 2648 2759 
Q 2391 3103 1925 3103 
Q 1463 3103 1205 2759 
Q 947 2416 947 1791 
Q 947 1169 1205 825 
Q 1463 481 1925 481 
Q 2391 481 2648 825 
Q 2906 1169 2906 1791 
z
M 3481 434 
Q 3481 -459 3084 -895 
Q 2688 -1331 1869 -1331 
Q 1566 -1331 1297 -1286 
Q 1028 -1241 775 -1147 
L 775 -588 
Q 1028 -725 1275 -790 
Q 1522 -856 1778 -856 
Q 2344 -856 2625 -561 
Q 2906 -266 2906 331 
L 2906 616 
Q 2728 306 2450 153 
Q 2172 0 1784 0 
Q 1141 0 747 490 
Q 353 981 353 1791 
Q 353 2603 747 3093 
Q 1141 3584 1784 3584 
Q 2172 3584 2450 3431 
Q 2728 3278 2906 2969 
L 2906 3500 
L 3481 3500 
L 3481 434 
z
" transform="scale(0.015625)"/>
      <path id="DejaVuSans-65" d="M 3597 1894 
L 3597 1613 
L 953 1613 
Q 991 1019 1311 708 
Q 1631 397 2203 397 
Q 2534 397 2845 478 
Q 3156 559 3463 722 
L 3463 178 
Q 3153 47 2828 -22 
Q 2503 -91 2169 -91 
Q 1331 -91 842 396 
Q 353 884 353 1716 
Q 353 2575 817 3079 
Q 1281 3584 2069 3584 
Q 2775 3584 3186 3129 
Q 3597 2675 3597 1894 
z
M 3022 2063 
Q 3016 2534 2758 2815 
Q 2500 3097 2075 3097 
Q 1594 3097 1305 2825 
Q 1016 2553 972 2059 
L 3022 2063 
z
" transform="scale(0.015625)"/>
      <path id="DejaVuSans-74" d="M 1172 4494 
L 1172 3500 
L 2356 3500 
L 2356 3053 
L 1172 3053 
L 1172 1153 
Q 1172 725 1289 603 
Q 1406 481 1766 481 
L 2356 481 
L 2356 0 
L 1766 0 
Q 1100 0 847 248 
Q 594 497 594 1153 
L 594 3053 
L 172 3053 
L 172 3500 
L 594 3500 
L 594 4494 
L 1172 4494 
z
" transform="scale(0.015625)"/>
      <path id="DejaVuSans-5f" d="M 3263 -1063 
L 3263 -1509 
L -63 -1509 
L -63 -1063 
L 3263 -1063 
z
" transform="scale(0.015625)"/>
      <path id="DejaVuSans-73" d="M 2834 3397 
L 2834 2853 
Q 2591 2978 2328 3040 
Q 2066 3103 1784 3103 
Q 1356 3103 1142 2972 
Q 928 2841 928 2578 
Q 928 2378 1081 2264 
Q 1234 2150 1697 2047 
L 1894 2003 
Q 2506 1872 2764 1633 
Q 3022 1394 3022 966 
Q 3022 478 2636 193 
Q 2250 -91 1575 -91 
Q 1294 -91 989 -36 
Q 684 19 347 128 
L 347 722 
Q 666 556 975 473 
Q 1284 391 1588 391 
Q 1994 391 2212 530 
Q 2431 669 2431 922 
Q 2431 1156 2273 1281 
Q 2116 1406 1581 1522 
L 1381 1569 
Q 847 1681 609 1914 
Q 372 2147 372 2553 
Q 372 3047 722 3315 
Q 1072 3584 1716 3584 
Q 2034 3584 2315 3537 
Q 2597 3491 2834 3397 
z
" transform="scale(0.015625)"/>
      <path id="DejaVuSans-75" d="M 544 1381 
L 544 3500 
L 1119 3500 
L 1119 1403 
Q 1119 906 1312 657 
Q 1506 409 1894 409 
Q 2359 409 2629 706 
Q 2900 1003 2900 1516 
L 2900 3500 
L 3475 3500 
L 3475 0 
L 2900 0 
L 2900 538 
Q 2691 219 2414 64 
Q 2138 -91 1772 -91 
Q 1169 -91 856 284 
Q 544 659 544 1381 
z
M 1991 3584 
L 1991 3584 
z
" transform="scale(0.015625)"/>
      <path id="DejaVuSans-62" d="M 3116 1747 
Q 3116 2381 2855 2742 
Q 2594 3103 2138 3103 
Q 1681 3103 1420 2742 
Q 1159 2381 1159 1747 
Q 1159 1113 1420 752 
Q 1681 391 2138 391 
Q 2594 391 2855 752 
Q 3116 1113 3116 1747 
z
M 1159 2969 
Q 1341 3281 1617 3432 
Q 1894 3584 2278 3584 
Q 2916 3584 3314 3078 
Q 3713 2572 3713 1747 
Q 3713 922 3314 415 
Q 2916 -91 2278 -91 
Q 1894 -91 1617 61 
Q 1341 213 1159 525 
L 1159 0 
L 581 0 
L 581 4863 
L 1159 4863 
L 1159 2969 
z
" transform="scale(0.015625)"/>
      <path id="DejaVuSans-63" d="M 3122 3366 
L 3122 2828 
Q 2878 2963 2633 3030 
Q 2388 3097 2138 3097 
Q 1578 3097 1268 2742 
Q 959 2388 959 1747 
Q 959 1106 1268 751 
Q 1578 397 2138 397 
Q 2388 397 2633 464 
Q 2878 531 3122 666 
L 3122 134 
Q 2881 22 2623 -34 
Q 2366 -91 2075 -91 
Q 1284 -91 818 406 
Q 353 903 353 1747 
Q 353 2603 823 3093 
Q 1294 3584 2113 3584 
Q 2378 3584 2631 3529 
Q 2884 3475 3122 3366 
z
" transform="scale(0.015625)"/>
      <path id="DejaVuSans-72" d="M 2631 2963 
Q 2534 3019 2420 3045 
Q 2306 3072 2169 3072 
Q 1681 3072 1420 2755 
Q 1159 2438 1159 1844 
L 1159 0 
L 581 0 
L 581 3500 
L 1159 3500 
L 1159 2956 
Q 1341 3275 1631 3429 
Q 1922 3584 2338 3584 
Q 2397 3584 2469 3576 
Q 2541 3569 2628 3553 
L 2631 2963 
z
" transform="scale(0.015625)"/>
      <path id="DejaVuSans-69" d="M 603 3500 
L 1178 3500 
L 1178 0 
L 603 0 
L 603 3500 
z
M 603 4863 
L 1178 4863 
L 1178 4134 
L 603 4134 
L 603 4863 
z
" transform="scale(0.015625)"/>
      <path id="DejaVuSans-20" transform="scale(0.015625)"/>
      <path id="DejaVuSans-68" d="M 3513 2113 
L 3513 0 
L 2938 0 
L 2938 2094 
Q 2938 2591 2744 2837 
Q 2550 3084 2163 3084 
Q 1697 3084 1428 2787 
Q 1159 2491 1159 1978 
L 1159 0 
L 581 0 
L 581 4863 
L 1159 4863 
L 1159 2956 
Q 1366 3272 1645 3428 
Q 1925 3584 2291 3584 
Q 2894 3584 3203 3211 
Q 3513 2838 3513 2113 
z
" transform="scale(0.015625)"/>
      <path id="DejaVuSans-6f" d="M 1959 3097 
Q 1497 3097 1228 2736 
Q 959 2375 959 1747 
Q 959 1119 1226 758 
Q 1494 397 1959 397 
Q 2419 397 2687 759 
Q 2956 1122 2956 1747 
Q 2956 2369 2687 2733 
Q 2419 3097 1959 3097 
z
M 1959 3584 
Q 2709 3584 3137 3096 
Q 3566 2609 3566 1747 
Q 3566 888 3137 398 
Q 2709 -91 1959 -91 
Q 1206 -91 779 398 
Q 353 888 353 1747 
Q 353 2609 779 3096 
Q 1206 3584 1959 3584 
z
" transform="scale(0.015625)"/>
      <path id="DejaVuSans-79" d="M 2059 -325 
Q 1816 -950 1584 -1140 
Q 1353 -1331 966 -1331 
L 506 -1331 
L 506 -850 
L 844 -850 
Q 1081 -850 1212 -737 
Q 1344 -625 1503 -206 
L 1606 56 
L 191 3500 
L 800 3500 
L 1894 763 
L 2988 3500 
L 3597 3500 
L 2059 -325 
z
" transform="scale(0.015625)"/>
     </defs>
     <use xlink:href="#DejaVuSans-67"/>
     <use xlink:href="#DejaVuSans-65" transform="translate(63.476562 0)"/>
     <use xlink:href="#DejaVuSans-74" transform="translate(125 0)"/>
     <use xlink:href="#DejaVuSans-5f" transform="translate(164.208984 0)"/>
     <use xlink:href="#DejaVuSans-73" transform="translate(214.208984 0)"/>
     <use xlink:href="#DejaVuSans-75" transform="translate(266.308594 0)"/>
     <use xlink:href="#DejaVuSans-62" transform="translate(329.6875 0)"/>
     <use xlink:href="#DejaVuSans-73" transform="translate(393.164062 0)"/>
     <use xlink:href="#DejaVuSans-63" transform="translate(445.263672 0)"/>
     <use xlink:href="#DejaVuSans-72" transform="translate(500.244141 0)"/>
     <use xlink:href="#DejaVuSans-69" transform="translate(541.357422 0)"/>
     <use xlink:href="#DejaVuSans-62" transform="translate(569.140625 0)"/>
     <use xlink:href="#DejaVuSans-65" transform="translate(632.617188 0)"/>
     <use xlink:href="#DejaVuSans-20" transform="translate(694.140625 0)"/>
     <use xlink:href="#DejaVuSans-68" transform="translate(725.927734 0)"/>
     <use xlink:href="#DejaVuSans-69" transform="translate(789.306641 0)"/>
     <use xlink:href="#DejaVuSans-73" transform="translate(817.089844 0)"/>
     <use xlink:href="#DejaVuSans-74" transform="translate(869.189453 0)"/>
     <use xlink:href="#DejaVuSans-6f" transform="translate(908.398438 0)"/>
     <use xlink:href="#DejaVuSans-72" transform="translate(969.580078 0)"/>
     <use xlink:href="#DejaVuSans-79" transform="translate(1010.693359 0)"/>
    </g>
   </g>
   <g id="legend_1">
    <g id="line2d_39">
     <path d="M 815.08 328.498438 
L 825.08 328.498438 
L 835.08 328.498438 
" style="fill: none; stroke: #1f77b4; stroke-width: 1.5; stroke-linecap: square"/>
    </g>
    <g id="text_20">
     <!-- star -->
     <g style="fill: #a9a9a9" transform="translate(843.08 331.998438) scale(0.1 -0.1)">
      <defs>
       <path id="DejaVuSans-61" d="M 2194 1759 
Q 1497 1759 1228 1600 
Q 959 1441 959 1056 
Q 959 750 1161 570 
Q 1363 391 1709 391 
Q 2188 391 2477 730 
Q 2766 1069 2766 1631 
L 2766 1759 
L 2194 1759 
z
M 3341 1997 
L 3341 0 
L 2766 0 
L 2766 531 
Q 2569 213 2275 61 
Q 1981 -91 1556 -91 
Q 1019 -91 701 211 
Q 384 513 384 1019 
Q 384 1609 779 1909 
Q 1175 2209 1959 2209 
L 2766 2209 
L 2766 2266 
Q 2766 2663 2505 2880 
Q 2244 3097 1772 3097 
Q 1472 3097 1187 3025 
Q 903 2953 641 2809 
L 641 3341 
Q 956 3463 1253 3523 
Q 1550 3584 1831 3584 
Q 2591 3584 2966 3190 
Q 3341 2797 3341 1997 
z
" transform="scale(0.015625)"/>
      </defs>
      <use xlink:href="#DejaVuSans-73"/>
      <use xlink:href="#DejaVuSans-74" transform="translate(52.099609 0)"/>
      <use xlink:href="#DejaVuSans-61" transform="translate(91.308594 0)"/>
      <use xlink:href="#DejaVuSans-72" transform="translate(152.587891 0)"/>
     </g>
    </g>
    <g id="line2d_40">
     <path d="M 815.08 343.176562 
L 825.08 343.176562 
L 835.08 343.176562 
" style="fill: none; stroke: #ff7f0e; stroke-width: 1.5; stroke-linecap: square"/>
    </g>
    <g id="text_21">
     <!-- fork -->
     <g style="fill: #a9a9a9" transform="translate(843.08 346.676562) scale(0.1 -0.1)">
      <defs>
       <path id="DejaVuSans-66" d="M 2375 4863 
L 2375 4384 
L 1825 4384 
Q 1516 4384 1395 4259 
Q 1275 4134 1275 3809 
L 1275 3500 
L 2222 3500 
L 2222 3053 
L 1275 3053 
L 1275 0 
L 697 0 
L 697 3053 
L 147 3053 
L 147 3500 
L 697 3500 
L 697 3744 
Q 697 4328 969 4595 
Q 1241 4863 1831 4863 
L 2375 4863 
z
" transform="scale(0.015625)"/>
       <path id="DejaVuSans-6b" d="M 581 4863 
L 1159 4863 
L 1159 1991 
L 2875 3500 
L 3609 3500 
L 1753 1863 
L 3688 0 
L 2938 0 
L 1159 1709 
L 1159 0 
L 581 0 
L 581 4863 
z
" transform="scale(0.015625)"/>
      </defs>
      <use xlink:href="#DejaVuSans-66"/>
      <use xlink:href="#DejaVuSans-6f" transform="translate(35.205078 0)"/>
      <use xlink:href="#DejaVuSans-72" transform="translate(96.386719 0)"/>
      <use xlink:href="#DejaVuSans-6b" transform="translate(137.5 0)"/>
     </g>
    </g>
   </g>
  </g>
 </g>
 <defs>
  <clipPath id="pbaab51345a">
   <rect x="108" y="43.2" width="669.6" height="277.2"/>
  </clipPath>
 </defs>
</svg>
