<?xml version="1.0" encoding="utf-8" standalone="no"?>
<!DOCTYPE svg PUBLIC "-//W3C//DTD SVG 1.1//EN"
  "http://www.w3.org/Graphics/SVG/1.1/DTD/svg11.dtd">
<svg xmlns:xlink="http://www.w3.org/1999/xlink" width="864pt" height="360pt" viewBox="0 0 864 360" xmlns="http://www.w3.org/2000/svg" version="1.1">
 <metadata>
  <rdf:RDF xmlns:dc="http://purl.org/dc/elements/1.1/" xmlns:cc="http://creativecommons.org/ns#" xmlns:rdf="http://www.w3.org/1999/02/22-rdf-syntax-ns#">
   <cc:Work>
    <dc:type rdf:resource="http://purl.org/dc/dcmitype/StillImage"/>
    <dc:date>2024-12-24T08:13:51.874338</dc:date>
    <dc:format>image/svg+xml</dc:format>
    <dc:creator>
     <cc:Agent>
      <dc:title>Matplotlib v3.10.0, https://matplotlib.org/</dc:title>
     </cc:Agent>
    </dc:creator>
   </cc:Work>
  </rdf:RDF>
 </metadata>
 <defs>
  <style type="text/css">*{stroke-linejoin: round; stroke-linecap: butt}</style>
 </defs>
 <g id="figure_1">
  <g id="patch_1">
   <path d="M 0 360 
L 864 360 
L 864 0 
L 0 0 
L 0 360 
z
" style="fill: none; opacity: 0"/>
  </g>
  <g id="axes_1">
   <g id="patch_2">
    <path d="M 108 320.4 
L 777.6 320.4 
L 777.6 43.2 
L 108 43.2 
L 108 320.4 
z
" style="fill: none; opacity: 0"/>
   </g>
   <g id="matplotlib.axis_1">
    <g id="xtick_1">
     <g id="line2d_1">
      <path d="M 127.226814 320.4 
L 127.226814 43.2 
" clip-path="url(#p675557d3b9)" style="fill: none; stroke-dasharray: 5.12,1.28,0.8,1.28; stroke-dashoffset: 0; stroke: #b0b0b0; stroke-width: 0.8"/>
     </g>
     <g id="line2d_2">
      <defs>
       <path id="m9d61458f50" d="M 0 0 
L 0 3.5 
" style="stroke: #a9a9a9; stroke-width: 0.8"/>
      </defs>
      <g>
       <use xlink:href="#m9d61458f50" x="127.226814" y="320.4" style="fill: #a9a9a9; stroke: #a9a9a9; stroke-width: 0.8"/>
      </g>
     </g>
     <g id="text_1">
      <!-- 2021-07 -->
      <g style="fill: #a9a9a9" transform="translate(106.335408 334.998438) scale(0.1 -0.1)">
       <defs>
        <path id="DejaVuSans-32" d="M 1228 531 
L 3431 531 
L 3431 0 
L 469 0 
L 469 531 
Q 828 903 1448 1529 
Q 2069 2156 2228 2338 
Q 2531 2678 2651 2914 
Q 2772 3150 2772 3378 
Q 2772 3750 2511 3984 
Q 2250 4219 1831 4219 
Q 1534 4219 1204 4116 
Q 875 4013 500 3803 
L 500 4441 
Q 881 4594 1212 4672 
Q 1544 4750 1819 4750 
Q 2544 4750 2975 4387 
Q 3406 4025 3406 3419 
Q 3406 3131 3298 2873 
Q 3191 2616 2906 2266 
Q 2828 2175 2409 1742 
Q 1991 1309 1228 531 
z
" transform="scale(0.015625)"/>
        <path id="DejaVuSans-30" d="M 2034 4250 
Q 1547 4250 1301 3770 
Q 1056 3291 1056 2328 
Q 1056 1369 1301 889 
Q 1547 409 2034 409 
Q 2525 409 2770 889 
Q 3016 1369 3016 2328 
Q 3016 3291 2770 3770 
Q 2525 4250 2034 4250 
z
M 2034 4750 
Q 2819 4750 3233 4129 
Q 3647 3509 3647 2328 
Q 3647 1150 3233 529 
Q 2819 -91 2034 -91 
Q 1250 -91 836 529 
Q 422 1150 422 2328 
Q 422 3509 836 4129 
Q 1250 4750 2034 4750 
z
" transform="scale(0.015625)"/>
        <path id="DejaVuSans-31" d="M 794 531 
L 1825 531 
L 1825 4091 
L 703 3866 
L 703 4441 
L 1819 4666 
L 2450 4666 
L 2450 531 
L 3481 531 
L 3481 0 
L 794 0 
L 794 531 
z
" transform="scale(0.015625)"/>
        <path id="DejaVuSans-2d" d="M 313 2009 
L 1997 2009 
L 1997 1497 
L 313 1497 
L 313 2009 
z
" transform="scale(0.015625)"/>
        <path id="DejaVuSans-37" d="M 525 4666 
L 3525 4666 
L 3525 4397 
L 1831 0 
L 1172 0 
L 2766 4134 
L 525 4134 
L 525 4666 
z
" transform="scale(0.015625)"/>
       </defs>
       <use xlink:href="#DejaVuSans-32"/>
       <use xlink:href="#DejaVuSans-30" transform="translate(63.623047 0)"/>
       <use xlink:href="#DejaVuSans-32" transform="translate(127.246094 0)"/>
       <use xlink:href="#DejaVuSans-31" transform="translate(190.869141 0)"/>
       <use xlink:href="#DejaVuSans-2d" transform="translate(254.492188 0)"/>
       <use xlink:href="#DejaVuSans-30" transform="translate(290.576172 0)"/>
       <use xlink:href="#DejaVuSans-37" transform="translate(354.199219 0)"/>
      </g>
     </g>
    </g>
    <g id="xtick_2">
     <g id="line2d_3">
      <path d="M 216.90321 320.4 
L 216.90321 43.2 
" clip-path="url(#p675557d3b9)" style="fill: none; stroke-dasharray: 5.12,1.28,0.8,1.28; stroke-dashoffset: 0; stroke: #b0b0b0; stroke-width: 0.8"/>
     </g>
     <g id="line2d_4">
      <g>
       <use xlink:href="#m9d61458f50" x="216.90321" y="320.4" style="fill: #a9a9a9; stroke: #a9a9a9; stroke-width: 0.8"/>
      </g>
     </g>
     <g id="text_2">
      <!-- 2022-01 -->
      <g style="fill: #a9a9a9" transform="translate(196.011804 334.998438) scale(0.1 -0.1)">
       <use xlink:href="#DejaVuSans-32"/>
       <use xlink:href="#DejaVuSans-30" transform="translate(63.623047 0)"/>
       <use xlink:href="#DejaVuSans-32" transform="translate(127.246094 0)"/>
       <use xlink:href="#DejaVuSans-32" transform="translate(190.869141 0)"/>
       <use xlink:href="#DejaVuSans-2d" transform="translate(254.492188 0)"/>
       <use xlink:href="#DejaVuSans-30" transform="translate(290.576172 0)"/>
       <use xlink:href="#DejaVuSans-31" transform="translate(354.199219 0)"/>
      </g>
     </g>
    </g>
    <g id="xtick_3">
     <g id="line2d_5">
      <path d="M 305.11749 320.4 
L 305.11749 43.2 
" clip-path="url(#p675557d3b9)" style="fill: none; stroke-dasharray: 5.12,1.28,0.8,1.28; stroke-dashoffset: 0; stroke: #b0b0b0; stroke-width: 0.8"/>
     </g>
     <g id="line2d_6">
      <g>
       <use xlink:href="#m9d61458f50" x="305.11749" y="320.4" style="fill: #a9a9a9; stroke: #a9a9a9; stroke-width: 0.8"/>
      </g>
     </g>
     <g id="text_3">
      <!-- 2022-07 -->
      <g style="fill: #a9a9a9" transform="translate(284.226084 334.998438) scale(0.1 -0.1)">
       <use xlink:href="#DejaVuSans-32"/>
       <use xlink:href="#DejaVuSans-30" transform="translate(63.623047 0)"/>
       <use xlink:href="#DejaVuSans-32" transform="translate(127.246094 0)"/>
       <use xlink:href="#DejaVuSans-32" transform="translate(190.869141 0)"/>
       <use xlink:href="#DejaVuSans-2d" transform="translate(254.492188 0)"/>
       <use xlink:href="#DejaVuSans-30" transform="translate(290.576172 0)"/>
       <use xlink:href="#DejaVuSans-37" transform="translate(354.199219 0)"/>
      </g>
     </g>
    </g>
    <g id="xtick_4">
     <g id="line2d_7">
      <path d="M 394.793886 320.4 
L 394.793886 43.2 
" clip-path="url(#p675557d3b9)" style="fill: none; stroke-dasharray: 5.12,1.28,0.8,1.28; stroke-dashoffset: 0; stroke: #b0b0b0; stroke-width: 0.8"/>
     </g>
     <g id="line2d_8">
      <g>
       <use xlink:href="#m9d61458f50" x="394.793886" y="320.4" style="fill: #a9a9a9; stroke: #a9a9a9; stroke-width: 0.8"/>
      </g>
     </g>
     <g id="text_4">
      <!-- 2023-01 -->
      <g style="fill: #a9a9a9" transform="translate(373.90248 334.998438) scale(0.1 -0.1)">
       <defs>
        <path id="DejaVuSans-33" d="M 2597 2516 
Q 3050 2419 3304 2112 
Q 3559 1806 3559 1356 
Q 3559 666 3084 287 
Q 2609 -91 1734 -91 
Q 1441 -91 1130 -33 
Q 819 25 488 141 
L 488 750 
Q 750 597 1062 519 
Q 1375 441 1716 441 
Q 2309 441 2620 675 
Q 2931 909 2931 1356 
Q 2931 1769 2642 2001 
Q 2353 2234 1838 2234 
L 1294 2234 
L 1294 2753 
L 1863 2753 
Q 2328 2753 2575 2939 
Q 2822 3125 2822 3475 
Q 2822 3834 2567 4026 
Q 2313 4219 1838 4219 
Q 1578 4219 1281 4162 
Q 984 4106 628 3988 
L 628 4550 
Q 988 4650 1302 4700 
Q 1616 4750 1894 4750 
Q 2613 4750 3031 4423 
Q 3450 4097 3450 3541 
Q 3450 3153 3228 2886 
Q 3006 2619 2597 2516 
z
" transform="scale(0.015625)"/>
       </defs>
       <use xlink:href="#DejaVuSans-32"/>
       <use xlink:href="#DejaVuSans-30" transform="translate(63.623047 0)"/>
       <use xlink:href="#DejaVuSans-32" transform="translate(127.246094 0)"/>
       <use xlink:href="#DejaVuSans-33" transform="translate(190.869141 0)"/>
       <use xlink:href="#DejaVuSans-2d" transform="translate(254.492188 0)"/>
       <use xlink:href="#DejaVuSans-30" transform="translate(290.576172 0)"/>
       <use xlink:href="#DejaVuSans-31" transform="translate(354.199219 0)"/>
      </g>
     </g>
    </g>
    <g id="xtick_5">
     <g id="line2d_9">
      <path d="M 483.008167 320.4 
L 483.008167 43.2 
" clip-path="url(#p675557d3b9)" style="fill: none; stroke-dasharray: 5.12,1.28,0.8,1.28; stroke-dashoffset: 0; stroke: #b0b0b0; stroke-width: 0.8"/>
     </g>
     <g id="line2d_10">
      <g>
       <use xlink:href="#m9d61458f50" x="483.008167" y="320.4" style="fill: #a9a9a9; stroke: #a9a9a9; stroke-width: 0.8"/>
      </g>
     </g>
     <g id="text_5">
      <!-- 2023-07 -->
      <g style="fill: #a9a9a9" transform="translate(462.11676 334.998438) scale(0.1 -0.1)">
       <use xlink:href="#DejaVuSans-32"/>
       <use xlink:href="#DejaVuSans-30" transform="translate(63.623047 0)"/>
       <use xlink:href="#DejaVuSans-32" transform="translate(127.246094 0)"/>
       <use xlink:href="#DejaVuSans-33" transform="translate(190.869141 0)"/>
       <use xlink:href="#DejaVuSans-2d" transform="translate(254.492188 0)"/>
       <use xlink:href="#DejaVuSans-30" transform="translate(290.576172 0)"/>
       <use xlink:href="#DejaVuSans-37" transform="translate(354.199219 0)"/>
      </g>
     </g>
    </g>
    <g id="xtick_6">
     <g id="line2d_11">
      <path d="M 572.684562 320.4 
L 572.684562 43.2 
" clip-path="url(#p675557d3b9)" style="fill: none; stroke-dasharray: 5.12,1.28,0.8,1.28; stroke-dashoffset: 0; stroke: #b0b0b0; stroke-width: 0.8"/>
     </g>
     <g id="line2d_12">
      <g>
       <use xlink:href="#m9d61458f50" x="572.684562" y="320.4" style="fill: #a9a9a9; stroke: #a9a9a9; stroke-width: 0.8"/>
      </g>
     </g>
     <g id="text_6">
      <!-- 2024-01 -->
      <g style="fill: #a9a9a9" transform="translate(551.793156 334.998438) scale(0.1 -0.1)">
       <defs>
        <path id="DejaVuSans-34" d="M 2419 4116 
L 825 1625 
L 2419 1625 
L 2419 4116 
z
M 2253 4666 
L 3047 4666 
L 3047 1625 
L 3713 1625 
L 3713 1100 
L 3047 1100 
L 3047 0 
L 2419 0 
L 2419 1100 
L 313 1100 
L 313 1709 
L 2253 4666 
z
" transform="scale(0.015625)"/>
       </defs>
       <use xlink:href="#DejaVuSans-32"/>
       <use xlink:href="#DejaVuSans-30" transform="translate(63.623047 0)"/>
       <use xlink:href="#DejaVuSans-32" transform="translate(127.246094 0)"/>
       <use xlink:href="#DejaVuSans-34" transform="translate(190.869141 0)"/>
       <use xlink:href="#DejaVuSans-2d" transform="translate(254.492188 0)"/>
       <use xlink:href="#DejaVuSans-30" transform="translate(290.576172 0)"/>
       <use xlink:href="#DejaVuSans-31" transform="translate(354.199219 0)"/>
      </g>
     </g>
    </g>
    <g id="xtick_7">
     <g id="line2d_13">
      <path d="M 661.386214 320.4 
L 661.386214 43.2 
" clip-path="url(#p675557d3b9)" style="fill: none; stroke-dasharray: 5.12,1.28,0.8,1.28; stroke-dashoffset: 0; stroke: #b0b0b0; stroke-width: 0.8"/>
     </g>
     <g id="line2d_14">
      <g>
       <use xlink:href="#m9d61458f50" x="661.386214" y="320.4" style="fill: #a9a9a9; stroke: #a9a9a9; stroke-width: 0.8"/>
      </g>
     </g>
     <g id="text_7">
      <!-- 2024-07 -->
      <g style="fill: #a9a9a9" transform="translate(640.494808 334.998438) scale(0.1 -0.1)">
       <use xlink:href="#DejaVuSans-32"/>
       <use xlink:href="#DejaVuSans-30" transform="translate(63.623047 0)"/>
       <use xlink:href="#DejaVuSans-32" transform="translate(127.246094 0)"/>
       <use xlink:href="#DejaVuSans-34" transform="translate(190.869141 0)"/>
       <use xlink:href="#DejaVuSans-2d" transform="translate(254.492188 0)"/>
       <use xlink:href="#DejaVuSans-30" transform="translate(290.576172 0)"/>
       <use xlink:href="#DejaVuSans-37" transform="translate(354.199219 0)"/>
      </g>
     </g>
    </g>
    <g id="xtick_8">
     <g id="line2d_15">
      <path d="M 751.06261 320.4 
L 751.06261 43.2 
" clip-path="url(#p675557d3b9)" style="fill: none; stroke-dasharray: 5.12,1.28,0.8,1.28; stroke-dashoffset: 0; stroke: #b0b0b0; stroke-width: 0.8"/>
     </g>
     <g id="line2d_16">
      <g>
       <use xlink:href="#m9d61458f50" x="751.06261" y="320.4" style="fill: #a9a9a9; stroke: #a9a9a9; stroke-width: 0.8"/>
      </g>
     </g>
     <g id="text_8">
      <!-- 2025-01 -->
      <g style="fill: #a9a9a9" transform="translate(730.171204 334.998438) scale(0.1 -0.1)">
       <defs>
        <path id="DejaVuSans-35" d="M 691 4666 
L 3169 4666 
L 3169 4134 
L 1269 4134 
L 1269 2991 
Q 1406 3038 1543 3061 
Q 1681 3084 1819 3084 
Q 2600 3084 3056 2656 
Q 3513 2228 3513 1497 
Q 3513 744 3044 326 
Q 2575 -91 1722 -91 
Q 1428 -91 1123 -41 
Q 819 9 494 109 
L 494 744 
Q 775 591 1075 516 
Q 1375 441 1709 441 
Q 2250 441 2565 725 
Q 2881 1009 2881 1497 
Q 2881 1984 2565 2268 
Q 2250 2553 1709 2553 
Q 1456 2553 1204 2497 
Q 953 2441 691 2322 
L 691 4666 
z
" transform="scale(0.015625)"/>
       </defs>
       <use xlink:href="#DejaVuSans-32"/>
       <use xlink:href="#DejaVuSans-30" transform="translate(63.623047 0)"/>
       <use xlink:href="#DejaVuSans-32" transform="translate(127.246094 0)"/>
       <use xlink:href="#DejaVuSans-35" transform="translate(190.869141 0)"/>
       <use xlink:href="#DejaVuSans-2d" transform="translate(254.492188 0)"/>
       <use xlink:href="#DejaVuSans-30" transform="translate(290.576172 0)"/>
       <use xlink:href="#DejaVuSans-31" transform="translate(354.199219 0)"/>
      </g>
     </g>
    </g>
   </g>
   <g id="matplotlib.axis_2">
    <g id="ytick_1">
     <g id="line2d_17">
      <path d="M 108 307.835368 
L 777.6 307.835368 
" clip-path="url(#p675557d3b9)" style="fill: none; stroke-dasharray: 5.12,1.28,0.8,1.28; stroke-dashoffset: 0; stroke: #b0b0b0; stroke-width: 0.8"/>
     </g>
     <g id="line2d_18">
      <defs>
       <path id="m142a3d26ef" d="M 0 0 
L -3.5 0 
" style="stroke: #a9a9a9; stroke-width: 0.8"/>
      </defs>
      <g>
       <use xlink:href="#m142a3d26ef" x="108" y="307.835368" style="fill: #a9a9a9; stroke: #a9a9a9; stroke-width: 0.8"/>
      </g>
     </g>
     <g id="text_9">
      <!-- 0 -->
      <g style="fill: #a9a9a9" transform="translate(94.6375 311.634587) scale(0.1 -0.1)">
       <use xlink:href="#DejaVuSans-30"/>
      </g>
     </g>
    </g>
    <g id="ytick_2">
     <g id="line2d_19">
      <path d="M 108 279.540632 
L 777.6 279.540632 
" clip-path="url(#p675557d3b9)" style="fill: none; stroke-dasharray: 5.12,1.28,0.8,1.28; stroke-dashoffset: 0; stroke: #b0b0b0; stroke-width: 0.8"/>
     </g>
     <g id="line2d_20">
      <g>
       <use xlink:href="#m142a3d26ef" x="108" y="279.540632" style="fill: #a9a9a9; stroke: #a9a9a9; stroke-width: 0.8"/>
      </g>
     </g>
     <g id="text_10">
      <!-- 800 -->
      <g style="fill: #a9a9a9" transform="translate(81.9125 283.33985) scale(0.1 -0.1)">
       <defs>
        <path id="DejaVuSans-38" d="M 2034 2216 
Q 1584 2216 1326 1975 
Q 1069 1734 1069 1313 
Q 1069 891 1326 650 
Q 1584 409 2034 409 
Q 2484 409 2743 651 
Q 3003 894 3003 1313 
Q 3003 1734 2745 1975 
Q 2488 2216 2034 2216 
z
M 1403 2484 
Q 997 2584 770 2862 
Q 544 3141 544 3541 
Q 544 4100 942 4425 
Q 1341 4750 2034 4750 
Q 2731 4750 3128 4425 
Q 3525 4100 3525 3541 
Q 3525 3141 3298 2862 
Q 3072 2584 2669 2484 
Q 3125 2378 3379 2068 
Q 3634 1759 3634 1313 
Q 3634 634 3220 271 
Q 2806 -91 2034 -91 
Q 1263 -91 848 271 
Q 434 634 434 1313 
Q 434 1759 690 2068 
Q 947 2378 1403 2484 
z
M 1172 3481 
Q 1172 3119 1398 2916 
Q 1625 2713 2034 2713 
Q 2441 2713 2670 2916 
Q 2900 3119 2900 3481 
Q 2900 3844 2670 4047 
Q 2441 4250 2034 4250 
Q 1625 4250 1398 4047 
Q 1172 3844 1172 3481 
z
" transform="scale(0.015625)"/>
       </defs>
       <use xlink:href="#DejaVuSans-38"/>
       <use xlink:href="#DejaVuSans-30" transform="translate(63.623047 0)"/>
       <use xlink:href="#DejaVuSans-30" transform="translate(127.246094 0)"/>
      </g>
     </g>
    </g>
    <g id="ytick_3">
     <g id="line2d_21">
      <path d="M 108 251.245895 
L 777.6 251.245895 
" clip-path="url(#p675557d3b9)" style="fill: none; stroke-dasharray: 5.12,1.28,0.8,1.28; stroke-dashoffset: 0; stroke: #b0b0b0; stroke-width: 0.8"/>
     </g>
     <g id="line2d_22">
      <g>
       <use xlink:href="#m142a3d26ef" x="108" y="251.245895" style="fill: #a9a9a9; stroke: #a9a9a9; stroke-width: 0.8"/>
      </g>
     </g>
     <g id="text_11">
      <!-- 1600 -->
      <g style="fill: #a9a9a9" transform="translate(75.55 255.045113) scale(0.1 -0.1)">
       <defs>
        <path id="DejaVuSans-36" d="M 2113 2584 
Q 1688 2584 1439 2293 
Q 1191 2003 1191 1497 
Q 1191 994 1439 701 
Q 1688 409 2113 409 
Q 2538 409 2786 701 
Q 3034 994 3034 1497 
Q 3034 2003 2786 2293 
Q 2538 2584 2113 2584 
z
M 3366 4563 
L 3366 3988 
Q 3128 4100 2886 4159 
Q 2644 4219 2406 4219 
Q 1781 4219 1451 3797 
Q 1122 3375 1075 2522 
Q 1259 2794 1537 2939 
Q 1816 3084 2150 3084 
Q 2853 3084 3261 2657 
Q 3669 2231 3669 1497 
Q 3669 778 3244 343 
Q 2819 -91 2113 -91 
Q 1303 -91 875 529 
Q 447 1150 447 2328 
Q 447 3434 972 4092 
Q 1497 4750 2381 4750 
Q 2619 4750 2861 4703 
Q 3103 4656 3366 4563 
z
" transform="scale(0.015625)"/>
       </defs>
       <use xlink:href="#DejaVuSans-31"/>
       <use xlink:href="#DejaVuSans-36" transform="translate(63.623047 0)"/>
       <use xlink:href="#DejaVuSans-30" transform="translate(127.246094 0)"/>
       <use xlink:href="#DejaVuSans-30" transform="translate(190.869141 0)"/>
      </g>
     </g>
    </g>
    <g id="ytick_4">
     <g id="line2d_23">
      <path d="M 108 222.951158 
L 777.6 222.951158 
" clip-path="url(#p675557d3b9)" style="fill: none; stroke-dasharray: 5.12,1.28,0.8,1.28; stroke-dashoffset: 0; stroke: #b0b0b0; stroke-width: 0.8"/>
     </g>
     <g id="line2d_24">
      <g>
       <use xlink:href="#m142a3d26ef" x="108" y="222.951158" style="fill: #a9a9a9; stroke: #a9a9a9; stroke-width: 0.8"/>
      </g>
     </g>
     <g id="text_12">
      <!-- 2400 -->
      <g style="fill: #a9a9a9" transform="translate(75.55 226.750377) scale(0.1 -0.1)">
       <use xlink:href="#DejaVuSans-32"/>
       <use xlink:href="#DejaVuSans-34" transform="translate(63.623047 0)"/>
       <use xlink:href="#DejaVuSans-30" transform="translate(127.246094 0)"/>
       <use xlink:href="#DejaVuSans-30" transform="translate(190.869141 0)"/>
      </g>
     </g>
    </g>
    <g id="ytick_5">
     <g id="line2d_25">
      <path d="M 108 194.656421 
L 777.6 194.656421 
" clip-path="url(#p675557d3b9)" style="fill: none; stroke-dasharray: 5.12,1.28,0.8,1.28; stroke-dashoffset: 0; stroke: #b0b0b0; stroke-width: 0.8"/>
     </g>
     <g id="line2d_26">
      <g>
       <use xlink:href="#m142a3d26ef" x="108" y="194.656421" style="fill: #a9a9a9; stroke: #a9a9a9; stroke-width: 0.8"/>
      </g>
     </g>
     <g id="text_13">
      <!-- 3200 -->
      <g style="fill: #a9a9a9" transform="translate(75.55 198.45564) scale(0.1 -0.1)">
       <use xlink:href="#DejaVuSans-33"/>
       <use xlink:href="#DejaVuSans-32" transform="translate(63.623047 0)"/>
       <use xlink:href="#DejaVuSans-30" transform="translate(127.246094 0)"/>
       <use xlink:href="#DejaVuSans-30" transform="translate(190.869141 0)"/>
      </g>
     </g>
    </g>
    <g id="ytick_6">
     <g id="line2d_27">
      <path d="M 108 166.361684 
L 777.6 166.361684 
" clip-path="url(#p675557d3b9)" style="fill: none; stroke-dasharray: 5.12,1.28,0.8,1.28; stroke-dashoffset: 0; stroke: #b0b0b0; stroke-width: 0.8"/>
     </g>
     <g id="line2d_28">
      <g>
       <use xlink:href="#m142a3d26ef" x="108" y="166.361684" style="fill: #a9a9a9; stroke: #a9a9a9; stroke-width: 0.8"/>
      </g>
     </g>
     <g id="text_14">
      <!-- 4000 -->
      <g style="fill: #a9a9a9" transform="translate(75.55 170.160903) scale(0.1 -0.1)">
       <use xlink:href="#DejaVuSans-34"/>
       <use xlink:href="#DejaVuSans-30" transform="translate(63.623047 0)"/>
       <use xlink:href="#DejaVuSans-30" transform="translate(127.246094 0)"/>
       <use xlink:href="#DejaVuSans-30" transform="translate(190.869141 0)"/>
      </g>
     </g>
    </g>
    <g id="ytick_7">
     <g id="line2d_29">
      <path d="M 108 138.066947 
L 777.6 138.066947 
" clip-path="url(#p675557d3b9)" style="fill: none; stroke-dasharray: 5.12,1.28,0.8,1.28; stroke-dashoffset: 0; stroke: #b0b0b0; stroke-width: 0.8"/>
     </g>
     <g id="line2d_30">
      <g>
       <use xlink:href="#m142a3d26ef" x="108" y="138.066947" style="fill: #a9a9a9; stroke: #a9a9a9; stroke-width: 0.8"/>
      </g>
     </g>
     <g id="text_15">
      <!-- 4800 -->
      <g style="fill: #a9a9a9" transform="translate(75.55 141.866166) scale(0.1 -0.1)">
       <use xlink:href="#DejaVuSans-34"/>
       <use xlink:href="#DejaVuSans-38" transform="translate(63.623047 0)"/>
       <use xlink:href="#DejaVuSans-30" transform="translate(127.246094 0)"/>
       <use xlink:href="#DejaVuSans-30" transform="translate(190.869141 0)"/>
      </g>
     </g>
    </g>
    <g id="ytick_8">
     <g id="line2d_31">
      <path d="M 108 109.772211 
L 777.6 109.772211 
" clip-path="url(#p675557d3b9)" style="fill: none; stroke-dasharray: 5.12,1.28,0.8,1.28; stroke-dashoffset: 0; stroke: #b0b0b0; stroke-width: 0.8"/>
     </g>
     <g id="line2d_32">
      <g>
       <use xlink:href="#m142a3d26ef" x="108" y="109.772211" style="fill: #a9a9a9; stroke: #a9a9a9; stroke-width: 0.8"/>
      </g>
     </g>
     <g id="text_16">
      <!-- 5600 -->
      <g style="fill: #a9a9a9" transform="translate(75.55 113.571429) scale(0.1 -0.1)">
       <use xlink:href="#DejaVuSans-35"/>
       <use xlink:href="#DejaVuSans-36" transform="translate(63.623047 0)"/>
       <use xlink:href="#DejaVuSans-30" transform="translate(127.246094 0)"/>
       <use xlink:href="#DejaVuSans-30" transform="translate(190.869141 0)"/>
      </g>
     </g>
    </g>
    <g id="ytick_9">
     <g id="line2d_33">
      <path d="M 108 81.477474 
L 777.6 81.477474 
" clip-path="url(#p675557d3b9)" style="fill: none; stroke-dasharray: 5.12,1.28,0.8,1.28; stroke-dashoffset: 0; stroke: #b0b0b0; stroke-width: 0.8"/>
     </g>
     <g id="line2d_34">
      <g>
       <use xlink:href="#m142a3d26ef" x="108" y="81.477474" style="fill: #a9a9a9; stroke: #a9a9a9; stroke-width: 0.8"/>
      </g>
     </g>
     <g id="text_17">
      <!-- 6400 -->
      <g style="fill: #a9a9a9" transform="translate(75.55 85.276692) scale(0.1 -0.1)">
       <use xlink:href="#DejaVuSans-36"/>
       <use xlink:href="#DejaVuSans-34" transform="translate(63.623047 0)"/>
       <use xlink:href="#DejaVuSans-30" transform="translate(127.246094 0)"/>
       <use xlink:href="#DejaVuSans-30" transform="translate(190.869141 0)"/>
      </g>
     </g>
    </g>
    <g id="ytick_10">
     <g id="line2d_35">
      <path d="M 108 53.182737 
L 777.6 53.182737 
" clip-path="url(#p675557d3b9)" style="fill: none; stroke-dasharray: 5.12,1.28,0.8,1.28; stroke-dashoffset: 0; stroke: #b0b0b0; stroke-width: 0.8"/>
     </g>
     <g id="line2d_36">
      <g>
       <use xlink:href="#m142a3d26ef" x="108" y="53.182737" style="fill: #a9a9a9; stroke: #a9a9a9; stroke-width: 0.8"/>
      </g>
     </g>
     <g id="text_18">
      <!-- 7200 -->
      <g style="fill: #a9a9a9" transform="translate(75.55 56.981956) scale(0.1 -0.1)">
       <use xlink:href="#DejaVuSans-37"/>
       <use xlink:href="#DejaVuSans-32" transform="translate(63.623047 0)"/>
       <use xlink:href="#DejaVuSans-30" transform="translate(127.246094 0)"/>
       <use xlink:href="#DejaVuSans-30" transform="translate(190.869141 0)"/>
      </g>
     </g>
    </g>
   </g>
   <g id="line2d_37">
    <path d="M 138.436364 307.729263 
L 141.360594 307.481684 
L 141.847966 307.269474 
L 143.797453 307.021895 
L 145.746939 306.632842 
L 146.721683 306.491368 
L 149.158541 306.279158 
L 150.133285 305.890105 
L 150.620657 305.253474 
L 151.108028 304.899789 
L 151.5954 303.803368 
L 152.082772 303.732632 
L 152.570143 303.343579 
L 153.544887 302.848421 
L 155.494374 301.292211 
L 157.443861 300.337263 
L 158.905976 299.665263 
L 159.393347 298.887158 
L 160.368091 298.179789 
L 160.855463 297.967579 
L 165.72918 297.260211 
L 166.216551 297.048 
L 169.628153 296.765053 
L 171.57764 296.305263 
L 175.476614 295.774737 
L 175.963986 295.527158 
L 176.451357 295.456421 
L 177.426101 295.138105 
L 180.837703 294.572211 
L 181.812446 294.289263 
L 186.198792 293.546526 
L 187.173535 293.334316 
L 188.148279 293.298947 
L 190.097765 292.839158 
L 190.585137 292.167158 
L 192.047252 291.601263 
L 193.509367 291.212211 
L 193.996739 290.964632 
L 194.971483 290.787789 
L 196.92097 290.221895 
L 197.895713 290.151158 
L 198.870456 289.903579 
L 200.819943 289.408421 
L 201.307315 289.373053 
L 202.282058 288.913263 
L 202.76943 288.842526 
L 203.256802 288.594947 
L 208.617891 287.710737 
L 210.567378 287.144842 
L 211.054749 286.826526 
L 213.491608 286.013053 
L 214.466351 285.341053 
L 215.928466 285.058105 
L 228.600131 281.485895 
L 229.087503 281.485895 
L 229.574874 281.273684 
L 230.549618 281.167579 
L 231.03699 280.990737 
L 232.986476 280.884632 
L 233.96122 280.707789 
L 234.935963 280.212632 
L 236.398078 279.682105 
L 236.88545 279.363789 
L 237.860194 278.939368 
L 238.347565 278.691789 
L 239.322309 278.373474 
L 239.80968 278.232 
L 240.784424 277.630737 
L 241.271796 277.100211 
L 242.246539 275.614737 
L 242.733911 275.473263 
L 243.221282 275.473263 
L 244.683398 274.624421 
L 245.170769 274.376842 
L 245.658141 274.270737 
L 246.145513 273.810947 
L 247.120256 273.421895 
L 248.095 272.962105 
L 248.582371 272.360842 
L 249.069743 271.582737 
L 249.557115 271.264421 
L 250.044486 270.415579 
L 250.531858 269.885053 
L 253.456089 268.328842 
L 254.430832 267.550737 
L 254.918204 267.232421 
L 255.405575 266.489684 
L 255.892947 265.393263 
L 256.380319 264.650526 
L 256.867691 264.261474 
L 257.355062 264.049263 
L 260.766664 261.149053 
L 261.741408 259.981895 
L 263.203523 258.956211 
L 265.15301 257.789053 
L 266.127753 257.258526 
L 268.07724 256.232842 
L 270.514099 254.04 
L 271.488842 253.650947 
L 272.463585 252.978947 
L 272.950957 252.696 
L 273.438329 252.625263 
L 274.900444 251.811789 
L 275.387816 251.281263 
L 277.824674 249.972632 
L 278.312046 249.795789 
L 279.774161 248.805474 
L 287.084737 246.223579 
L 288.05948 245.339368 
L 289.034224 244.879579 
L 290.008967 244.349053 
L 290.496339 244.066105 
L 291.471082 243.783158 
L 291.958454 243.464842 
L 292.445826 243.323368 
L 293.907941 242.368421 
L 296.344799 241.802526 
L 297.806915 240.953684 
L 299.26903 240.635368 
L 299.756401 240.493895 
L 301.218517 239.397474 
L 303.168003 238.866947 
L 303.655375 238.477895 
L 306.579606 237.487579 
L 307.554349 237.310737 
L 308.529092 236.921684 
L 311.940694 235.683789 
L 312.915438 235.542316 
L 314.377553 235.047158 
L 316.814412 233.88 
L 318.763898 232.818947 
L 322.662872 231.227368 
L 323.150244 231.156632 
L 324.124987 230.555368 
L 324.612359 230.484632 
L 326.561846 229.671158 
L 328.511333 229.423579 
L 329.486076 228.928421 
L 329.973448 228.504 
L 330.46082 227.619789 
L 332.410306 227.089263 
L 333.872422 226.346526 
L 334.359793 226.240421 
L 338.258767 224.365895 
L 339.720882 224.082947 
L 340.695626 223.587789 
L 341.182997 223.375579 
L 341.670369 223.304842 
L 343.619856 222.420632 
L 345.081971 221.501053 
L 346.544086 221.218105 
L 348.980945 220.616842 
L 349.468316 220.227789 
L 350.930432 219.697263 
L 352.879918 218.919158 
L 353.36729 218.565474 
L 353.854662 218.388632 
L 354.829405 217.858105 
L 357.266264 217.044632 
L 358.728379 215.877474 
L 359.215751 215.771368 
L 360.190494 214.993263 
L 360.677866 214.922526 
L 361.165238 214.144421 
L 361.652609 213.932211 
L 362.139981 213.543158 
L 362.627353 213.472421 
L 363.602096 212.871158 
L 364.57684 212.552842 
L 365.064211 212.199158 
L 365.551583 212.022316 
L 367.013698 210.996632 
L 368.963185 209.970947 
L 369.450557 209.900211 
L 370.912672 209.157474 
L 371.400044 208.344 
L 372.374787 207.636632 
L 372.862159 207.530526 
L 373.836902 206.929263 
L 374.324274 206.823158 
L 375.299017 206.328 
L 377.248504 205.373053 
L 377.735876 205.019368 
L 378.710619 204.064421 
L 379.685363 203.463158 
L 380.172735 203.144842 
L 380.660106 202.614316 
L 382.609593 201.270316 
L 383.096965 200.704421 
L 383.584337 200.315368 
L 384.55908 199.961684 
L 385.533823 199.289684 
L 386.995939 198.546947 
L 387.48331 198.476211 
L 388.945425 197.698105 
L 389.920169 197.096842 
L 394.793886 195.328421 
L 395.281258 194.939368 
L 397.230745 194.196632 
L 397.718116 194.055158 
L 398.69286 193.418526 
L 399.667603 192.994105 
L 400.642347 192.322105 
L 401.61709 190.376842 
L 402.591833 189.245053 
L 404.053949 188.502316 
L 405.028692 188.113263 
L 405.516064 188.042526 
L 406.003435 187.759579 
L 408.440294 186.981474 
L 408.927666 186.769263 
L 409.902409 186.097263 
L 411.364524 185.460632 
L 412.339268 184.930105 
L 412.826639 184.576421 
L 413.314011 184.364211 
L 413.801383 184.010526 
L 414.288755 183.48 
L 415.263498 182.949474 
L 417.700357 181.640842 
L 420.624587 180.190737 
L 422.086702 179.766316 
L 423.548817 179.200421 
L 424.036189 178.846737 
L 425.010932 178.563789 
L 425.985676 178.174737 
L 426.473048 177.785684 
L 428.422534 177.113684 
L 429.397278 176.406316 
L 430.372021 175.981895 
L 431.346765 175.203789 
L 432.321508 174.850105 
L 432.80888 174.425684 
L 433.296252 174.354947 
L 434.270995 173.612211 
L 435.245738 173.117053 
L 435.73311 172.904842 
L 436.220482 172.409684 
L 439.632084 171.065684 
L 440.606827 170.641263 
L 442.068942 170.181474 
L 443.043686 170.04 
L 443.531058 169.827789 
L 444.018429 169.757053 
L 444.993173 169.332632 
L 445.480544 169.297263 
L 447.430031 168.554526 
L 448.892146 167.528842 
L 449.379518 167.352 
L 450.354262 166.821474 
L 450.841633 166.68 
L 453.765864 165.053053 
L 454.253235 164.946947 
L 455.71535 164.098105 
L 457.177466 163.602947 
L 458.152209 163.284632 
L 460.101696 162.648 
L 461.076439 162.329684 
L 463.025926 161.940632 
L 463.513298 161.728421 
L 464.00067 161.657684 
L 464.975413 161.233263 
L 465.462785 161.162526 
L 465.950156 160.914947 
L 466.9249 160.738105 
L 468.387015 160.207579 
L 469.361758 160.101474 
L 470.823874 159.783158 
L 473.260732 159.358737 
L 485.932397 155.680421 
L 486.419769 155.185263 
L 487.394512 154.796211 
L 491.293486 153.346105 
L 491.780857 153.063158 
L 493.242973 152.638737 
L 494.217716 152.391158 
L 494.705088 152.072842 
L 495.192459 151.966737 
L 495.679831 151.542316 
L 497.141946 151.259368 
L 498.11669 150.799579 
L 498.604061 150.233684 
L 500.553548 149.773895 
L 503.96515 149.066526 
L 504.452522 149.066526 
L 504.939894 148.854316 
L 506.889381 148.500632 
L 507.376752 148.288421 
L 509.326239 147.934737 
L 510.300983 147.510316 
L 511.275726 147.333474 
L 513.712585 146.732211 
L 515.662071 146.130947 
L 516.149443 146.024842 
L 516.636815 145.777263 
L 517.611558 145.529684 
L 518.09893 145.246737 
L 519.561045 144.751579 
L 520.048417 144.433263 
L 521.02316 144.150316 
L 524.922134 142.806316 
L 525.896878 142.735579 
L 527.846364 142.169684 
L 528.333736 141.886737 
L 529.30848 141.603789 
L 531.745338 140.507368 
L 532.23271 140.472 
L 537.593799 138.597474 
L 540.030657 137.960842 
L 541.005401 137.501053 
L 542.467516 137.182737 
L 544.417003 135.591158 
L 545.391746 135.308211 
L 545.879118 134.919158 
L 548.803348 133.822737 
L 549.29072 133.504421 
L 550.265463 133.221474 
L 550.752835 132.903158 
L 553.189694 132.125053 
L 554.651809 131.276211 
L 555.13918 131.170105 
L 557.576039 129.861474 
L 559.038154 129.224842 
L 559.525526 128.871158 
L 560.500269 128.552842 
L 561.475013 127.986947 
L 561.962384 127.810105 
L 562.449756 127.456421 
L 568.785588 125.228211 
L 569.27296 125.122105 
L 569.760332 124.803789 
L 571.709819 124.414737 
L 572.684562 124.025684 
L 575.608792 122.610947 
L 576.096164 122.540211 
L 577.558279 121.726737 
L 579.020394 121.231579 
L 582.431997 119.852211 
L 582.919368 119.710737 
L 583.40674 119.392421 
L 584.381483 119.286316 
L 584.868855 118.968 
L 585.843599 118.791158 
L 586.818342 118.331368 
L 587.305714 118.119158 
L 587.793085 118.048421 
L 590.229944 117.093474 
L 591.692059 116.704421 
L 592.666803 116.456842 
L 594.128918 116.032421 
L 595.103661 115.643368 
L 597.053148 114.582316 
L 598.027891 114.193263 
L 598.515263 113.874947 
L 599.490007 113.662737 
L 599.977378 113.379789 
L 600.46475 113.273684 
L 601.926865 112.460211 
L 602.901609 112.071158 
L 604.851095 111.328421 
L 607.287954 110.514947 
L 608.262697 110.019789 
L 610.699556 109.206316 
L 613.623786 108.039158 
L 615.573273 107.154947 
L 620.44699 105.280421 
L 620.934362 104.962105 
L 622.883849 104.290105 
L 623.371221 104.290105 
L 624.345964 103.865684 
L 626.295451 102.309474 
L 626.782823 102.168 
L 627.270194 101.849684 
L 627.757566 101.743579 
L 628.244938 101.496 
L 628.732309 101.425263 
L 629.219681 101.071579 
L 629.707053 100.965474 
L 630.681796 100.364211 
L 632.143911 99.621474 
L 633.118655 99.232421 
L 633.606027 98.984842 
L 635.068142 98.666526 
L 637.505 97.853053 
L 638.479744 97.534737 
L 639.941859 96.792 
L 640.916602 96.332211 
L 641.891346 96.084632 
L 643.353461 95.412632 
L 647.739806 93.821053 
L 649.201922 92.936842 
L 649.689293 92.830737 
L 650.664037 92.335579 
L 651.63878 91.981895 
L 652.126152 91.557474 
L 653.100895 91.168421 
L 656.025126 90.001263 
L 657.487241 89.576842 
L 657.974612 89.329263 
L 658.461984 89.258526 
L 659.924099 88.728 
L 661.386214 88.197474 
L 662.360958 87.808421 
L 662.84833 87.419368 
L 664.310445 87.030316 
L 664.797816 86.747368 
L 665.77256 86.499789 
L 667.234675 85.686316 
L 667.722047 85.650947 
L 669.184162 85.191158 
L 670.158905 85.120421 
L 671.133649 84.731368 
L 674.057879 83.882526 
L 675.032622 83.847158 
L 678.931596 82.609263 
L 679.90634 82.078737 
L 680.393711 81.654316 
L 681.855826 80.805474 
L 682.83057 80.204211 
L 685.7548 79.284632 
L 686.242172 78.895579 
L 689.166402 77.693053 
L 691.115889 77.162526 
L 692.090633 76.738105 
L 692.578004 76.490526 
L 693.552748 76.207579 
L 694.040119 75.924632 
L 695.014863 75.747789 
L 697.451721 74.616 
L 697.939093 74.333053 
L 699.401208 73.979368 
L 699.88858 73.661053 
L 700.375952 73.484211 
L 700.863323 73.059789 
L 701.350695 72.989053 
L 703.300182 72.210947 
L 705.249669 71.751158 
L 705.737041 71.680421 
L 706.224412 71.468211 
L 706.711784 71.432842 
L 707.686527 71.114526 
L 708.173899 71.079158 
L 709.636014 70.513263 
L 711.585501 69.947368 
L 712.560245 69.204632 
L 714.509731 68.143579 
L 715.971847 67.648421 
L 718.896077 66.339789 
L 719.87082 65.809263 
L 720.358192 65.561684 
L 720.845564 65.101895 
L 723.769794 64.146947 
L 724.744537 63.757895 
L 725.719281 63.474947 
L 726.206653 63.227368 
L 726.694024 62.767579 
L 728.643511 62.272421 
L 729.130883 61.918737 
L 735.466715 59.619789 
L 736.441459 59.442947 
L 740.827804 57.922105 
L 741.802547 57.674526 
L 742.289919 57.462316 
L 742.777291 57.426947 
L 743.752034 57.037895 
L 744.726778 56.436632 
L 745.21415 56.259789 
L 745.701521 56.224421 
L 747.163636 55.8 
L 747.163636 55.8 
" clip-path="url(#p675557d3b9)" style="fill: none; stroke: #1f77b4; stroke-width: 1.5; stroke-linecap: square"/>
   </g>
   <g id="line2d_38">
    <path d="M 138.923735 307.8 
L 143.310081 307.693895 
L 147.209055 307.517053 
L 149.158541 307.517053 
L 149.645913 307.375579 
L 152.082772 307.269474 
L 155.007002 306.951158 
L 157.931232 306.845053 
L 158.905976 306.738947 
L 162.317578 306.597474 
L 165.72918 306.491368 
L 168.166038 306.420632 
L 174.501871 306.314526 
L 176.938729 306.243789 
L 180.350331 306.137684 
L 182.78719 306.066947 
L 188.148279 305.960842 
L 190.097765 305.784 
L 192.047252 305.748632 
L 194.971483 305.642526 
L 196.92097 305.607158 
L 199.357828 305.536421 
L 201.307315 305.359579 
L 205.69366 305.253474 
L 206.668404 305.182737 
L 208.617891 305.076632 
L 211.542121 304.970526 
L 213.491608 304.864421 
L 222.264299 304.333895 
L 225.675901 304.227789 
L 227.138016 304.086316 
L 229.574874 303.980211 
L 234.448592 303.732632 
L 239.322309 303.661895 
L 241.271796 303.449684 
L 243.221282 303.343579 
L 248.582371 302.848421 
L 251.993973 302.459368 
L 253.456089 302.388632 
L 257.842434 301.858105 
L 260.279293 301.787368 
L 261.741408 301.645895 
L 263.203523 301.539789 
L 276.849931 300.514105 
L 277.824674 300.337263 
L 280.748905 300.231158 
L 288.546852 299.771368 
L 291.958454 299.665263 
L 293.907941 299.453053 
L 296.344799 299.346947 
L 299.26903 299.240842 
L 301.705888 299.134737 
L 303.655375 299.099368 
L 306.092234 299.028632 
L 307.066977 298.887158 
L 313.890181 298.781053 
L 314.864925 298.674947 
L 320.713385 298.568842 
L 325.099731 298.356632 
L 328.511333 298.250526 
L 330.46082 298.038316 
L 333.872422 297.932211 
L 334.847165 297.755368 
L 337.284024 297.684632 
L 342.157741 297.613895 
L 344.594599 297.366316 
L 347.51883 297.260211 
L 349.468316 297.083368 
L 354.342034 296.835789 
L 359.215751 296.729684 
L 363.602096 296.517474 
L 365.064211 296.482105 
L 366.038955 296.340632 
L 368.475813 296.234526 
L 369.450557 296.163789 
L 370.4253 296.093053 
L 371.400044 296.022316 
L 375.786389 295.951579 
L 377.248504 295.845474 
L 390.407541 294.996632 
L 392.844399 294.890526 
L 395.281258 294.819789 
L 402.104462 294.713684 
L 403.079205 294.572211 
L 409.902409 294.466105 
L 414.776126 294.218526 
L 415.75087 294.183158 
L 416.725613 294.077053 
L 419.162472 293.970947 
L 421.59933 293.900211 
L 424.036189 293.794105 
L 426.473048 293.723368 
L 430.859393 293.617263 
L 433.783623 293.511158 
L 440.606827 293.405053 
L 445.967916 293.122105 
L 447.917403 293.051368 
L 449.379518 292.945263 
L 456.202722 292.839158 
L 459.126952 292.733053 
L 467.899643 292.626947 
L 469.84913 292.591579 
L 475.697591 292.520842 
L 476.672334 292.450105 
L 483.495538 292.344 
L 485.445025 292.308632 
L 498.11669 292.202526 
L 499.578805 292.061053 
L 521.510532 291.954947 
L 523.947391 291.884211 
L 536.619055 291.778105 
L 537.593799 291.707368 
L 540.030657 291.636632 
L 541.492772 291.495158 
L 544.417003 291.389053 
L 547.828605 291.247579 
L 552.21495 291.141474 
L 554.651809 291.070737 
L 558.063411 290.964632 
L 561.962384 290.787789 
L 564.399243 290.681684 
L 566.34873 290.646316 
L 570.735075 290.540211 
L 572.684562 290.504842 
L 579.020394 290.398737 
L 580.969881 290.363368 
L 583.40674 290.257263 
L 586.33097 290.151158 
L 589.742572 290.080421 
L 590.717316 290.009684 
L 602.414237 289.903579 
L 608.750069 289.549895 
L 611.186928 289.479158 
L 612.161671 289.373053 
L 613.136415 289.302316 
L 617.035388 289.196211 
L 619.959619 289.090105 
L 624.833336 288.984 
L 627.270194 288.736421 
L 632.143911 288.630316 
L 633.118655 288.524211 
L 637.992372 288.418105 
L 640.429231 288.347368 
L 645.79032 288.312 
L 646.765063 288.205895 
L 652.126152 288.099789 
L 653.100895 288.029053 
L 663.823073 287.922947 
L 666.747303 287.816842 
L 674.057879 287.710737 
L 676.007366 287.675368 
L 680.393711 287.604632 
L 681.368455 287.498526 
L 687.704287 287.392421 
L 690.141146 287.321684 
L 698.913837 287.215579 
L 700.375952 287.109474 
L 701.838067 287.003368 
L 703.300182 286.897263 
L 710.610758 286.791158 
L 713.534988 286.685053 
L 726.694024 286.578947 
L 731.08037 286.366737 
L 736.92883 286.260632 
L 737.903574 286.154526 
L 745.21415 286.083789 
L 746.188893 286.013053 
L 747.163636 286.013053 
L 747.163636 286.013053 
" clip-path="url(#p675557d3b9)" style="fill: none; stroke: #ff7f0e; stroke-width: 1.5; stroke-linecap: square"/>
   </g>
   <g id="patch_3">
    <path d="M 108 320.4 
L 108 43.2 
" style="fill: none; stroke: #a9a9a9; stroke-width: 0.8; stroke-linejoin: miter; stroke-linecap: square"/>
   </g>
   <g id="patch_4">
    <path d="M 777.6 320.4 
L 777.6 43.2 
" style="fill: none"/>
   </g>
   <g id="patch_5">
    <path d="M 108 320.4 
L 777.6 320.4 
" style="fill: none; stroke: #a9a9a9; stroke-width: 0.8; stroke-linejoin: miter; stroke-linecap: square"/>
   </g>
   <g id="patch_6">
    <path d="M 108 43.2 
L 777.6 43.2 
" style="fill: none"/>
   </g>
   <g id="text_19">
    <!-- get_subscribe history -->
    <g style="fill: #a9a9a9" transform="translate(378.6075 37.2) scale(0.12 -0.12)">
     <defs>
      <path id="DejaVuSans-67" d="M 2906 1791 
Q 2906 2416 2648 2759 
Q 2391 3103 1925 3103 
Q 1463 3103 1205 2759 
Q 947 2416 947 1791 
Q 947 1169 1205 825 
Q 1463 481 1925 481 
Q 2391 481 2648 825 
Q 2906 1169 2906 1791 
z
M 3481 434 
Q 3481 -459 3084 -895 
Q 2688 -1331 1869 -1331 
Q 1566 -1331 1297 -1286 
Q 1028 -1241 775 -1147 
L 775 -588 
Q 1028 -725 1275 -790 
Q 1522 -856 1778 -856 
Q 2344 -856 2625 -561 
Q 2906 -266 2906 331 
L 2906 616 
Q 2728 306 2450 153 
Q 2172 0 1784 0 
Q 1141 0 747 490 
Q 353 981 353 1791 
Q 353 2603 747 3093 
Q 1141 3584 1784 3584 
Q 2172 3584 2450 3431 
Q 2728 3278 2906 2969 
L 2906 3500 
L 3481 3500 
L 3481 434 
z
" transform="scale(0.015625)"/>
      <path id="DejaVuSans-65" d="M 3597 1894 
L 3597 1613 
L 953 1613 
Q 991 1019 1311 708 
Q 1631 397 2203 397 
Q 2534 397 2845 478 
Q 3156 559 3463 722 
L 3463 178 
Q 3153 47 2828 -22 
Q 2503 -91 2169 -91 
Q 1331 -91 842 396 
Q 353 884 353 1716 
Q 353 2575 817 3079 
Q 1281 3584 2069 3584 
Q 2775 3584 3186 3129 
Q 3597 2675 3597 1894 
z
M 3022 2063 
Q 3016 2534 2758 2815 
Q 2500 3097 2075 3097 
Q 1594 3097 1305 2825 
Q 1016 2553 972 2059 
L 3022 2063 
z
" transform="scale(0.015625)"/>
      <path id="DejaVuSans-74" d="M 1172 4494 
L 1172 3500 
L 2356 3500 
L 2356 3053 
L 1172 3053 
L 1172 1153 
Q 1172 725 1289 603 
Q 1406 481 1766 481 
L 2356 481 
L 2356 0 
L 1766 0 
Q 1100 0 847 248 
Q 594 497 594 1153 
L 594 3053 
L 172 3053 
L 172 3500 
L 594 3500 
L 594 4494 
L 1172 4494 
z
" transform="scale(0.015625)"/>
      <path id="DejaVuSans-5f" d="M 3263 -1063 
L 3263 -1509 
L -63 -1509 
L -63 -1063 
L 3263 -1063 
z
" transform="scale(0.015625)"/>
      <path id="DejaVuSans-73" d="M 2834 3397 
L 2834 2853 
Q 2591 2978 2328 3040 
Q 2066 3103 1784 3103 
Q 1356 3103 1142 2972 
Q 928 2841 928 2578 
Q 928 2378 1081 2264 
Q 1234 2150 1697 2047 
L 1894 2003 
Q 2506 1872 2764 1633 
Q 3022 1394 3022 966 
Q 3022 478 2636 193 
Q 2250 -91 1575 -91 
Q 1294 -91 989 -36 
Q 684 19 347 128 
L 347 722 
Q 666 556 975 473 
Q 1284 391 1588 391 
Q 1994 391 2212 530 
Q 2431 669 2431 922 
Q 2431 1156 2273 1281 
Q 2116 1406 1581 1522 
L 1381 1569 
Q 847 1681 609 1914 
Q 372 2147 372 2553 
Q 372 3047 722 3315 
Q 1072 3584 1716 3584 
Q 2034 3584 2315 3537 
Q 2597 3491 2834 3397 
z
" transform="scale(0.015625)"/>
      <path id="DejaVuSans-75" d="M 544 1381 
L 544 3500 
L 1119 3500 
L 1119 1403 
Q 1119 906 1312 657 
Q 1506 409 1894 409 
Q 2359 409 2629 706 
Q 2900 1003 2900 1516 
L 2900 3500 
L 3475 3500 
L 3475 0 
L 2900 0 
L 2900 538 
Q 2691 219 2414 64 
Q 2138 -91 1772 -91 
Q 1169 -91 856 284 
Q 544 659 544 1381 
z
M 1991 3584 
L 1991 3584 
z
" transform="scale(0.015625)"/>
      <path id="DejaVuSans-62" d="M 3116 1747 
Q 3116 2381 2855 2742 
Q 2594 3103 2138 3103 
Q 1681 3103 1420 2742 
Q 1159 2381 1159 1747 
Q 1159 1113 1420 752 
Q 1681 391 2138 391 
Q 2594 391 2855 752 
Q 3116 1113 3116 1747 
z
M 1159 2969 
Q 1341 3281 1617 3432 
Q 1894 3584 2278 3584 
Q 2916 3584 3314 3078 
Q 3713 2572 3713 1747 
Q 3713 922 3314 415 
Q 2916 -91 2278 -91 
Q 1894 -91 1617 61 
Q 1341 213 1159 525 
L 1159 0 
L 581 0 
L 581 4863 
L 1159 4863 
L 1159 2969 
z
" transform="scale(0.015625)"/>
      <path id="DejaVuSans-63" d="M 3122 3366 
L 3122 2828 
Q 2878 2963 2633 3030 
Q 2388 3097 2138 3097 
Q 1578 3097 1268 2742 
Q 959 2388 959 1747 
Q 959 1106 1268 751 
Q 1578 397 2138 397 
Q 2388 397 2633 464 
Q 2878 531 3122 666 
L 3122 134 
Q 2881 22 2623 -34 
Q 2366 -91 2075 -91 
Q 1284 -91 818 406 
Q 353 903 353 1747 
Q 353 2603 823 3093 
Q 1294 3584 2113 3584 
Q 2378 3584 2631 3529 
Q 2884 3475 3122 3366 
z
" transform="scale(0.015625)"/>
      <path id="DejaVuSans-72" d="M 2631 2963 
Q 2534 3019 2420 3045 
Q 2306 3072 2169 3072 
Q 1681 3072 1420 2755 
Q 1159 2438 1159 1844 
L 1159 0 
L 581 0 
L 581 3500 
L 1159 3500 
L 1159 2956 
Q 1341 3275 1631 3429 
Q 1922 3584 2338 3584 
Q 2397 3584 2469 3576 
Q 2541 3569 2628 3553 
L 2631 2963 
z
" transform="scale(0.015625)"/>
      <path id="DejaVuSans-69" d="M 603 3500 
L 1178 3500 
L 1178 0 
L 603 0 
L 603 3500 
z
M 603 4863 
L 1178 4863 
L 1178 4134 
L 603 4134 
L 603 4863 
z
" transform="scale(0.015625)"/>
      <path id="DejaVuSans-20" transform="scale(0.015625)"/>
      <path id="DejaVuSans-68" d="M 3513 2113 
L 3513 0 
L 2938 0 
L 2938 2094 
Q 2938 2591 2744 2837 
Q 2550 3084 2163 3084 
Q 1697 3084 1428 2787 
Q 1159 2491 1159 1978 
L 1159 0 
L 581 0 
L 581 4863 
L 1159 4863 
L 1159 2956 
Q 1366 3272 1645 3428 
Q 1925 3584 2291 3584 
Q 2894 3584 3203 3211 
Q 3513 2838 3513 2113 
z
" transform="scale(0.015625)"/>
      <path id="DejaVuSans-6f" d="M 1959 3097 
Q 1497 3097 1228 2736 
Q 959 2375 959 1747 
Q 959 1119 1226 758 
Q 1494 397 1959 397 
Q 2419 397 2687 759 
Q 2956 1122 2956 1747 
Q 2956 2369 2687 2733 
Q 2419 3097 1959 3097 
z
M 1959 3584 
Q 2709 3584 3137 3096 
Q 3566 2609 3566 1747 
Q 3566 888 3137 398 
Q 2709 -91 1959 -91 
Q 1206 -91 779 398 
Q 353 888 353 1747 
Q 353 2609 779 3096 
Q 1206 3584 1959 3584 
z
" transform="scale(0.015625)"/>
      <path id="DejaVuSans-79" d="M 2059 -325 
Q 1816 -950 1584 -1140 
Q 1353 -1331 966 -1331 
L 506 -1331 
L 506 -850 
L 844 -850 
Q 1081 -850 1212 -737 
Q 1344 -625 1503 -206 
L 1606 56 
L 191 3500 
L 800 3500 
L 1894 763 
L 2988 3500 
L 3597 3500 
L 2059 -325 
z
" transform="scale(0.015625)"/>
     </defs>
     <use xlink:href="#DejaVuSans-67"/>
     <use xlink:href="#DejaVuSans-65" transform="translate(63.476562 0)"/>
     <use xlink:href="#DejaVuSans-74" transform="translate(125 0)"/>
     <use xlink:href="#DejaVuSans-5f" transform="translate(164.208984 0)"/>
     <use xlink:href="#DejaVuSans-73" transform="translate(214.208984 0)"/>
     <use xlink:href="#DejaVuSans-75" transform="translate(266.308594 0)"/>
     <use xlink:href="#DejaVuSans-62" transform="translate(329.6875 0)"/>
     <use xlink:href="#DejaVuSans-73" transform="translate(393.164062 0)"/>
     <use xlink:href="#DejaVuSans-63" transform="translate(445.263672 0)"/>
     <use xlink:href="#DejaVuSans-72" transform="translate(500.244141 0)"/>
     <use xlink:href="#DejaVuSans-69" transform="translate(541.357422 0)"/>
     <use xlink:href="#DejaVuSans-62" transform="translate(569.140625 0)"/>
     <use xlink:href="#DejaVuSans-65" transform="translate(632.617188 0)"/>
     <use xlink:href="#DejaVuSans-20" transform="translate(694.140625 0)"/>
     <use xlink:href="#DejaVuSans-68" transform="translate(725.927734 0)"/>
     <use xlink:href="#DejaVuSans-69" transform="translate(789.306641 0)"/>
     <use xlink:href="#DejaVuSans-73" transform="translate(817.089844 0)"/>
     <use xlink:href="#DejaVuSans-74" transform="translate(869.189453 0)"/>
     <use xlink:href="#DejaVuSans-6f" transform="translate(908.398438 0)"/>
     <use xlink:href="#DejaVuSans-72" transform="translate(969.580078 0)"/>
     <use xlink:href="#DejaVuSans-79" transform="translate(1010.693359 0)"/>
    </g>
   </g>
   <g id="legend_1">
    <g id="line2d_39">
     <path d="M 815.08 328.498438 
L 825.08 328.498438 
L 835.08 328.498438 
" style="fill: none; stroke: #1f77b4; stroke-width: 1.5; stroke-linecap: square"/>
    </g>
    <g id="text_20">
     <!-- star -->
     <g style="fill: #a9a9a9" transform="translate(843.08 331.998438) scale(0.1 -0.1)">
      <defs>
       <path id="DejaVuSans-61" d="M 2194 1759 
Q 1497 1759 1228 1600 
Q 959 1441 959 1056 
Q 959 750 1161 570 
Q 1363 391 1709 391 
Q 2188 391 2477 730 
Q 2766 1069 2766 1631 
L 2766 1759 
L 2194 1759 
z
M 3341 1997 
L 3341 0 
L 2766 0 
L 2766 531 
Q 2569 213 2275 61 
Q 1981 -91 1556 -91 
Q 1019 -91 701 211 
Q 384 513 384 1019 
Q 384 1609 779 1909 
Q 1175 2209 1959 2209 
L 2766 2209 
L 2766 2266 
Q 2766 2663 2505 2880 
Q 2244 3097 1772 3097 
Q 1472 3097 1187 3025 
Q 903 2953 641 2809 
L 641 3341 
Q 956 3463 1253 3523 
Q 1550 3584 1831 3584 
Q 2591 3584 2966 3190 
Q 3341 2797 3341 1997 
z
" transform="scale(0.015625)"/>
      </defs>
      <use xlink:href="#DejaVuSans-73"/>
      <use xlink:href="#DejaVuSans-74" transform="translate(52.099609 0)"/>
      <use xlink:href="#DejaVuSans-61" transform="translate(91.308594 0)"/>
      <use xlink:href="#DejaVuSans-72" transform="translate(152.587891 0)"/>
     </g>
    </g>
    <g id="line2d_40">
     <path d="M 815.08 343.176562 
L 825.08 343.176562 
L 835.08 343.176562 
" style="fill: none; stroke: #ff7f0e; stroke-width: 1.5; stroke-linecap: square"/>
    </g>
    <g id="text_21">
     <!-- fork -->
     <g style="fill: #a9a9a9" transform="translate(843.08 346.676562) scale(0.1 -0.1)">
      <defs>
       <path id="DejaVuSans-66" d="M 2375 4863 
L 2375 4384 
L 1825 4384 
Q 1516 4384 1395 4259 
Q 1275 4134 1275 3809 
L 1275 3500 
L 2222 3500 
L 2222 3053 
L 1275 3053 
L 1275 0 
L 697 0 
L 697 3053 
L 147 3053 
L 147 3500 
L 697 3500 
L 697 3744 
Q 697 4328 969 4595 
Q 1241 4863 1831 4863 
L 2375 4863 
z
" transform="scale(0.015625)"/>
       <path id="DejaVuSans-6b" d="M 581 4863 
L 1159 4863 
L 1159 1991 
L 2875 3500 
L 3609 3500 
L 1753 1863 
L 3688 0 
L 2938 0 
L 1159 1709 
L 1159 0 
L 581 0 
L 581 4863 
z
" transform="scale(0.015625)"/>
      </defs>
      <use xlink:href="#DejaVuSans-66"/>
      <use xlink:href="#DejaVuSans-6f" transform="translate(35.205078 0)"/>
      <use xlink:href="#DejaVuSans-72" transform="translate(96.386719 0)"/>
      <use xlink:href="#DejaVuSans-6b" transform="translate(137.5 0)"/>
     </g>
    </g>
   </g>
  </g>
 </g>
 <defs>
  <clipPath id="p675557d3b9">
   <rect x="108" y="43.2" width="669.6" height="277.2"/>
  </clipPath>
 </defs>
</svg>
