<?xml version="1.0" encoding="utf-8" standalone="no"?>
<!DOCTYPE svg PUBLIC "-//W3C//DTD SVG 1.1//EN"
  "http://www.w3.org/Graphics/SVG/1.1/DTD/svg11.dtd">
<svg xmlns:xlink="http://www.w3.org/1999/xlink" width="864pt" height="360pt" viewBox="0 0 864 360" xmlns="http://www.w3.org/2000/svg" version="1.1">
 <metadata>
  <rdf:RDF xmlns:dc="http://purl.org/dc/elements/1.1/" xmlns:cc="http://creativecommons.org/ns#" xmlns:rdf="http://www.w3.org/1999/02/22-rdf-syntax-ns#">
   <cc:Work>
    <dc:type rdf:resource="http://purl.org/dc/dcmitype/StillImage"/>
    <dc:date>2024-12-26T20:05:58.679747</dc:date>
    <dc:format>image/svg+xml</dc:format>
    <dc:creator>
     <cc:Agent>
      <dc:title>Matplotlib v3.10.0, https://matplotlib.org/</dc:title>
     </cc:Agent>
    </dc:creator>
   </cc:Work>
  </rdf:RDF>
 </metadata>
 <defs>
  <style type="text/css">*{stroke-linejoin: round; stroke-linecap: butt}</style>
 </defs>
 <g id="figure_1">
  <g id="patch_1">
   <path d="M 0 360 
L 864 360 
L 864 0 
L 0 0 
L 0 360 
z
" style="fill: none; opacity: 0"/>
  </g>
  <g id="axes_1">
   <g id="patch_2">
    <path d="M 108 320.4 
L 777.6 320.4 
L 777.6 43.2 
L 108 43.2 
L 108 320.4 
z
" style="fill: none; opacity: 0"/>
   </g>
   <g id="matplotlib.axis_1">
    <g id="xtick_1">
     <g id="line2d_1">
      <path d="M 127.244735 320.4 
L 127.244735 43.2 
" clip-path="url(#p82d35bdbda)" style="fill: none; stroke-dasharray: 5.12,1.28,0.8,1.28; stroke-dashoffset: 0; stroke: #b0b0b0; stroke-width: 0.8"/>
     </g>
     <g id="line2d_2">
      <defs>
       <path id="me329cef77e" d="M 0 0 
L 0 3.5 
" style="stroke: #a9a9a9; stroke-width: 0.8"/>
      </defs>
      <g>
       <use xlink:href="#me329cef77e" x="127.244735" y="320.4" style="fill: #a9a9a9; stroke: #a9a9a9; stroke-width: 0.8"/>
      </g>
     </g>
     <g id="text_1">
      <!-- 2021-07 -->
      <g style="fill: #a9a9a9" transform="translate(106.353329 334.998438) scale(0.1 -0.1)">
       <defs>
        <path id="DejaVuSans-32" d="M 1228 531 
L 3431 531 
L 3431 0 
L 469 0 
L 469 531 
Q 828 903 1448 1529 
Q 2069 2156 2228 2338 
Q 2531 2678 2651 2914 
Q 2772 3150 2772 3378 
Q 2772 3750 2511 3984 
Q 2250 4219 1831 4219 
Q 1534 4219 1204 4116 
Q 875 4013 500 3803 
L 500 4441 
Q 881 4594 1212 4672 
Q 1544 4750 1819 4750 
Q 2544 4750 2975 4387 
Q 3406 4025 3406 3419 
Q 3406 3131 3298 2873 
Q 3191 2616 2906 2266 
Q 2828 2175 2409 1742 
Q 1991 1309 1228 531 
z
" transform="scale(0.015625)"/>
        <path id="DejaVuSans-30" d="M 2034 4250 
Q 1547 4250 1301 3770 
Q 1056 3291 1056 2328 
Q 1056 1369 1301 889 
Q 1547 409 2034 409 
Q 2525 409 2770 889 
Q 3016 1369 3016 2328 
Q 3016 3291 2770 3770 
Q 2525 4250 2034 4250 
z
M 2034 4750 
Q 2819 4750 3233 4129 
Q 3647 3509 3647 2328 
Q 3647 1150 3233 529 
Q 2819 -91 2034 -91 
Q 1250 -91 836 529 
Q 422 1150 422 2328 
Q 422 3509 836 4129 
Q 1250 4750 2034 4750 
z
" transform="scale(0.015625)"/>
        <path id="DejaVuSans-31" d="M 794 531 
L 1825 531 
L 1825 4091 
L 703 3866 
L 703 4441 
L 1819 4666 
L 2450 4666 
L 2450 531 
L 3481 531 
L 3481 0 
L 794 0 
L 794 531 
z
" transform="scale(0.015625)"/>
        <path id="DejaVuSans-2d" d="M 313 2009 
L 1997 2009 
L 1997 1497 
L 313 1497 
L 313 2009 
z
" transform="scale(0.015625)"/>
        <path id="DejaVuSans-37" d="M 525 4666 
L 3525 4666 
L 3525 4397 
L 1831 0 
L 1172 0 
L 2766 4134 
L 525 4134 
L 525 4666 
z
" transform="scale(0.015625)"/>
       </defs>
       <use xlink:href="#DejaVuSans-32"/>
       <use xlink:href="#DejaVuSans-30" transform="translate(63.623047 0)"/>
       <use xlink:href="#DejaVuSans-32" transform="translate(127.246094 0)"/>
       <use xlink:href="#DejaVuSans-31" transform="translate(190.869141 0)"/>
       <use xlink:href="#DejaVuSans-2d" transform="translate(254.492188 0)"/>
       <use xlink:href="#DejaVuSans-30" transform="translate(290.576172 0)"/>
       <use xlink:href="#DejaVuSans-37" transform="translate(354.199219 0)"/>
      </g>
     </g>
    </g>
    <g id="xtick_2">
     <g id="line2d_3">
      <path d="M 216.777763 320.4 
L 216.777763 43.2 
" clip-path="url(#p82d35bdbda)" style="fill: none; stroke-dasharray: 5.12,1.28,0.8,1.28; stroke-dashoffset: 0; stroke: #b0b0b0; stroke-width: 0.8"/>
     </g>
     <g id="line2d_4">
      <g>
       <use xlink:href="#me329cef77e" x="216.777763" y="320.4" style="fill: #a9a9a9; stroke: #a9a9a9; stroke-width: 0.8"/>
      </g>
     </g>
     <g id="text_2">
      <!-- 2022-01 -->
      <g style="fill: #a9a9a9" transform="translate(195.886357 334.998438) scale(0.1 -0.1)">
       <use xlink:href="#DejaVuSans-32"/>
       <use xlink:href="#DejaVuSans-30" transform="translate(63.623047 0)"/>
       <use xlink:href="#DejaVuSans-32" transform="translate(127.246094 0)"/>
       <use xlink:href="#DejaVuSans-32" transform="translate(190.869141 0)"/>
       <use xlink:href="#DejaVuSans-2d" transform="translate(254.492188 0)"/>
       <use xlink:href="#DejaVuSans-30" transform="translate(290.576172 0)"/>
       <use xlink:href="#DejaVuSans-31" transform="translate(354.199219 0)"/>
      </g>
     </g>
    </g>
    <g id="xtick_3">
     <g id="line2d_5">
      <path d="M 304.851014 320.4 
L 304.851014 43.2 
" clip-path="url(#p82d35bdbda)" style="fill: none; stroke-dasharray: 5.12,1.28,0.8,1.28; stroke-dashoffset: 0; stroke: #b0b0b0; stroke-width: 0.8"/>
     </g>
     <g id="line2d_6">
      <g>
       <use xlink:href="#me329cef77e" x="304.851014" y="320.4" style="fill: #a9a9a9; stroke: #a9a9a9; stroke-width: 0.8"/>
      </g>
     </g>
     <g id="text_3">
      <!-- 2022-07 -->
      <g style="fill: #a9a9a9" transform="translate(283.959607 334.998438) scale(0.1 -0.1)">
       <use xlink:href="#DejaVuSans-32"/>
       <use xlink:href="#DejaVuSans-30" transform="translate(63.623047 0)"/>
       <use xlink:href="#DejaVuSans-32" transform="translate(127.246094 0)"/>
       <use xlink:href="#DejaVuSans-32" transform="translate(190.869141 0)"/>
       <use xlink:href="#DejaVuSans-2d" transform="translate(254.492188 0)"/>
       <use xlink:href="#DejaVuSans-30" transform="translate(290.576172 0)"/>
       <use xlink:href="#DejaVuSans-37" transform="translate(354.199219 0)"/>
      </g>
     </g>
    </g>
    <g id="xtick_4">
     <g id="line2d_7">
      <path d="M 394.384042 320.4 
L 394.384042 43.2 
" clip-path="url(#p82d35bdbda)" style="fill: none; stroke-dasharray: 5.12,1.28,0.8,1.28; stroke-dashoffset: 0; stroke: #b0b0b0; stroke-width: 0.8"/>
     </g>
     <g id="line2d_8">
      <g>
       <use xlink:href="#me329cef77e" x="394.384042" y="320.4" style="fill: #a9a9a9; stroke: #a9a9a9; stroke-width: 0.8"/>
      </g>
     </g>
     <g id="text_4">
      <!-- 2023-01 -->
      <g style="fill: #a9a9a9" transform="translate(373.492636 334.998438) scale(0.1 -0.1)">
       <defs>
        <path id="DejaVuSans-33" d="M 2597 2516 
Q 3050 2419 3304 2112 
Q 3559 1806 3559 1356 
Q 3559 666 3084 287 
Q 2609 -91 1734 -91 
Q 1441 -91 1130 -33 
Q 819 25 488 141 
L 488 750 
Q 750 597 1062 519 
Q 1375 441 1716 441 
Q 2309 441 2620 675 
Q 2931 909 2931 1356 
Q 2931 1769 2642 2001 
Q 2353 2234 1838 2234 
L 1294 2234 
L 1294 2753 
L 1863 2753 
Q 2328 2753 2575 2939 
Q 2822 3125 2822 3475 
Q 2822 3834 2567 4026 
Q 2313 4219 1838 4219 
Q 1578 4219 1281 4162 
Q 984 4106 628 3988 
L 628 4550 
Q 988 4650 1302 4700 
Q 1616 4750 1894 4750 
Q 2613 4750 3031 4423 
Q 3450 4097 3450 3541 
Q 3450 3153 3228 2886 
Q 3006 2619 2597 2516 
z
" transform="scale(0.015625)"/>
       </defs>
       <use xlink:href="#DejaVuSans-32"/>
       <use xlink:href="#DejaVuSans-30" transform="translate(63.623047 0)"/>
       <use xlink:href="#DejaVuSans-32" transform="translate(127.246094 0)"/>
       <use xlink:href="#DejaVuSans-33" transform="translate(190.869141 0)"/>
       <use xlink:href="#DejaVuSans-2d" transform="translate(254.492188 0)"/>
       <use xlink:href="#DejaVuSans-30" transform="translate(290.576172 0)"/>
       <use xlink:href="#DejaVuSans-31" transform="translate(354.199219 0)"/>
      </g>
     </g>
    </g>
    <g id="xtick_5">
     <g id="line2d_9">
      <path d="M 482.457292 320.4 
L 482.457292 43.2 
" clip-path="url(#p82d35bdbda)" style="fill: none; stroke-dasharray: 5.12,1.28,0.8,1.28; stroke-dashoffset: 0; stroke: #b0b0b0; stroke-width: 0.8"/>
     </g>
     <g id="line2d_10">
      <g>
       <use xlink:href="#me329cef77e" x="482.457292" y="320.4" style="fill: #a9a9a9; stroke: #a9a9a9; stroke-width: 0.8"/>
      </g>
     </g>
     <g id="text_5">
      <!-- 2023-07 -->
      <g style="fill: #a9a9a9" transform="translate(461.565886 334.998438) scale(0.1 -0.1)">
       <use xlink:href="#DejaVuSans-32"/>
       <use xlink:href="#DejaVuSans-30" transform="translate(63.623047 0)"/>
       <use xlink:href="#DejaVuSans-32" transform="translate(127.246094 0)"/>
       <use xlink:href="#DejaVuSans-33" transform="translate(190.869141 0)"/>
       <use xlink:href="#DejaVuSans-2d" transform="translate(254.492188 0)"/>
       <use xlink:href="#DejaVuSans-30" transform="translate(290.576172 0)"/>
       <use xlink:href="#DejaVuSans-37" transform="translate(354.199219 0)"/>
      </g>
     </g>
    </g>
    <g id="xtick_6">
     <g id="line2d_11">
      <path d="M 571.99032 320.4 
L 571.99032 43.2 
" clip-path="url(#p82d35bdbda)" style="fill: none; stroke-dasharray: 5.12,1.28,0.8,1.28; stroke-dashoffset: 0; stroke: #b0b0b0; stroke-width: 0.8"/>
     </g>
     <g id="line2d_12">
      <g>
       <use xlink:href="#me329cef77e" x="571.99032" y="320.4" style="fill: #a9a9a9; stroke: #a9a9a9; stroke-width: 0.8"/>
      </g>
     </g>
     <g id="text_6">
      <!-- 2024-01 -->
      <g style="fill: #a9a9a9" transform="translate(551.098914 334.998438) scale(0.1 -0.1)">
       <defs>
        <path id="DejaVuSans-34" d="M 2419 4116 
L 825 1625 
L 2419 1625 
L 2419 4116 
z
M 2253 4666 
L 3047 4666 
L 3047 1625 
L 3713 1625 
L 3713 1100 
L 3047 1100 
L 3047 0 
L 2419 0 
L 2419 1100 
L 313 1100 
L 313 1709 
L 2253 4666 
z
" transform="scale(0.015625)"/>
       </defs>
       <use xlink:href="#DejaVuSans-32"/>
       <use xlink:href="#DejaVuSans-30" transform="translate(63.623047 0)"/>
       <use xlink:href="#DejaVuSans-32" transform="translate(127.246094 0)"/>
       <use xlink:href="#DejaVuSans-34" transform="translate(190.869141 0)"/>
       <use xlink:href="#DejaVuSans-2d" transform="translate(254.492188 0)"/>
       <use xlink:href="#DejaVuSans-30" transform="translate(290.576172 0)"/>
       <use xlink:href="#DejaVuSans-31" transform="translate(354.199219 0)"/>
      </g>
     </g>
    </g>
    <g id="xtick_7">
     <g id="line2d_13">
      <path d="M 660.550164 320.4 
L 660.550164 43.2 
" clip-path="url(#p82d35bdbda)" style="fill: none; stroke-dasharray: 5.12,1.28,0.8,1.28; stroke-dashoffset: 0; stroke: #b0b0b0; stroke-width: 0.8"/>
     </g>
     <g id="line2d_14">
      <g>
       <use xlink:href="#me329cef77e" x="660.550164" y="320.4" style="fill: #a9a9a9; stroke: #a9a9a9; stroke-width: 0.8"/>
      </g>
     </g>
     <g id="text_7">
      <!-- 2024-07 -->
      <g style="fill: #a9a9a9" transform="translate(639.658757 334.998438) scale(0.1 -0.1)">
       <use xlink:href="#DejaVuSans-32"/>
       <use xlink:href="#DejaVuSans-30" transform="translate(63.623047 0)"/>
       <use xlink:href="#DejaVuSans-32" transform="translate(127.246094 0)"/>
       <use xlink:href="#DejaVuSans-34" transform="translate(190.869141 0)"/>
       <use xlink:href="#DejaVuSans-2d" transform="translate(254.492188 0)"/>
       <use xlink:href="#DejaVuSans-30" transform="translate(290.576172 0)"/>
       <use xlink:href="#DejaVuSans-37" transform="translate(354.199219 0)"/>
      </g>
     </g>
    </g>
    <g id="xtick_8">
     <g id="line2d_15">
      <path d="M 750.083192 320.4 
L 750.083192 43.2 
" clip-path="url(#p82d35bdbda)" style="fill: none; stroke-dasharray: 5.12,1.28,0.8,1.28; stroke-dashoffset: 0; stroke: #b0b0b0; stroke-width: 0.8"/>
     </g>
     <g id="line2d_16">
      <g>
       <use xlink:href="#me329cef77e" x="750.083192" y="320.4" style="fill: #a9a9a9; stroke: #a9a9a9; stroke-width: 0.8"/>
      </g>
     </g>
     <g id="text_8">
      <!-- 2025-01 -->
      <g style="fill: #a9a9a9" transform="translate(729.191785 334.998438) scale(0.1 -0.1)">
       <defs>
        <path id="DejaVuSans-35" d="M 691 4666 
L 3169 4666 
L 3169 4134 
L 1269 4134 
L 1269 2991 
Q 1406 3038 1543 3061 
Q 1681 3084 1819 3084 
Q 2600 3084 3056 2656 
Q 3513 2228 3513 1497 
Q 3513 744 3044 326 
Q 2575 -91 1722 -91 
Q 1428 -91 1123 -41 
Q 819 9 494 109 
L 494 744 
Q 775 591 1075 516 
Q 1375 441 1709 441 
Q 2250 441 2565 725 
Q 2881 1009 2881 1497 
Q 2881 1984 2565 2268 
Q 2250 2553 1709 2553 
Q 1456 2553 1204 2497 
Q 953 2441 691 2322 
L 691 4666 
z
" transform="scale(0.015625)"/>
       </defs>
       <use xlink:href="#DejaVuSans-32"/>
       <use xlink:href="#DejaVuSans-30" transform="translate(63.623047 0)"/>
       <use xlink:href="#DejaVuSans-32" transform="translate(127.246094 0)"/>
       <use xlink:href="#DejaVuSans-35" transform="translate(190.869141 0)"/>
       <use xlink:href="#DejaVuSans-2d" transform="translate(254.492188 0)"/>
       <use xlink:href="#DejaVuSans-30" transform="translate(290.576172 0)"/>
       <use xlink:href="#DejaVuSans-31" transform="translate(354.199219 0)"/>
      </g>
     </g>
    </g>
   </g>
   <g id="matplotlib.axis_2">
    <g id="ytick_1">
     <g id="line2d_17">
      <path d="M 108 307.835304 
L 777.6 307.835304 
" clip-path="url(#p82d35bdbda)" style="fill: none; stroke-dasharray: 5.12,1.28,0.8,1.28; stroke-dashoffset: 0; stroke: #b0b0b0; stroke-width: 0.8"/>
     </g>
     <g id="line2d_18">
      <defs>
       <path id="m971f5d9b6b" d="M 0 0 
L -3.5 0 
" style="stroke: #a9a9a9; stroke-width: 0.8"/>
      </defs>
      <g>
       <use xlink:href="#m971f5d9b6b" x="108" y="307.835304" style="fill: #a9a9a9; stroke: #a9a9a9; stroke-width: 0.8"/>
      </g>
     </g>
     <g id="text_9">
      <!-- 0 -->
      <g style="fill: #a9a9a9" transform="translate(94.6375 311.634523) scale(0.1 -0.1)">
       <use xlink:href="#DejaVuSans-30"/>
      </g>
     </g>
    </g>
    <g id="ytick_2">
     <g id="line2d_19">
      <path d="M 108 279.592099 
L 777.6 279.592099 
" clip-path="url(#p82d35bdbda)" style="fill: none; stroke-dasharray: 5.12,1.28,0.8,1.28; stroke-dashoffset: 0; stroke: #b0b0b0; stroke-width: 0.8"/>
     </g>
     <g id="line2d_20">
      <g>
       <use xlink:href="#m971f5d9b6b" x="108" y="279.592099" style="fill: #a9a9a9; stroke: #a9a9a9; stroke-width: 0.8"/>
      </g>
     </g>
     <g id="text_10">
      <!-- 800 -->
      <g style="fill: #a9a9a9" transform="translate(81.9125 283.391317) scale(0.1 -0.1)">
       <defs>
        <path id="DejaVuSans-38" d="M 2034 2216 
Q 1584 2216 1326 1975 
Q 1069 1734 1069 1313 
Q 1069 891 1326 650 
Q 1584 409 2034 409 
Q 2484 409 2743 651 
Q 3003 894 3003 1313 
Q 3003 1734 2745 1975 
Q 2488 2216 2034 2216 
z
M 1403 2484 
Q 997 2584 770 2862 
Q 544 3141 544 3541 
Q 544 4100 942 4425 
Q 1341 4750 2034 4750 
Q 2731 4750 3128 4425 
Q 3525 4100 3525 3541 
Q 3525 3141 3298 2862 
Q 3072 2584 2669 2484 
Q 3125 2378 3379 2068 
Q 3634 1759 3634 1313 
Q 3634 634 3220 271 
Q 2806 -91 2034 -91 
Q 1263 -91 848 271 
Q 434 634 434 1313 
Q 434 1759 690 2068 
Q 947 2378 1403 2484 
z
M 1172 3481 
Q 1172 3119 1398 2916 
Q 1625 2713 2034 2713 
Q 2441 2713 2670 2916 
Q 2900 3119 2900 3481 
Q 2900 3844 2670 4047 
Q 2441 4250 2034 4250 
Q 1625 4250 1398 4047 
Q 1172 3844 1172 3481 
z
" transform="scale(0.015625)"/>
       </defs>
       <use xlink:href="#DejaVuSans-38"/>
       <use xlink:href="#DejaVuSans-30" transform="translate(63.623047 0)"/>
       <use xlink:href="#DejaVuSans-30" transform="translate(127.246094 0)"/>
      </g>
     </g>
    </g>
    <g id="ytick_3">
     <g id="line2d_21">
      <path d="M 108 251.348893 
L 777.6 251.348893 
" clip-path="url(#p82d35bdbda)" style="fill: none; stroke-dasharray: 5.12,1.28,0.8,1.28; stroke-dashoffset: 0; stroke: #b0b0b0; stroke-width: 0.8"/>
     </g>
     <g id="line2d_22">
      <g>
       <use xlink:href="#m971f5d9b6b" x="108" y="251.348893" style="fill: #a9a9a9; stroke: #a9a9a9; stroke-width: 0.8"/>
      </g>
     </g>
     <g id="text_11">
      <!-- 1600 -->
      <g style="fill: #a9a9a9" transform="translate(75.55 255.148112) scale(0.1 -0.1)">
       <defs>
        <path id="DejaVuSans-36" d="M 2113 2584 
Q 1688 2584 1439 2293 
Q 1191 2003 1191 1497 
Q 1191 994 1439 701 
Q 1688 409 2113 409 
Q 2538 409 2786 701 
Q 3034 994 3034 1497 
Q 3034 2003 2786 2293 
Q 2538 2584 2113 2584 
z
M 3366 4563 
L 3366 3988 
Q 3128 4100 2886 4159 
Q 2644 4219 2406 4219 
Q 1781 4219 1451 3797 
Q 1122 3375 1075 2522 
Q 1259 2794 1537 2939 
Q 1816 3084 2150 3084 
Q 2853 3084 3261 2657 
Q 3669 2231 3669 1497 
Q 3669 778 3244 343 
Q 2819 -91 2113 -91 
Q 1303 -91 875 529 
Q 447 1150 447 2328 
Q 447 3434 972 4092 
Q 1497 4750 2381 4750 
Q 2619 4750 2861 4703 
Q 3103 4656 3366 4563 
z
" transform="scale(0.015625)"/>
       </defs>
       <use xlink:href="#DejaVuSans-31"/>
       <use xlink:href="#DejaVuSans-36" transform="translate(63.623047 0)"/>
       <use xlink:href="#DejaVuSans-30" transform="translate(127.246094 0)"/>
       <use xlink:href="#DejaVuSans-30" transform="translate(190.869141 0)"/>
      </g>
     </g>
    </g>
    <g id="ytick_4">
     <g id="line2d_23">
      <path d="M 108 223.105688 
L 777.6 223.105688 
" clip-path="url(#p82d35bdbda)" style="fill: none; stroke-dasharray: 5.12,1.28,0.8,1.28; stroke-dashoffset: 0; stroke: #b0b0b0; stroke-width: 0.8"/>
     </g>
     <g id="line2d_24">
      <g>
       <use xlink:href="#m971f5d9b6b" x="108" y="223.105688" style="fill: #a9a9a9; stroke: #a9a9a9; stroke-width: 0.8"/>
      </g>
     </g>
     <g id="text_12">
      <!-- 2400 -->
      <g style="fill: #a9a9a9" transform="translate(75.55 226.904907) scale(0.1 -0.1)">
       <use xlink:href="#DejaVuSans-32"/>
       <use xlink:href="#DejaVuSans-34" transform="translate(63.623047 0)"/>
       <use xlink:href="#DejaVuSans-30" transform="translate(127.246094 0)"/>
       <use xlink:href="#DejaVuSans-30" transform="translate(190.869141 0)"/>
      </g>
     </g>
    </g>
    <g id="ytick_5">
     <g id="line2d_25">
      <path d="M 108 194.862482 
L 777.6 194.862482 
" clip-path="url(#p82d35bdbda)" style="fill: none; stroke-dasharray: 5.12,1.28,0.8,1.28; stroke-dashoffset: 0; stroke: #b0b0b0; stroke-width: 0.8"/>
     </g>
     <g id="line2d_26">
      <g>
       <use xlink:href="#m971f5d9b6b" x="108" y="194.862482" style="fill: #a9a9a9; stroke: #a9a9a9; stroke-width: 0.8"/>
      </g>
     </g>
     <g id="text_13">
      <!-- 3200 -->
      <g style="fill: #a9a9a9" transform="translate(75.55 198.661701) scale(0.1 -0.1)">
       <use xlink:href="#DejaVuSans-33"/>
       <use xlink:href="#DejaVuSans-32" transform="translate(63.623047 0)"/>
       <use xlink:href="#DejaVuSans-30" transform="translate(127.246094 0)"/>
       <use xlink:href="#DejaVuSans-30" transform="translate(190.869141 0)"/>
      </g>
     </g>
    </g>
    <g id="ytick_6">
     <g id="line2d_27">
      <path d="M 108 166.619277 
L 777.6 166.619277 
" clip-path="url(#p82d35bdbda)" style="fill: none; stroke-dasharray: 5.12,1.28,0.8,1.28; stroke-dashoffset: 0; stroke: #b0b0b0; stroke-width: 0.8"/>
     </g>
     <g id="line2d_28">
      <g>
       <use xlink:href="#m971f5d9b6b" x="108" y="166.619277" style="fill: #a9a9a9; stroke: #a9a9a9; stroke-width: 0.8"/>
      </g>
     </g>
     <g id="text_14">
      <!-- 4000 -->
      <g style="fill: #a9a9a9" transform="translate(75.55 170.418496) scale(0.1 -0.1)">
       <use xlink:href="#DejaVuSans-34"/>
       <use xlink:href="#DejaVuSans-30" transform="translate(63.623047 0)"/>
       <use xlink:href="#DejaVuSans-30" transform="translate(127.246094 0)"/>
       <use xlink:href="#DejaVuSans-30" transform="translate(190.869141 0)"/>
      </g>
     </g>
    </g>
    <g id="ytick_7">
     <g id="line2d_29">
      <path d="M 108 138.376072 
L 777.6 138.376072 
" clip-path="url(#p82d35bdbda)" style="fill: none; stroke-dasharray: 5.12,1.28,0.8,1.28; stroke-dashoffset: 0; stroke: #b0b0b0; stroke-width: 0.8"/>
     </g>
     <g id="line2d_30">
      <g>
       <use xlink:href="#m971f5d9b6b" x="108" y="138.376072" style="fill: #a9a9a9; stroke: #a9a9a9; stroke-width: 0.8"/>
      </g>
     </g>
     <g id="text_15">
      <!-- 4800 -->
      <g style="fill: #a9a9a9" transform="translate(75.55 142.17529) scale(0.1 -0.1)">
       <use xlink:href="#DejaVuSans-34"/>
       <use xlink:href="#DejaVuSans-38" transform="translate(63.623047 0)"/>
       <use xlink:href="#DejaVuSans-30" transform="translate(127.246094 0)"/>
       <use xlink:href="#DejaVuSans-30" transform="translate(190.869141 0)"/>
      </g>
     </g>
    </g>
    <g id="ytick_8">
     <g id="line2d_31">
      <path d="M 108 110.132866 
L 777.6 110.132866 
" clip-path="url(#p82d35bdbda)" style="fill: none; stroke-dasharray: 5.12,1.28,0.8,1.28; stroke-dashoffset: 0; stroke: #b0b0b0; stroke-width: 0.8"/>
     </g>
     <g id="line2d_32">
      <g>
       <use xlink:href="#m971f5d9b6b" x="108" y="110.132866" style="fill: #a9a9a9; stroke: #a9a9a9; stroke-width: 0.8"/>
      </g>
     </g>
     <g id="text_16">
      <!-- 5600 -->
      <g style="fill: #a9a9a9" transform="translate(75.55 113.932085) scale(0.1 -0.1)">
       <use xlink:href="#DejaVuSans-35"/>
       <use xlink:href="#DejaVuSans-36" transform="translate(63.623047 0)"/>
       <use xlink:href="#DejaVuSans-30" transform="translate(127.246094 0)"/>
       <use xlink:href="#DejaVuSans-30" transform="translate(190.869141 0)"/>
      </g>
     </g>
    </g>
    <g id="ytick_9">
     <g id="line2d_33">
      <path d="M 108 81.889661 
L 777.6 81.889661 
" clip-path="url(#p82d35bdbda)" style="fill: none; stroke-dasharray: 5.12,1.28,0.8,1.28; stroke-dashoffset: 0; stroke: #b0b0b0; stroke-width: 0.8"/>
     </g>
     <g id="line2d_34">
      <g>
       <use xlink:href="#m971f5d9b6b" x="108" y="81.889661" style="fill: #a9a9a9; stroke: #a9a9a9; stroke-width: 0.8"/>
      </g>
     </g>
     <g id="text_17">
      <!-- 6400 -->
      <g style="fill: #a9a9a9" transform="translate(75.55 85.68888) scale(0.1 -0.1)">
       <use xlink:href="#DejaVuSans-36"/>
       <use xlink:href="#DejaVuSans-34" transform="translate(63.623047 0)"/>
       <use xlink:href="#DejaVuSans-30" transform="translate(127.246094 0)"/>
       <use xlink:href="#DejaVuSans-30" transform="translate(190.869141 0)"/>
      </g>
     </g>
    </g>
    <g id="ytick_10">
     <g id="line2d_35">
      <path d="M 108 53.646456 
L 777.6 53.646456 
" clip-path="url(#p82d35bdbda)" style="fill: none; stroke-dasharray: 5.12,1.28,0.8,1.28; stroke-dashoffset: 0; stroke: #b0b0b0; stroke-width: 0.8"/>
     </g>
     <g id="line2d_36">
      <g>
       <use xlink:href="#m971f5d9b6b" x="108" y="53.646456" style="fill: #a9a9a9; stroke: #a9a9a9; stroke-width: 0.8"/>
      </g>
     </g>
     <g id="text_18">
      <!-- 7200 -->
      <g style="fill: #a9a9a9" transform="translate(75.55 57.445674) scale(0.1 -0.1)">
       <use xlink:href="#DejaVuSans-37"/>
       <use xlink:href="#DejaVuSans-32" transform="translate(63.623047 0)"/>
       <use xlink:href="#DejaVuSans-30" transform="translate(127.246094 0)"/>
       <use xlink:href="#DejaVuSans-30" transform="translate(190.869141 0)"/>
      </g>
     </g>
    </g>
   </g>
   <g id="line2d_37">
    <path d="M 138.436364 307.729392 
L 141.355919 307.482264 
L 141.842511 307.27044 
L 143.788882 307.023312 
L 145.735252 306.634968 
L 146.708437 306.493752 
L 149.1414 306.281928 
L 150.114585 305.893584 
L 150.601177 305.258112 
L 151.08777 304.905071 
L 151.574362 303.810647 
L 152.060955 303.740039 
L 152.547547 303.351695 
L 153.520733 302.857439 
L 155.467103 301.304063 
L 157.413473 300.350855 
L 158.87325 299.680078 
L 159.359843 298.90339 
L 160.333028 298.19731 
L 160.819621 297.985486 
L 165.685546 297.279406 
L 166.172139 297.067582 
L 169.578286 296.78515 
L 171.524657 296.326198 
L 175.417397 295.796638 
L 175.90399 295.54951 
L 176.390582 295.478902 
L 177.363767 295.161166 
L 180.769915 294.596301 
L 181.7431 294.313869 
L 186.122433 293.572485 
L 187.095618 293.360661 
L 188.068803 293.325357 
L 190.015173 292.866405 
L 190.501766 292.195629 
L 191.961543 291.630765 
L 193.421321 291.242421 
L 193.907914 290.995293 
L 194.881099 290.818773 
L 196.827469 290.253909 
L 197.800654 290.183301 
L 198.773839 289.936173 
L 200.720209 289.441917 
L 201.206802 289.406612 
L 202.179987 288.94766 
L 202.666579 288.877052 
L 203.153172 288.629924 
L 208.50569 287.747324 
L 210.45206 287.18246 
L 210.938653 286.864724 
L 213.371615 286.052732 
L 214.344801 285.381956 
L 215.804578 285.099524 
L 228.455984 281.533819 
L 228.942577 281.533819 
L 229.429169 281.321995 
L 230.402354 281.216083 
L 230.888947 281.039563 
L 232.835317 280.933651 
L 233.808502 280.757131 
L 234.781687 280.262875 
L 236.241465 279.733315 
L 236.728058 279.415579 
L 237.701243 278.991931 
L 238.187835 278.744802 
L 239.16102 278.427066 
L 239.647613 278.28585 
L 240.620798 277.685682 
L 241.10739 277.156122 
L 242.080576 275.673354 
L 242.567168 275.532138 
L 243.053761 275.532138 
L 244.513538 274.684842 
L 245.000131 274.437714 
L 245.486723 274.331802 
L 245.973316 273.87285 
L 246.946501 273.484505 
L 247.919686 273.025553 
L 248.406279 272.425385 
L 248.892871 271.648697 
L 249.379464 271.330961 
L 249.866056 270.483665 
L 250.352649 269.954105 
L 253.272204 268.400728 
L 254.245389 267.62404 
L 254.731982 267.306304 
L 255.218574 266.600224 
L 255.705167 265.5058 
L 256.191759 264.764416 
L 256.678352 264.376072 
L 257.164944 264.164248 
L 260.571092 261.269319 
L 261.544277 260.104287 
L 263.004055 259.080471 
L 264.950425 257.915438 
L 265.92361 257.385878 
L 267.86998 256.362062 
L 270.302943 254.173214 
L 271.276128 253.78487 
L 272.249313 253.114094 
L 272.735906 252.831662 
L 273.222498 252.761054 
L 274.682276 251.949061 
L 275.168869 251.419501 
L 277.601831 250.113253 
L 278.088424 249.936733 
L 279.548201 248.948221 
L 286.84709 246.371028 
L 287.820275 245.488428 
L 288.79346 245.029476 
L 289.766645 244.499916 
L 290.253237 244.217484 
L 291.226422 243.935052 
L 291.713015 243.617316 
L 292.199608 243.4761 
L 293.659385 242.522892 
L 296.092348 241.958027 
L 297.552126 241.110731 
L 299.011903 240.792995 
L 299.498496 240.651779 
L 300.958273 239.557355 
L 302.904644 239.027795 
L 303.391236 238.639451 
L 306.310791 237.650939 
L 307.283976 237.474419 
L 308.257162 237.086075 
L 311.663309 235.850434 
L 312.636494 235.709218 
L 314.096272 235.214962 
L 316.529235 234.04993 
L 318.475605 232.99081 
L 322.368345 231.402129 
L 322.854938 231.331521 
L 323.828123 230.731353 
L 324.314716 230.660745 
L 326.261086 229.848753 
L 328.207456 229.601625 
L 329.180641 229.107369 
L 329.667233 228.683721 
L 330.153826 227.801121 
L 332.100196 227.271561 
L 333.559974 226.530177 
L 334.046566 226.424264 
L 337.939307 224.553152 
L 339.399084 224.27072 
L 340.372269 223.776464 
L 340.858862 223.56464 
L 341.345455 223.494032 
L 343.291825 222.611432 
L 344.751602 221.693528 
L 346.21138 221.411096 
L 348.644343 220.810927 
L 349.130935 220.422583 
L 350.590713 219.893023 
L 352.537083 219.116335 
L 353.023676 218.763295 
L 353.510268 218.586775 
L 354.483453 218.057215 
L 356.916416 217.245223 
L 358.376194 216.080191 
L 358.862786 215.974279 
L 359.835971 215.19759 
L 360.322564 215.126982 
L 360.809156 214.350294 
L 361.295749 214.13847 
L 361.782341 213.750126 
L 362.268934 213.679518 
L 363.242119 213.07935 
L 364.215304 212.761614 
L 364.701897 212.408574 
L 365.188489 212.232054 
L 366.648267 211.208238 
L 368.594637 210.184421 
L 369.08123 210.113813 
L 370.541007 209.372429 
L 371.0276 208.560437 
L 372.000785 207.854357 
L 372.487377 207.748445 
L 373.460562 207.148277 
L 373.947155 207.042365 
L 374.92034 206.548109 
L 376.86671 205.594901 
L 377.353303 205.24186 
L 378.326488 204.288652 
L 379.299673 203.688484 
L 379.786266 203.370748 
L 380.272858 202.841188 
L 382.219228 201.499636 
L 382.705821 200.934772 
L 383.192413 200.546428 
L 384.165598 200.193388 
L 385.138784 199.522611 
L 386.598561 198.781227 
L 387.085154 198.710619 
L 388.544931 197.933931 
L 389.518116 197.333763 
L 394.384042 195.568563 
L 394.870634 195.180219 
L 396.817005 194.438834 
L 397.303597 194.297618 
L 398.276782 193.662146 
L 399.249967 193.238498 
L 400.223152 192.567722 
L 401.196337 190.626002 
L 402.169523 189.496273 
L 403.6293 188.754889 
L 404.602485 188.366545 
L 405.089078 188.295937 
L 405.57567 188.013505 
L 408.008633 187.236817 
L 408.495226 187.024993 
L 409.468411 186.354217 
L 410.928188 185.718745 
L 411.901373 185.189185 
L 412.387966 184.836145 
L 412.874559 184.624321 
L 413.361151 184.27128 
L 413.847744 183.74172 
L 414.820929 183.21216 
L 417.253891 181.905912 
L 420.173447 180.458448 
L 421.633224 180.0348 
L 423.093002 179.469936 
L 423.579595 179.116895 
L 424.55278 178.834463 
L 425.525965 178.446119 
L 426.012557 178.057775 
L 427.958927 177.386999 
L 428.932112 176.680919 
L 429.905298 176.257271 
L 430.878483 175.480583 
L 431.851668 175.127543 
L 432.33826 174.703895 
L 432.824853 174.633287 
L 433.798038 173.891902 
L 434.771223 173.397646 
L 435.257816 173.185822 
L 435.744408 172.691566 
L 439.150556 171.350014 
L 440.123741 170.926366 
L 441.583519 170.467414 
L 442.556704 170.326198 
L 443.043296 170.114374 
L 443.529889 170.043766 
L 444.503074 169.620118 
L 444.989666 169.584814 
L 446.936037 168.84343 
L 448.395814 167.819613 
L 448.882407 167.643093 
L 449.855592 167.113533 
L 450.342184 166.972317 
L 453.26174 165.348333 
L 453.748332 165.242421 
L 455.20811 164.395125 
L 456.667888 163.900869 
L 457.641073 163.583133 
L 459.587443 162.94766 
L 460.560628 162.629924 
L 462.506998 162.24158 
L 462.993591 162.029756 
L 463.480183 161.959148 
L 464.453368 161.5355 
L 464.939961 161.464892 
L 465.426553 161.217764 
L 466.399738 161.041244 
L 467.859516 160.511684 
L 468.832701 160.405772 
L 470.292479 160.088036 
L 472.725441 159.664388 
L 485.376848 155.992771 
L 485.86344 155.498515 
L 486.836625 155.110171 
L 490.729366 153.662707 
L 491.215958 153.380275 
L 492.675736 152.956627 
L 493.648921 152.709498 
L 494.135513 152.391762 
L 494.622106 152.28585 
L 495.108698 151.862202 
L 496.568476 151.57977 
L 497.541661 151.120818 
L 498.028254 150.555954 
L 499.974624 150.097002 
L 503.380772 149.390922 
L 503.867364 149.390922 
L 504.353957 149.179098 
L 506.300327 148.826058 
L 506.78692 148.614234 
L 508.73329 148.261194 
L 509.706475 147.837546 
L 510.67966 147.661025 
L 513.112623 147.060857 
L 515.058993 146.460689 
L 515.545585 146.354777 
L 516.032178 146.107649 
L 517.005363 145.860521 
L 517.491956 145.578089 
L 518.951733 145.083833 
L 519.438326 144.766097 
L 520.411511 144.483665 
L 524.304251 143.142113 
L 525.277436 143.071505 
L 527.223806 142.506641 
L 527.710399 142.224208 
L 528.683584 141.941776 
L 531.116547 140.847352 
L 531.603139 140.812048 
L 536.955657 138.940936 
L 539.38862 138.305464 
L 540.361805 137.846512 
L 541.821583 137.528776 
L 543.767953 135.940095 
L 544.741138 135.657663 
L 545.227731 135.269319 
L 548.147286 134.174895 
L 548.633878 133.857159 
L 549.607063 133.574727 
L 550.093656 133.256991 
L 552.526619 132.480303 
L 553.986396 131.633006 
L 554.472989 131.527094 
L 556.905952 130.220846 
L 558.365729 129.585374 
L 558.852322 129.232334 
L 559.825507 128.914598 
L 560.798692 128.349734 
L 561.285284 128.173214 
L 561.771877 127.820174 
L 568.09758 125.596021 
L 568.584173 125.490109 
L 569.070765 125.172373 
L 571.017135 124.784029 
L 571.99032 124.395685 
L 574.909876 122.983525 
L 575.396468 122.912917 
L 576.856246 122.100925 
L 578.316024 121.606669 
L 581.722171 120.229812 
L 582.208764 120.088596 
L 582.695356 119.77086 
L 583.668542 119.664948 
L 584.155134 119.347212 
L 585.128319 119.170692 
L 586.101504 118.71174 
L 586.588097 118.499916 
L 587.074689 118.429308 
L 589.507652 117.4761 
L 590.96743 117.087756 
L 591.940615 116.840628 
L 593.400392 116.41698 
L 594.373578 116.028635 
L 596.319948 114.969515 
L 597.293133 114.581171 
L 597.779725 114.263435 
L 598.75291 114.051611 
L 599.239503 113.769179 
L 599.726095 113.663267 
L 601.185873 112.851275 
L 602.159058 112.462931 
L 604.105428 111.721547 
L 606.538391 110.909554 
L 607.511576 110.415298 
L 609.944539 109.603306 
L 612.864094 108.438274 
L 614.810464 107.555674 
L 619.67639 105.684562 
L 620.162982 105.366825 
L 622.109353 104.696049 
L 622.595945 104.696049 
L 623.56913 104.272401 
L 625.5155 102.719025 
L 626.002093 102.577809 
L 626.488685 102.260073 
L 626.975278 102.154161 
L 627.461871 101.907033 
L 627.948463 101.836425 
L 628.435056 101.483385 
L 628.921648 101.377473 
L 629.894833 100.777305 
L 631.354611 100.03592 
L 632.327796 99.647576 
L 632.814388 99.400448 
L 634.274166 99.082712 
L 636.707129 98.27072 
L 637.680314 97.952984 
L 639.140092 97.2116 
L 640.113277 96.752648 
L 641.086462 96.50552 
L 642.546239 95.834744 
L 646.925572 94.246063 
L 648.38535 93.363463 
L 648.871942 93.257551 
L 649.845128 92.763295 
L 650.818313 92.410255 
L 651.304905 91.986607 
L 652.27809 91.598263 
L 655.197646 90.433231 
L 656.657423 90.009583 
L 657.144016 89.762454 
L 657.630608 89.691846 
L 659.090386 89.162286 
L 660.550164 88.632726 
L 661.523349 88.244382 
L 662.009941 87.856038 
L 663.469719 87.467694 
L 663.956311 87.185262 
L 664.929496 86.938134 
L 666.389274 86.126142 
L 666.875867 86.090838 
L 668.335644 85.631886 
L 669.308829 85.561278 
L 670.282014 85.172934 
L 673.20157 84.325637 
L 674.174755 84.290333 
L 678.067495 83.054693 
L 679.04068 82.525133 
L 679.527273 82.101485 
L 680.98705 81.254189 
L 681.960235 80.654021 
L 684.879791 79.736117 
L 685.366383 79.347772 
L 688.285939 78.147436 
L 690.232309 77.617876 
L 691.205494 77.194228 
L 691.692086 76.9471 
L 692.665271 76.664668 
L 693.151864 76.382236 
L 694.125049 76.205716 
L 696.558012 75.075988 
L 697.044604 74.793556 
L 698.504382 74.440516 
L 698.990974 74.122779 
L 699.477567 73.946259 
L 699.96416 73.522611 
L 700.450752 73.452003 
L 702.397122 72.675315 
L 704.343492 72.216363 
L 704.830085 72.145755 
L 705.316678 71.933931 
L 705.80327 71.898627 
L 706.776455 71.580891 
L 707.263048 71.545587 
L 708.722825 70.980723 
L 710.669196 70.415859 
L 711.642381 69.674475 
L 713.588751 68.615354 
L 715.048528 68.121098 
L 717.968084 66.81485 
L 718.941269 66.28529 
L 719.427861 66.038162 
L 719.914454 65.57921 
L 722.834009 64.626002 
L 723.807194 64.237658 
L 724.780379 63.955226 
L 725.266972 63.708098 
L 725.753564 63.249145 
L 727.699935 62.754889 
L 728.186527 62.401849 
L 734.51223 60.107089 
L 735.485415 59.930569 
L 739.864748 58.412496 
L 740.837933 58.165368 
L 741.324526 57.953544 
L 741.811118 57.91824 
L 742.784303 57.529896 
L 743.757489 56.929728 
L 744.244081 56.753208 
L 744.730674 56.717904 
L 746.190451 56.082432 
L 746.677044 55.870608 
L 747.163636 55.8 
L 747.163636 55.8 
" clip-path="url(#p82d35bdbda)" style="fill: none; stroke: #1f77b4; stroke-width: 1.5; stroke-linecap: square"/>
   </g>
   <g id="line2d_38">
    <path d="M 138.922956 307.8 
L 143.302289 307.694088 
L 147.195029 307.517568 
L 149.1414 307.517568 
L 149.627992 307.376352 
L 152.060955 307.27044 
L 154.98051 306.952704 
L 157.900065 306.846792 
L 158.87325 306.74088 
L 162.279398 306.599664 
L 165.685546 306.493752 
L 168.118509 306.423144 
L 174.444212 306.317232 
L 176.877175 306.246624 
L 180.283322 306.140712 
L 182.716285 306.070104 
L 188.068803 305.964192 
L 190.015173 305.787672 
L 191.961543 305.752368 
L 194.881099 305.646456 
L 196.827469 305.611152 
L 199.260432 305.540544 
L 201.206802 305.364024 
L 205.586135 305.258112 
L 206.55932 305.187504 
L 208.50569 305.081591 
L 211.425245 304.975679 
L 213.371615 304.869767 
L 222.130281 304.340207 
L 225.536429 304.234295 
L 226.996207 304.093079 
L 229.429169 303.987167 
L 234.295095 303.740039 
L 239.16102 303.669431 
L 241.10739 303.457607 
L 243.053761 303.351695 
L 248.406279 302.857439 
L 251.812426 302.469095 
L 253.272204 302.398487 
L 257.164944 301.904231 
L 260.0845 301.833623 
L 261.544277 301.692407 
L 263.004055 301.586495 
L 276.628646 300.562679 
L 277.601831 300.386159 
L 280.521387 300.280247 
L 288.306867 299.821294 
L 291.713015 299.715382 
L 293.659385 299.503558 
L 296.092348 299.397646 
L 299.011903 299.291734 
L 301.444866 299.185822 
L 303.391236 299.150518 
L 305.824199 299.07991 
L 306.797384 298.938694 
L 313.60968 298.832782 
L 314.582865 298.72687 
L 320.421975 298.620958 
L 324.801308 298.409134 
L 328.207456 298.303222 
L 330.153826 298.091398 
L 333.559974 297.985486 
L 334.533159 297.808966 
L 336.966122 297.738358 
L 341.832047 297.66775 
L 344.26501 297.420622 
L 347.184565 297.31471 
L 349.130935 297.13819 
L 353.996861 296.891062 
L 358.862786 296.78515 
L 363.242119 296.573326 
L 364.701897 296.538022 
L 365.675082 296.396806 
L 368.108044 296.290894 
L 369.08123 296.220286 
L 370.054415 296.149678 
L 371.0276 296.07907 
L 375.406933 296.008462 
L 376.86671 295.90255 
L 390.004709 295.055254 
L 392.437672 294.949342 
L 394.870634 294.878734 
L 401.68293 294.772822 
L 402.656115 294.631605 
L 409.468411 294.525693 
L 414.334336 294.278565 
L 415.307521 294.243261 
L 416.280706 294.137349 
L 418.713669 294.031437 
L 421.146632 293.960829 
L 423.579595 293.854917 
L 426.012557 293.784309 
L 430.39189 293.678397 
L 433.311445 293.572485 
L 440.123741 293.466573 
L 445.476259 293.184141 
L 447.422629 293.113533 
L 448.882407 293.007621 
L 455.694702 292.901709 
L 458.614258 292.795797 
L 467.372923 292.689885 
L 469.319294 292.654581 
L 475.158404 292.583973 
L 476.131589 292.513365 
L 482.943885 292.407453 
L 484.890255 292.372149 
L 497.541661 292.266237 
L 499.001439 292.125021 
L 520.898103 292.019109 
L 523.331066 291.948501 
L 535.982472 291.842589 
L 536.955657 291.771981 
L 539.38862 291.701373 
L 540.848398 291.560157 
L 543.767953 291.454245 
L 547.174101 291.313029 
L 551.553434 291.207117 
L 553.986396 291.136509 
L 557.392544 291.030597 
L 561.285284 290.854077 
L 563.718247 290.748165 
L 565.664617 290.712861 
L 570.04395 290.606949 
L 571.99032 290.571645 
L 578.316024 290.465733 
L 580.262394 290.430429 
L 582.695356 290.324517 
L 585.614912 290.218605 
L 589.02106 290.147997 
L 589.994245 290.077389 
L 601.672466 289.971477 
L 607.998169 289.618437 
L 610.431131 289.547829 
L 611.404317 289.441917 
L 612.377502 289.371308 
L 616.270242 289.265396 
L 619.189797 289.159484 
L 624.055723 289.053572 
L 626.488685 288.806444 
L 631.354611 288.700532 
L 632.327796 288.59462 
L 637.193721 288.488708 
L 639.626684 288.4181 
L 644.979202 288.382796 
L 645.952387 288.276884 
L 651.304905 288.170972 
L 652.27809 288.100364 
L 662.983126 287.994452 
L 665.902681 287.88854 
L 673.20157 287.782628 
L 675.14794 287.747324 
L 679.527273 287.676716 
L 680.500458 287.570804 
L 686.826161 287.464892 
L 689.259124 287.394284 
L 698.017789 287.288372 
L 699.477567 287.18246 
L 700.937345 287.076548 
L 702.397122 286.970636 
L 709.69601 286.864724 
L 712.615566 286.758812 
L 725.753564 286.6529 
L 730.132897 286.441076 
L 735.972008 286.335164 
L 736.945193 286.229252 
L 744.244081 286.158644 
L 745.217266 286.088036 
L 747.163636 286.052732 
L 747.163636 286.052732 
" clip-path="url(#p82d35bdbda)" style="fill: none; stroke: #ff7f0e; stroke-width: 1.5; stroke-linecap: square"/>
   </g>
   <g id="patch_3">
    <path d="M 108 320.4 
L 108 43.2 
" style="fill: none; stroke: #a9a9a9; stroke-width: 0.8; stroke-linejoin: miter; stroke-linecap: square"/>
   </g>
   <g id="patch_4">
    <path d="M 777.6 320.4 
L 777.6 43.2 
" style="fill: none"/>
   </g>
   <g id="patch_5">
    <path d="M 108 320.4 
L 777.6 320.4 
" style="fill: none; stroke: #a9a9a9; stroke-width: 0.8; stroke-linejoin: miter; stroke-linecap: square"/>
   </g>
   <g id="patch_6">
    <path d="M 108 43.2 
L 777.6 43.2 
" style="fill: none"/>
   </g>
   <g id="text_19">
    <!-- get_subscribe history -->
    <g style="fill: #a9a9a9" transform="translate(378.6075 37.2) scale(0.12 -0.12)">
     <defs>
      <path id="DejaVuSans-67" d="M 2906 1791 
Q 2906 2416 2648 2759 
Q 2391 3103 1925 3103 
Q 1463 3103 1205 2759 
Q 947 2416 947 1791 
Q 947 1169 1205 825 
Q 1463 481 1925 481 
Q 2391 481 2648 825 
Q 2906 1169 2906 1791 
z
M 3481 434 
Q 3481 -459 3084 -895 
Q 2688 -1331 1869 -1331 
Q 1566 -1331 1297 -1286 
Q 1028 -1241 775 -1147 
L 775 -588 
Q 1028 -725 1275 -790 
Q 1522 -856 1778 -856 
Q 2344 -856 2625 -561 
Q 2906 -266 2906 331 
L 2906 616 
Q 2728 306 2450 153 
Q 2172 0 1784 0 
Q 1141 0 747 490 
Q 353 981 353 1791 
Q 353 2603 747 3093 
Q 1141 3584 1784 3584 
Q 2172 3584 2450 3431 
Q 2728 3278 2906 2969 
L 2906 3500 
L 3481 3500 
L 3481 434 
z
" transform="scale(0.015625)"/>
      <path id="DejaVuSans-65" d="M 3597 1894 
L 3597 1613 
L 953 1613 
Q 991 1019 1311 708 
Q 1631 397 2203 397 
Q 2534 397 2845 478 
Q 3156 559 3463 722 
L 3463 178 
Q 3153 47 2828 -22 
Q 2503 -91 2169 -91 
Q 1331 -91 842 396 
Q 353 884 353 1716 
Q 353 2575 817 3079 
Q 1281 3584 2069 3584 
Q 2775 3584 3186 3129 
Q 3597 2675 3597 1894 
z
M 3022 2063 
Q 3016 2534 2758 2815 
Q 2500 3097 2075 3097 
Q 1594 3097 1305 2825 
Q 1016 2553 972 2059 
L 3022 2063 
z
" transform="scale(0.015625)"/>
      <path id="DejaVuSans-74" d="M 1172 4494 
L 1172 3500 
L 2356 3500 
L 2356 3053 
L 1172 3053 
L 1172 1153 
Q 1172 725 1289 603 
Q 1406 481 1766 481 
L 2356 481 
L 2356 0 
L 1766 0 
Q 1100 0 847 248 
Q 594 497 594 1153 
L 594 3053 
L 172 3053 
L 172 3500 
L 594 3500 
L 594 4494 
L 1172 4494 
z
" transform="scale(0.015625)"/>
      <path id="DejaVuSans-5f" d="M 3263 -1063 
L 3263 -1509 
L -63 -1509 
L -63 -1063 
L 3263 -1063 
z
" transform="scale(0.015625)"/>
      <path id="DejaVuSans-73" d="M 2834 3397 
L 2834 2853 
Q 2591 2978 2328 3040 
Q 2066 3103 1784 3103 
Q 1356 3103 1142 2972 
Q 928 2841 928 2578 
Q 928 2378 1081 2264 
Q 1234 2150 1697 2047 
L 1894 2003 
Q 2506 1872 2764 1633 
Q 3022 1394 3022 966 
Q 3022 478 2636 193 
Q 2250 -91 1575 -91 
Q 1294 -91 989 -36 
Q 684 19 347 128 
L 347 722 
Q 666 556 975 473 
Q 1284 391 1588 391 
Q 1994 391 2212 530 
Q 2431 669 2431 922 
Q 2431 1156 2273 1281 
Q 2116 1406 1581 1522 
L 1381 1569 
Q 847 1681 609 1914 
Q 372 2147 372 2553 
Q 372 3047 722 3315 
Q 1072 3584 1716 3584 
Q 2034 3584 2315 3537 
Q 2597 3491 2834 3397 
z
" transform="scale(0.015625)"/>
      <path id="DejaVuSans-75" d="M 544 1381 
L 544 3500 
L 1119 3500 
L 1119 1403 
Q 1119 906 1312 657 
Q 1506 409 1894 409 
Q 2359 409 2629 706 
Q 2900 1003 2900 1516 
L 2900 3500 
L 3475 3500 
L 3475 0 
L 2900 0 
L 2900 538 
Q 2691 219 2414 64 
Q 2138 -91 1772 -91 
Q 1169 -91 856 284 
Q 544 659 544 1381 
z
M 1991 3584 
L 1991 3584 
z
" transform="scale(0.015625)"/>
      <path id="DejaVuSans-62" d="M 3116 1747 
Q 3116 2381 2855 2742 
Q 2594 3103 2138 3103 
Q 1681 3103 1420 2742 
Q 1159 2381 1159 1747 
Q 1159 1113 1420 752 
Q 1681 391 2138 391 
Q 2594 391 2855 752 
Q 3116 1113 3116 1747 
z
M 1159 2969 
Q 1341 3281 1617 3432 
Q 1894 3584 2278 3584 
Q 2916 3584 3314 3078 
Q 3713 2572 3713 1747 
Q 3713 922 3314 415 
Q 2916 -91 2278 -91 
Q 1894 -91 1617 61 
Q 1341 213 1159 525 
L 1159 0 
L 581 0 
L 581 4863 
L 1159 4863 
L 1159 2969 
z
" transform="scale(0.015625)"/>
      <path id="DejaVuSans-63" d="M 3122 3366 
L 3122 2828 
Q 2878 2963 2633 3030 
Q 2388 3097 2138 3097 
Q 1578 3097 1268 2742 
Q 959 2388 959 1747 
Q 959 1106 1268 751 
Q 1578 397 2138 397 
Q 2388 397 2633 464 
Q 2878 531 3122 666 
L 3122 134 
Q 2881 22 2623 -34 
Q 2366 -91 2075 -91 
Q 1284 -91 818 406 
Q 353 903 353 1747 
Q 353 2603 823 3093 
Q 1294 3584 2113 3584 
Q 2378 3584 2631 3529 
Q 2884 3475 3122 3366 
z
" transform="scale(0.015625)"/>
      <path id="DejaVuSans-72" d="M 2631 2963 
Q 2534 3019 2420 3045 
Q 2306 3072 2169 3072 
Q 1681 3072 1420 2755 
Q 1159 2438 1159 1844 
L 1159 0 
L 581 0 
L 581 3500 
L 1159 3500 
L 1159 2956 
Q 1341 3275 1631 3429 
Q 1922 3584 2338 3584 
Q 2397 3584 2469 3576 
Q 2541 3569 2628 3553 
L 2631 2963 
z
" transform="scale(0.015625)"/>
      <path id="DejaVuSans-69" d="M 603 3500 
L 1178 3500 
L 1178 0 
L 603 0 
L 603 3500 
z
M 603 4863 
L 1178 4863 
L 1178 4134 
L 603 4134 
L 603 4863 
z
" transform="scale(0.015625)"/>
      <path id="DejaVuSans-20" transform="scale(0.015625)"/>
      <path id="DejaVuSans-68" d="M 3513 2113 
L 3513 0 
L 2938 0 
L 2938 2094 
Q 2938 2591 2744 2837 
Q 2550 3084 2163 3084 
Q 1697 3084 1428 2787 
Q 1159 2491 1159 1978 
L 1159 0 
L 581 0 
L 581 4863 
L 1159 4863 
L 1159 2956 
Q 1366 3272 1645 3428 
Q 1925 3584 2291 3584 
Q 2894 3584 3203 3211 
Q 3513 2838 3513 2113 
z
" transform="scale(0.015625)"/>
      <path id="DejaVuSans-6f" d="M 1959 3097 
Q 1497 3097 1228 2736 
Q 959 2375 959 1747 
Q 959 1119 1226 758 
Q 1494 397 1959 397 
Q 2419 397 2687 759 
Q 2956 1122 2956 1747 
Q 2956 2369 2687 2733 
Q 2419 3097 1959 3097 
z
M 1959 3584 
Q 2709 3584 3137 3096 
Q 3566 2609 3566 1747 
Q 3566 888 3137 398 
Q 2709 -91 1959 -91 
Q 1206 -91 779 398 
Q 353 888 353 1747 
Q 353 2609 779 3096 
Q 1206 3584 1959 3584 
z
" transform="scale(0.015625)"/>
      <path id="DejaVuSans-79" d="M 2059 -325 
Q 1816 -950 1584 -1140 
Q 1353 -1331 966 -1331 
L 506 -1331 
L 506 -850 
L 844 -850 
Q 1081 -850 1212 -737 
Q 1344 -625 1503 -206 
L 1606 56 
L 191 3500 
L 800 3500 
L 1894 763 
L 2988 3500 
L 3597 3500 
L 2059 -325 
z
" transform="scale(0.015625)"/>
     </defs>
     <use xlink:href="#DejaVuSans-67"/>
     <use xlink:href="#DejaVuSans-65" transform="translate(63.476562 0)"/>
     <use xlink:href="#DejaVuSans-74" transform="translate(125 0)"/>
     <use xlink:href="#DejaVuSans-5f" transform="translate(164.208984 0)"/>
     <use xlink:href="#DejaVuSans-73" transform="translate(214.208984 0)"/>
     <use xlink:href="#DejaVuSans-75" transform="translate(266.308594 0)"/>
     <use xlink:href="#DejaVuSans-62" transform="translate(329.6875 0)"/>
     <use xlink:href="#DejaVuSans-73" transform="translate(393.164062 0)"/>
     <use xlink:href="#DejaVuSans-63" transform="translate(445.263672 0)"/>
     <use xlink:href="#DejaVuSans-72" transform="translate(500.244141 0)"/>
     <use xlink:href="#DejaVuSans-69" transform="translate(541.357422 0)"/>
     <use xlink:href="#DejaVuSans-62" transform="translate(569.140625 0)"/>
     <use xlink:href="#DejaVuSans-65" transform="translate(632.617188 0)"/>
     <use xlink:href="#DejaVuSans-20" transform="translate(694.140625 0)"/>
     <use xlink:href="#DejaVuSans-68" transform="translate(725.927734 0)"/>
     <use xlink:href="#DejaVuSans-69" transform="translate(789.306641 0)"/>
     <use xlink:href="#DejaVuSans-73" transform="translate(817.089844 0)"/>
     <use xlink:href="#DejaVuSans-74" transform="translate(869.189453 0)"/>
     <use xlink:href="#DejaVuSans-6f" transform="translate(908.398438 0)"/>
     <use xlink:href="#DejaVuSans-72" transform="translate(969.580078 0)"/>
     <use xlink:href="#DejaVuSans-79" transform="translate(1010.693359 0)"/>
    </g>
   </g>
   <g id="legend_1">
    <g id="line2d_39">
     <path d="M 815.08 328.498438 
L 825.08 328.498438 
L 835.08 328.498438 
" style="fill: none; stroke: #1f77b4; stroke-width: 1.5; stroke-linecap: square"/>
    </g>
    <g id="text_20">
     <!-- star -->
     <g style="fill: #a9a9a9" transform="translate(843.08 331.998438) scale(0.1 -0.1)">
      <defs>
       <path id="DejaVuSans-61" d="M 2194 1759 
Q 1497 1759 1228 1600 
Q 959 1441 959 1056 
Q 959 750 1161 570 
Q 1363 391 1709 391 
Q 2188 391 2477 730 
Q 2766 1069 2766 1631 
L 2766 1759 
L 2194 1759 
z
M 3341 1997 
L 3341 0 
L 2766 0 
L 2766 531 
Q 2569 213 2275 61 
Q 1981 -91 1556 -91 
Q 1019 -91 701 211 
Q 384 513 384 1019 
Q 384 1609 779 1909 
Q 1175 2209 1959 2209 
L 2766 2209 
L 2766 2266 
Q 2766 2663 2505 2880 
Q 2244 3097 1772 3097 
Q 1472 3097 1187 3025 
Q 903 2953 641 2809 
L 641 3341 
Q 956 3463 1253 3523 
Q 1550 3584 1831 3584 
Q 2591 3584 2966 3190 
Q 3341 2797 3341 1997 
z
" transform="scale(0.015625)"/>
      </defs>
      <use xlink:href="#DejaVuSans-73"/>
      <use xlink:href="#DejaVuSans-74" transform="translate(52.099609 0)"/>
      <use xlink:href="#DejaVuSans-61" transform="translate(91.308594 0)"/>
      <use xlink:href="#DejaVuSans-72" transform="translate(152.587891 0)"/>
     </g>
    </g>
    <g id="line2d_40">
     <path d="M 815.08 343.176562 
L 825.08 343.176562 
L 835.08 343.176562 
" style="fill: none; stroke: #ff7f0e; stroke-width: 1.5; stroke-linecap: square"/>
    </g>
    <g id="text_21">
     <!-- fork -->
     <g style="fill: #a9a9a9" transform="translate(843.08 346.676562) scale(0.1 -0.1)">
      <defs>
       <path id="DejaVuSans-66" d="M 2375 4863 
L 2375 4384 
L 1825 4384 
Q 1516 4384 1395 4259 
Q 1275 4134 1275 3809 
L 1275 3500 
L 2222 3500 
L 2222 3053 
L 1275 3053 
L 1275 0 
L 697 0 
L 697 3053 
L 147 3053 
L 147 3500 
L 697 3500 
L 697 3744 
Q 697 4328 969 4595 
Q 1241 4863 1831 4863 
L 2375 4863 
z
" transform="scale(0.015625)"/>
       <path id="DejaVuSans-6b" d="M 581 4863 
L 1159 4863 
L 1159 1991 
L 2875 3500 
L 3609 3500 
L 1753 1863 
L 3688 0 
L 2938 0 
L 1159 1709 
L 1159 0 
L 581 0 
L 581 4863 
z
" transform="scale(0.015625)"/>
      </defs>
      <use xlink:href="#DejaVuSans-66"/>
      <use xlink:href="#DejaVuSans-6f" transform="translate(35.205078 0)"/>
      <use xlink:href="#DejaVuSans-72" transform="translate(96.386719 0)"/>
      <use xlink:href="#DejaVuSans-6b" transform="translate(137.5 0)"/>
     </g>
    </g>
   </g>
  </g>
 </g>
 <defs>
  <clipPath id="p82d35bdbda">
   <rect x="108" y="43.2" width="669.6" height="277.2"/>
  </clipPath>
 </defs>
</svg>
