<?xml version="1.0" encoding="utf-8" standalone="no"?>
<!DOCTYPE svg PUBLIC "-//W3C//DTD SVG 1.1//EN"
  "http://www.w3.org/Graphics/SVG/1.1/DTD/svg11.dtd">
<svg xmlns:xlink="http://www.w3.org/1999/xlink" width="864pt" height="360pt" viewBox="0 0 864 360" xmlns="http://www.w3.org/2000/svg" version="1.1">
 <metadata>
  <rdf:RDF xmlns:dc="http://purl.org/dc/elements/1.1/" xmlns:cc="http://creativecommons.org/ns#" xmlns:rdf="http://www.w3.org/1999/02/22-rdf-syntax-ns#">
   <cc:Work>
    <dc:type rdf:resource="http://purl.org/dc/dcmitype/StillImage"/>
    <dc:date>2024-12-23T08:14:57.733661</dc:date>
    <dc:format>image/svg+xml</dc:format>
    <dc:creator>
     <cc:Agent>
      <dc:title>Matplotlib v3.10.0, https://matplotlib.org/</dc:title>
     </cc:Agent>
    </dc:creator>
   </cc:Work>
  </rdf:RDF>
 </metadata>
 <defs>
  <style type="text/css">*{stroke-linejoin: round; stroke-linecap: butt}</style>
 </defs>
 <g id="figure_1">
  <g id="patch_1">
   <path d="M 0 360 
L 864 360 
L 864 0 
L 0 0 
L 0 360 
z
" style="fill: none; opacity: 0"/>
  </g>
  <g id="axes_1">
   <g id="patch_2">
    <path d="M 108 320.4 
L 777.6 320.4 
L 777.6 43.2 
L 108 43.2 
L 108 320.4 
z
" style="fill: none; opacity: 0"/>
   </g>
   <g id="matplotlib.axis_1">
    <g id="xtick_1">
     <g id="line2d_1">
      <path d="M 127.217832 320.4 
L 127.217832 43.2 
" clip-path="url(#pfcc669e2a5)" style="fill: none; stroke-dasharray: 5.12,1.28,0.8,1.28; stroke-dashoffset: 0; stroke: #b0b0b0; stroke-width: 0.8"/>
     </g>
     <g id="line2d_2">
      <defs>
       <path id="m705700b522" d="M 0 0 
L 0 3.5 
" style="stroke: #a9a9a9; stroke-width: 0.8"/>
      </defs>
      <g>
       <use xlink:href="#m705700b522" x="127.217832" y="320.4" style="fill: #a9a9a9; stroke: #a9a9a9; stroke-width: 0.8"/>
      </g>
     </g>
     <g id="text_1">
      <!-- 2021-07 -->
      <g style="fill: #a9a9a9" transform="translate(106.326426 334.998438) scale(0.1 -0.1)">
       <defs>
        <path id="DejaVuSans-32" d="M 1228 531 
L 3431 531 
L 3431 0 
L 469 0 
L 469 531 
Q 828 903 1448 1529 
Q 2069 2156 2228 2338 
Q 2531 2678 2651 2914 
Q 2772 3150 2772 3378 
Q 2772 3750 2511 3984 
Q 2250 4219 1831 4219 
Q 1534 4219 1204 4116 
Q 875 4013 500 3803 
L 500 4441 
Q 881 4594 1212 4672 
Q 1544 4750 1819 4750 
Q 2544 4750 2975 4387 
Q 3406 4025 3406 3419 
Q 3406 3131 3298 2873 
Q 3191 2616 2906 2266 
Q 2828 2175 2409 1742 
Q 1991 1309 1228 531 
z
" transform="scale(0.015625)"/>
        <path id="DejaVuSans-30" d="M 2034 4250 
Q 1547 4250 1301 3770 
Q 1056 3291 1056 2328 
Q 1056 1369 1301 889 
Q 1547 409 2034 409 
Q 2525 409 2770 889 
Q 3016 1369 3016 2328 
Q 3016 3291 2770 3770 
Q 2525 4250 2034 4250 
z
M 2034 4750 
Q 2819 4750 3233 4129 
Q 3647 3509 3647 2328 
Q 3647 1150 3233 529 
Q 2819 -91 2034 -91 
Q 1250 -91 836 529 
Q 422 1150 422 2328 
Q 422 3509 836 4129 
Q 1250 4750 2034 4750 
z
" transform="scale(0.015625)"/>
        <path id="DejaVuSans-31" d="M 794 531 
L 1825 531 
L 1825 4091 
L 703 3866 
L 703 4441 
L 1819 4666 
L 2450 4666 
L 2450 531 
L 3481 531 
L 3481 0 
L 794 0 
L 794 531 
z
" transform="scale(0.015625)"/>
        <path id="DejaVuSans-2d" d="M 313 2009 
L 1997 2009 
L 1997 1497 
L 313 1497 
L 313 2009 
z
" transform="scale(0.015625)"/>
        <path id="DejaVuSans-37" d="M 525 4666 
L 3525 4666 
L 3525 4397 
L 1831 0 
L 1172 0 
L 2766 4134 
L 525 4134 
L 525 4666 
z
" transform="scale(0.015625)"/>
       </defs>
       <use xlink:href="#DejaVuSans-32"/>
       <use xlink:href="#DejaVuSans-30" transform="translate(63.623047 0)"/>
       <use xlink:href="#DejaVuSans-32" transform="translate(127.246094 0)"/>
       <use xlink:href="#DejaVuSans-31" transform="translate(190.869141 0)"/>
       <use xlink:href="#DejaVuSans-2d" transform="translate(254.492188 0)"/>
       <use xlink:href="#DejaVuSans-30" transform="translate(290.576172 0)"/>
       <use xlink:href="#DejaVuSans-37" transform="translate(354.199219 0)"/>
      </g>
     </g>
    </g>
    <g id="xtick_2">
     <g id="line2d_3">
      <path d="M 216.966084 320.4 
L 216.966084 43.2 
" clip-path="url(#pfcc669e2a5)" style="fill: none; stroke-dasharray: 5.12,1.28,0.8,1.28; stroke-dashoffset: 0; stroke: #b0b0b0; stroke-width: 0.8"/>
     </g>
     <g id="line2d_4">
      <g>
       <use xlink:href="#m705700b522" x="216.966084" y="320.4" style="fill: #a9a9a9; stroke: #a9a9a9; stroke-width: 0.8"/>
      </g>
     </g>
     <g id="text_2">
      <!-- 2022-01 -->
      <g style="fill: #a9a9a9" transform="translate(196.074678 334.998438) scale(0.1 -0.1)">
       <use xlink:href="#DejaVuSans-32"/>
       <use xlink:href="#DejaVuSans-30" transform="translate(63.623047 0)"/>
       <use xlink:href="#DejaVuSans-32" transform="translate(127.246094 0)"/>
       <use xlink:href="#DejaVuSans-32" transform="translate(190.869141 0)"/>
       <use xlink:href="#DejaVuSans-2d" transform="translate(254.492188 0)"/>
       <use xlink:href="#DejaVuSans-30" transform="translate(290.576172 0)"/>
       <use xlink:href="#DejaVuSans-31" transform="translate(354.199219 0)"/>
      </g>
     </g>
    </g>
    <g id="xtick_3">
     <g id="line2d_5">
      <path d="M 305.251049 320.4 
L 305.251049 43.2 
" clip-path="url(#pfcc669e2a5)" style="fill: none; stroke-dasharray: 5.12,1.28,0.8,1.28; stroke-dashoffset: 0; stroke: #b0b0b0; stroke-width: 0.8"/>
     </g>
     <g id="line2d_6">
      <g>
       <use xlink:href="#m705700b522" x="305.251049" y="320.4" style="fill: #a9a9a9; stroke: #a9a9a9; stroke-width: 0.8"/>
      </g>
     </g>
     <g id="text_3">
      <!-- 2022-07 -->
      <g style="fill: #a9a9a9" transform="translate(284.359643 334.998438) scale(0.1 -0.1)">
       <use xlink:href="#DejaVuSans-32"/>
       <use xlink:href="#DejaVuSans-30" transform="translate(63.623047 0)"/>
       <use xlink:href="#DejaVuSans-32" transform="translate(127.246094 0)"/>
       <use xlink:href="#DejaVuSans-32" transform="translate(190.869141 0)"/>
       <use xlink:href="#DejaVuSans-2d" transform="translate(254.492188 0)"/>
       <use xlink:href="#DejaVuSans-30" transform="translate(290.576172 0)"/>
       <use xlink:href="#DejaVuSans-37" transform="translate(354.199219 0)"/>
      </g>
     </g>
    </g>
    <g id="xtick_4">
     <g id="line2d_7">
      <path d="M 394.999301 320.4 
L 394.999301 43.2 
" clip-path="url(#pfcc669e2a5)" style="fill: none; stroke-dasharray: 5.12,1.28,0.8,1.28; stroke-dashoffset: 0; stroke: #b0b0b0; stroke-width: 0.8"/>
     </g>
     <g id="line2d_8">
      <g>
       <use xlink:href="#m705700b522" x="394.999301" y="320.4" style="fill: #a9a9a9; stroke: #a9a9a9; stroke-width: 0.8"/>
      </g>
     </g>
     <g id="text_4">
      <!-- 2023-01 -->
      <g style="fill: #a9a9a9" transform="translate(374.107894 334.998438) scale(0.1 -0.1)">
       <defs>
        <path id="DejaVuSans-33" d="M 2597 2516 
Q 3050 2419 3304 2112 
Q 3559 1806 3559 1356 
Q 3559 666 3084 287 
Q 2609 -91 1734 -91 
Q 1441 -91 1130 -33 
Q 819 25 488 141 
L 488 750 
Q 750 597 1062 519 
Q 1375 441 1716 441 
Q 2309 441 2620 675 
Q 2931 909 2931 1356 
Q 2931 1769 2642 2001 
Q 2353 2234 1838 2234 
L 1294 2234 
L 1294 2753 
L 1863 2753 
Q 2328 2753 2575 2939 
Q 2822 3125 2822 3475 
Q 2822 3834 2567 4026 
Q 2313 4219 1838 4219 
Q 1578 4219 1281 4162 
Q 984 4106 628 3988 
L 628 4550 
Q 988 4650 1302 4700 
Q 1616 4750 1894 4750 
Q 2613 4750 3031 4423 
Q 3450 4097 3450 3541 
Q 3450 3153 3228 2886 
Q 3006 2619 2597 2516 
z
" transform="scale(0.015625)"/>
       </defs>
       <use xlink:href="#DejaVuSans-32"/>
       <use xlink:href="#DejaVuSans-30" transform="translate(63.623047 0)"/>
       <use xlink:href="#DejaVuSans-32" transform="translate(127.246094 0)"/>
       <use xlink:href="#DejaVuSans-33" transform="translate(190.869141 0)"/>
       <use xlink:href="#DejaVuSans-2d" transform="translate(254.492188 0)"/>
       <use xlink:href="#DejaVuSans-30" transform="translate(290.576172 0)"/>
       <use xlink:href="#DejaVuSans-31" transform="translate(354.199219 0)"/>
      </g>
     </g>
    </g>
    <g id="xtick_5">
     <g id="line2d_9">
      <path d="M 483.284266 320.4 
L 483.284266 43.2 
" clip-path="url(#pfcc669e2a5)" style="fill: none; stroke-dasharray: 5.12,1.28,0.8,1.28; stroke-dashoffset: 0; stroke: #b0b0b0; stroke-width: 0.8"/>
     </g>
     <g id="line2d_10">
      <g>
       <use xlink:href="#m705700b522" x="483.284266" y="320.4" style="fill: #a9a9a9; stroke: #a9a9a9; stroke-width: 0.8"/>
      </g>
     </g>
     <g id="text_5">
      <!-- 2023-07 -->
      <g style="fill: #a9a9a9" transform="translate(462.392859 334.998438) scale(0.1 -0.1)">
       <use xlink:href="#DejaVuSans-32"/>
       <use xlink:href="#DejaVuSans-30" transform="translate(63.623047 0)"/>
       <use xlink:href="#DejaVuSans-32" transform="translate(127.246094 0)"/>
       <use xlink:href="#DejaVuSans-33" transform="translate(190.869141 0)"/>
       <use xlink:href="#DejaVuSans-2d" transform="translate(254.492188 0)"/>
       <use xlink:href="#DejaVuSans-30" transform="translate(290.576172 0)"/>
       <use xlink:href="#DejaVuSans-37" transform="translate(354.199219 0)"/>
      </g>
     </g>
    </g>
    <g id="xtick_6">
     <g id="line2d_11">
      <path d="M 573.032517 320.4 
L 573.032517 43.2 
" clip-path="url(#pfcc669e2a5)" style="fill: none; stroke-dasharray: 5.12,1.28,0.8,1.28; stroke-dashoffset: 0; stroke: #b0b0b0; stroke-width: 0.8"/>
     </g>
     <g id="line2d_12">
      <g>
       <use xlink:href="#m705700b522" x="573.032517" y="320.4" style="fill: #a9a9a9; stroke: #a9a9a9; stroke-width: 0.8"/>
      </g>
     </g>
     <g id="text_6">
      <!-- 2024-01 -->
      <g style="fill: #a9a9a9" transform="translate(552.141111 334.998438) scale(0.1 -0.1)">
       <defs>
        <path id="DejaVuSans-34" d="M 2419 4116 
L 825 1625 
L 2419 1625 
L 2419 4116 
z
M 2253 4666 
L 3047 4666 
L 3047 1625 
L 3713 1625 
L 3713 1100 
L 3047 1100 
L 3047 0 
L 2419 0 
L 2419 1100 
L 313 1100 
L 313 1709 
L 2253 4666 
z
" transform="scale(0.015625)"/>
       </defs>
       <use xlink:href="#DejaVuSans-32"/>
       <use xlink:href="#DejaVuSans-30" transform="translate(63.623047 0)"/>
       <use xlink:href="#DejaVuSans-32" transform="translate(127.246094 0)"/>
       <use xlink:href="#DejaVuSans-34" transform="translate(190.869141 0)"/>
       <use xlink:href="#DejaVuSans-2d" transform="translate(254.492188 0)"/>
       <use xlink:href="#DejaVuSans-30" transform="translate(290.576172 0)"/>
       <use xlink:href="#DejaVuSans-31" transform="translate(354.199219 0)"/>
      </g>
     </g>
    </g>
    <g id="xtick_7">
     <g id="line2d_13">
      <path d="M 661.805245 320.4 
L 661.805245 43.2 
" clip-path="url(#pfcc669e2a5)" style="fill: none; stroke-dasharray: 5.12,1.28,0.8,1.28; stroke-dashoffset: 0; stroke: #b0b0b0; stroke-width: 0.8"/>
     </g>
     <g id="line2d_14">
      <g>
       <use xlink:href="#m705700b522" x="661.805245" y="320.4" style="fill: #a9a9a9; stroke: #a9a9a9; stroke-width: 0.8"/>
      </g>
     </g>
     <g id="text_7">
      <!-- 2024-07 -->
      <g style="fill: #a9a9a9" transform="translate(640.913839 334.998438) scale(0.1 -0.1)">
       <use xlink:href="#DejaVuSans-32"/>
       <use xlink:href="#DejaVuSans-30" transform="translate(63.623047 0)"/>
       <use xlink:href="#DejaVuSans-32" transform="translate(127.246094 0)"/>
       <use xlink:href="#DejaVuSans-34" transform="translate(190.869141 0)"/>
       <use xlink:href="#DejaVuSans-2d" transform="translate(254.492188 0)"/>
       <use xlink:href="#DejaVuSans-30" transform="translate(290.576172 0)"/>
       <use xlink:href="#DejaVuSans-37" transform="translate(354.199219 0)"/>
      </g>
     </g>
    </g>
    <g id="xtick_8">
     <g id="line2d_15">
      <path d="M 751.553497 320.4 
L 751.553497 43.2 
" clip-path="url(#pfcc669e2a5)" style="fill: none; stroke-dasharray: 5.12,1.28,0.8,1.28; stroke-dashoffset: 0; stroke: #b0b0b0; stroke-width: 0.8"/>
     </g>
     <g id="line2d_16">
      <g>
       <use xlink:href="#m705700b522" x="751.553497" y="320.4" style="fill: #a9a9a9; stroke: #a9a9a9; stroke-width: 0.8"/>
      </g>
     </g>
     <g id="text_8">
      <!-- 2025-01 -->
      <g style="fill: #a9a9a9" transform="translate(730.66209 334.998438) scale(0.1 -0.1)">
       <defs>
        <path id="DejaVuSans-35" d="M 691 4666 
L 3169 4666 
L 3169 4134 
L 1269 4134 
L 1269 2991 
Q 1406 3038 1543 3061 
Q 1681 3084 1819 3084 
Q 2600 3084 3056 2656 
Q 3513 2228 3513 1497 
Q 3513 744 3044 326 
Q 2575 -91 1722 -91 
Q 1428 -91 1123 -41 
Q 819 9 494 109 
L 494 744 
Q 775 591 1075 516 
Q 1375 441 1709 441 
Q 2250 441 2565 725 
Q 2881 1009 2881 1497 
Q 2881 1984 2565 2268 
Q 2250 2553 1709 2553 
Q 1456 2553 1204 2497 
Q 953 2441 691 2322 
L 691 4666 
z
" transform="scale(0.015625)"/>
       </defs>
       <use xlink:href="#DejaVuSans-32"/>
       <use xlink:href="#DejaVuSans-30" transform="translate(63.623047 0)"/>
       <use xlink:href="#DejaVuSans-32" transform="translate(127.246094 0)"/>
       <use xlink:href="#DejaVuSans-35" transform="translate(190.869141 0)"/>
       <use xlink:href="#DejaVuSans-2d" transform="translate(254.492188 0)"/>
       <use xlink:href="#DejaVuSans-30" transform="translate(290.576172 0)"/>
       <use xlink:href="#DejaVuSans-31" transform="translate(354.199219 0)"/>
      </g>
     </g>
    </g>
   </g>
   <g id="matplotlib.axis_2">
    <g id="ytick_1">
     <g id="line2d_17">
      <path d="M 108 307.835403 
L 777.6 307.835403 
" clip-path="url(#pfcc669e2a5)" style="fill: none; stroke-dasharray: 5.12,1.28,0.8,1.28; stroke-dashoffset: 0; stroke: #b0b0b0; stroke-width: 0.8"/>
     </g>
     <g id="line2d_18">
      <defs>
       <path id="me07e4e5e3f" d="M 0 0 
L -3.5 0 
" style="stroke: #a9a9a9; stroke-width: 0.8"/>
      </defs>
      <g>
       <use xlink:href="#me07e4e5e3f" x="108" y="307.835403" style="fill: #a9a9a9; stroke: #a9a9a9; stroke-width: 0.8"/>
      </g>
     </g>
     <g id="text_9">
      <!-- 0 -->
      <g style="fill: #a9a9a9" transform="translate(94.6375 311.634622) scale(0.1 -0.1)">
       <use xlink:href="#DejaVuSans-30"/>
      </g>
     </g>
    </g>
    <g id="ytick_2">
     <g id="line2d_19">
      <path d="M 108 279.512841 
L 777.6 279.512841 
" clip-path="url(#pfcc669e2a5)" style="fill: none; stroke-dasharray: 5.12,1.28,0.8,1.28; stroke-dashoffset: 0; stroke: #b0b0b0; stroke-width: 0.8"/>
     </g>
     <g id="line2d_20">
      <g>
       <use xlink:href="#me07e4e5e3f" x="108" y="279.512841" style="fill: #a9a9a9; stroke: #a9a9a9; stroke-width: 0.8"/>
      </g>
     </g>
     <g id="text_10">
      <!-- 800 -->
      <g style="fill: #a9a9a9" transform="translate(81.9125 283.312059) scale(0.1 -0.1)">
       <defs>
        <path id="DejaVuSans-38" d="M 2034 2216 
Q 1584 2216 1326 1975 
Q 1069 1734 1069 1313 
Q 1069 891 1326 650 
Q 1584 409 2034 409 
Q 2484 409 2743 651 
Q 3003 894 3003 1313 
Q 3003 1734 2745 1975 
Q 2488 2216 2034 2216 
z
M 1403 2484 
Q 997 2584 770 2862 
Q 544 3141 544 3541 
Q 544 4100 942 4425 
Q 1341 4750 2034 4750 
Q 2731 4750 3128 4425 
Q 3525 4100 3525 3541 
Q 3525 3141 3298 2862 
Q 3072 2584 2669 2484 
Q 3125 2378 3379 2068 
Q 3634 1759 3634 1313 
Q 3634 634 3220 271 
Q 2806 -91 2034 -91 
Q 1263 -91 848 271 
Q 434 634 434 1313 
Q 434 1759 690 2068 
Q 947 2378 1403 2484 
z
M 1172 3481 
Q 1172 3119 1398 2916 
Q 1625 2713 2034 2713 
Q 2441 2713 2670 2916 
Q 2900 3119 2900 3481 
Q 2900 3844 2670 4047 
Q 2441 4250 2034 4250 
Q 1625 4250 1398 4047 
Q 1172 3844 1172 3481 
z
" transform="scale(0.015625)"/>
       </defs>
       <use xlink:href="#DejaVuSans-38"/>
       <use xlink:href="#DejaVuSans-30" transform="translate(63.623047 0)"/>
       <use xlink:href="#DejaVuSans-30" transform="translate(127.246094 0)"/>
      </g>
     </g>
    </g>
    <g id="ytick_3">
     <g id="line2d_21">
      <path d="M 108 251.190278 
L 777.6 251.190278 
" clip-path="url(#pfcc669e2a5)" style="fill: none; stroke-dasharray: 5.12,1.28,0.8,1.28; stroke-dashoffset: 0; stroke: #b0b0b0; stroke-width: 0.8"/>
     </g>
     <g id="line2d_22">
      <g>
       <use xlink:href="#me07e4e5e3f" x="108" y="251.190278" style="fill: #a9a9a9; stroke: #a9a9a9; stroke-width: 0.8"/>
      </g>
     </g>
     <g id="text_11">
      <!-- 1600 -->
      <g style="fill: #a9a9a9" transform="translate(75.55 254.989497) scale(0.1 -0.1)">
       <defs>
        <path id="DejaVuSans-36" d="M 2113 2584 
Q 1688 2584 1439 2293 
Q 1191 2003 1191 1497 
Q 1191 994 1439 701 
Q 1688 409 2113 409 
Q 2538 409 2786 701 
Q 3034 994 3034 1497 
Q 3034 2003 2786 2293 
Q 2538 2584 2113 2584 
z
M 3366 4563 
L 3366 3988 
Q 3128 4100 2886 4159 
Q 2644 4219 2406 4219 
Q 1781 4219 1451 3797 
Q 1122 3375 1075 2522 
Q 1259 2794 1537 2939 
Q 1816 3084 2150 3084 
Q 2853 3084 3261 2657 
Q 3669 2231 3669 1497 
Q 3669 778 3244 343 
Q 2819 -91 2113 -91 
Q 1303 -91 875 529 
Q 447 1150 447 2328 
Q 447 3434 972 4092 
Q 1497 4750 2381 4750 
Q 2619 4750 2861 4703 
Q 3103 4656 3366 4563 
z
" transform="scale(0.015625)"/>
       </defs>
       <use xlink:href="#DejaVuSans-31"/>
       <use xlink:href="#DejaVuSans-36" transform="translate(63.623047 0)"/>
       <use xlink:href="#DejaVuSans-30" transform="translate(127.246094 0)"/>
       <use xlink:href="#DejaVuSans-30" transform="translate(190.869141 0)"/>
      </g>
     </g>
    </g>
    <g id="ytick_4">
     <g id="line2d_23">
      <path d="M 108 222.867716 
L 777.6 222.867716 
" clip-path="url(#pfcc669e2a5)" style="fill: none; stroke-dasharray: 5.12,1.28,0.8,1.28; stroke-dashoffset: 0; stroke: #b0b0b0; stroke-width: 0.8"/>
     </g>
     <g id="line2d_24">
      <g>
       <use xlink:href="#me07e4e5e3f" x="108" y="222.867716" style="fill: #a9a9a9; stroke: #a9a9a9; stroke-width: 0.8"/>
      </g>
     </g>
     <g id="text_12">
      <!-- 2400 -->
      <g style="fill: #a9a9a9" transform="translate(75.55 226.666934) scale(0.1 -0.1)">
       <use xlink:href="#DejaVuSans-32"/>
       <use xlink:href="#DejaVuSans-34" transform="translate(63.623047 0)"/>
       <use xlink:href="#DejaVuSans-30" transform="translate(127.246094 0)"/>
       <use xlink:href="#DejaVuSans-30" transform="translate(190.869141 0)"/>
      </g>
     </g>
    </g>
    <g id="ytick_5">
     <g id="line2d_25">
      <path d="M 108 194.545153 
L 777.6 194.545153 
" clip-path="url(#pfcc669e2a5)" style="fill: none; stroke-dasharray: 5.12,1.28,0.8,1.28; stroke-dashoffset: 0; stroke: #b0b0b0; stroke-width: 0.8"/>
     </g>
     <g id="line2d_26">
      <g>
       <use xlink:href="#me07e4e5e3f" x="108" y="194.545153" style="fill: #a9a9a9; stroke: #a9a9a9; stroke-width: 0.8"/>
      </g>
     </g>
     <g id="text_13">
      <!-- 3200 -->
      <g style="fill: #a9a9a9" transform="translate(75.55 198.344372) scale(0.1 -0.1)">
       <use xlink:href="#DejaVuSans-33"/>
       <use xlink:href="#DejaVuSans-32" transform="translate(63.623047 0)"/>
       <use xlink:href="#DejaVuSans-30" transform="translate(127.246094 0)"/>
       <use xlink:href="#DejaVuSans-30" transform="translate(190.869141 0)"/>
      </g>
     </g>
    </g>
    <g id="ytick_6">
     <g id="line2d_27">
      <path d="M 108 166.222591 
L 777.6 166.222591 
" clip-path="url(#pfcc669e2a5)" style="fill: none; stroke-dasharray: 5.12,1.28,0.8,1.28; stroke-dashoffset: 0; stroke: #b0b0b0; stroke-width: 0.8"/>
     </g>
     <g id="line2d_28">
      <g>
       <use xlink:href="#me07e4e5e3f" x="108" y="166.222591" style="fill: #a9a9a9; stroke: #a9a9a9; stroke-width: 0.8"/>
      </g>
     </g>
     <g id="text_14">
      <!-- 4000 -->
      <g style="fill: #a9a9a9" transform="translate(75.55 170.021809) scale(0.1 -0.1)">
       <use xlink:href="#DejaVuSans-34"/>
       <use xlink:href="#DejaVuSans-30" transform="translate(63.623047 0)"/>
       <use xlink:href="#DejaVuSans-30" transform="translate(127.246094 0)"/>
       <use xlink:href="#DejaVuSans-30" transform="translate(190.869141 0)"/>
      </g>
     </g>
    </g>
    <g id="ytick_7">
     <g id="line2d_29">
      <path d="M 108 137.900028 
L 777.6 137.900028 
" clip-path="url(#pfcc669e2a5)" style="fill: none; stroke-dasharray: 5.12,1.28,0.8,1.28; stroke-dashoffset: 0; stroke: #b0b0b0; stroke-width: 0.8"/>
     </g>
     <g id="line2d_30">
      <g>
       <use xlink:href="#me07e4e5e3f" x="108" y="137.900028" style="fill: #a9a9a9; stroke: #a9a9a9; stroke-width: 0.8"/>
      </g>
     </g>
     <g id="text_15">
      <!-- 4800 -->
      <g style="fill: #a9a9a9" transform="translate(75.55 141.699247) scale(0.1 -0.1)">
       <use xlink:href="#DejaVuSans-34"/>
       <use xlink:href="#DejaVuSans-38" transform="translate(63.623047 0)"/>
       <use xlink:href="#DejaVuSans-30" transform="translate(127.246094 0)"/>
       <use xlink:href="#DejaVuSans-30" transform="translate(190.869141 0)"/>
      </g>
     </g>
    </g>
    <g id="ytick_8">
     <g id="line2d_31">
      <path d="M 108 109.577466 
L 777.6 109.577466 
" clip-path="url(#pfcc669e2a5)" style="fill: none; stroke-dasharray: 5.12,1.28,0.8,1.28; stroke-dashoffset: 0; stroke: #b0b0b0; stroke-width: 0.8"/>
     </g>
     <g id="line2d_32">
      <g>
       <use xlink:href="#me07e4e5e3f" x="108" y="109.577466" style="fill: #a9a9a9; stroke: #a9a9a9; stroke-width: 0.8"/>
      </g>
     </g>
     <g id="text_16">
      <!-- 5600 -->
      <g style="fill: #a9a9a9" transform="translate(75.55 113.376684) scale(0.1 -0.1)">
       <use xlink:href="#DejaVuSans-35"/>
       <use xlink:href="#DejaVuSans-36" transform="translate(63.623047 0)"/>
       <use xlink:href="#DejaVuSans-30" transform="translate(127.246094 0)"/>
       <use xlink:href="#DejaVuSans-30" transform="translate(190.869141 0)"/>
      </g>
     </g>
    </g>
    <g id="ytick_9">
     <g id="line2d_33">
      <path d="M 108 81.254903 
L 777.6 81.254903 
" clip-path="url(#pfcc669e2a5)" style="fill: none; stroke-dasharray: 5.12,1.28,0.8,1.28; stroke-dashoffset: 0; stroke: #b0b0b0; stroke-width: 0.8"/>
     </g>
     <g id="line2d_34">
      <g>
       <use xlink:href="#me07e4e5e3f" x="108" y="81.254903" style="fill: #a9a9a9; stroke: #a9a9a9; stroke-width: 0.8"/>
      </g>
     </g>
     <g id="text_17">
      <!-- 6400 -->
      <g style="fill: #a9a9a9" transform="translate(75.55 85.054122) scale(0.1 -0.1)">
       <use xlink:href="#DejaVuSans-36"/>
       <use xlink:href="#DejaVuSans-34" transform="translate(63.623047 0)"/>
       <use xlink:href="#DejaVuSans-30" transform="translate(127.246094 0)"/>
       <use xlink:href="#DejaVuSans-30" transform="translate(190.869141 0)"/>
      </g>
     </g>
    </g>
    <g id="ytick_10">
     <g id="line2d_35">
      <path d="M 108 52.932341 
L 777.6 52.932341 
" clip-path="url(#pfcc669e2a5)" style="fill: none; stroke-dasharray: 5.12,1.28,0.8,1.28; stroke-dashoffset: 0; stroke: #b0b0b0; stroke-width: 0.8"/>
     </g>
     <g id="line2d_36">
      <g>
       <use xlink:href="#me07e4e5e3f" x="108" y="52.932341" style="fill: #a9a9a9; stroke: #a9a9a9; stroke-width: 0.8"/>
      </g>
     </g>
     <g id="text_18">
      <!-- 7200 -->
      <g style="fill: #a9a9a9" transform="translate(75.55 56.731559) scale(0.1 -0.1)">
       <use xlink:href="#DejaVuSans-37"/>
       <use xlink:href="#DejaVuSans-32" transform="translate(63.623047 0)"/>
       <use xlink:href="#DejaVuSans-30" transform="translate(127.246094 0)"/>
       <use xlink:href="#DejaVuSans-30" transform="translate(190.869141 0)"/>
      </g>
     </g>
    </g>
   </g>
   <g id="line2d_37">
    <path d="M 138.436364 307.729194 
L 141.362937 307.481371 
L 141.850699 307.268952 
L 143.801748 307.02113 
L 145.752797 306.631694 
L 146.728322 306.490081 
L 149.167133 306.277662 
L 150.142657 305.888227 
L 150.63042 305.250969 
L 151.118182 304.896937 
L 151.605944 303.799438 
L 152.093706 303.728632 
L 152.581469 303.339196 
L 153.556993 302.843552 
L 155.508042 301.285811 
L 157.459091 300.329924 
L 158.922378 299.657263 
L 159.41014 298.878393 
L 160.385664 298.170329 
L 160.873427 297.95791 
L 165.751049 297.249845 
L 166.238811 297.037426 
L 169.653147 296.754201 
L 171.604196 296.293959 
L 175.506294 295.762911 
L 175.994056 295.515089 
L 176.481818 295.444282 
L 177.457343 295.125653 
L 180.871678 294.559202 
L 181.847203 294.275976 
L 186.237063 293.532509 
L 187.212587 293.32009 
L 188.188112 293.284687 
L 190.139161 292.824445 
L 190.626923 292.151784 
L 192.09021 291.585333 
L 193.553497 291.195898 
L 194.041259 290.948075 
L 195.016783 290.771059 
L 196.967832 290.204608 
L 197.943357 290.133802 
L 198.918881 289.885979 
L 200.86993 289.390334 
L 201.357692 289.354931 
L 202.333217 288.89469 
L 202.820979 288.823883 
L 203.308741 288.576061 
L 208.674126 287.690981 
L 210.625175 287.124529 
L 211.112937 286.805901 
L 213.551748 285.991627 
L 214.527273 285.318966 
L 215.990559 285.03574 
L 228.672378 281.460017 
L 229.16014 281.460017 
L 229.647902 281.247598 
L 230.623427 281.141388 
L 231.111189 280.964372 
L 233.062238 280.858162 
L 234.037762 280.681146 
L 235.013287 280.185502 
L 236.476573 279.654453 
L 236.964336 279.335825 
L 237.93986 278.910986 
L 238.427622 278.663164 
L 239.403147 278.344535 
L 239.890909 278.202922 
L 240.866434 277.601068 
L 241.354196 277.07002 
L 242.32972 275.583085 
L 242.817483 275.441472 
L 243.305245 275.441472 
L 244.768531 274.591795 
L 245.256294 274.343973 
L 245.744056 274.237763 
L 246.231818 273.777522 
L 247.207343 273.388087 
L 248.182867 272.927845 
L 248.670629 272.32599 
L 249.158392 271.54712 
L 249.646154 271.228491 
L 250.133916 270.378814 
L 250.621678 269.847766 
L 253.548252 268.290025 
L 254.523776 267.511155 
L 255.011538 267.192526 
L 255.499301 266.449059 
L 255.987063 265.351559 
L 256.474825 264.608092 
L 256.962587 264.218657 
L 257.45035 264.006238 
L 260.864685 261.103175 
L 261.84021 259.934869 
L 263.303497 258.908176 
L 265.254545 257.739871 
L 266.23007 257.208823 
L 268.181119 256.18213 
L 270.61993 253.987131 
L 271.595455 253.597696 
L 272.570979 252.925035 
L 273.058741 252.641809 
L 273.546503 252.571003 
L 275.00979 251.756729 
L 275.497552 251.225681 
L 277.936364 249.915763 
L 278.424126 249.738747 
L 279.887413 248.747457 
L 287.203846 246.163023 
L 288.179371 245.277943 
L 289.154895 244.817702 
L 290.13042 244.286654 
L 290.618182 244.003428 
L 291.593706 243.720202 
L 292.081469 243.401573 
L 292.569231 243.259961 
L 294.032517 242.304074 
L 296.471329 241.737623 
L 297.934615 240.887946 
L 299.397902 240.569317 
L 299.885664 240.427704 
L 301.348951 239.330205 
L 303.3 238.799157 
L 303.787762 238.409722 
L 306.714336 237.418432 
L 307.68986 237.241416 
L 308.665385 236.851981 
L 312.07972 235.612869 
L 313.055245 235.471256 
L 314.518531 234.975611 
L 316.957343 233.807305 
L 318.908392 232.745209 
L 322.81049 231.152065 
L 323.298252 231.081259 
L 324.273776 230.479404 
L 324.761538 230.408598 
L 326.712587 229.594324 
L 328.663636 229.346502 
L 329.639161 228.850857 
L 330.126923 228.426019 
L 330.614685 227.540938 
L 332.565734 227.00989 
L 334.029021 226.266423 
L 334.516783 226.160214 
L 338.418881 224.283844 
L 339.882168 224.000618 
L 340.857692 223.504973 
L 341.345455 223.292554 
L 341.833217 223.221748 
L 343.784266 222.336668 
L 345.247552 221.416184 
L 346.710839 221.132959 
L 349.14965 220.531104 
L 349.637413 220.141669 
L 351.100699 219.610621 
L 353.051748 218.83175 
L 353.53951 218.477718 
L 354.027273 218.300702 
L 355.002797 217.769654 
L 357.441608 216.955381 
L 358.904895 215.787075 
L 359.392657 215.680865 
L 360.368182 214.901995 
L 360.855944 214.831189 
L 361.343706 214.052318 
L 361.831469 213.839899 
L 362.319231 213.450464 
L 362.806993 213.379657 
L 363.782517 212.777803 
L 364.758042 212.459174 
L 365.245804 212.105142 
L 365.733566 211.928126 
L 367.196853 210.901433 
L 369.147902 209.87474 
L 369.635664 209.803934 
L 371.098951 209.060466 
L 371.586713 208.246193 
L 372.562238 207.538129 
L 373.05 207.431919 
L 374.025524 206.830065 
L 374.513287 206.723855 
L 375.488811 206.22821 
L 377.43986 205.272324 
L 377.927622 204.918292 
L 378.903147 203.962405 
L 379.878671 203.360551 
L 380.366434 203.041922 
L 380.854196 202.510874 
L 382.805245 201.165552 
L 383.293007 200.599101 
L 383.780769 200.209666 
L 384.756294 199.855634 
L 385.731818 199.182973 
L 387.195105 198.439505 
L 387.682867 198.368699 
L 389.146154 197.589829 
L 390.121678 196.987974 
L 394.999301 195.217814 
L 395.487063 194.828379 
L 397.438112 194.084911 
L 397.925874 193.943299 
L 398.901399 193.306041 
L 399.876923 192.881203 
L 400.852448 192.208542 
L 401.827972 190.261366 
L 402.803497 189.128463 
L 404.266783 188.384996 
L 405.242308 187.995561 
L 405.73007 187.924754 
L 406.217832 187.641529 
L 408.656643 186.862658 
L 409.144406 186.650239 
L 410.11993 185.977578 
L 411.583217 185.34032 
L 412.558741 184.809272 
L 413.046503 184.45524 
L 413.534266 184.242821 
L 414.022028 183.888789 
L 414.50979 183.357741 
L 415.485315 182.826693 
L 417.924126 181.516774 
L 420.850699 180.065243 
L 422.313986 179.640405 
L 423.777273 179.073953 
L 424.265035 178.719921 
L 425.240559 178.436696 
L 426.216084 178.04726 
L 426.703846 177.657825 
L 428.654895 176.985164 
L 429.63042 176.2771 
L 430.605944 175.852262 
L 431.581469 175.073391 
L 432.556993 174.719359 
L 433.044755 174.294521 
L 433.532517 174.223715 
L 434.508042 173.480247 
L 435.483566 172.984602 
L 435.971329 172.772183 
L 436.459091 172.276538 
L 439.873427 170.931217 
L 440.848951 170.506378 
L 442.312238 170.046137 
L 443.287762 169.904524 
L 443.775524 169.692105 
L 444.263287 169.621298 
L 445.238811 169.19646 
L 445.726573 169.161056 
L 447.677622 168.417589 
L 449.140909 167.390896 
L 449.628671 167.21388 
L 450.604196 166.682832 
L 451.091958 166.541219 
L 454.018531 164.912672 
L 454.506294 164.806462 
L 455.96958 163.956786 
L 457.432867 163.461141 
L 458.408392 163.142512 
L 460.359441 162.505254 
L 461.334965 162.186625 
L 463.286014 161.79719 
L 463.773776 161.584771 
L 464.261538 161.513965 
L 465.237063 161.089126 
L 465.724825 161.01832 
L 466.212587 160.770497 
L 467.188112 160.593481 
L 468.651399 160.062433 
L 469.626923 159.956224 
L 471.09021 159.637595 
L 473.529021 159.212756 
L 486.210839 155.530823 
L 486.698601 155.035178 
L 487.674126 154.645743 
L 491.576224 153.194212 
L 492.063986 152.910986 
L 493.527273 152.486148 
L 494.502797 152.238325 
L 494.990559 151.919697 
L 495.478322 151.813487 
L 495.966084 151.388648 
L 497.429371 151.105423 
L 498.404895 150.645181 
L 498.892657 150.07873 
L 500.843706 149.618488 
L 504.258042 148.910424 
L 504.745804 148.910424 
L 505.233566 148.698005 
L 507.184615 148.343973 
L 507.672378 148.131554 
L 509.623427 147.777522 
L 510.598951 147.352683 
L 511.574476 147.175667 
L 514.013287 146.573813 
L 515.964336 145.971958 
L 516.452098 145.865749 
L 516.93986 145.617926 
L 517.915385 145.370104 
L 518.403147 145.086878 
L 519.866434 144.591233 
L 520.354196 144.272605 
L 521.32972 143.989379 
L 525.231818 142.644057 
L 526.207343 142.573251 
L 528.158392 142.0068 
L 528.646154 141.723574 
L 529.621678 141.440348 
L 532.06049 140.342849 
L 532.548252 140.307446 
L 537.913636 138.431076 
L 540.352448 137.793818 
L 541.327972 137.333577 
L 542.791259 137.014948 
L 544.742308 135.421804 
L 545.717832 135.138578 
L 546.205594 134.749143 
L 549.132168 133.651644 
L 549.61993 133.333015 
L 550.595455 133.049789 
L 551.083217 132.73116 
L 553.522028 131.95229 
L 554.985315 131.102613 
L 555.473077 130.996403 
L 557.911888 129.686485 
L 559.375175 129.049227 
L 559.862937 128.695195 
L 560.838462 128.376566 
L 561.813986 127.810115 
L 562.301748 127.633099 
L 562.78951 127.279067 
L 569.13042 125.048665 
L 569.618182 124.942456 
L 570.105944 124.623827 
L 572.056993 124.234392 
L 573.032517 123.844956 
L 575.959091 122.428828 
L 576.446853 122.358022 
L 577.91014 121.543748 
L 579.373427 121.048103 
L 582.787762 119.667378 
L 583.275524 119.525766 
L 583.763287 119.207137 
L 584.738811 119.100927 
L 585.226573 118.782298 
L 586.202098 118.605282 
L 587.177622 118.145041 
L 587.665385 117.932622 
L 588.153147 117.861815 
L 590.591958 116.905929 
L 592.055245 116.516493 
L 593.030769 116.268671 
L 594.494056 115.843833 
L 595.46958 115.454397 
L 597.420629 114.392301 
L 598.396154 114.002866 
L 598.883916 113.684237 
L 599.859441 113.471818 
L 600.347203 113.188592 
L 600.834965 113.082383 
L 602.298252 112.268109 
L 603.273776 111.878674 
L 605.224825 111.135207 
L 607.663636 110.320933 
L 608.639161 109.825288 
L 611.077972 109.011014 
L 614.004545 107.842709 
L 615.955594 106.957629 
L 620.833217 105.081259 
L 621.320979 104.76263 
L 623.272028 104.089969 
L 623.75979 104.089969 
L 624.735315 103.665131 
L 626.686364 102.10739 
L 627.174126 101.965777 
L 627.661888 101.647148 
L 628.14965 101.540938 
L 628.637413 101.293116 
L 629.125175 101.22231 
L 629.612937 100.868278 
L 630.100699 100.762068 
L 631.076224 100.160214 
L 632.53951 99.416746 
L 633.515035 99.027311 
L 634.002797 98.779489 
L 635.466084 98.46086 
L 637.904895 97.646586 
L 638.88042 97.327957 
L 640.343706 96.58449 
L 641.319231 96.124248 
L 642.294755 95.876426 
L 643.758042 95.203765 
L 648.147902 93.610621 
L 649.611189 92.725541 
L 650.098951 92.619331 
L 651.074476 92.123686 
L 652.05 91.769654 
L 652.537762 91.344816 
L 653.513287 90.955381 
L 656.43986 89.787075 
L 657.903147 89.362237 
L 658.390909 89.114414 
L 658.878671 89.043608 
L 660.341958 88.51256 
L 661.805245 87.981512 
L 662.780769 87.592076 
L 663.268531 87.202641 
L 664.731818 86.813206 
L 665.21958 86.52998 
L 666.195105 86.282158 
L 667.658392 85.467884 
L 668.146154 85.432481 
L 669.609441 84.972239 
L 670.584965 84.901433 
L 671.56049 84.511998 
L 674.487063 83.662321 
L 675.462587 83.626918 
L 679.364685 82.387806 
L 680.34021 81.856758 
L 680.827972 81.431919 
L 682.291259 80.582242 
L 683.266783 79.980388 
L 686.193357 79.059904 
L 686.681119 78.670469 
L 689.607692 77.46676 
L 691.558741 76.935712 
L 692.534266 76.510874 
L 693.022028 76.263051 
L 693.997552 75.979826 
L 694.485315 75.6966 
L 695.460839 75.519584 
L 697.89965 74.386682 
L 698.387413 74.103456 
L 699.850699 73.749424 
L 700.338462 73.430795 
L 700.826224 73.253779 
L 701.313986 72.828941 
L 701.801748 72.758134 
L 703.752797 71.979264 
L 705.703846 71.519022 
L 706.191608 71.448216 
L 706.679371 71.235797 
L 707.167133 71.200393 
L 708.142657 70.881765 
L 708.63042 70.846361 
L 710.093706 70.27991 
L 712.044755 69.713459 
L 713.02028 68.969992 
L 714.971329 67.907895 
L 716.434615 67.412251 
L 719.361189 66.102332 
L 720.336713 65.571284 
L 720.824476 65.323462 
L 721.312238 64.86322 
L 724.238811 63.907334 
L 725.214336 63.517898 
L 726.18986 63.234673 
L 726.677622 62.98685 
L 727.165385 62.526609 
L 729.116434 62.030964 
L 729.604196 61.676932 
L 735.945105 59.375724 
L 736.920629 59.198708 
L 741.31049 57.67637 
L 742.286014 57.428547 
L 742.773776 57.216128 
L 743.261538 57.180725 
L 744.237063 56.79129 
L 745.212587 56.189435 
L 745.70035 56.012419 
L 746.188112 55.977016 
L 746.675874 55.8 
L 747.163636 55.8 
L 747.163636 55.8 
" clip-path="url(#pfcc669e2a5)" style="fill: none; stroke: #1f77b4; stroke-width: 1.5; stroke-linecap: square"/>
   </g>
   <g id="line2d_38">
    <path d="M 138.924126 307.8 
L 143.313986 307.69379 
L 147.216084 307.516774 
L 149.167133 307.516774 
L 149.654895 307.375162 
L 152.093706 307.268952 
L 155.02028 306.950323 
L 157.946853 306.844114 
L 158.922378 306.737904 
L 162.336713 306.596291 
L 165.751049 306.490081 
L 168.18986 306.419275 
L 174.530769 306.313065 
L 176.96958 306.242259 
L 180.383916 306.136049 
L 182.822727 306.065243 
L 188.188112 305.959033 
L 190.139161 305.782017 
L 192.09021 305.746614 
L 195.016783 305.640405 
L 196.967832 305.605001 
L 199.406643 305.534195 
L 201.357692 305.357179 
L 205.747552 305.250969 
L 206.723077 305.180163 
L 208.674126 305.073953 
L 211.600699 304.967744 
L 213.551748 304.861534 
L 222.331469 304.330486 
L 225.745804 304.224276 
L 227.209091 304.082664 
L 229.647902 303.976454 
L 234.525524 303.728632 
L 239.403147 303.657825 
L 241.354196 303.445406 
L 243.305245 303.339196 
L 248.670629 302.843552 
L 252.084965 302.454116 
L 253.548252 302.38331 
L 257.938112 301.852262 
L 260.376923 301.781455 
L 261.84021 301.639843 
L 263.303497 301.533633 
L 276.960839 300.50694 
L 277.936364 300.329924 
L 280.862937 300.223715 
L 288.667133 299.763473 
L 292.081469 299.657263 
L 294.032517 299.444844 
L 296.471329 299.338634 
L 299.397902 299.232425 
L 301.836713 299.126215 
L 303.787762 299.090812 
L 306.226573 299.020006 
L 307.202098 298.878393 
L 314.030769 298.772183 
L 315.006294 298.665974 
L 320.859441 298.559764 
L 325.249301 298.347345 
L 328.663636 298.241135 
L 330.614685 298.028716 
L 334.029021 297.922506 
L 335.004545 297.74549 
L 337.443357 297.674684 
L 342.320979 297.603877 
L 344.75979 297.356055 
L 347.686364 297.249845 
L 349.637413 297.072829 
L 354.515035 296.825007 
L 359.392657 296.718797 
L 363.782517 296.506378 
L 365.245804 296.470975 
L 366.221329 296.329362 
L 368.66014 296.223153 
L 369.635664 296.152346 
L 370.611189 296.08154 
L 371.586713 296.010733 
L 375.976573 295.939927 
L 377.43986 295.833717 
L 390.609441 294.98404 
L 393.048252 294.877831 
L 395.487063 294.807024 
L 402.315734 294.700815 
L 403.291259 294.559202 
L 410.11993 294.452992 
L 414.997552 294.20517 
L 415.973077 294.169767 
L 416.948601 294.063557 
L 419.387413 293.957348 
L 421.826224 293.886541 
L 424.265035 293.780332 
L 426.703846 293.709525 
L 431.093706 293.603316 
L 434.02028 293.497106 
L 440.848951 293.390896 
L 446.214336 293.107671 
L 448.165385 293.036864 
L 449.628671 292.930655 
L 456.457343 292.824445 
L 459.383916 292.718235 
L 468.163636 292.612026 
L 470.114685 292.576623 
L 475.967832 292.505816 
L 476.943357 292.43501 
L 483.772028 292.3288 
L 485.723077 292.293397 
L 498.404895 292.187187 
L 499.868182 292.045575 
L 521.817483 291.939365 
L 524.256294 291.868559 
L 536.938112 291.762349 
L 537.913636 291.691543 
L 540.352448 291.620736 
L 541.815734 291.479123 
L 544.742308 291.372914 
L 548.156643 291.231301 
L 552.546503 291.125091 
L 554.985315 291.054285 
L 558.39965 290.948075 
L 562.301748 290.771059 
L 564.740559 290.66485 
L 566.691608 290.629446 
L 571.081469 290.523237 
L 573.032517 290.487834 
L 579.373427 290.381624 
L 581.324476 290.346221 
L 583.763287 290.240011 
L 586.68986 290.133802 
L 590.104196 290.062995 
L 591.07972 289.992189 
L 602.786014 289.885979 
L 609.126923 289.531947 
L 611.565734 289.461141 
L 612.541259 289.354931 
L 613.516783 289.284125 
L 617.418881 289.177915 
L 620.345455 289.071706 
L 625.223077 288.965496 
L 627.661888 288.717674 
L 632.53951 288.611464 
L 633.515035 288.505254 
L 638.392657 288.399045 
L 640.831469 288.328238 
L 646.196853 288.292835 
L 647.172378 288.186625 
L 652.537762 288.080416 
L 653.513287 288.009609 
L 664.244056 287.9034 
L 667.170629 287.79719 
L 674.487063 287.690981 
L 676.438112 287.655577 
L 680.827972 287.584771 
L 681.803497 287.478561 
L 688.144406 287.372352 
L 690.583217 287.301545 
L 699.362937 287.195336 
L 700.826224 287.089126 
L 702.28951 286.982917 
L 703.752797 286.876707 
L 711.069231 286.770497 
L 713.995804 286.664288 
L 727.165385 286.558078 
L 731.555245 286.345659 
L 737.408392 286.239449 
L 738.383916 286.13324 
L 745.70035 286.02703 
L 746.675874 285.956224 
L 747.163636 285.956224 
L 747.163636 285.956224 
" clip-path="url(#pfcc669e2a5)" style="fill: none; stroke: #ff7f0e; stroke-width: 1.5; stroke-linecap: square"/>
   </g>
   <g id="patch_3">
    <path d="M 108 320.4 
L 108 43.2 
" style="fill: none; stroke: #a9a9a9; stroke-width: 0.8; stroke-linejoin: miter; stroke-linecap: square"/>
   </g>
   <g id="patch_4">
    <path d="M 777.6 320.4 
L 777.6 43.2 
" style="fill: none"/>
   </g>
   <g id="patch_5">
    <path d="M 108 320.4 
L 777.6 320.4 
" style="fill: none; stroke: #a9a9a9; stroke-width: 0.8; stroke-linejoin: miter; stroke-linecap: square"/>
   </g>
   <g id="patch_6">
    <path d="M 108 43.2 
L 777.6 43.2 
" style="fill: none"/>
   </g>
   <g id="text_19">
    <!-- get_subscribe history -->
    <g style="fill: #a9a9a9" transform="translate(378.6075 37.2) scale(0.12 -0.12)">
     <defs>
      <path id="DejaVuSans-67" d="M 2906 1791 
Q 2906 2416 2648 2759 
Q 2391 3103 1925 3103 
Q 1463 3103 1205 2759 
Q 947 2416 947 1791 
Q 947 1169 1205 825 
Q 1463 481 1925 481 
Q 2391 481 2648 825 
Q 2906 1169 2906 1791 
z
M 3481 434 
Q 3481 -459 3084 -895 
Q 2688 -1331 1869 -1331 
Q 1566 -1331 1297 -1286 
Q 1028 -1241 775 -1147 
L 775 -588 
Q 1028 -725 1275 -790 
Q 1522 -856 1778 -856 
Q 2344 -856 2625 -561 
Q 2906 -266 2906 331 
L 2906 616 
Q 2728 306 2450 153 
Q 2172 0 1784 0 
Q 1141 0 747 490 
Q 353 981 353 1791 
Q 353 2603 747 3093 
Q 1141 3584 1784 3584 
Q 2172 3584 2450 3431 
Q 2728 3278 2906 2969 
L 2906 3500 
L 3481 3500 
L 3481 434 
z
" transform="scale(0.015625)"/>
      <path id="DejaVuSans-65" d="M 3597 1894 
L 3597 1613 
L 953 1613 
Q 991 1019 1311 708 
Q 1631 397 2203 397 
Q 2534 397 2845 478 
Q 3156 559 3463 722 
L 3463 178 
Q 3153 47 2828 -22 
Q 2503 -91 2169 -91 
Q 1331 -91 842 396 
Q 353 884 353 1716 
Q 353 2575 817 3079 
Q 1281 3584 2069 3584 
Q 2775 3584 3186 3129 
Q 3597 2675 3597 1894 
z
M 3022 2063 
Q 3016 2534 2758 2815 
Q 2500 3097 2075 3097 
Q 1594 3097 1305 2825 
Q 1016 2553 972 2059 
L 3022 2063 
z
" transform="scale(0.015625)"/>
      <path id="DejaVuSans-74" d="M 1172 4494 
L 1172 3500 
L 2356 3500 
L 2356 3053 
L 1172 3053 
L 1172 1153 
Q 1172 725 1289 603 
Q 1406 481 1766 481 
L 2356 481 
L 2356 0 
L 1766 0 
Q 1100 0 847 248 
Q 594 497 594 1153 
L 594 3053 
L 172 3053 
L 172 3500 
L 594 3500 
L 594 4494 
L 1172 4494 
z
" transform="scale(0.015625)"/>
      <path id="DejaVuSans-5f" d="M 3263 -1063 
L 3263 -1509 
L -63 -1509 
L -63 -1063 
L 3263 -1063 
z
" transform="scale(0.015625)"/>
      <path id="DejaVuSans-73" d="M 2834 3397 
L 2834 2853 
Q 2591 2978 2328 3040 
Q 2066 3103 1784 3103 
Q 1356 3103 1142 2972 
Q 928 2841 928 2578 
Q 928 2378 1081 2264 
Q 1234 2150 1697 2047 
L 1894 2003 
Q 2506 1872 2764 1633 
Q 3022 1394 3022 966 
Q 3022 478 2636 193 
Q 2250 -91 1575 -91 
Q 1294 -91 989 -36 
Q 684 19 347 128 
L 347 722 
Q 666 556 975 473 
Q 1284 391 1588 391 
Q 1994 391 2212 530 
Q 2431 669 2431 922 
Q 2431 1156 2273 1281 
Q 2116 1406 1581 1522 
L 1381 1569 
Q 847 1681 609 1914 
Q 372 2147 372 2553 
Q 372 3047 722 3315 
Q 1072 3584 1716 3584 
Q 2034 3584 2315 3537 
Q 2597 3491 2834 3397 
z
" transform="scale(0.015625)"/>
      <path id="DejaVuSans-75" d="M 544 1381 
L 544 3500 
L 1119 3500 
L 1119 1403 
Q 1119 906 1312 657 
Q 1506 409 1894 409 
Q 2359 409 2629 706 
Q 2900 1003 2900 1516 
L 2900 3500 
L 3475 3500 
L 3475 0 
L 2900 0 
L 2900 538 
Q 2691 219 2414 64 
Q 2138 -91 1772 -91 
Q 1169 -91 856 284 
Q 544 659 544 1381 
z
M 1991 3584 
L 1991 3584 
z
" transform="scale(0.015625)"/>
      <path id="DejaVuSans-62" d="M 3116 1747 
Q 3116 2381 2855 2742 
Q 2594 3103 2138 3103 
Q 1681 3103 1420 2742 
Q 1159 2381 1159 1747 
Q 1159 1113 1420 752 
Q 1681 391 2138 391 
Q 2594 391 2855 752 
Q 3116 1113 3116 1747 
z
M 1159 2969 
Q 1341 3281 1617 3432 
Q 1894 3584 2278 3584 
Q 2916 3584 3314 3078 
Q 3713 2572 3713 1747 
Q 3713 922 3314 415 
Q 2916 -91 2278 -91 
Q 1894 -91 1617 61 
Q 1341 213 1159 525 
L 1159 0 
L 581 0 
L 581 4863 
L 1159 4863 
L 1159 2969 
z
" transform="scale(0.015625)"/>
      <path id="DejaVuSans-63" d="M 3122 3366 
L 3122 2828 
Q 2878 2963 2633 3030 
Q 2388 3097 2138 3097 
Q 1578 3097 1268 2742 
Q 959 2388 959 1747 
Q 959 1106 1268 751 
Q 1578 397 2138 397 
Q 2388 397 2633 464 
Q 2878 531 3122 666 
L 3122 134 
Q 2881 22 2623 -34 
Q 2366 -91 2075 -91 
Q 1284 -91 818 406 
Q 353 903 353 1747 
Q 353 2603 823 3093 
Q 1294 3584 2113 3584 
Q 2378 3584 2631 3529 
Q 2884 3475 3122 3366 
z
" transform="scale(0.015625)"/>
      <path id="DejaVuSans-72" d="M 2631 2963 
Q 2534 3019 2420 3045 
Q 2306 3072 2169 3072 
Q 1681 3072 1420 2755 
Q 1159 2438 1159 1844 
L 1159 0 
L 581 0 
L 581 3500 
L 1159 3500 
L 1159 2956 
Q 1341 3275 1631 3429 
Q 1922 3584 2338 3584 
Q 2397 3584 2469 3576 
Q 2541 3569 2628 3553 
L 2631 2963 
z
" transform="scale(0.015625)"/>
      <path id="DejaVuSans-69" d="M 603 3500 
L 1178 3500 
L 1178 0 
L 603 0 
L 603 3500 
z
M 603 4863 
L 1178 4863 
L 1178 4134 
L 603 4134 
L 603 4863 
z
" transform="scale(0.015625)"/>
      <path id="DejaVuSans-20" transform="scale(0.015625)"/>
      <path id="DejaVuSans-68" d="M 3513 2113 
L 3513 0 
L 2938 0 
L 2938 2094 
Q 2938 2591 2744 2837 
Q 2550 3084 2163 3084 
Q 1697 3084 1428 2787 
Q 1159 2491 1159 1978 
L 1159 0 
L 581 0 
L 581 4863 
L 1159 4863 
L 1159 2956 
Q 1366 3272 1645 3428 
Q 1925 3584 2291 3584 
Q 2894 3584 3203 3211 
Q 3513 2838 3513 2113 
z
" transform="scale(0.015625)"/>
      <path id="DejaVuSans-6f" d="M 1959 3097 
Q 1497 3097 1228 2736 
Q 959 2375 959 1747 
Q 959 1119 1226 758 
Q 1494 397 1959 397 
Q 2419 397 2687 759 
Q 2956 1122 2956 1747 
Q 2956 2369 2687 2733 
Q 2419 3097 1959 3097 
z
M 1959 3584 
Q 2709 3584 3137 3096 
Q 3566 2609 3566 1747 
Q 3566 888 3137 398 
Q 2709 -91 1959 -91 
Q 1206 -91 779 398 
Q 353 888 353 1747 
Q 353 2609 779 3096 
Q 1206 3584 1959 3584 
z
" transform="scale(0.015625)"/>
      <path id="DejaVuSans-79" d="M 2059 -325 
Q 1816 -950 1584 -1140 
Q 1353 -1331 966 -1331 
L 506 -1331 
L 506 -850 
L 844 -850 
Q 1081 -850 1212 -737 
Q 1344 -625 1503 -206 
L 1606 56 
L 191 3500 
L 800 3500 
L 1894 763 
L 2988 3500 
L 3597 3500 
L 2059 -325 
z
" transform="scale(0.015625)"/>
     </defs>
     <use xlink:href="#DejaVuSans-67"/>
     <use xlink:href="#DejaVuSans-65" transform="translate(63.476562 0)"/>
     <use xlink:href="#DejaVuSans-74" transform="translate(125 0)"/>
     <use xlink:href="#DejaVuSans-5f" transform="translate(164.208984 0)"/>
     <use xlink:href="#DejaVuSans-73" transform="translate(214.208984 0)"/>
     <use xlink:href="#DejaVuSans-75" transform="translate(266.308594 0)"/>
     <use xlink:href="#DejaVuSans-62" transform="translate(329.6875 0)"/>
     <use xlink:href="#DejaVuSans-73" transform="translate(393.164062 0)"/>
     <use xlink:href="#DejaVuSans-63" transform="translate(445.263672 0)"/>
     <use xlink:href="#DejaVuSans-72" transform="translate(500.244141 0)"/>
     <use xlink:href="#DejaVuSans-69" transform="translate(541.357422 0)"/>
     <use xlink:href="#DejaVuSans-62" transform="translate(569.140625 0)"/>
     <use xlink:href="#DejaVuSans-65" transform="translate(632.617188 0)"/>
     <use xlink:href="#DejaVuSans-20" transform="translate(694.140625 0)"/>
     <use xlink:href="#DejaVuSans-68" transform="translate(725.927734 0)"/>
     <use xlink:href="#DejaVuSans-69" transform="translate(789.306641 0)"/>
     <use xlink:href="#DejaVuSans-73" transform="translate(817.089844 0)"/>
     <use xlink:href="#DejaVuSans-74" transform="translate(869.189453 0)"/>
     <use xlink:href="#DejaVuSans-6f" transform="translate(908.398438 0)"/>
     <use xlink:href="#DejaVuSans-72" transform="translate(969.580078 0)"/>
     <use xlink:href="#DejaVuSans-79" transform="translate(1010.693359 0)"/>
    </g>
   </g>
   <g id="legend_1">
    <g id="line2d_39">
     <path d="M 815.08 328.498438 
L 825.08 328.498438 
L 835.08 328.498438 
" style="fill: none; stroke: #1f77b4; stroke-width: 1.5; stroke-linecap: square"/>
    </g>
    <g id="text_20">
     <!-- star -->
     <g style="fill: #a9a9a9" transform="translate(843.08 331.998438) scale(0.1 -0.1)">
      <defs>
       <path id="DejaVuSans-61" d="M 2194 1759 
Q 1497 1759 1228 1600 
Q 959 1441 959 1056 
Q 959 750 1161 570 
Q 1363 391 1709 391 
Q 2188 391 2477 730 
Q 2766 1069 2766 1631 
L 2766 1759 
L 2194 1759 
z
M 3341 1997 
L 3341 0 
L 2766 0 
L 2766 531 
Q 2569 213 2275 61 
Q 1981 -91 1556 -91 
Q 1019 -91 701 211 
Q 384 513 384 1019 
Q 384 1609 779 1909 
Q 1175 2209 1959 2209 
L 2766 2209 
L 2766 2266 
Q 2766 2663 2505 2880 
Q 2244 3097 1772 3097 
Q 1472 3097 1187 3025 
Q 903 2953 641 2809 
L 641 3341 
Q 956 3463 1253 3523 
Q 1550 3584 1831 3584 
Q 2591 3584 2966 3190 
Q 3341 2797 3341 1997 
z
" transform="scale(0.015625)"/>
      </defs>
      <use xlink:href="#DejaVuSans-73"/>
      <use xlink:href="#DejaVuSans-74" transform="translate(52.099609 0)"/>
      <use xlink:href="#DejaVuSans-61" transform="translate(91.308594 0)"/>
      <use xlink:href="#DejaVuSans-72" transform="translate(152.587891 0)"/>
     </g>
    </g>
    <g id="line2d_40">
     <path d="M 815.08 343.176562 
L 825.08 343.176562 
L 835.08 343.176562 
" style="fill: none; stroke: #ff7f0e; stroke-width: 1.5; stroke-linecap: square"/>
    </g>
    <g id="text_21">
     <!-- fork -->
     <g style="fill: #a9a9a9" transform="translate(843.08 346.676562) scale(0.1 -0.1)">
      <defs>
       <path id="DejaVuSans-66" d="M 2375 4863 
L 2375 4384 
L 1825 4384 
Q 1516 4384 1395 4259 
Q 1275 4134 1275 3809 
L 1275 3500 
L 2222 3500 
L 2222 3053 
L 1275 3053 
L 1275 0 
L 697 0 
L 697 3053 
L 147 3053 
L 147 3500 
L 697 3500 
L 697 3744 
Q 697 4328 969 4595 
Q 1241 4863 1831 4863 
L 2375 4863 
z
" transform="scale(0.015625)"/>
       <path id="DejaVuSans-6b" d="M 581 4863 
L 1159 4863 
L 1159 1991 
L 2875 3500 
L 3609 3500 
L 1753 1863 
L 3688 0 
L 2938 0 
L 1159 1709 
L 1159 0 
L 581 0 
L 581 4863 
z
" transform="scale(0.015625)"/>
      </defs>
      <use xlink:href="#DejaVuSans-66"/>
      <use xlink:href="#DejaVuSans-6f" transform="translate(35.205078 0)"/>
      <use xlink:href="#DejaVuSans-72" transform="translate(96.386719 0)"/>
      <use xlink:href="#DejaVuSans-6b" transform="translate(137.5 0)"/>
     </g>
    </g>
   </g>
  </g>
 </g>
 <defs>
  <clipPath id="pfcc669e2a5">
   <rect x="108" y="43.2" width="669.6" height="277.2"/>
  </clipPath>
 </defs>
</svg>
