<?xml version="1.0" encoding="utf-8" standalone="no"?>
<!DOCTYPE svg PUBLIC "-//W3C//DTD SVG 1.1//EN"
  "http://www.w3.org/Graphics/SVG/1.1/DTD/svg11.dtd">
<svg xmlns:xlink="http://www.w3.org/1999/xlink" width="864pt" height="360pt" viewBox="0 0 864 360" xmlns="http://www.w3.org/2000/svg" version="1.1">
 <metadata>
  <rdf:RDF xmlns:dc="http://purl.org/dc/elements/1.1/" xmlns:cc="http://creativecommons.org/ns#" xmlns:rdf="http://www.w3.org/1999/02/22-rdf-syntax-ns#">
   <cc:Work>
    <dc:type rdf:resource="http://purl.org/dc/dcmitype/StillImage"/>
    <dc:date>2024-12-27T08:13:31.518194</dc:date>
    <dc:format>image/svg+xml</dc:format>
    <dc:creator>
     <cc:Agent>
      <dc:title>Matplotlib v3.10.0, https://matplotlib.org/</dc:title>
     </cc:Agent>
    </dc:creator>
   </cc:Work>
  </rdf:RDF>
 </metadata>
 <defs>
  <style type="text/css">*{stroke-linejoin: round; stroke-linecap: butt}</style>
 </defs>
 <g id="figure_1">
  <g id="patch_1">
   <path d="M 0 360 
L 864 360 
L 864 0 
L 0 0 
L 0 360 
z
" style="fill: none; opacity: 0"/>
  </g>
  <g id="axes_1">
   <g id="patch_2">
    <path d="M 108 320.4 
L 777.6 320.4 
L 777.6 43.2 
L 108 43.2 
L 108 320.4 
z
" style="fill: none; opacity: 0"/>
   </g>
   <g id="matplotlib.axis_1">
    <g id="xtick_1">
     <g id="line2d_1">
      <path d="M 127.253674 320.4 
L 127.253674 43.2 
" clip-path="url(#p92e942b07f)" style="fill: none; stroke-dasharray: 5.12,1.28,0.8,1.28; stroke-dashoffset: 0; stroke: #b0b0b0; stroke-width: 0.8"/>
     </g>
     <g id="line2d_2">
      <defs>
       <path id="m9dd8684bf0" d="M 0 0 
L 0 3.5 
" style="stroke: #a9a9a9; stroke-width: 0.8"/>
      </defs>
      <g>
       <use xlink:href="#m9dd8684bf0" x="127.253674" y="320.4" style="fill: #a9a9a9; stroke: #a9a9a9; stroke-width: 0.8"/>
      </g>
     </g>
     <g id="text_1">
      <!-- 2021-07 -->
      <g style="fill: #a9a9a9" transform="translate(106.362268 334.998438) scale(0.1 -0.1)">
       <defs>
        <path id="DejaVuSans-32" d="M 1228 531 
L 3431 531 
L 3431 0 
L 469 0 
L 469 531 
Q 828 903 1448 1529 
Q 2069 2156 2228 2338 
Q 2531 2678 2651 2914 
Q 2772 3150 2772 3378 
Q 2772 3750 2511 3984 
Q 2250 4219 1831 4219 
Q 1534 4219 1204 4116 
Q 875 4013 500 3803 
L 500 4441 
Q 881 4594 1212 4672 
Q 1544 4750 1819 4750 
Q 2544 4750 2975 4387 
Q 3406 4025 3406 3419 
Q 3406 3131 3298 2873 
Q 3191 2616 2906 2266 
Q 2828 2175 2409 1742 
Q 1991 1309 1228 531 
z
" transform="scale(0.015625)"/>
        <path id="DejaVuSans-30" d="M 2034 4250 
Q 1547 4250 1301 3770 
Q 1056 3291 1056 2328 
Q 1056 1369 1301 889 
Q 1547 409 2034 409 
Q 2525 409 2770 889 
Q 3016 1369 3016 2328 
Q 3016 3291 2770 3770 
Q 2525 4250 2034 4250 
z
M 2034 4750 
Q 2819 4750 3233 4129 
Q 3647 3509 3647 2328 
Q 3647 1150 3233 529 
Q 2819 -91 2034 -91 
Q 1250 -91 836 529 
Q 422 1150 422 2328 
Q 422 3509 836 4129 
Q 1250 4750 2034 4750 
z
" transform="scale(0.015625)"/>
        <path id="DejaVuSans-31" d="M 794 531 
L 1825 531 
L 1825 4091 
L 703 3866 
L 703 4441 
L 1819 4666 
L 2450 4666 
L 2450 531 
L 3481 531 
L 3481 0 
L 794 0 
L 794 531 
z
" transform="scale(0.015625)"/>
        <path id="DejaVuSans-2d" d="M 313 2009 
L 1997 2009 
L 1997 1497 
L 313 1497 
L 313 2009 
z
" transform="scale(0.015625)"/>
        <path id="DejaVuSans-37" d="M 525 4666 
L 3525 4666 
L 3525 4397 
L 1831 0 
L 1172 0 
L 2766 4134 
L 525 4134 
L 525 4666 
z
" transform="scale(0.015625)"/>
       </defs>
       <use xlink:href="#DejaVuSans-32"/>
       <use xlink:href="#DejaVuSans-30" transform="translate(63.623047 0)"/>
       <use xlink:href="#DejaVuSans-32" transform="translate(127.246094 0)"/>
       <use xlink:href="#DejaVuSans-31" transform="translate(190.869141 0)"/>
       <use xlink:href="#DejaVuSans-2d" transform="translate(254.492188 0)"/>
       <use xlink:href="#DejaVuSans-30" transform="translate(290.576172 0)"/>
       <use xlink:href="#DejaVuSans-37" transform="translate(354.199219 0)"/>
      </g>
     </g>
    </g>
    <g id="xtick_2">
     <g id="line2d_3">
      <path d="M 216.71519 320.4 
L 216.71519 43.2 
" clip-path="url(#p92e942b07f)" style="fill: none; stroke-dasharray: 5.12,1.28,0.8,1.28; stroke-dashoffset: 0; stroke: #b0b0b0; stroke-width: 0.8"/>
     </g>
     <g id="line2d_4">
      <g>
       <use xlink:href="#m9dd8684bf0" x="216.71519" y="320.4" style="fill: #a9a9a9; stroke: #a9a9a9; stroke-width: 0.8"/>
      </g>
     </g>
     <g id="text_2">
      <!-- 2022-01 -->
      <g style="fill: #a9a9a9" transform="translate(195.823784 334.998438) scale(0.1 -0.1)">
       <use xlink:href="#DejaVuSans-32"/>
       <use xlink:href="#DejaVuSans-30" transform="translate(63.623047 0)"/>
       <use xlink:href="#DejaVuSans-32" transform="translate(127.246094 0)"/>
       <use xlink:href="#DejaVuSans-32" transform="translate(190.869141 0)"/>
       <use xlink:href="#DejaVuSans-2d" transform="translate(254.492188 0)"/>
       <use xlink:href="#DejaVuSans-30" transform="translate(290.576172 0)"/>
       <use xlink:href="#DejaVuSans-31" transform="translate(354.199219 0)"/>
      </g>
     </g>
    </g>
    <g id="xtick_3">
     <g id="line2d_5">
      <path d="M 304.718095 320.4 
L 304.718095 43.2 
" clip-path="url(#p92e942b07f)" style="fill: none; stroke-dasharray: 5.12,1.28,0.8,1.28; stroke-dashoffset: 0; stroke: #b0b0b0; stroke-width: 0.8"/>
     </g>
     <g id="line2d_6">
      <g>
       <use xlink:href="#m9dd8684bf0" x="304.718095" y="320.4" style="fill: #a9a9a9; stroke: #a9a9a9; stroke-width: 0.8"/>
      </g>
     </g>
     <g id="text_3">
      <!-- 2022-07 -->
      <g style="fill: #a9a9a9" transform="translate(283.826688 334.998438) scale(0.1 -0.1)">
       <use xlink:href="#DejaVuSans-32"/>
       <use xlink:href="#DejaVuSans-30" transform="translate(63.623047 0)"/>
       <use xlink:href="#DejaVuSans-32" transform="translate(127.246094 0)"/>
       <use xlink:href="#DejaVuSans-32" transform="translate(190.869141 0)"/>
       <use xlink:href="#DejaVuSans-2d" transform="translate(254.492188 0)"/>
       <use xlink:href="#DejaVuSans-30" transform="translate(290.576172 0)"/>
       <use xlink:href="#DejaVuSans-37" transform="translate(354.199219 0)"/>
      </g>
     </g>
    </g>
    <g id="xtick_4">
     <g id="line2d_7">
      <path d="M 394.179611 320.4 
L 394.179611 43.2 
" clip-path="url(#p92e942b07f)" style="fill: none; stroke-dasharray: 5.12,1.28,0.8,1.28; stroke-dashoffset: 0; stroke: #b0b0b0; stroke-width: 0.8"/>
     </g>
     <g id="line2d_8">
      <g>
       <use xlink:href="#m9dd8684bf0" x="394.179611" y="320.4" style="fill: #a9a9a9; stroke: #a9a9a9; stroke-width: 0.8"/>
      </g>
     </g>
     <g id="text_4">
      <!-- 2023-01 -->
      <g style="fill: #a9a9a9" transform="translate(373.288205 334.998438) scale(0.1 -0.1)">
       <defs>
        <path id="DejaVuSans-33" d="M 2597 2516 
Q 3050 2419 3304 2112 
Q 3559 1806 3559 1356 
Q 3559 666 3084 287 
Q 2609 -91 1734 -91 
Q 1441 -91 1130 -33 
Q 819 25 488 141 
L 488 750 
Q 750 597 1062 519 
Q 1375 441 1716 441 
Q 2309 441 2620 675 
Q 2931 909 2931 1356 
Q 2931 1769 2642 2001 
Q 2353 2234 1838 2234 
L 1294 2234 
L 1294 2753 
L 1863 2753 
Q 2328 2753 2575 2939 
Q 2822 3125 2822 3475 
Q 2822 3834 2567 4026 
Q 2313 4219 1838 4219 
Q 1578 4219 1281 4162 
Q 984 4106 628 3988 
L 628 4550 
Q 988 4650 1302 4700 
Q 1616 4750 1894 4750 
Q 2613 4750 3031 4423 
Q 3450 4097 3450 3541 
Q 3450 3153 3228 2886 
Q 3006 2619 2597 2516 
z
" transform="scale(0.015625)"/>
       </defs>
       <use xlink:href="#DejaVuSans-32"/>
       <use xlink:href="#DejaVuSans-30" transform="translate(63.623047 0)"/>
       <use xlink:href="#DejaVuSans-32" transform="translate(127.246094 0)"/>
       <use xlink:href="#DejaVuSans-33" transform="translate(190.869141 0)"/>
       <use xlink:href="#DejaVuSans-2d" transform="translate(254.492188 0)"/>
       <use xlink:href="#DejaVuSans-30" transform="translate(290.576172 0)"/>
       <use xlink:href="#DejaVuSans-31" transform="translate(354.199219 0)"/>
      </g>
     </g>
    </g>
    <g id="xtick_5">
     <g id="line2d_9">
      <path d="M 482.182515 320.4 
L 482.182515 43.2 
" clip-path="url(#p92e942b07f)" style="fill: none; stroke-dasharray: 5.12,1.28,0.8,1.28; stroke-dashoffset: 0; stroke: #b0b0b0; stroke-width: 0.8"/>
     </g>
     <g id="line2d_10">
      <g>
       <use xlink:href="#m9dd8684bf0" x="482.182515" y="320.4" style="fill: #a9a9a9; stroke: #a9a9a9; stroke-width: 0.8"/>
      </g>
     </g>
     <g id="text_5">
      <!-- 2023-07 -->
      <g style="fill: #a9a9a9" transform="translate(461.291109 334.998438) scale(0.1 -0.1)">
       <use xlink:href="#DejaVuSans-32"/>
       <use xlink:href="#DejaVuSans-30" transform="translate(63.623047 0)"/>
       <use xlink:href="#DejaVuSans-32" transform="translate(127.246094 0)"/>
       <use xlink:href="#DejaVuSans-33" transform="translate(190.869141 0)"/>
       <use xlink:href="#DejaVuSans-2d" transform="translate(254.492188 0)"/>
       <use xlink:href="#DejaVuSans-30" transform="translate(290.576172 0)"/>
       <use xlink:href="#DejaVuSans-37" transform="translate(354.199219 0)"/>
      </g>
     </g>
    </g>
    <g id="xtick_6">
     <g id="line2d_11">
      <path d="M 571.644031 320.4 
L 571.644031 43.2 
" clip-path="url(#p92e942b07f)" style="fill: none; stroke-dasharray: 5.12,1.28,0.8,1.28; stroke-dashoffset: 0; stroke: #b0b0b0; stroke-width: 0.8"/>
     </g>
     <g id="line2d_12">
      <g>
       <use xlink:href="#m9dd8684bf0" x="571.644031" y="320.4" style="fill: #a9a9a9; stroke: #a9a9a9; stroke-width: 0.8"/>
      </g>
     </g>
     <g id="text_6">
      <!-- 2024-01 -->
      <g style="fill: #a9a9a9" transform="translate(550.752625 334.998438) scale(0.1 -0.1)">
       <defs>
        <path id="DejaVuSans-34" d="M 2419 4116 
L 825 1625 
L 2419 1625 
L 2419 4116 
z
M 2253 4666 
L 3047 4666 
L 3047 1625 
L 3713 1625 
L 3713 1100 
L 3047 1100 
L 3047 0 
L 2419 0 
L 2419 1100 
L 313 1100 
L 313 1709 
L 2253 4666 
z
" transform="scale(0.015625)"/>
       </defs>
       <use xlink:href="#DejaVuSans-32"/>
       <use xlink:href="#DejaVuSans-30" transform="translate(63.623047 0)"/>
       <use xlink:href="#DejaVuSans-32" transform="translate(127.246094 0)"/>
       <use xlink:href="#DejaVuSans-34" transform="translate(190.869141 0)"/>
       <use xlink:href="#DejaVuSans-2d" transform="translate(254.492188 0)"/>
       <use xlink:href="#DejaVuSans-30" transform="translate(290.576172 0)"/>
       <use xlink:href="#DejaVuSans-31" transform="translate(354.199219 0)"/>
      </g>
     </g>
    </g>
    <g id="xtick_7">
     <g id="line2d_13">
      <path d="M 660.13314 320.4 
L 660.13314 43.2 
" clip-path="url(#p92e942b07f)" style="fill: none; stroke-dasharray: 5.12,1.28,0.8,1.28; stroke-dashoffset: 0; stroke: #b0b0b0; stroke-width: 0.8"/>
     </g>
     <g id="line2d_14">
      <g>
       <use xlink:href="#m9dd8684bf0" x="660.13314" y="320.4" style="fill: #a9a9a9; stroke: #a9a9a9; stroke-width: 0.8"/>
      </g>
     </g>
     <g id="text_7">
      <!-- 2024-07 -->
      <g style="fill: #a9a9a9" transform="translate(639.241733 334.998438) scale(0.1 -0.1)">
       <use xlink:href="#DejaVuSans-32"/>
       <use xlink:href="#DejaVuSans-30" transform="translate(63.623047 0)"/>
       <use xlink:href="#DejaVuSans-32" transform="translate(127.246094 0)"/>
       <use xlink:href="#DejaVuSans-34" transform="translate(190.869141 0)"/>
       <use xlink:href="#DejaVuSans-2d" transform="translate(254.492188 0)"/>
       <use xlink:href="#DejaVuSans-30" transform="translate(290.576172 0)"/>
       <use xlink:href="#DejaVuSans-37" transform="translate(354.199219 0)"/>
      </g>
     </g>
    </g>
    <g id="xtick_8">
     <g id="line2d_15">
      <path d="M 749.594656 320.4 
L 749.594656 43.2 
" clip-path="url(#p92e942b07f)" style="fill: none; stroke-dasharray: 5.12,1.28,0.8,1.28; stroke-dashoffset: 0; stroke: #b0b0b0; stroke-width: 0.8"/>
     </g>
     <g id="line2d_16">
      <g>
       <use xlink:href="#m9dd8684bf0" x="749.594656" y="320.4" style="fill: #a9a9a9; stroke: #a9a9a9; stroke-width: 0.8"/>
      </g>
     </g>
     <g id="text_8">
      <!-- 2025-01 -->
      <g style="fill: #a9a9a9" transform="translate(728.70325 334.998438) scale(0.1 -0.1)">
       <defs>
        <path id="DejaVuSans-35" d="M 691 4666 
L 3169 4666 
L 3169 4134 
L 1269 4134 
L 1269 2991 
Q 1406 3038 1543 3061 
Q 1681 3084 1819 3084 
Q 2600 3084 3056 2656 
Q 3513 2228 3513 1497 
Q 3513 744 3044 326 
Q 2575 -91 1722 -91 
Q 1428 -91 1123 -41 
Q 819 9 494 109 
L 494 744 
Q 775 591 1075 516 
Q 1375 441 1709 441 
Q 2250 441 2565 725 
Q 2881 1009 2881 1497 
Q 2881 1984 2565 2268 
Q 2250 2553 1709 2553 
Q 1456 2553 1204 2497 
Q 953 2441 691 2322 
L 691 4666 
z
" transform="scale(0.015625)"/>
       </defs>
       <use xlink:href="#DejaVuSans-32"/>
       <use xlink:href="#DejaVuSans-30" transform="translate(63.623047 0)"/>
       <use xlink:href="#DejaVuSans-32" transform="translate(127.246094 0)"/>
       <use xlink:href="#DejaVuSans-35" transform="translate(190.869141 0)"/>
       <use xlink:href="#DejaVuSans-2d" transform="translate(254.492188 0)"/>
       <use xlink:href="#DejaVuSans-30" transform="translate(290.576172 0)"/>
       <use xlink:href="#DejaVuSans-31" transform="translate(354.199219 0)"/>
      </g>
     </g>
    </g>
   </g>
   <g id="matplotlib.axis_2">
    <g id="ytick_1">
     <g id="line2d_17">
      <path d="M 108 307.835294 
L 777.6 307.835294 
" clip-path="url(#p92e942b07f)" style="fill: none; stroke-dasharray: 5.12,1.28,0.8,1.28; stroke-dashoffset: 0; stroke: #b0b0b0; stroke-width: 0.8"/>
     </g>
     <g id="line2d_18">
      <defs>
       <path id="m4818a540a1" d="M 0 0 
L -3.5 0 
" style="stroke: #a9a9a9; stroke-width: 0.8"/>
      </defs>
      <g>
       <use xlink:href="#m4818a540a1" x="108" y="307.835294" style="fill: #a9a9a9; stroke: #a9a9a9; stroke-width: 0.8"/>
      </g>
     </g>
     <g id="text_9">
      <!-- 0 -->
      <g style="fill: #a9a9a9" transform="translate(94.6375 311.634513) scale(0.1 -0.1)">
       <use xlink:href="#DejaVuSans-30"/>
      </g>
     </g>
    </g>
    <g id="ytick_2">
     <g id="line2d_19">
      <path d="M 108 279.6 
L 777.6 279.6 
" clip-path="url(#p92e942b07f)" style="fill: none; stroke-dasharray: 5.12,1.28,0.8,1.28; stroke-dashoffset: 0; stroke: #b0b0b0; stroke-width: 0.8"/>
     </g>
     <g id="line2d_20">
      <g>
       <use xlink:href="#m4818a540a1" x="108" y="279.6" style="fill: #a9a9a9; stroke: #a9a9a9; stroke-width: 0.8"/>
      </g>
     </g>
     <g id="text_10">
      <!-- 800 -->
      <g style="fill: #a9a9a9" transform="translate(81.9125 283.399219) scale(0.1 -0.1)">
       <defs>
        <path id="DejaVuSans-38" d="M 2034 2216 
Q 1584 2216 1326 1975 
Q 1069 1734 1069 1313 
Q 1069 891 1326 650 
Q 1584 409 2034 409 
Q 2484 409 2743 651 
Q 3003 894 3003 1313 
Q 3003 1734 2745 1975 
Q 2488 2216 2034 2216 
z
M 1403 2484 
Q 997 2584 770 2862 
Q 544 3141 544 3541 
Q 544 4100 942 4425 
Q 1341 4750 2034 4750 
Q 2731 4750 3128 4425 
Q 3525 4100 3525 3541 
Q 3525 3141 3298 2862 
Q 3072 2584 2669 2484 
Q 3125 2378 3379 2068 
Q 3634 1759 3634 1313 
Q 3634 634 3220 271 
Q 2806 -91 2034 -91 
Q 1263 -91 848 271 
Q 434 634 434 1313 
Q 434 1759 690 2068 
Q 947 2378 1403 2484 
z
M 1172 3481 
Q 1172 3119 1398 2916 
Q 1625 2713 2034 2713 
Q 2441 2713 2670 2916 
Q 2900 3119 2900 3481 
Q 2900 3844 2670 4047 
Q 2441 4250 2034 4250 
Q 1625 4250 1398 4047 
Q 1172 3844 1172 3481 
z
" transform="scale(0.015625)"/>
       </defs>
       <use xlink:href="#DejaVuSans-38"/>
       <use xlink:href="#DejaVuSans-30" transform="translate(63.623047 0)"/>
       <use xlink:href="#DejaVuSans-30" transform="translate(127.246094 0)"/>
      </g>
     </g>
    </g>
    <g id="ytick_3">
     <g id="line2d_21">
      <path d="M 108 251.364706 
L 777.6 251.364706 
" clip-path="url(#p92e942b07f)" style="fill: none; stroke-dasharray: 5.12,1.28,0.8,1.28; stroke-dashoffset: 0; stroke: #b0b0b0; stroke-width: 0.8"/>
     </g>
     <g id="line2d_22">
      <g>
       <use xlink:href="#m4818a540a1" x="108" y="251.364706" style="fill: #a9a9a9; stroke: #a9a9a9; stroke-width: 0.8"/>
      </g>
     </g>
     <g id="text_11">
      <!-- 1600 -->
      <g style="fill: #a9a9a9" transform="translate(75.55 255.163925) scale(0.1 -0.1)">
       <defs>
        <path id="DejaVuSans-36" d="M 2113 2584 
Q 1688 2584 1439 2293 
Q 1191 2003 1191 1497 
Q 1191 994 1439 701 
Q 1688 409 2113 409 
Q 2538 409 2786 701 
Q 3034 994 3034 1497 
Q 3034 2003 2786 2293 
Q 2538 2584 2113 2584 
z
M 3366 4563 
L 3366 3988 
Q 3128 4100 2886 4159 
Q 2644 4219 2406 4219 
Q 1781 4219 1451 3797 
Q 1122 3375 1075 2522 
Q 1259 2794 1537 2939 
Q 1816 3084 2150 3084 
Q 2853 3084 3261 2657 
Q 3669 2231 3669 1497 
Q 3669 778 3244 343 
Q 2819 -91 2113 -91 
Q 1303 -91 875 529 
Q 447 1150 447 2328 
Q 447 3434 972 4092 
Q 1497 4750 2381 4750 
Q 2619 4750 2861 4703 
Q 3103 4656 3366 4563 
z
" transform="scale(0.015625)"/>
       </defs>
       <use xlink:href="#DejaVuSans-31"/>
       <use xlink:href="#DejaVuSans-36" transform="translate(63.623047 0)"/>
       <use xlink:href="#DejaVuSans-30" transform="translate(127.246094 0)"/>
       <use xlink:href="#DejaVuSans-30" transform="translate(190.869141 0)"/>
      </g>
     </g>
    </g>
    <g id="ytick_4">
     <g id="line2d_23">
      <path d="M 108 223.129412 
L 777.6 223.129412 
" clip-path="url(#p92e942b07f)" style="fill: none; stroke-dasharray: 5.12,1.28,0.8,1.28; stroke-dashoffset: 0; stroke: #b0b0b0; stroke-width: 0.8"/>
     </g>
     <g id="line2d_24">
      <g>
       <use xlink:href="#m4818a540a1" x="108" y="223.129412" style="fill: #a9a9a9; stroke: #a9a9a9; stroke-width: 0.8"/>
      </g>
     </g>
     <g id="text_12">
      <!-- 2400 -->
      <g style="fill: #a9a9a9" transform="translate(75.55 226.928631) scale(0.1 -0.1)">
       <use xlink:href="#DejaVuSans-32"/>
       <use xlink:href="#DejaVuSans-34" transform="translate(63.623047 0)"/>
       <use xlink:href="#DejaVuSans-30" transform="translate(127.246094 0)"/>
       <use xlink:href="#DejaVuSans-30" transform="translate(190.869141 0)"/>
      </g>
     </g>
    </g>
    <g id="ytick_5">
     <g id="line2d_25">
      <path d="M 108 194.894118 
L 777.6 194.894118 
" clip-path="url(#p92e942b07f)" style="fill: none; stroke-dasharray: 5.12,1.28,0.8,1.28; stroke-dashoffset: 0; stroke: #b0b0b0; stroke-width: 0.8"/>
     </g>
     <g id="line2d_26">
      <g>
       <use xlink:href="#m4818a540a1" x="108" y="194.894118" style="fill: #a9a9a9; stroke: #a9a9a9; stroke-width: 0.8"/>
      </g>
     </g>
     <g id="text_13">
      <!-- 3200 -->
      <g style="fill: #a9a9a9" transform="translate(75.55 198.693336) scale(0.1 -0.1)">
       <use xlink:href="#DejaVuSans-33"/>
       <use xlink:href="#DejaVuSans-32" transform="translate(63.623047 0)"/>
       <use xlink:href="#DejaVuSans-30" transform="translate(127.246094 0)"/>
       <use xlink:href="#DejaVuSans-30" transform="translate(190.869141 0)"/>
      </g>
     </g>
    </g>
    <g id="ytick_6">
     <g id="line2d_27">
      <path d="M 108 166.658824 
L 777.6 166.658824 
" clip-path="url(#p92e942b07f)" style="fill: none; stroke-dasharray: 5.12,1.28,0.8,1.28; stroke-dashoffset: 0; stroke: #b0b0b0; stroke-width: 0.8"/>
     </g>
     <g id="line2d_28">
      <g>
       <use xlink:href="#m4818a540a1" x="108" y="166.658824" style="fill: #a9a9a9; stroke: #a9a9a9; stroke-width: 0.8"/>
      </g>
     </g>
     <g id="text_14">
      <!-- 4000 -->
      <g style="fill: #a9a9a9" transform="translate(75.55 170.458042) scale(0.1 -0.1)">
       <use xlink:href="#DejaVuSans-34"/>
       <use xlink:href="#DejaVuSans-30" transform="translate(63.623047 0)"/>
       <use xlink:href="#DejaVuSans-30" transform="translate(127.246094 0)"/>
       <use xlink:href="#DejaVuSans-30" transform="translate(190.869141 0)"/>
      </g>
     </g>
    </g>
    <g id="ytick_7">
     <g id="line2d_29">
      <path d="M 108 138.423529 
L 777.6 138.423529 
" clip-path="url(#p92e942b07f)" style="fill: none; stroke-dasharray: 5.12,1.28,0.8,1.28; stroke-dashoffset: 0; stroke: #b0b0b0; stroke-width: 0.8"/>
     </g>
     <g id="line2d_30">
      <g>
       <use xlink:href="#m4818a540a1" x="108" y="138.423529" style="fill: #a9a9a9; stroke: #a9a9a9; stroke-width: 0.8"/>
      </g>
     </g>
     <g id="text_15">
      <!-- 4800 -->
      <g style="fill: #a9a9a9" transform="translate(75.55 142.222748) scale(0.1 -0.1)">
       <use xlink:href="#DejaVuSans-34"/>
       <use xlink:href="#DejaVuSans-38" transform="translate(63.623047 0)"/>
       <use xlink:href="#DejaVuSans-30" transform="translate(127.246094 0)"/>
       <use xlink:href="#DejaVuSans-30" transform="translate(190.869141 0)"/>
      </g>
     </g>
    </g>
    <g id="ytick_8">
     <g id="line2d_31">
      <path d="M 108 110.188235 
L 777.6 110.188235 
" clip-path="url(#p92e942b07f)" style="fill: none; stroke-dasharray: 5.12,1.28,0.8,1.28; stroke-dashoffset: 0; stroke: #b0b0b0; stroke-width: 0.8"/>
     </g>
     <g id="line2d_32">
      <g>
       <use xlink:href="#m4818a540a1" x="108" y="110.188235" style="fill: #a9a9a9; stroke: #a9a9a9; stroke-width: 0.8"/>
      </g>
     </g>
     <g id="text_16">
      <!-- 5600 -->
      <g style="fill: #a9a9a9" transform="translate(75.55 113.987454) scale(0.1 -0.1)">
       <use xlink:href="#DejaVuSans-35"/>
       <use xlink:href="#DejaVuSans-36" transform="translate(63.623047 0)"/>
       <use xlink:href="#DejaVuSans-30" transform="translate(127.246094 0)"/>
       <use xlink:href="#DejaVuSans-30" transform="translate(190.869141 0)"/>
      </g>
     </g>
    </g>
    <g id="ytick_9">
     <g id="line2d_33">
      <path d="M 108 81.952941 
L 777.6 81.952941 
" clip-path="url(#p92e942b07f)" style="fill: none; stroke-dasharray: 5.12,1.28,0.8,1.28; stroke-dashoffset: 0; stroke: #b0b0b0; stroke-width: 0.8"/>
     </g>
     <g id="line2d_34">
      <g>
       <use xlink:href="#m4818a540a1" x="108" y="81.952941" style="fill: #a9a9a9; stroke: #a9a9a9; stroke-width: 0.8"/>
      </g>
     </g>
     <g id="text_17">
      <!-- 6400 -->
      <g style="fill: #a9a9a9" transform="translate(75.55 85.75216) scale(0.1 -0.1)">
       <use xlink:href="#DejaVuSans-36"/>
       <use xlink:href="#DejaVuSans-34" transform="translate(63.623047 0)"/>
       <use xlink:href="#DejaVuSans-30" transform="translate(127.246094 0)"/>
       <use xlink:href="#DejaVuSans-30" transform="translate(190.869141 0)"/>
      </g>
     </g>
    </g>
    <g id="ytick_10">
     <g id="line2d_35">
      <path d="M 108 53.717647 
L 777.6 53.717647 
" clip-path="url(#p92e942b07f)" style="fill: none; stroke-dasharray: 5.12,1.28,0.8,1.28; stroke-dashoffset: 0; stroke: #b0b0b0; stroke-width: 0.8"/>
     </g>
     <g id="line2d_36">
      <g>
       <use xlink:href="#m4818a540a1" x="108" y="53.717647" style="fill: #a9a9a9; stroke: #a9a9a9; stroke-width: 0.8"/>
      </g>
     </g>
     <g id="text_18">
      <!-- 7200 -->
      <g style="fill: #a9a9a9" transform="translate(75.55 57.516866) scale(0.1 -0.1)">
       <use xlink:href="#DejaVuSans-37"/>
       <use xlink:href="#DejaVuSans-32" transform="translate(63.623047 0)"/>
       <use xlink:href="#DejaVuSans-30" transform="translate(127.246094 0)"/>
       <use xlink:href="#DejaVuSans-30" transform="translate(190.869141 0)"/>
      </g>
     </g>
    </g>
   </g>
   <g id="line2d_37">
    <path d="M 138.436364 307.729412 
L 141.353587 307.482353 
L 141.839791 307.270588 
L 143.784606 307.023529 
L 145.729422 306.635294 
L 146.70183 306.494118 
L 149.132849 306.282353 
L 150.105257 305.894118 
L 150.591461 305.258824 
L 151.077665 304.905882 
L 151.563869 303.811765 
L 152.050073 303.741176 
L 152.536277 303.352941 
L 153.508684 302.858824 
L 155.4535 301.305882 
L 157.398315 300.352941 
L 158.856927 299.682353 
L 159.343131 298.905882 
L 160.315539 298.2 
L 160.801743 297.988235 
L 165.663782 297.282353 
L 166.149985 297.070588 
L 169.553413 296.788235 
L 171.498228 296.329412 
L 175.387859 295.8 
L 175.874063 295.552941 
L 176.360267 295.482353 
L 177.332675 295.164706 
L 180.736102 294.6 
L 181.70851 294.317647 
L 186.084345 293.576471 
L 187.056753 293.364706 
L 188.029161 293.329412 
L 189.973976 292.870588 
L 190.46018 292.2 
L 191.918792 291.635294 
L 193.377403 291.247059 
L 193.863607 291 
L 194.836015 290.823529 
L 196.780831 290.258824 
L 197.753238 290.188235 
L 198.725646 289.941176 
L 200.670462 289.447059 
L 201.156666 289.411765 
L 202.129073 288.952941 
L 202.615277 288.882353 
L 203.101481 288.635294 
L 208.449724 287.752941 
L 210.39454 287.188235 
L 210.880744 286.870588 
L 213.311763 286.058824 
L 214.284171 285.388235 
L 215.742782 285.105882 
L 228.384084 281.541176 
L 228.870288 281.541176 
L 229.356491 281.329412 
L 230.328899 281.223529 
L 230.815103 281.047059 
L 232.759919 280.941176 
L 233.732326 280.764706 
L 234.704734 280.270588 
L 236.163346 279.741176 
L 236.64955 279.423529 
L 237.621958 279 
L 238.108161 278.752941 
L 239.080569 278.435294 
L 239.566773 278.294118 
L 240.539181 277.694118 
L 241.025385 277.164706 
L 241.997793 275.682353 
L 242.483997 275.541176 
L 242.9702 275.541176 
L 244.428812 274.694118 
L 244.915016 274.447059 
L 245.40122 274.341176 
L 245.887424 273.882353 
L 246.859832 273.494118 
L 247.832239 273.035294 
L 250.263259 269.964706 
L 253.180482 268.411765 
L 254.15289 267.635294 
L 254.639094 267.317647 
L 255.125298 266.611765 
L 255.611502 265.517647 
L 256.097705 264.776471 
L 256.583909 264.388235 
L 257.070113 264.176471 
L 260.473541 261.282353 
L 261.445948 260.117647 
L 262.90456 259.094118 
L 264.849376 257.929412 
L 265.821783 257.4 
L 267.766599 256.376471 
L 270.197618 254.188235 
L 271.170026 253.8 
L 272.142434 253.129412 
L 272.628638 252.847059 
L 273.114842 252.776471 
L 274.573453 251.964706 
L 275.059657 251.435294 
L 277.490677 250.129412 
L 277.976881 249.952941 
L 279.435492 248.964706 
L 286.728551 246.388235 
L 287.700958 245.505882 
L 288.673366 245.047059 
L 289.645774 244.517647 
L 290.131978 244.235294 
L 291.104386 243.952941 
L 291.59059 243.635294 
L 292.076793 243.494118 
L 293.535405 242.541176 
L 295.966425 241.976471 
L 297.425036 241.129412 
L 298.883648 240.811765 
L 299.369852 240.670588 
L 300.828464 239.576471 
L 302.773279 239.047059 
L 303.259483 238.658824 
L 306.176706 237.670588 
L 307.149114 237.494118 
L 308.121522 237.105882 
L 311.524949 235.870588 
L 312.497357 235.729412 
L 313.955969 235.235294 
L 316.386988 234.070588 
L 318.331804 233.011765 
L 322.221435 231.423529 
L 322.707639 231.352941 
L 323.680046 230.752941 
L 324.16625 230.682353 
L 326.111066 229.870588 
L 328.055881 229.623529 
L 329.028289 229.129412 
L 329.514493 228.705882 
L 330.000697 227.823529 
L 331.945513 227.294118 
L 333.404124 226.552941 
L 333.890328 226.447059 
L 337.779959 224.576471 
L 339.238571 224.294118 
L 340.210979 223.8 
L 340.697183 223.588235 
L 341.183387 223.517647 
L 343.128202 222.635294 
L 344.586814 221.717647 
L 346.045426 221.435294 
L 348.476445 220.835294 
L 348.962649 220.447059 
L 350.421261 219.917647 
L 352.366076 219.141176 
L 352.85228 218.788235 
L 353.338484 218.611765 
L 354.310892 218.082353 
L 356.741911 217.270588 
L 358.200523 216.105882 
L 358.686727 216 
L 359.659134 215.223529 
L 360.145338 215.152941 
L 360.631542 214.376471 
L 361.117746 214.164706 
L 361.60395 213.776471 
L 362.090154 213.705882 
L 363.062562 213.105882 
L 364.03497 212.788235 
L 364.521173 212.435294 
L 365.007377 212.258824 
L 366.465989 211.235294 
L 368.410805 210.211765 
L 368.897008 210.141176 
L 370.35562 209.4 
L 370.841824 208.588235 
L 371.814232 207.882353 
L 372.300436 207.776471 
L 373.272843 207.176471 
L 373.759047 207.070588 
L 374.731455 206.576471 
L 376.676271 205.623529 
L 377.162475 205.270588 
L 378.134882 204.317647 
L 379.10729 203.717647 
L 379.593494 203.4 
L 380.079698 202.870588 
L 382.024514 201.529412 
L 382.510717 200.964706 
L 382.996921 200.576471 
L 383.969329 200.223529 
L 384.941737 199.552941 
L 386.400349 198.811765 
L 386.886552 198.741176 
L 388.345164 197.964706 
L 389.317572 197.364706 
L 394.179611 195.6 
L 394.665815 195.211765 
L 396.61063 194.470588 
L 397.096834 194.329412 
L 398.069242 193.694118 
L 399.04165 193.270588 
L 400.014058 192.6 
L 400.986465 190.658824 
L 401.958873 189.529412 
L 403.417485 188.788235 
L 404.389893 188.4 
L 404.876096 188.329412 
L 405.3623 188.047059 
L 407.79332 187.270588 
L 408.279524 187.058824 
L 409.251931 186.388235 
L 410.710543 185.752941 
L 411.682951 185.223529 
L 412.169155 184.870588 
L 412.655359 184.658824 
L 413.141563 184.305882 
L 413.627766 183.776471 
L 414.600174 183.247059 
L 417.031194 181.941176 
L 419.948417 180.494118 
L 421.407029 180.070588 
L 422.86564 179.505882 
L 423.351844 179.152941 
L 424.324252 178.870588 
L 425.29666 178.482353 
L 425.782864 178.094118 
L 427.727679 177.423529 
L 428.700087 176.717647 
L 429.672495 176.294118 
L 430.644903 175.517647 
L 431.61731 175.164706 
L 432.103514 174.741176 
L 432.589718 174.670588 
L 433.562126 173.929412 
L 434.534534 173.435294 
L 435.020738 173.223529 
L 435.506942 172.729412 
L 438.910369 171.388235 
L 439.882777 170.964706 
L 441.341388 170.505882 
L 442.313796 170.364706 
L 442.8 170.152941 
L 443.286204 170.082353 
L 444.258612 169.658824 
L 444.744816 169.623529 
L 446.689631 168.882353 
L 448.148243 167.858824 
L 448.634447 167.682353 
L 449.606854 167.152941 
L 450.093058 167.011765 
L 453.010282 165.388235 
L 453.496486 165.282353 
L 454.955097 164.435294 
L 456.413709 163.941176 
L 457.386117 163.623529 
L 459.330932 162.988235 
L 460.30334 162.670588 
L 462.248156 162.282353 
L 462.73436 162.070588 
L 463.220563 162 
L 464.192971 161.576471 
L 464.679175 161.505882 
L 465.165379 161.258824 
L 466.137787 161.082353 
L 467.596398 160.552941 
L 468.568806 160.447059 
L 470.027418 160.129412 
L 472.458437 159.705882 
L 485.099739 156.035294 
L 485.585942 155.541176 
L 486.55835 155.152941 
L 490.447981 153.705882 
L 490.934185 153.423529 
L 492.392797 153 
L 493.365205 152.752941 
L 493.851409 152.435294 
L 494.337613 152.329412 
L 494.823816 151.905882 
L 496.282428 151.623529 
L 497.254836 151.164706 
L 497.74104 150.6 
L 499.685855 150.141176 
L 503.089283 149.435294 
L 503.575486 149.435294 
L 504.06169 149.223529 
L 506.006506 148.870588 
L 506.49271 148.658824 
L 508.437525 148.305882 
L 509.409933 147.882353 
L 510.382341 147.705882 
L 512.81336 147.105882 
L 514.758176 146.505882 
L 515.24438 146.4 
L 515.730584 146.152941 
L 516.702992 145.905882 
L 517.189195 145.623529 
L 518.647807 145.129412 
L 519.134011 144.811765 
L 520.106419 144.529412 
L 523.99605 143.188235 
L 524.968458 143.117647 
L 526.913273 142.552941 
L 527.399477 142.270588 
L 528.371885 141.988235 
L 530.802904 140.894118 
L 531.289108 140.858824 
L 536.637351 138.988235 
L 539.068371 138.352941 
L 540.040778 137.894118 
L 541.49939 137.576471 
L 543.444206 135.988235 
L 544.416613 135.705882 
L 544.902817 135.317647 
L 547.820041 134.223529 
L 548.306245 133.905882 
L 549.278652 133.623529 
L 549.764856 133.305882 
L 552.195876 132.529412 
L 553.654487 131.682353 
L 554.140691 131.576471 
L 556.571711 130.270588 
L 558.030322 129.635294 
L 558.516526 129.282353 
L 559.488934 128.964706 
L 560.461342 128.4 
L 560.947546 128.223529 
L 561.43375 127.870588 
L 567.7544 125.647059 
L 568.240604 125.541176 
L 568.726808 125.223529 
L 570.671624 124.835294 
L 571.644031 124.447059 
L 574.561255 123.035294 
L 575.047459 122.964706 
L 576.50607 122.152941 
L 577.964682 121.658824 
L 581.368109 120.282353 
L 581.854313 120.141176 
L 582.340517 119.823529 
L 583.312925 119.717647 
L 583.799129 119.4 
L 584.771536 119.223529 
L 585.743944 118.764706 
L 586.230148 118.552941 
L 586.716352 118.482353 
L 589.147371 117.529412 
L 590.605983 117.141176 
L 591.578391 116.894118 
L 593.037003 116.470588 
L 594.00941 116.082353 
L 595.954226 115.023529 
L 596.926634 114.635294 
L 597.412838 114.317647 
L 598.385245 114.105882 
L 598.871449 113.823529 
L 599.357653 113.717647 
L 600.816265 112.905882 
L 601.788673 112.517647 
L 603.733488 111.776471 
L 606.164508 110.964706 
L 607.136915 110.470588 
L 609.567935 109.658824 
L 612.485158 108.494118 
L 614.429974 107.611765 
L 619.292013 105.741176 
L 619.778217 105.423529 
L 621.723032 104.752941 
L 622.209236 104.752941 
L 623.181644 104.329412 
L 625.126459 102.776471 
L 625.612663 102.635294 
L 626.098867 102.317647 
L 626.585071 102.211765 
L 627.071275 101.964706 
L 627.557479 101.894118 
L 628.043683 101.541176 
L 628.529887 101.435294 
L 629.502295 100.835294 
L 630.960906 100.094118 
L 631.933314 99.705882 
L 632.419518 99.458824 
L 633.87813 99.141176 
L 636.309149 98.329412 
L 637.281557 98.011765 
L 638.740168 97.270588 
L 639.712576 96.811765 
L 640.684984 96.564706 
L 642.143596 95.894118 
L 646.519431 94.305882 
L 647.978042 93.423529 
L 648.464246 93.317647 
L 649.436654 92.823529 
L 650.409062 92.470588 
L 650.895266 92.047059 
L 651.867674 91.658824 
L 654.784897 90.494118 
L 656.243509 90.070588 
L 656.729712 89.823529 
L 657.215916 89.752941 
L 658.674528 89.223529 
L 660.13314 88.694118 
L 661.105547 88.305882 
L 661.591751 87.917647 
L 663.050363 87.529412 
L 663.536567 87.247059 
L 664.508975 87 
L 665.967586 86.188235 
L 666.45379 86.152941 
L 667.912402 85.694118 
L 668.88481 85.623529 
L 669.857218 85.235294 
L 672.774441 84.388235 
L 673.746849 84.352941 
L 677.63648 83.117647 
L 678.608888 82.588235 
L 679.095091 82.164706 
L 680.553703 81.317647 
L 681.526111 80.717647 
L 684.443334 79.8 
L 684.929538 79.411765 
L 687.846762 78.211765 
L 689.791577 77.682353 
L 690.763985 77.258824 
L 691.250189 77.011765 
L 692.222597 76.729412 
L 692.7088 76.447059 
L 693.681208 76.270588 
L 696.112228 75.141176 
L 696.598432 74.858824 
L 698.057043 74.505882 
L 698.543247 74.188235 
L 699.029451 74.011765 
L 699.515655 73.588235 
L 700.001859 73.517647 
L 701.946674 72.741176 
L 703.89149 72.282353 
L 704.377694 72.211765 
L 704.863898 72 
L 705.350102 71.964706 
L 706.322509 71.647059 
L 706.808713 71.611765 
L 708.267325 71.047059 
L 710.212141 70.482353 
L 711.184548 69.741176 
L 713.129364 68.682353 
L 714.587976 68.188235 
L 717.505199 66.882353 
L 718.477607 66.352941 
L 718.963811 66.105882 
L 719.450015 65.647059 
L 722.367238 64.694118 
L 723.339646 64.305882 
L 724.312053 64.023529 
L 724.798257 63.776471 
L 725.284461 63.317647 
L 727.229277 62.823529 
L 727.715481 62.470588 
L 734.036131 60.176471 
L 735.008539 60 
L 739.384374 58.482353 
L 740.356782 58.235294 
L 740.842986 58.023529 
L 741.32919 57.988235 
L 742.301597 57.6 
L 743.274005 57 
L 743.760209 56.823529 
L 744.246413 56.788235 
L 745.705025 56.152941 
L 746.677432 55.8 
L 747.163636 55.8 
L 747.163636 55.8 
" clip-path="url(#p92e942b07f)" style="fill: none; stroke: #1f77b4; stroke-width: 1.5; stroke-linecap: square"/>
   </g>
   <g id="line2d_38">
    <path d="M 138.922568 307.8 
L 143.298403 307.694118 
L 147.188034 307.517647 
L 149.132849 307.517647 
L 149.619053 307.376471 
L 152.050073 307.270588 
L 154.967296 306.952941 
L 157.884519 306.847059 
L 158.856927 306.741176 
L 162.260354 306.6 
L 165.663782 306.494118 
L 168.094801 306.423529 
L 174.415452 306.317647 
L 176.846471 306.247059 
L 180.249898 306.141176 
L 182.680918 306.070588 
L 188.029161 305.964706 
L 189.973976 305.788235 
L 191.918792 305.752941 
L 194.836015 305.647059 
L 196.780831 305.611765 
L 199.21185 305.541176 
L 201.156666 305.364706 
L 205.532501 305.258824 
L 206.504909 305.188235 
L 208.449724 305.082353 
L 211.366947 304.976471 
L 213.311763 304.870588 
L 222.063433 304.341176 
L 225.46686 304.235294 
L 226.925472 304.094118 
L 229.356491 303.988235 
L 234.21853 303.741176 
L 239.080569 303.670588 
L 241.025385 303.458824 
L 242.9702 303.352941 
L 248.318443 302.858824 
L 251.72187 302.470588 
L 253.180482 302.4 
L 257.070113 301.905882 
L 259.987337 301.835294 
L 261.445948 301.694118 
L 262.90456 301.588235 
L 276.518269 300.564706 
L 277.490677 300.388235 
L 280.4079 300.282353 
L 288.187162 299.823529 
L 291.59059 299.717647 
L 293.535405 299.505882 
L 295.966425 299.4 
L 298.883648 299.294118 
L 301.314667 299.188235 
L 303.259483 299.152941 
L 305.690502 299.082353 
L 306.66291 298.941176 
L 313.469765 298.835294 
L 314.442173 298.729412 
L 320.276619 298.623529 
L 324.652454 298.411765 
L 328.055881 298.305882 
L 330.000697 298.094118 
L 333.404124 297.988235 
L 334.376532 297.811765 
L 336.807552 297.741176 
L 341.66959 297.670588 
L 343.614406 297.494118 
L 345.559222 297.458824 
L 347.017833 297.352941 
L 348.962649 297.176471 
L 353.824688 296.929412 
L 358.686727 296.823529 
L 363.062562 296.611765 
L 364.521173 296.576471 
L 365.493581 296.435294 
L 367.924601 296.329412 
L 368.897008 296.258824 
L 369.869416 296.188235 
L 370.841824 296.117647 
L 375.217659 296.047059 
L 376.676271 295.941176 
L 389.803776 295.094118 
L 392.234795 294.988235 
L 394.665815 294.917647 
L 401.472669 294.811765 
L 402.445077 294.670588 
L 409.251931 294.564706 
L 414.11397 294.317647 
L 415.086378 294.282353 
L 416.058786 294.176471 
L 418.489805 294.070588 
L 420.920825 294 
L 423.351844 293.894118 
L 425.782864 293.823529 
L 430.158699 293.717647 
L 433.075922 293.611765 
L 439.882777 293.505882 
L 445.231019 293.223529 
L 447.175835 293.152941 
L 448.634447 293.047059 
L 455.441301 292.941176 
L 458.358525 292.835294 
L 467.110195 292.729412 
L 469.05501 292.694118 
L 474.889457 292.623529 
L 475.861865 292.552941 
L 482.668719 292.447059 
L 484.613535 292.411765 
L 497.254836 292.305882 
L 498.713448 292.164706 
L 520.592623 292.058824 
L 523.023642 291.988235 
L 535.664943 291.882353 
L 536.637351 291.811765 
L 539.068371 291.741176 
L 540.526982 291.6 
L 543.444206 291.494118 
L 546.847633 291.352941 
L 551.223468 291.247059 
L 553.654487 291.176471 
L 557.057915 291.070588 
L 560.947546 290.894118 
L 563.378565 290.788235 
L 565.323381 290.752941 
L 569.699216 290.647059 
L 571.644031 290.611765 
L 577.964682 290.505882 
L 579.909498 290.470588 
L 582.340517 290.364706 
L 585.25774 290.258824 
L 588.661168 290.188235 
L 589.633575 290.117647 
L 601.302469 290.011765 
L 607.623119 289.658824 
L 610.054139 289.588235 
L 611.026547 289.482353 
L 611.998954 289.411765 
L 615.888586 289.305882 
L 618.805809 289.2 
L 623.667848 289.094118 
L 626.098867 288.847059 
L 630.960906 288.741176 
L 631.933314 288.635294 
L 636.795353 288.529412 
L 639.226372 288.458824 
L 644.574615 288.423529 
L 645.547023 288.317647 
L 650.895266 288.211765 
L 651.867674 288.141176 
L 662.564159 288.035294 
L 665.481383 287.929412 
L 672.774441 287.823529 
L 674.719256 287.788235 
L 679.095091 287.717647 
L 680.067499 287.611765 
L 686.38815 287.505882 
L 688.819169 287.435294 
L 697.570839 287.329412 
L 699.029451 287.223529 
L 700.488063 287.117647 
L 701.946674 287.011765 
L 709.239733 286.905882 
L 712.156956 286.8 
L 725.284461 286.694118 
L 729.660296 286.482353 
L 735.494743 286.376471 
L 736.467151 286.270588 
L 743.760209 286.2 
L 744.732617 286.129412 
L 747.163636 286.094118 
L 747.163636 286.094118 
" clip-path="url(#p92e942b07f)" style="fill: none; stroke: #ff7f0e; stroke-width: 1.5; stroke-linecap: square"/>
   </g>
   <g id="patch_3">
    <path d="M 108 320.4 
L 108 43.2 
" style="fill: none; stroke: #a9a9a9; stroke-width: 0.8; stroke-linejoin: miter; stroke-linecap: square"/>
   </g>
   <g id="patch_4">
    <path d="M 777.6 320.4 
L 777.6 43.2 
" style="fill: none"/>
   </g>
   <g id="patch_5">
    <path d="M 108 320.4 
L 777.6 320.4 
" style="fill: none; stroke: #a9a9a9; stroke-width: 0.8; stroke-linejoin: miter; stroke-linecap: square"/>
   </g>
   <g id="patch_6">
    <path d="M 108 43.2 
L 777.6 43.2 
" style="fill: none"/>
   </g>
   <g id="text_19">
    <!-- get_subscribe history -->
    <g style="fill: #a9a9a9" transform="translate(378.6075 37.2) scale(0.12 -0.12)">
     <defs>
      <path id="DejaVuSans-67" d="M 2906 1791 
Q 2906 2416 2648 2759 
Q 2391 3103 1925 3103 
Q 1463 3103 1205 2759 
Q 947 2416 947 1791 
Q 947 1169 1205 825 
Q 1463 481 1925 481 
Q 2391 481 2648 825 
Q 2906 1169 2906 1791 
z
M 3481 434 
Q 3481 -459 3084 -895 
Q 2688 -1331 1869 -1331 
Q 1566 -1331 1297 -1286 
Q 1028 -1241 775 -1147 
L 775 -588 
Q 1028 -725 1275 -790 
Q 1522 -856 1778 -856 
Q 2344 -856 2625 -561 
Q 2906 -266 2906 331 
L 2906 616 
Q 2728 306 2450 153 
Q 2172 0 1784 0 
Q 1141 0 747 490 
Q 353 981 353 1791 
Q 353 2603 747 3093 
Q 1141 3584 1784 3584 
Q 2172 3584 2450 3431 
Q 2728 3278 2906 2969 
L 2906 3500 
L 3481 3500 
L 3481 434 
z
" transform="scale(0.015625)"/>
      <path id="DejaVuSans-65" d="M 3597 1894 
L 3597 1613 
L 953 1613 
Q 991 1019 1311 708 
Q 1631 397 2203 397 
Q 2534 397 2845 478 
Q 3156 559 3463 722 
L 3463 178 
Q 3153 47 2828 -22 
Q 2503 -91 2169 -91 
Q 1331 -91 842 396 
Q 353 884 353 1716 
Q 353 2575 817 3079 
Q 1281 3584 2069 3584 
Q 2775 3584 3186 3129 
Q 3597 2675 3597 1894 
z
M 3022 2063 
Q 3016 2534 2758 2815 
Q 2500 3097 2075 3097 
Q 1594 3097 1305 2825 
Q 1016 2553 972 2059 
L 3022 2063 
z
" transform="scale(0.015625)"/>
      <path id="DejaVuSans-74" d="M 1172 4494 
L 1172 3500 
L 2356 3500 
L 2356 3053 
L 1172 3053 
L 1172 1153 
Q 1172 725 1289 603 
Q 1406 481 1766 481 
L 2356 481 
L 2356 0 
L 1766 0 
Q 1100 0 847 248 
Q 594 497 594 1153 
L 594 3053 
L 172 3053 
L 172 3500 
L 594 3500 
L 594 4494 
L 1172 4494 
z
" transform="scale(0.015625)"/>
      <path id="DejaVuSans-5f" d="M 3263 -1063 
L 3263 -1509 
L -63 -1509 
L -63 -1063 
L 3263 -1063 
z
" transform="scale(0.015625)"/>
      <path id="DejaVuSans-73" d="M 2834 3397 
L 2834 2853 
Q 2591 2978 2328 3040 
Q 2066 3103 1784 3103 
Q 1356 3103 1142 2972 
Q 928 2841 928 2578 
Q 928 2378 1081 2264 
Q 1234 2150 1697 2047 
L 1894 2003 
Q 2506 1872 2764 1633 
Q 3022 1394 3022 966 
Q 3022 478 2636 193 
Q 2250 -91 1575 -91 
Q 1294 -91 989 -36 
Q 684 19 347 128 
L 347 722 
Q 666 556 975 473 
Q 1284 391 1588 391 
Q 1994 391 2212 530 
Q 2431 669 2431 922 
Q 2431 1156 2273 1281 
Q 2116 1406 1581 1522 
L 1381 1569 
Q 847 1681 609 1914 
Q 372 2147 372 2553 
Q 372 3047 722 3315 
Q 1072 3584 1716 3584 
Q 2034 3584 2315 3537 
Q 2597 3491 2834 3397 
z
" transform="scale(0.015625)"/>
      <path id="DejaVuSans-75" d="M 544 1381 
L 544 3500 
L 1119 3500 
L 1119 1403 
Q 1119 906 1312 657 
Q 1506 409 1894 409 
Q 2359 409 2629 706 
Q 2900 1003 2900 1516 
L 2900 3500 
L 3475 3500 
L 3475 0 
L 2900 0 
L 2900 538 
Q 2691 219 2414 64 
Q 2138 -91 1772 -91 
Q 1169 -91 856 284 
Q 544 659 544 1381 
z
M 1991 3584 
L 1991 3584 
z
" transform="scale(0.015625)"/>
      <path id="DejaVuSans-62" d="M 3116 1747 
Q 3116 2381 2855 2742 
Q 2594 3103 2138 3103 
Q 1681 3103 1420 2742 
Q 1159 2381 1159 1747 
Q 1159 1113 1420 752 
Q 1681 391 2138 391 
Q 2594 391 2855 752 
Q 3116 1113 3116 1747 
z
M 1159 2969 
Q 1341 3281 1617 3432 
Q 1894 3584 2278 3584 
Q 2916 3584 3314 3078 
Q 3713 2572 3713 1747 
Q 3713 922 3314 415 
Q 2916 -91 2278 -91 
Q 1894 -91 1617 61 
Q 1341 213 1159 525 
L 1159 0 
L 581 0 
L 581 4863 
L 1159 4863 
L 1159 2969 
z
" transform="scale(0.015625)"/>
      <path id="DejaVuSans-63" d="M 3122 3366 
L 3122 2828 
Q 2878 2963 2633 3030 
Q 2388 3097 2138 3097 
Q 1578 3097 1268 2742 
Q 959 2388 959 1747 
Q 959 1106 1268 751 
Q 1578 397 2138 397 
Q 2388 397 2633 464 
Q 2878 531 3122 666 
L 3122 134 
Q 2881 22 2623 -34 
Q 2366 -91 2075 -91 
Q 1284 -91 818 406 
Q 353 903 353 1747 
Q 353 2603 823 3093 
Q 1294 3584 2113 3584 
Q 2378 3584 2631 3529 
Q 2884 3475 3122 3366 
z
" transform="scale(0.015625)"/>
      <path id="DejaVuSans-72" d="M 2631 2963 
Q 2534 3019 2420 3045 
Q 2306 3072 2169 3072 
Q 1681 3072 1420 2755 
Q 1159 2438 1159 1844 
L 1159 0 
L 581 0 
L 581 3500 
L 1159 3500 
L 1159 2956 
Q 1341 3275 1631 3429 
Q 1922 3584 2338 3584 
Q 2397 3584 2469 3576 
Q 2541 3569 2628 3553 
L 2631 2963 
z
" transform="scale(0.015625)"/>
      <path id="DejaVuSans-69" d="M 603 3500 
L 1178 3500 
L 1178 0 
L 603 0 
L 603 3500 
z
M 603 4863 
L 1178 4863 
L 1178 4134 
L 603 4134 
L 603 4863 
z
" transform="scale(0.015625)"/>
      <path id="DejaVuSans-20" transform="scale(0.015625)"/>
      <path id="DejaVuSans-68" d="M 3513 2113 
L 3513 0 
L 2938 0 
L 2938 2094 
Q 2938 2591 2744 2837 
Q 2550 3084 2163 3084 
Q 1697 3084 1428 2787 
Q 1159 2491 1159 1978 
L 1159 0 
L 581 0 
L 581 4863 
L 1159 4863 
L 1159 2956 
Q 1366 3272 1645 3428 
Q 1925 3584 2291 3584 
Q 2894 3584 3203 3211 
Q 3513 2838 3513 2113 
z
" transform="scale(0.015625)"/>
      <path id="DejaVuSans-6f" d="M 1959 3097 
Q 1497 3097 1228 2736 
Q 959 2375 959 1747 
Q 959 1119 1226 758 
Q 1494 397 1959 397 
Q 2419 397 2687 759 
Q 2956 1122 2956 1747 
Q 2956 2369 2687 2733 
Q 2419 3097 1959 3097 
z
M 1959 3584 
Q 2709 3584 3137 3096 
Q 3566 2609 3566 1747 
Q 3566 888 3137 398 
Q 2709 -91 1959 -91 
Q 1206 -91 779 398 
Q 353 888 353 1747 
Q 353 2609 779 3096 
Q 1206 3584 1959 3584 
z
" transform="scale(0.015625)"/>
      <path id="DejaVuSans-79" d="M 2059 -325 
Q 1816 -950 1584 -1140 
Q 1353 -1331 966 -1331 
L 506 -1331 
L 506 -850 
L 844 -850 
Q 1081 -850 1212 -737 
Q 1344 -625 1503 -206 
L 1606 56 
L 191 3500 
L 800 3500 
L 1894 763 
L 2988 3500 
L 3597 3500 
L 2059 -325 
z
" transform="scale(0.015625)"/>
     </defs>
     <use xlink:href="#DejaVuSans-67"/>
     <use xlink:href="#DejaVuSans-65" transform="translate(63.476562 0)"/>
     <use xlink:href="#DejaVuSans-74" transform="translate(125 0)"/>
     <use xlink:href="#DejaVuSans-5f" transform="translate(164.208984 0)"/>
     <use xlink:href="#DejaVuSans-73" transform="translate(214.208984 0)"/>
     <use xlink:href="#DejaVuSans-75" transform="translate(266.308594 0)"/>
     <use xlink:href="#DejaVuSans-62" transform="translate(329.6875 0)"/>
     <use xlink:href="#DejaVuSans-73" transform="translate(393.164062 0)"/>
     <use xlink:href="#DejaVuSans-63" transform="translate(445.263672 0)"/>
     <use xlink:href="#DejaVuSans-72" transform="translate(500.244141 0)"/>
     <use xlink:href="#DejaVuSans-69" transform="translate(541.357422 0)"/>
     <use xlink:href="#DejaVuSans-62" transform="translate(569.140625 0)"/>
     <use xlink:href="#DejaVuSans-65" transform="translate(632.617188 0)"/>
     <use xlink:href="#DejaVuSans-20" transform="translate(694.140625 0)"/>
     <use xlink:href="#DejaVuSans-68" transform="translate(725.927734 0)"/>
     <use xlink:href="#DejaVuSans-69" transform="translate(789.306641 0)"/>
     <use xlink:href="#DejaVuSans-73" transform="translate(817.089844 0)"/>
     <use xlink:href="#DejaVuSans-74" transform="translate(869.189453 0)"/>
     <use xlink:href="#DejaVuSans-6f" transform="translate(908.398438 0)"/>
     <use xlink:href="#DejaVuSans-72" transform="translate(969.580078 0)"/>
     <use xlink:href="#DejaVuSans-79" transform="translate(1010.693359 0)"/>
    </g>
   </g>
   <g id="legend_1">
    <g id="line2d_39">
     <path d="M 815.08 328.498438 
L 825.08 328.498438 
L 835.08 328.498438 
" style="fill: none; stroke: #1f77b4; stroke-width: 1.5; stroke-linecap: square"/>
    </g>
    <g id="text_20">
     <!-- star -->
     <g style="fill: #a9a9a9" transform="translate(843.08 331.998438) scale(0.1 -0.1)">
      <defs>
       <path id="DejaVuSans-61" d="M 2194 1759 
Q 1497 1759 1228 1600 
Q 959 1441 959 1056 
Q 959 750 1161 570 
Q 1363 391 1709 391 
Q 2188 391 2477 730 
Q 2766 1069 2766 1631 
L 2766 1759 
L 2194 1759 
z
M 3341 1997 
L 3341 0 
L 2766 0 
L 2766 531 
Q 2569 213 2275 61 
Q 1981 -91 1556 -91 
Q 1019 -91 701 211 
Q 384 513 384 1019 
Q 384 1609 779 1909 
Q 1175 2209 1959 2209 
L 2766 2209 
L 2766 2266 
Q 2766 2663 2505 2880 
Q 2244 3097 1772 3097 
Q 1472 3097 1187 3025 
Q 903 2953 641 2809 
L 641 3341 
Q 956 3463 1253 3523 
Q 1550 3584 1831 3584 
Q 2591 3584 2966 3190 
Q 3341 2797 3341 1997 
z
" transform="scale(0.015625)"/>
      </defs>
      <use xlink:href="#DejaVuSans-73"/>
      <use xlink:href="#DejaVuSans-74" transform="translate(52.099609 0)"/>
      <use xlink:href="#DejaVuSans-61" transform="translate(91.308594 0)"/>
      <use xlink:href="#DejaVuSans-72" transform="translate(152.587891 0)"/>
     </g>
    </g>
    <g id="line2d_40">
     <path d="M 815.08 343.176562 
L 825.08 343.176562 
L 835.08 343.176562 
" style="fill: none; stroke: #ff7f0e; stroke-width: 1.5; stroke-linecap: square"/>
    </g>
    <g id="text_21">
     <!-- fork -->
     <g style="fill: #a9a9a9" transform="translate(843.08 346.676562) scale(0.1 -0.1)">
      <defs>
       <path id="DejaVuSans-66" d="M 2375 4863 
L 2375 4384 
L 1825 4384 
Q 1516 4384 1395 4259 
Q 1275 4134 1275 3809 
L 1275 3500 
L 2222 3500 
L 2222 3053 
L 1275 3053 
L 1275 0 
L 697 0 
L 697 3053 
L 147 3053 
L 147 3500 
L 697 3500 
L 697 3744 
Q 697 4328 969 4595 
Q 1241 4863 1831 4863 
L 2375 4863 
z
" transform="scale(0.015625)"/>
       <path id="DejaVuSans-6b" d="M 581 4863 
L 1159 4863 
L 1159 1991 
L 2875 3500 
L 3609 3500 
L 1753 1863 
L 3688 0 
L 2938 0 
L 1159 1709 
L 1159 0 
L 581 0 
L 581 4863 
z
" transform="scale(0.015625)"/>
      </defs>
      <use xlink:href="#DejaVuSans-66"/>
      <use xlink:href="#DejaVuSans-6f" transform="translate(35.205078 0)"/>
      <use xlink:href="#DejaVuSans-72" transform="translate(96.386719 0)"/>
      <use xlink:href="#DejaVuSans-6b" transform="translate(137.5 0)"/>
     </g>
    </g>
   </g>
  </g>
 </g>
 <defs>
  <clipPath id="p92e942b07f">
   <rect x="108" y="43.2" width="669.6" height="277.2"/>
  </clipPath>
 </defs>
</svg>
