<?xml version="1.0" encoding="utf-8" standalone="no"?>
<!DOCTYPE svg PUBLIC "-//W3C//DTD SVG 1.1//EN"
  "http://www.w3.org/Graphics/SVG/1.1/DTD/svg11.dtd">
<svg xmlns:xlink="http://www.w3.org/1999/xlink" width="864pt" height="360pt" viewBox="0 0 864 360" xmlns="http://www.w3.org/2000/svg" version="1.1">
 <metadata>
  <rdf:RDF xmlns:dc="http://purl.org/dc/elements/1.1/" xmlns:cc="http://creativecommons.org/ns#" xmlns:rdf="http://www.w3.org/1999/02/22-rdf-syntax-ns#">
   <cc:Work>
    <dc:type rdf:resource="http://purl.org/dc/dcmitype/StillImage"/>
    <dc:date>2024-12-26T08:13:21.124172</dc:date>
    <dc:format>image/svg+xml</dc:format>
    <dc:creator>
     <cc:Agent>
      <dc:title>Matplotlib v3.10.0, https://matplotlib.org/</dc:title>
     </cc:Agent>
    </dc:creator>
   </cc:Work>
  </rdf:RDF>
 </metadata>
 <defs>
  <style type="text/css">*{stroke-linejoin: round; stroke-linecap: butt}</style>
 </defs>
 <g id="figure_1">
  <g id="patch_1">
   <path d="M 0 360 
L 864 360 
L 864 0 
L 0 0 
L 0 360 
z
" style="fill: none; opacity: 0"/>
  </g>
  <g id="axes_1">
   <g id="patch_2">
    <path d="M 108 320.4 
L 777.6 320.4 
L 777.6 43.2 
L 108 43.2 
L 108 320.4 
z
" style="fill: none; opacity: 0"/>
   </g>
   <g id="matplotlib.axis_1">
    <g id="xtick_1">
     <g id="line2d_1">
      <path d="M 127.244735 320.4 
L 127.244735 43.2 
" clip-path="url(#p48ace990c0)" style="fill: none; stroke-dasharray: 5.12,1.28,0.8,1.28; stroke-dashoffset: 0; stroke: #b0b0b0; stroke-width: 0.8"/>
     </g>
     <g id="line2d_2">
      <defs>
       <path id="mc7c1c32305" d="M 0 0 
L 0 3.5 
" style="stroke: #a9a9a9; stroke-width: 0.8"/>
      </defs>
      <g>
       <use xlink:href="#mc7c1c32305" x="127.244735" y="320.4" style="fill: #a9a9a9; stroke: #a9a9a9; stroke-width: 0.8"/>
      </g>
     </g>
     <g id="text_1">
      <!-- 2021-07 -->
      <g style="fill: #a9a9a9" transform="translate(106.353329 334.998438) scale(0.1 -0.1)">
       <defs>
        <path id="DejaVuSans-32" d="M 1228 531 
L 3431 531 
L 3431 0 
L 469 0 
L 469 531 
Q 828 903 1448 1529 
Q 2069 2156 2228 2338 
Q 2531 2678 2651 2914 
Q 2772 3150 2772 3378 
Q 2772 3750 2511 3984 
Q 2250 4219 1831 4219 
Q 1534 4219 1204 4116 
Q 875 4013 500 3803 
L 500 4441 
Q 881 4594 1212 4672 
Q 1544 4750 1819 4750 
Q 2544 4750 2975 4387 
Q 3406 4025 3406 3419 
Q 3406 3131 3298 2873 
Q 3191 2616 2906 2266 
Q 2828 2175 2409 1742 
Q 1991 1309 1228 531 
z
" transform="scale(0.015625)"/>
        <path id="DejaVuSans-30" d="M 2034 4250 
Q 1547 4250 1301 3770 
Q 1056 3291 1056 2328 
Q 1056 1369 1301 889 
Q 1547 409 2034 409 
Q 2525 409 2770 889 
Q 3016 1369 3016 2328 
Q 3016 3291 2770 3770 
Q 2525 4250 2034 4250 
z
M 2034 4750 
Q 2819 4750 3233 4129 
Q 3647 3509 3647 2328 
Q 3647 1150 3233 529 
Q 2819 -91 2034 -91 
Q 1250 -91 836 529 
Q 422 1150 422 2328 
Q 422 3509 836 4129 
Q 1250 4750 2034 4750 
z
" transform="scale(0.015625)"/>
        <path id="DejaVuSans-31" d="M 794 531 
L 1825 531 
L 1825 4091 
L 703 3866 
L 703 4441 
L 1819 4666 
L 2450 4666 
L 2450 531 
L 3481 531 
L 3481 0 
L 794 0 
L 794 531 
z
" transform="scale(0.015625)"/>
        <path id="DejaVuSans-2d" d="M 313 2009 
L 1997 2009 
L 1997 1497 
L 313 1497 
L 313 2009 
z
" transform="scale(0.015625)"/>
        <path id="DejaVuSans-37" d="M 525 4666 
L 3525 4666 
L 3525 4397 
L 1831 0 
L 1172 0 
L 2766 4134 
L 525 4134 
L 525 4666 
z
" transform="scale(0.015625)"/>
       </defs>
       <use xlink:href="#DejaVuSans-32"/>
       <use xlink:href="#DejaVuSans-30" transform="translate(63.623047 0)"/>
       <use xlink:href="#DejaVuSans-32" transform="translate(127.246094 0)"/>
       <use xlink:href="#DejaVuSans-31" transform="translate(190.869141 0)"/>
       <use xlink:href="#DejaVuSans-2d" transform="translate(254.492188 0)"/>
       <use xlink:href="#DejaVuSans-30" transform="translate(290.576172 0)"/>
       <use xlink:href="#DejaVuSans-37" transform="translate(354.199219 0)"/>
      </g>
     </g>
    </g>
    <g id="xtick_2">
     <g id="line2d_3">
      <path d="M 216.777763 320.4 
L 216.777763 43.2 
" clip-path="url(#p48ace990c0)" style="fill: none; stroke-dasharray: 5.12,1.28,0.8,1.28; stroke-dashoffset: 0; stroke: #b0b0b0; stroke-width: 0.8"/>
     </g>
     <g id="line2d_4">
      <g>
       <use xlink:href="#mc7c1c32305" x="216.777763" y="320.4" style="fill: #a9a9a9; stroke: #a9a9a9; stroke-width: 0.8"/>
      </g>
     </g>
     <g id="text_2">
      <!-- 2022-01 -->
      <g style="fill: #a9a9a9" transform="translate(195.886357 334.998438) scale(0.1 -0.1)">
       <use xlink:href="#DejaVuSans-32"/>
       <use xlink:href="#DejaVuSans-30" transform="translate(63.623047 0)"/>
       <use xlink:href="#DejaVuSans-32" transform="translate(127.246094 0)"/>
       <use xlink:href="#DejaVuSans-32" transform="translate(190.869141 0)"/>
       <use xlink:href="#DejaVuSans-2d" transform="translate(254.492188 0)"/>
       <use xlink:href="#DejaVuSans-30" transform="translate(290.576172 0)"/>
       <use xlink:href="#DejaVuSans-31" transform="translate(354.199219 0)"/>
      </g>
     </g>
    </g>
    <g id="xtick_3">
     <g id="line2d_5">
      <path d="M 304.851014 320.4 
L 304.851014 43.2 
" clip-path="url(#p48ace990c0)" style="fill: none; stroke-dasharray: 5.12,1.28,0.8,1.28; stroke-dashoffset: 0; stroke: #b0b0b0; stroke-width: 0.8"/>
     </g>
     <g id="line2d_6">
      <g>
       <use xlink:href="#mc7c1c32305" x="304.851014" y="320.4" style="fill: #a9a9a9; stroke: #a9a9a9; stroke-width: 0.8"/>
      </g>
     </g>
     <g id="text_3">
      <!-- 2022-07 -->
      <g style="fill: #a9a9a9" transform="translate(283.959607 334.998438) scale(0.1 -0.1)">
       <use xlink:href="#DejaVuSans-32"/>
       <use xlink:href="#DejaVuSans-30" transform="translate(63.623047 0)"/>
       <use xlink:href="#DejaVuSans-32" transform="translate(127.246094 0)"/>
       <use xlink:href="#DejaVuSans-32" transform="translate(190.869141 0)"/>
       <use xlink:href="#DejaVuSans-2d" transform="translate(254.492188 0)"/>
       <use xlink:href="#DejaVuSans-30" transform="translate(290.576172 0)"/>
       <use xlink:href="#DejaVuSans-37" transform="translate(354.199219 0)"/>
      </g>
     </g>
    </g>
    <g id="xtick_4">
     <g id="line2d_7">
      <path d="M 394.384042 320.4 
L 394.384042 43.2 
" clip-path="url(#p48ace990c0)" style="fill: none; stroke-dasharray: 5.12,1.28,0.8,1.28; stroke-dashoffset: 0; stroke: #b0b0b0; stroke-width: 0.8"/>
     </g>
     <g id="line2d_8">
      <g>
       <use xlink:href="#mc7c1c32305" x="394.384042" y="320.4" style="fill: #a9a9a9; stroke: #a9a9a9; stroke-width: 0.8"/>
      </g>
     </g>
     <g id="text_4">
      <!-- 2023-01 -->
      <g style="fill: #a9a9a9" transform="translate(373.492636 334.998438) scale(0.1 -0.1)">
       <defs>
        <path id="DejaVuSans-33" d="M 2597 2516 
Q 3050 2419 3304 2112 
Q 3559 1806 3559 1356 
Q 3559 666 3084 287 
Q 2609 -91 1734 -91 
Q 1441 -91 1130 -33 
Q 819 25 488 141 
L 488 750 
Q 750 597 1062 519 
Q 1375 441 1716 441 
Q 2309 441 2620 675 
Q 2931 909 2931 1356 
Q 2931 1769 2642 2001 
Q 2353 2234 1838 2234 
L 1294 2234 
L 1294 2753 
L 1863 2753 
Q 2328 2753 2575 2939 
Q 2822 3125 2822 3475 
Q 2822 3834 2567 4026 
Q 2313 4219 1838 4219 
Q 1578 4219 1281 4162 
Q 984 4106 628 3988 
L 628 4550 
Q 988 4650 1302 4700 
Q 1616 4750 1894 4750 
Q 2613 4750 3031 4423 
Q 3450 4097 3450 3541 
Q 3450 3153 3228 2886 
Q 3006 2619 2597 2516 
z
" transform="scale(0.015625)"/>
       </defs>
       <use xlink:href="#DejaVuSans-32"/>
       <use xlink:href="#DejaVuSans-30" transform="translate(63.623047 0)"/>
       <use xlink:href="#DejaVuSans-32" transform="translate(127.246094 0)"/>
       <use xlink:href="#DejaVuSans-33" transform="translate(190.869141 0)"/>
       <use xlink:href="#DejaVuSans-2d" transform="translate(254.492188 0)"/>
       <use xlink:href="#DejaVuSans-30" transform="translate(290.576172 0)"/>
       <use xlink:href="#DejaVuSans-31" transform="translate(354.199219 0)"/>
      </g>
     </g>
    </g>
    <g id="xtick_5">
     <g id="line2d_9">
      <path d="M 482.457292 320.4 
L 482.457292 43.2 
" clip-path="url(#p48ace990c0)" style="fill: none; stroke-dasharray: 5.12,1.28,0.8,1.28; stroke-dashoffset: 0; stroke: #b0b0b0; stroke-width: 0.8"/>
     </g>
     <g id="line2d_10">
      <g>
       <use xlink:href="#mc7c1c32305" x="482.457292" y="320.4" style="fill: #a9a9a9; stroke: #a9a9a9; stroke-width: 0.8"/>
      </g>
     </g>
     <g id="text_5">
      <!-- 2023-07 -->
      <g style="fill: #a9a9a9" transform="translate(461.565886 334.998438) scale(0.1 -0.1)">
       <use xlink:href="#DejaVuSans-32"/>
       <use xlink:href="#DejaVuSans-30" transform="translate(63.623047 0)"/>
       <use xlink:href="#DejaVuSans-32" transform="translate(127.246094 0)"/>
       <use xlink:href="#DejaVuSans-33" transform="translate(190.869141 0)"/>
       <use xlink:href="#DejaVuSans-2d" transform="translate(254.492188 0)"/>
       <use xlink:href="#DejaVuSans-30" transform="translate(290.576172 0)"/>
       <use xlink:href="#DejaVuSans-37" transform="translate(354.199219 0)"/>
      </g>
     </g>
    </g>
    <g id="xtick_6">
     <g id="line2d_11">
      <path d="M 571.99032 320.4 
L 571.99032 43.2 
" clip-path="url(#p48ace990c0)" style="fill: none; stroke-dasharray: 5.12,1.28,0.8,1.28; stroke-dashoffset: 0; stroke: #b0b0b0; stroke-width: 0.8"/>
     </g>
     <g id="line2d_12">
      <g>
       <use xlink:href="#mc7c1c32305" x="571.99032" y="320.4" style="fill: #a9a9a9; stroke: #a9a9a9; stroke-width: 0.8"/>
      </g>
     </g>
     <g id="text_6">
      <!-- 2024-01 -->
      <g style="fill: #a9a9a9" transform="translate(551.098914 334.998438) scale(0.1 -0.1)">
       <defs>
        <path id="DejaVuSans-34" d="M 2419 4116 
L 825 1625 
L 2419 1625 
L 2419 4116 
z
M 2253 4666 
L 3047 4666 
L 3047 1625 
L 3713 1625 
L 3713 1100 
L 3047 1100 
L 3047 0 
L 2419 0 
L 2419 1100 
L 313 1100 
L 313 1709 
L 2253 4666 
z
" transform="scale(0.015625)"/>
       </defs>
       <use xlink:href="#DejaVuSans-32"/>
       <use xlink:href="#DejaVuSans-30" transform="translate(63.623047 0)"/>
       <use xlink:href="#DejaVuSans-32" transform="translate(127.246094 0)"/>
       <use xlink:href="#DejaVuSans-34" transform="translate(190.869141 0)"/>
       <use xlink:href="#DejaVuSans-2d" transform="translate(254.492188 0)"/>
       <use xlink:href="#DejaVuSans-30" transform="translate(290.576172 0)"/>
       <use xlink:href="#DejaVuSans-31" transform="translate(354.199219 0)"/>
      </g>
     </g>
    </g>
    <g id="xtick_7">
     <g id="line2d_13">
      <path d="M 660.550164 320.4 
L 660.550164 43.2 
" clip-path="url(#p48ace990c0)" style="fill: none; stroke-dasharray: 5.12,1.28,0.8,1.28; stroke-dashoffset: 0; stroke: #b0b0b0; stroke-width: 0.8"/>
     </g>
     <g id="line2d_14">
      <g>
       <use xlink:href="#mc7c1c32305" x="660.550164" y="320.4" style="fill: #a9a9a9; stroke: #a9a9a9; stroke-width: 0.8"/>
      </g>
     </g>
     <g id="text_7">
      <!-- 2024-07 -->
      <g style="fill: #a9a9a9" transform="translate(639.658757 334.998438) scale(0.1 -0.1)">
       <use xlink:href="#DejaVuSans-32"/>
       <use xlink:href="#DejaVuSans-30" transform="translate(63.623047 0)"/>
       <use xlink:href="#DejaVuSans-32" transform="translate(127.246094 0)"/>
       <use xlink:href="#DejaVuSans-34" transform="translate(190.869141 0)"/>
       <use xlink:href="#DejaVuSans-2d" transform="translate(254.492188 0)"/>
       <use xlink:href="#DejaVuSans-30" transform="translate(290.576172 0)"/>
       <use xlink:href="#DejaVuSans-37" transform="translate(354.199219 0)"/>
      </g>
     </g>
    </g>
    <g id="xtick_8">
     <g id="line2d_15">
      <path d="M 750.083192 320.4 
L 750.083192 43.2 
" clip-path="url(#p48ace990c0)" style="fill: none; stroke-dasharray: 5.12,1.28,0.8,1.28; stroke-dashoffset: 0; stroke: #b0b0b0; stroke-width: 0.8"/>
     </g>
     <g id="line2d_16">
      <g>
       <use xlink:href="#mc7c1c32305" x="750.083192" y="320.4" style="fill: #a9a9a9; stroke: #a9a9a9; stroke-width: 0.8"/>
      </g>
     </g>
     <g id="text_8">
      <!-- 2025-01 -->
      <g style="fill: #a9a9a9" transform="translate(729.191785 334.998438) scale(0.1 -0.1)">
       <defs>
        <path id="DejaVuSans-35" d="M 691 4666 
L 3169 4666 
L 3169 4134 
L 1269 4134 
L 1269 2991 
Q 1406 3038 1543 3061 
Q 1681 3084 1819 3084 
Q 2600 3084 3056 2656 
Q 3513 2228 3513 1497 
Q 3513 744 3044 326 
Q 2575 -91 1722 -91 
Q 1428 -91 1123 -41 
Q 819 9 494 109 
L 494 744 
Q 775 591 1075 516 
Q 1375 441 1709 441 
Q 2250 441 2565 725 
Q 2881 1009 2881 1497 
Q 2881 1984 2565 2268 
Q 2250 2553 1709 2553 
Q 1456 2553 1204 2497 
Q 953 2441 691 2322 
L 691 4666 
z
" transform="scale(0.015625)"/>
       </defs>
       <use xlink:href="#DejaVuSans-32"/>
       <use xlink:href="#DejaVuSans-30" transform="translate(63.623047 0)"/>
       <use xlink:href="#DejaVuSans-32" transform="translate(127.246094 0)"/>
       <use xlink:href="#DejaVuSans-35" transform="translate(190.869141 0)"/>
       <use xlink:href="#DejaVuSans-2d" transform="translate(254.492188 0)"/>
       <use xlink:href="#DejaVuSans-30" transform="translate(290.576172 0)"/>
       <use xlink:href="#DejaVuSans-31" transform="translate(354.199219 0)"/>
      </g>
     </g>
    </g>
   </g>
   <g id="matplotlib.axis_2">
    <g id="ytick_1">
     <g id="line2d_17">
      <path d="M 108 307.835309 
L 777.6 307.835309 
" clip-path="url(#p48ace990c0)" style="fill: none; stroke-dasharray: 5.12,1.28,0.8,1.28; stroke-dashoffset: 0; stroke: #b0b0b0; stroke-width: 0.8"/>
     </g>
     <g id="line2d_18">
      <defs>
       <path id="m334b9bc6a2" d="M 0 0 
L -3.5 0 
" style="stroke: #a9a9a9; stroke-width: 0.8"/>
      </defs>
      <g>
       <use xlink:href="#m334b9bc6a2" x="108" y="307.835309" style="fill: #a9a9a9; stroke: #a9a9a9; stroke-width: 0.8"/>
      </g>
     </g>
     <g id="text_9">
      <!-- 0 -->
      <g style="fill: #a9a9a9" transform="translate(94.6375 311.634528) scale(0.1 -0.1)">
       <use xlink:href="#DejaVuSans-30"/>
      </g>
     </g>
    </g>
    <g id="ytick_2">
     <g id="line2d_19">
      <path d="M 108 279.588146 
L 777.6 279.588146 
" clip-path="url(#p48ace990c0)" style="fill: none; stroke-dasharray: 5.12,1.28,0.8,1.28; stroke-dashoffset: 0; stroke: #b0b0b0; stroke-width: 0.8"/>
     </g>
     <g id="line2d_20">
      <g>
       <use xlink:href="#m334b9bc6a2" x="108" y="279.588146" style="fill: #a9a9a9; stroke: #a9a9a9; stroke-width: 0.8"/>
      </g>
     </g>
     <g id="text_10">
      <!-- 800 -->
      <g style="fill: #a9a9a9" transform="translate(81.9125 283.387365) scale(0.1 -0.1)">
       <defs>
        <path id="DejaVuSans-38" d="M 2034 2216 
Q 1584 2216 1326 1975 
Q 1069 1734 1069 1313 
Q 1069 891 1326 650 
Q 1584 409 2034 409 
Q 2484 409 2743 651 
Q 3003 894 3003 1313 
Q 3003 1734 2745 1975 
Q 2488 2216 2034 2216 
z
M 1403 2484 
Q 997 2584 770 2862 
Q 544 3141 544 3541 
Q 544 4100 942 4425 
Q 1341 4750 2034 4750 
Q 2731 4750 3128 4425 
Q 3525 4100 3525 3541 
Q 3525 3141 3298 2862 
Q 3072 2584 2669 2484 
Q 3125 2378 3379 2068 
Q 3634 1759 3634 1313 
Q 3634 634 3220 271 
Q 2806 -91 2034 -91 
Q 1263 -91 848 271 
Q 434 634 434 1313 
Q 434 1759 690 2068 
Q 947 2378 1403 2484 
z
M 1172 3481 
Q 1172 3119 1398 2916 
Q 1625 2713 2034 2713 
Q 2441 2713 2670 2916 
Q 2900 3119 2900 3481 
Q 2900 3844 2670 4047 
Q 2441 4250 2034 4250 
Q 1625 4250 1398 4047 
Q 1172 3844 1172 3481 
z
" transform="scale(0.015625)"/>
       </defs>
       <use xlink:href="#DejaVuSans-38"/>
       <use xlink:href="#DejaVuSans-30" transform="translate(63.623047 0)"/>
       <use xlink:href="#DejaVuSans-30" transform="translate(127.246094 0)"/>
      </g>
     </g>
    </g>
    <g id="ytick_3">
     <g id="line2d_21">
      <path d="M 108 251.340984 
L 777.6 251.340984 
" clip-path="url(#p48ace990c0)" style="fill: none; stroke-dasharray: 5.12,1.28,0.8,1.28; stroke-dashoffset: 0; stroke: #b0b0b0; stroke-width: 0.8"/>
     </g>
     <g id="line2d_22">
      <g>
       <use xlink:href="#m334b9bc6a2" x="108" y="251.340984" style="fill: #a9a9a9; stroke: #a9a9a9; stroke-width: 0.8"/>
      </g>
     </g>
     <g id="text_11">
      <!-- 1600 -->
      <g style="fill: #a9a9a9" transform="translate(75.55 255.140202) scale(0.1 -0.1)">
       <defs>
        <path id="DejaVuSans-36" d="M 2113 2584 
Q 1688 2584 1439 2293 
Q 1191 2003 1191 1497 
Q 1191 994 1439 701 
Q 1688 409 2113 409 
Q 2538 409 2786 701 
Q 3034 994 3034 1497 
Q 3034 2003 2786 2293 
Q 2538 2584 2113 2584 
z
M 3366 4563 
L 3366 3988 
Q 3128 4100 2886 4159 
Q 2644 4219 2406 4219 
Q 1781 4219 1451 3797 
Q 1122 3375 1075 2522 
Q 1259 2794 1537 2939 
Q 1816 3084 2150 3084 
Q 2853 3084 3261 2657 
Q 3669 2231 3669 1497 
Q 3669 778 3244 343 
Q 2819 -91 2113 -91 
Q 1303 -91 875 529 
Q 447 1150 447 2328 
Q 447 3434 972 4092 
Q 1497 4750 2381 4750 
Q 2619 4750 2861 4703 
Q 3103 4656 3366 4563 
z
" transform="scale(0.015625)"/>
       </defs>
       <use xlink:href="#DejaVuSans-31"/>
       <use xlink:href="#DejaVuSans-36" transform="translate(63.623047 0)"/>
       <use xlink:href="#DejaVuSans-30" transform="translate(127.246094 0)"/>
       <use xlink:href="#DejaVuSans-30" transform="translate(190.869141 0)"/>
      </g>
     </g>
    </g>
    <g id="ytick_4">
     <g id="line2d_23">
      <path d="M 108 223.093821 
L 777.6 223.093821 
" clip-path="url(#p48ace990c0)" style="fill: none; stroke-dasharray: 5.12,1.28,0.8,1.28; stroke-dashoffset: 0; stroke: #b0b0b0; stroke-width: 0.8"/>
     </g>
     <g id="line2d_24">
      <g>
       <use xlink:href="#m334b9bc6a2" x="108" y="223.093821" style="fill: #a9a9a9; stroke: #a9a9a9; stroke-width: 0.8"/>
      </g>
     </g>
     <g id="text_12">
      <!-- 2400 -->
      <g style="fill: #a9a9a9" transform="translate(75.55 226.89304) scale(0.1 -0.1)">
       <use xlink:href="#DejaVuSans-32"/>
       <use xlink:href="#DejaVuSans-34" transform="translate(63.623047 0)"/>
       <use xlink:href="#DejaVuSans-30" transform="translate(127.246094 0)"/>
       <use xlink:href="#DejaVuSans-30" transform="translate(190.869141 0)"/>
      </g>
     </g>
    </g>
    <g id="ytick_5">
     <g id="line2d_25">
      <path d="M 108 194.846658 
L 777.6 194.846658 
" clip-path="url(#p48ace990c0)" style="fill: none; stroke-dasharray: 5.12,1.28,0.8,1.28; stroke-dashoffset: 0; stroke: #b0b0b0; stroke-width: 0.8"/>
     </g>
     <g id="line2d_26">
      <g>
       <use xlink:href="#m334b9bc6a2" x="108" y="194.846658" style="fill: #a9a9a9; stroke: #a9a9a9; stroke-width: 0.8"/>
      </g>
     </g>
     <g id="text_13">
      <!-- 3200 -->
      <g style="fill: #a9a9a9" transform="translate(75.55 198.645877) scale(0.1 -0.1)">
       <use xlink:href="#DejaVuSans-33"/>
       <use xlink:href="#DejaVuSans-32" transform="translate(63.623047 0)"/>
       <use xlink:href="#DejaVuSans-30" transform="translate(127.246094 0)"/>
       <use xlink:href="#DejaVuSans-30" transform="translate(190.869141 0)"/>
      </g>
     </g>
    </g>
    <g id="ytick_6">
     <g id="line2d_27">
      <path d="M 108 166.599496 
L 777.6 166.599496 
" clip-path="url(#p48ace990c0)" style="fill: none; stroke-dasharray: 5.12,1.28,0.8,1.28; stroke-dashoffset: 0; stroke: #b0b0b0; stroke-width: 0.8"/>
     </g>
     <g id="line2d_28">
      <g>
       <use xlink:href="#m334b9bc6a2" x="108" y="166.599496" style="fill: #a9a9a9; stroke: #a9a9a9; stroke-width: 0.8"/>
      </g>
     </g>
     <g id="text_14">
      <!-- 4000 -->
      <g style="fill: #a9a9a9" transform="translate(75.55 170.398714) scale(0.1 -0.1)">
       <use xlink:href="#DejaVuSans-34"/>
       <use xlink:href="#DejaVuSans-30" transform="translate(63.623047 0)"/>
       <use xlink:href="#DejaVuSans-30" transform="translate(127.246094 0)"/>
       <use xlink:href="#DejaVuSans-30" transform="translate(190.869141 0)"/>
      </g>
     </g>
    </g>
    <g id="ytick_7">
     <g id="line2d_29">
      <path d="M 108 138.352333 
L 777.6 138.352333 
" clip-path="url(#p48ace990c0)" style="fill: none; stroke-dasharray: 5.12,1.28,0.8,1.28; stroke-dashoffset: 0; stroke: #b0b0b0; stroke-width: 0.8"/>
     </g>
     <g id="line2d_30">
      <g>
       <use xlink:href="#m334b9bc6a2" x="108" y="138.352333" style="fill: #a9a9a9; stroke: #a9a9a9; stroke-width: 0.8"/>
      </g>
     </g>
     <g id="text_15">
      <!-- 4800 -->
      <g style="fill: #a9a9a9" transform="translate(75.55 142.151552) scale(0.1 -0.1)">
       <use xlink:href="#DejaVuSans-34"/>
       <use xlink:href="#DejaVuSans-38" transform="translate(63.623047 0)"/>
       <use xlink:href="#DejaVuSans-30" transform="translate(127.246094 0)"/>
       <use xlink:href="#DejaVuSans-30" transform="translate(190.869141 0)"/>
      </g>
     </g>
    </g>
    <g id="ytick_8">
     <g id="line2d_31">
      <path d="M 108 110.10517 
L 777.6 110.10517 
" clip-path="url(#p48ace990c0)" style="fill: none; stroke-dasharray: 5.12,1.28,0.8,1.28; stroke-dashoffset: 0; stroke: #b0b0b0; stroke-width: 0.8"/>
     </g>
     <g id="line2d_32">
      <g>
       <use xlink:href="#m334b9bc6a2" x="108" y="110.10517" style="fill: #a9a9a9; stroke: #a9a9a9; stroke-width: 0.8"/>
      </g>
     </g>
     <g id="text_16">
      <!-- 5600 -->
      <g style="fill: #a9a9a9" transform="translate(75.55 113.904389) scale(0.1 -0.1)">
       <use xlink:href="#DejaVuSans-35"/>
       <use xlink:href="#DejaVuSans-36" transform="translate(63.623047 0)"/>
       <use xlink:href="#DejaVuSans-30" transform="translate(127.246094 0)"/>
       <use xlink:href="#DejaVuSans-30" transform="translate(190.869141 0)"/>
      </g>
     </g>
    </g>
    <g id="ytick_9">
     <g id="line2d_33">
      <path d="M 108 81.858008 
L 777.6 81.858008 
" clip-path="url(#p48ace990c0)" style="fill: none; stroke-dasharray: 5.12,1.28,0.8,1.28; stroke-dashoffset: 0; stroke: #b0b0b0; stroke-width: 0.8"/>
     </g>
     <g id="line2d_34">
      <g>
       <use xlink:href="#m334b9bc6a2" x="108" y="81.858008" style="fill: #a9a9a9; stroke: #a9a9a9; stroke-width: 0.8"/>
      </g>
     </g>
     <g id="text_17">
      <!-- 6400 -->
      <g style="fill: #a9a9a9" transform="translate(75.55 85.657226) scale(0.1 -0.1)">
       <use xlink:href="#DejaVuSans-36"/>
       <use xlink:href="#DejaVuSans-34" transform="translate(63.623047 0)"/>
       <use xlink:href="#DejaVuSans-30" transform="translate(127.246094 0)"/>
       <use xlink:href="#DejaVuSans-30" transform="translate(190.869141 0)"/>
      </g>
     </g>
    </g>
    <g id="ytick_10">
     <g id="line2d_35">
      <path d="M 108 53.610845 
L 777.6 53.610845 
" clip-path="url(#p48ace990c0)" style="fill: none; stroke-dasharray: 5.12,1.28,0.8,1.28; stroke-dashoffset: 0; stroke: #b0b0b0; stroke-width: 0.8"/>
     </g>
     <g id="line2d_36">
      <g>
       <use xlink:href="#m334b9bc6a2" x="108" y="53.610845" style="fill: #a9a9a9; stroke: #a9a9a9; stroke-width: 0.8"/>
      </g>
     </g>
     <g id="text_18">
      <!-- 7200 -->
      <g style="fill: #a9a9a9" transform="translate(75.55 57.410064) scale(0.1 -0.1)">
       <use xlink:href="#DejaVuSans-37"/>
       <use xlink:href="#DejaVuSans-32" transform="translate(63.623047 0)"/>
       <use xlink:href="#DejaVuSans-30" transform="translate(127.246094 0)"/>
       <use xlink:href="#DejaVuSans-30" transform="translate(190.869141 0)"/>
      </g>
     </g>
    </g>
   </g>
   <g id="line2d_37">
    <path d="M 138.436364 307.729382 
L 141.355919 307.482219 
L 141.842511 307.270366 
L 143.788882 307.023203 
L 145.735252 306.634805 
L 146.708437 306.493569 
L 149.1414 306.281715 
L 150.114585 305.893317 
L 150.601177 305.257755 
L 151.08777 304.904666 
L 151.574362 303.810088 
L 152.060955 303.73947 
L 152.547547 303.351072 
L 153.520733 302.856747 
L 155.467103 301.303153 
L 157.413473 300.349811 
L 158.87325 299.678941 
L 159.359843 298.902144 
L 160.333028 298.195965 
L 160.819621 297.984111 
L 165.685546 297.277932 
L 166.172139 297.066078 
L 169.578286 296.783607 
L 171.524657 296.32459 
L 175.417397 295.794956 
L 175.90399 295.547793 
L 176.390582 295.477175 
L 177.363767 295.159395 
L 180.769915 294.594451 
L 181.7431 294.31198 
L 186.122433 293.570492 
L 187.095618 293.358638 
L 188.068803 293.323329 
L 190.015173 292.864313 
L 190.501766 292.193443 
L 191.961543 291.628499 
L 193.421321 291.240101 
L 193.907914 290.992938 
L 194.881099 290.816393 
L 196.827469 290.25145 
L 197.800654 290.180832 
L 198.773839 289.93367 
L 200.720209 289.439344 
L 201.206802 289.404035 
L 202.179987 288.945019 
L 202.666579 288.874401 
L 203.153172 288.627238 
L 208.50569 287.744515 
L 210.45206 287.179571 
L 210.938653 286.861791 
L 213.371615 286.049685 
L 214.344801 285.378815 
L 215.804578 285.096343 
L 228.455984 281.530139 
L 228.942577 281.530139 
L 229.429169 281.318285 
L 230.402354 281.212358 
L 230.888947 281.035813 
L 232.835317 280.929887 
L 233.808502 280.753342 
L 234.781687 280.259016 
L 236.241465 279.729382 
L 236.728058 279.411602 
L 237.701243 278.987894 
L 238.187835 278.740731 
L 239.16102 278.422951 
L 239.647613 278.281715 
L 240.620798 277.681463 
L 241.10739 277.151828 
L 242.080576 275.668852 
L 242.567168 275.527617 
L 243.053761 275.527617 
L 244.513538 274.680202 
L 245.000131 274.433039 
L 245.486723 274.327112 
L 245.973316 273.868096 
L 246.946501 273.479697 
L 247.919686 273.020681 
L 248.406279 272.420429 
L 248.892871 271.643632 
L 249.379464 271.325851 
L 249.866056 270.478436 
L 250.352649 269.948802 
L 253.272204 268.395208 
L 254.245389 267.618411 
L 254.731982 267.300631 
L 255.218574 266.559142 
L 255.705167 265.464565 
L 256.191759 264.723077 
L 256.678352 264.334678 
L 257.164944 264.122825 
L 260.571092 261.227491 
L 261.544277 260.062295 
L 263.004055 259.038335 
L 264.950425 257.87314 
L 265.92361 257.343506 
L 267.86998 256.319546 
L 270.302943 254.130391 
L 271.276128 253.741992 
L 272.249313 253.071122 
L 272.735906 252.788651 
L 273.222498 252.718033 
L 274.682276 251.905927 
L 275.168869 251.376293 
L 277.601831 250.069861 
L 278.088424 249.893317 
L 279.548201 248.904666 
L 286.84709 246.327112 
L 287.820275 245.444388 
L 288.79346 244.985372 
L 289.766645 244.455738 
L 290.253237 244.173266 
L 291.226422 243.890794 
L 291.713015 243.573014 
L 292.199608 243.431778 
L 293.659385 242.478436 
L 296.092348 241.913493 
L 297.552126 241.066078 
L 299.011903 240.748298 
L 299.498496 240.607062 
L 300.958273 239.512484 
L 302.904644 238.98285 
L 303.391236 238.594451 
L 306.310791 237.605801 
L 307.283976 237.429256 
L 308.257162 237.040858 
L 311.663309 235.805044 
L 312.636494 235.663808 
L 314.096272 235.169483 
L 316.529235 234.004288 
L 318.475605 232.945019 
L 322.368345 231.356116 
L 322.854938 231.285498 
L 323.828123 230.685246 
L 324.314716 230.614628 
L 326.261086 229.802522 
L 328.207456 229.555359 
L 329.180641 229.061034 
L 329.667233 228.637327 
L 330.153826 227.754603 
L 332.100196 227.224968 
L 333.559974 226.48348 
L 334.046566 226.377554 
L 337.939307 224.506179 
L 339.399084 224.223707 
L 340.372269 223.729382 
L 340.858862 223.517528 
L 341.345455 223.44691 
L 343.291825 222.564187 
L 344.751602 221.646154 
L 346.21138 221.363682 
L 348.644343 220.76343 
L 349.130935 220.375032 
L 350.590713 219.845397 
L 352.537083 219.0686 
L 353.023676 218.715511 
L 353.510268 218.538966 
L 354.483453 218.009332 
L 356.916416 217.197226 
L 358.376194 216.03203 
L 358.862786 215.926103 
L 359.835971 215.149306 
L 360.322564 215.078689 
L 360.809156 214.301892 
L 361.295749 214.090038 
L 361.782341 213.701639 
L 362.268934 213.631021 
L 363.242119 213.030769 
L 364.215304 212.712989 
L 364.701897 212.359899 
L 365.188489 212.183354 
L 366.648267 211.159395 
L 368.594637 210.135435 
L 369.08123 210.064817 
L 370.541007 209.323329 
L 371.0276 208.511223 
L 372.000785 207.805044 
L 372.487377 207.699117 
L 373.460562 207.098865 
L 373.947155 206.992938 
L 374.92034 206.498613 
L 376.86671 205.545271 
L 377.353303 205.192182 
L 378.326488 204.23884 
L 379.299673 203.638588 
L 379.786266 203.320807 
L 380.272858 202.791173 
L 382.219228 201.449433 
L 382.705821 200.884489 
L 383.192413 200.496091 
L 384.165598 200.143001 
L 385.138784 199.472131 
L 386.598561 198.730643 
L 387.085154 198.660025 
L 388.544931 197.883228 
L 389.518116 197.282976 
L 394.384042 195.517528 
L 394.870634 195.12913 
L 396.817005 194.387642 
L 397.303597 194.246406 
L 398.276782 193.610845 
L 399.249967 193.187137 
L 400.223152 192.516267 
L 401.196337 190.574275 
L 402.169523 189.444388 
L 403.6293 188.7029 
L 404.602485 188.314502 
L 405.089078 188.243884 
L 405.57567 187.961412 
L 408.008633 187.184615 
L 408.495226 186.972762 
L 409.468411 186.301892 
L 410.928188 185.66633 
L 411.901373 185.136696 
L 412.387966 184.783607 
L 412.874559 184.571753 
L 413.361151 184.218663 
L 413.847744 183.689029 
L 414.820929 183.159395 
L 417.253891 181.852963 
L 420.173447 180.405296 
L 421.633224 179.981589 
L 423.093002 179.416646 
L 423.579595 179.063556 
L 424.55278 178.781084 
L 425.525965 178.392686 
L 426.012557 178.004288 
L 427.958927 177.333417 
L 428.932112 176.627238 
L 429.905298 176.203531 
L 430.878483 175.426734 
L 431.851668 175.073644 
L 432.33826 174.649937 
L 432.824853 174.579319 
L 433.798038 173.837831 
L 434.771223 173.343506 
L 435.257816 173.131652 
L 435.744408 172.637327 
L 439.150556 171.295586 
L 440.123741 170.871879 
L 441.583519 170.412863 
L 442.556704 170.271627 
L 443.043296 170.059773 
L 443.529889 169.989155 
L 444.503074 169.565448 
L 444.989666 169.530139 
L 446.936037 168.788651 
L 448.395814 167.764691 
L 448.882407 167.588146 
L 449.855592 167.058512 
L 450.342184 166.917276 
L 453.26174 165.293064 
L 453.748332 165.187137 
L 455.20811 164.339723 
L 456.667888 163.845397 
L 457.641073 163.527617 
L 459.587443 162.892055 
L 460.560628 162.574275 
L 462.506998 162.185876 
L 462.993591 161.974023 
L 463.480183 161.903405 
L 464.453368 161.479697 
L 464.939961 161.409079 
L 465.426553 161.161917 
L 466.399738 160.985372 
L 467.859516 160.455738 
L 468.832701 160.349811 
L 470.292479 160.03203 
L 472.725441 159.608323 
L 485.376848 155.936192 
L 485.86344 155.441866 
L 486.836625 155.053468 
L 490.729366 153.605801 
L 491.215958 153.323329 
L 492.675736 152.899622 
L 493.648921 152.652459 
L 494.135513 152.334678 
L 494.622106 152.228752 
L 495.108698 151.805044 
L 496.568476 151.522573 
L 497.541661 151.063556 
L 498.028254 150.498613 
L 499.974624 150.039596 
L 503.380772 149.333417 
L 503.867364 149.333417 
L 504.353957 149.121564 
L 506.300327 148.768474 
L 506.78692 148.55662 
L 508.73329 148.203531 
L 509.706475 147.779823 
L 510.67966 147.603279 
L 513.112623 147.003026 
L 515.058993 146.402774 
L 515.545585 146.296847 
L 516.032178 146.049685 
L 517.005363 145.802522 
L 517.491956 145.52005 
L 518.951733 145.025725 
L 519.438326 144.707945 
L 520.411511 144.425473 
L 524.304251 143.083733 
L 525.277436 143.013115 
L 527.223806 142.448172 
L 527.710399 142.1657 
L 528.683584 141.883228 
L 531.116547 140.788651 
L 531.603139 140.753342 
L 536.955657 138.881967 
L 539.38862 138.246406 
L 540.361805 137.78739 
L 541.821583 137.469609 
L 543.767953 135.880706 
L 544.741138 135.598235 
L 545.227731 135.209836 
L 548.147286 134.115259 
L 548.633878 133.797478 
L 549.607063 133.515006 
L 550.093656 133.197226 
L 552.526619 132.420429 
L 553.986396 131.573014 
L 554.472989 131.467087 
L 556.905952 130.160656 
L 558.365729 129.525095 
L 558.852322 129.172005 
L 559.825507 128.854224 
L 560.798692 128.289281 
L 561.285284 128.112736 
L 561.771877 127.759647 
L 568.09758 125.535183 
L 568.584173 125.429256 
L 569.070765 125.111475 
L 571.017135 124.723077 
L 571.99032 124.334678 
L 574.909876 122.92232 
L 575.396468 122.851702 
L 576.856246 122.039596 
L 578.316024 121.545271 
L 581.722171 120.168222 
L 582.208764 120.026986 
L 582.695356 119.709206 
L 583.668542 119.603279 
L 584.155134 119.285498 
L 585.128319 119.108953 
L 586.101504 118.649937 
L 586.588097 118.438083 
L 587.074689 118.367465 
L 589.507652 117.414124 
L 590.96743 117.025725 
L 591.940615 116.778562 
L 593.400392 116.354855 
L 594.373578 115.966456 
L 596.319948 114.907188 
L 597.293133 114.518789 
L 597.779725 114.201009 
L 598.75291 113.989155 
L 599.239503 113.706683 
L 599.726095 113.600757 
L 601.185873 112.788651 
L 602.159058 112.400252 
L 604.105428 111.658764 
L 606.538391 110.846658 
L 607.511576 110.352333 
L 609.944539 109.540227 
L 612.864094 108.375032 
L 614.810464 107.492308 
L 619.67639 105.620933 
L 620.162982 105.303153 
L 622.109353 104.632282 
L 622.595945 104.632282 
L 623.56913 104.208575 
L 625.5155 102.654981 
L 626.002093 102.513745 
L 626.488685 102.195965 
L 626.975278 102.090038 
L 627.461871 101.842875 
L 627.948463 101.772257 
L 628.435056 101.419168 
L 628.921648 101.313241 
L 629.894833 100.712989 
L 631.354611 99.971501 
L 632.327796 99.583102 
L 632.814388 99.335939 
L 634.274166 99.018159 
L 636.707129 98.206053 
L 637.680314 97.888272 
L 639.140092 97.146784 
L 640.113277 96.687768 
L 641.086462 96.440605 
L 642.546239 95.769735 
L 646.925572 94.180832 
L 648.38535 93.298108 
L 648.871942 93.192182 
L 649.845128 92.697856 
L 650.818313 92.344767 
L 651.304905 91.921059 
L 652.27809 91.532661 
L 655.197646 90.367465 
L 656.657423 89.943758 
L 657.144016 89.696595 
L 657.630608 89.625977 
L 659.090386 89.096343 
L 660.550164 88.566709 
L 661.523349 88.17831 
L 662.009941 87.789912 
L 663.469719 87.401513 
L 663.956311 87.119042 
L 664.929496 86.871879 
L 666.389274 86.059773 
L 666.875867 86.024464 
L 668.335644 85.565448 
L 669.308829 85.49483 
L 670.282014 85.106431 
L 673.20157 84.259016 
L 674.174755 84.223707 
L 678.067495 82.987894 
L 679.04068 82.45826 
L 679.527273 82.034552 
L 680.98705 81.187137 
L 681.960235 80.586885 
L 684.879791 79.668852 
L 685.366383 79.280454 
L 688.285939 78.07995 
L 690.232309 77.550315 
L 691.205494 77.126608 
L 691.692086 76.879445 
L 692.665271 76.596974 
L 693.151864 76.314502 
L 694.125049 76.137957 
L 696.558012 75.008071 
L 697.044604 74.725599 
L 698.504382 74.372509 
L 698.990974 74.054729 
L 699.477567 73.878184 
L 699.96416 73.454477 
L 700.450752 73.383859 
L 702.397122 72.607062 
L 704.343492 72.148045 
L 704.830085 72.077427 
L 705.316678 71.865574 
L 705.80327 71.830265 
L 706.776455 71.512484 
L 707.263048 71.477175 
L 708.722825 70.912232 
L 710.669196 70.347289 
L 711.642381 69.605801 
L 713.588751 68.546532 
L 715.048528 68.052207 
L 717.968084 66.745776 
L 718.941269 66.216141 
L 719.427861 65.968979 
L 719.914454 65.509962 
L 722.834009 64.55662 
L 723.807194 64.168222 
L 724.780379 63.88575 
L 725.266972 63.638588 
L 725.753564 63.179571 
L 727.699935 62.685246 
L 728.186527 62.332156 
L 734.51223 60.037074 
L 735.485415 59.86053 
L 739.864748 58.342245 
L 740.837933 58.095082 
L 741.324526 57.883228 
L 741.811118 57.847919 
L 742.784303 57.459521 
L 743.757489 56.859269 
L 744.244081 56.682724 
L 744.730674 56.647415 
L 746.190451 56.011854 
L 746.677044 55.8 
L 747.163636 55.8 
L 747.163636 55.8 
" clip-path="url(#p48ace990c0)" style="fill: none; stroke: #1f77b4; stroke-width: 1.5; stroke-linecap: square"/>
   </g>
   <g id="line2d_38">
    <path d="M 138.922956 307.8 
L 143.302289 307.694073 
L 147.195029 307.517528 
L 149.1414 307.517528 
L 149.627992 307.376293 
L 152.060955 307.270366 
L 154.98051 306.952585 
L 157.900065 306.846658 
L 158.87325 306.740731 
L 162.279398 306.599496 
L 165.685546 306.493569 
L 168.118509 306.422951 
L 174.444212 306.317024 
L 176.877175 306.246406 
L 180.283322 306.140479 
L 182.716285 306.069861 
L 188.068803 305.963934 
L 190.015173 305.78739 
L 191.961543 305.752081 
L 194.881099 305.646154 
L 196.827469 305.610845 
L 199.260432 305.540227 
L 201.206802 305.363682 
L 205.586135 305.257755 
L 206.55932 305.187137 
L 208.50569 305.081211 
L 211.425245 304.975284 
L 213.371615 304.869357 
L 222.130281 304.339723 
L 225.536429 304.233796 
L 226.996207 304.09256 
L 229.429169 303.986633 
L 234.295095 303.73947 
L 239.16102 303.668852 
L 241.10739 303.456999 
L 243.053761 303.351072 
L 248.406279 302.856747 
L 251.812426 302.468348 
L 253.272204 302.39773 
L 257.651537 301.868096 
L 260.0845 301.797478 
L 261.544277 301.656242 
L 263.004055 301.550315 
L 276.628646 300.526356 
L 277.601831 300.349811 
L 280.521387 300.243884 
L 288.306867 299.784868 
L 291.713015 299.678941 
L 293.659385 299.467087 
L 296.092348 299.36116 
L 299.011903 299.255233 
L 301.444866 299.149306 
L 303.391236 299.113997 
L 305.824199 299.04338 
L 306.797384 298.902144 
L 313.60968 298.796217 
L 314.582865 298.69029 
L 320.421975 298.584363 
L 324.801308 298.372509 
L 328.207456 298.266583 
L 330.153826 298.054729 
L 333.559974 297.948802 
L 334.533159 297.772257 
L 336.966122 297.701639 
L 341.832047 297.631021 
L 344.26501 297.383859 
L 347.184565 297.277932 
L 349.130935 297.101387 
L 353.996861 296.854224 
L 358.862786 296.748298 
L 363.242119 296.536444 
L 364.701897 296.501135 
L 365.675082 296.359899 
L 368.108044 296.253972 
L 369.08123 296.183354 
L 370.054415 296.112736 
L 371.0276 296.042119 
L 375.406933 295.971501 
L 376.86671 295.865574 
L 390.004709 295.018159 
L 392.437672 294.912232 
L 394.870634 294.841614 
L 401.68293 294.735687 
L 402.656115 294.594451 
L 409.468411 294.488525 
L 414.334336 294.241362 
L 415.307521 294.206053 
L 416.280706 294.100126 
L 418.713669 293.994199 
L 421.146632 293.923581 
L 423.579595 293.817654 
L 426.012557 293.747037 
L 430.39189 293.64111 
L 433.311445 293.535183 
L 440.123741 293.429256 
L 445.476259 293.146784 
L 447.422629 293.076166 
L 448.882407 292.97024 
L 455.694702 292.864313 
L 458.614258 292.758386 
L 467.372923 292.652459 
L 469.319294 292.61715 
L 475.158404 292.546532 
L 476.131589 292.475914 
L 482.943885 292.369987 
L 484.890255 292.334678 
L 497.541661 292.228752 
L 499.001439 292.087516 
L 520.898103 291.981589 
L 523.331066 291.910971 
L 535.982472 291.805044 
L 536.955657 291.734426 
L 539.38862 291.663808 
L 540.848398 291.522573 
L 543.767953 291.416646 
L 547.174101 291.27541 
L 551.553434 291.169483 
L 553.986396 291.098865 
L 557.392544 290.992938 
L 561.285284 290.816393 
L 563.718247 290.710467 
L 565.664617 290.675158 
L 570.04395 290.569231 
L 571.99032 290.533922 
L 578.316024 290.427995 
L 580.262394 290.392686 
L 582.695356 290.286759 
L 585.614912 290.180832 
L 589.02106 290.110214 
L 589.994245 290.039596 
L 601.672466 289.93367 
L 607.998169 289.58058 
L 610.431131 289.509962 
L 611.404317 289.404035 
L 612.377502 289.333417 
L 616.270242 289.227491 
L 619.189797 289.121564 
L 624.055723 289.015637 
L 626.488685 288.768474 
L 631.354611 288.662547 
L 632.327796 288.55662 
L 637.193721 288.450694 
L 639.626684 288.380076 
L 644.979202 288.344767 
L 645.952387 288.23884 
L 651.304905 288.132913 
L 652.27809 288.062295 
L 662.983126 287.956368 
L 665.902681 287.850441 
L 673.20157 287.744515 
L 675.14794 287.709206 
L 679.527273 287.638588 
L 680.500458 287.532661 
L 686.826161 287.426734 
L 689.259124 287.356116 
L 698.017789 287.250189 
L 699.477567 287.144262 
L 700.937345 287.038335 
L 702.397122 286.932409 
L 709.69601 286.826482 
L 712.615566 286.720555 
L 725.753564 286.614628 
L 730.132897 286.402774 
L 735.972008 286.296847 
L 736.945193 286.190921 
L 744.244081 286.120303 
L 745.217266 286.049685 
L 747.163636 286.014376 
L 747.163636 286.014376 
" clip-path="url(#p48ace990c0)" style="fill: none; stroke: #ff7f0e; stroke-width: 1.5; stroke-linecap: square"/>
   </g>
   <g id="patch_3">
    <path d="M 108 320.4 
L 108 43.2 
" style="fill: none; stroke: #a9a9a9; stroke-width: 0.8; stroke-linejoin: miter; stroke-linecap: square"/>
   </g>
   <g id="patch_4">
    <path d="M 777.6 320.4 
L 777.6 43.2 
" style="fill: none"/>
   </g>
   <g id="patch_5">
    <path d="M 108 320.4 
L 777.6 320.4 
" style="fill: none; stroke: #a9a9a9; stroke-width: 0.8; stroke-linejoin: miter; stroke-linecap: square"/>
   </g>
   <g id="patch_6">
    <path d="M 108 43.2 
L 777.6 43.2 
" style="fill: none"/>
   </g>
   <g id="text_19">
    <!-- get_subscribe history -->
    <g style="fill: #a9a9a9" transform="translate(378.6075 37.2) scale(0.12 -0.12)">
     <defs>
      <path id="DejaVuSans-67" d="M 2906 1791 
Q 2906 2416 2648 2759 
Q 2391 3103 1925 3103 
Q 1463 3103 1205 2759 
Q 947 2416 947 1791 
Q 947 1169 1205 825 
Q 1463 481 1925 481 
Q 2391 481 2648 825 
Q 2906 1169 2906 1791 
z
M 3481 434 
Q 3481 -459 3084 -895 
Q 2688 -1331 1869 -1331 
Q 1566 -1331 1297 -1286 
Q 1028 -1241 775 -1147 
L 775 -588 
Q 1028 -725 1275 -790 
Q 1522 -856 1778 -856 
Q 2344 -856 2625 -561 
Q 2906 -266 2906 331 
L 2906 616 
Q 2728 306 2450 153 
Q 2172 0 1784 0 
Q 1141 0 747 490 
Q 353 981 353 1791 
Q 353 2603 747 3093 
Q 1141 3584 1784 3584 
Q 2172 3584 2450 3431 
Q 2728 3278 2906 2969 
L 2906 3500 
L 3481 3500 
L 3481 434 
z
" transform="scale(0.015625)"/>
      <path id="DejaVuSans-65" d="M 3597 1894 
L 3597 1613 
L 953 1613 
Q 991 1019 1311 708 
Q 1631 397 2203 397 
Q 2534 397 2845 478 
Q 3156 559 3463 722 
L 3463 178 
Q 3153 47 2828 -22 
Q 2503 -91 2169 -91 
Q 1331 -91 842 396 
Q 353 884 353 1716 
Q 353 2575 817 3079 
Q 1281 3584 2069 3584 
Q 2775 3584 3186 3129 
Q 3597 2675 3597 1894 
z
M 3022 2063 
Q 3016 2534 2758 2815 
Q 2500 3097 2075 3097 
Q 1594 3097 1305 2825 
Q 1016 2553 972 2059 
L 3022 2063 
z
" transform="scale(0.015625)"/>
      <path id="DejaVuSans-74" d="M 1172 4494 
L 1172 3500 
L 2356 3500 
L 2356 3053 
L 1172 3053 
L 1172 1153 
Q 1172 725 1289 603 
Q 1406 481 1766 481 
L 2356 481 
L 2356 0 
L 1766 0 
Q 1100 0 847 248 
Q 594 497 594 1153 
L 594 3053 
L 172 3053 
L 172 3500 
L 594 3500 
L 594 4494 
L 1172 4494 
z
" transform="scale(0.015625)"/>
      <path id="DejaVuSans-5f" d="M 3263 -1063 
L 3263 -1509 
L -63 -1509 
L -63 -1063 
L 3263 -1063 
z
" transform="scale(0.015625)"/>
      <path id="DejaVuSans-73" d="M 2834 3397 
L 2834 2853 
Q 2591 2978 2328 3040 
Q 2066 3103 1784 3103 
Q 1356 3103 1142 2972 
Q 928 2841 928 2578 
Q 928 2378 1081 2264 
Q 1234 2150 1697 2047 
L 1894 2003 
Q 2506 1872 2764 1633 
Q 3022 1394 3022 966 
Q 3022 478 2636 193 
Q 2250 -91 1575 -91 
Q 1294 -91 989 -36 
Q 684 19 347 128 
L 347 722 
Q 666 556 975 473 
Q 1284 391 1588 391 
Q 1994 391 2212 530 
Q 2431 669 2431 922 
Q 2431 1156 2273 1281 
Q 2116 1406 1581 1522 
L 1381 1569 
Q 847 1681 609 1914 
Q 372 2147 372 2553 
Q 372 3047 722 3315 
Q 1072 3584 1716 3584 
Q 2034 3584 2315 3537 
Q 2597 3491 2834 3397 
z
" transform="scale(0.015625)"/>
      <path id="DejaVuSans-75" d="M 544 1381 
L 544 3500 
L 1119 3500 
L 1119 1403 
Q 1119 906 1312 657 
Q 1506 409 1894 409 
Q 2359 409 2629 706 
Q 2900 1003 2900 1516 
L 2900 3500 
L 3475 3500 
L 3475 0 
L 2900 0 
L 2900 538 
Q 2691 219 2414 64 
Q 2138 -91 1772 -91 
Q 1169 -91 856 284 
Q 544 659 544 1381 
z
M 1991 3584 
L 1991 3584 
z
" transform="scale(0.015625)"/>
      <path id="DejaVuSans-62" d="M 3116 1747 
Q 3116 2381 2855 2742 
Q 2594 3103 2138 3103 
Q 1681 3103 1420 2742 
Q 1159 2381 1159 1747 
Q 1159 1113 1420 752 
Q 1681 391 2138 391 
Q 2594 391 2855 752 
Q 3116 1113 3116 1747 
z
M 1159 2969 
Q 1341 3281 1617 3432 
Q 1894 3584 2278 3584 
Q 2916 3584 3314 3078 
Q 3713 2572 3713 1747 
Q 3713 922 3314 415 
Q 2916 -91 2278 -91 
Q 1894 -91 1617 61 
Q 1341 213 1159 525 
L 1159 0 
L 581 0 
L 581 4863 
L 1159 4863 
L 1159 2969 
z
" transform="scale(0.015625)"/>
      <path id="DejaVuSans-63" d="M 3122 3366 
L 3122 2828 
Q 2878 2963 2633 3030 
Q 2388 3097 2138 3097 
Q 1578 3097 1268 2742 
Q 959 2388 959 1747 
Q 959 1106 1268 751 
Q 1578 397 2138 397 
Q 2388 397 2633 464 
Q 2878 531 3122 666 
L 3122 134 
Q 2881 22 2623 -34 
Q 2366 -91 2075 -91 
Q 1284 -91 818 406 
Q 353 903 353 1747 
Q 353 2603 823 3093 
Q 1294 3584 2113 3584 
Q 2378 3584 2631 3529 
Q 2884 3475 3122 3366 
z
" transform="scale(0.015625)"/>
      <path id="DejaVuSans-72" d="M 2631 2963 
Q 2534 3019 2420 3045 
Q 2306 3072 2169 3072 
Q 1681 3072 1420 2755 
Q 1159 2438 1159 1844 
L 1159 0 
L 581 0 
L 581 3500 
L 1159 3500 
L 1159 2956 
Q 1341 3275 1631 3429 
Q 1922 3584 2338 3584 
Q 2397 3584 2469 3576 
Q 2541 3569 2628 3553 
L 2631 2963 
z
" transform="scale(0.015625)"/>
      <path id="DejaVuSans-69" d="M 603 3500 
L 1178 3500 
L 1178 0 
L 603 0 
L 603 3500 
z
M 603 4863 
L 1178 4863 
L 1178 4134 
L 603 4134 
L 603 4863 
z
" transform="scale(0.015625)"/>
      <path id="DejaVuSans-20" transform="scale(0.015625)"/>
      <path id="DejaVuSans-68" d="M 3513 2113 
L 3513 0 
L 2938 0 
L 2938 2094 
Q 2938 2591 2744 2837 
Q 2550 3084 2163 3084 
Q 1697 3084 1428 2787 
Q 1159 2491 1159 1978 
L 1159 0 
L 581 0 
L 581 4863 
L 1159 4863 
L 1159 2956 
Q 1366 3272 1645 3428 
Q 1925 3584 2291 3584 
Q 2894 3584 3203 3211 
Q 3513 2838 3513 2113 
z
" transform="scale(0.015625)"/>
      <path id="DejaVuSans-6f" d="M 1959 3097 
Q 1497 3097 1228 2736 
Q 959 2375 959 1747 
Q 959 1119 1226 758 
Q 1494 397 1959 397 
Q 2419 397 2687 759 
Q 2956 1122 2956 1747 
Q 2956 2369 2687 2733 
Q 2419 3097 1959 3097 
z
M 1959 3584 
Q 2709 3584 3137 3096 
Q 3566 2609 3566 1747 
Q 3566 888 3137 398 
Q 2709 -91 1959 -91 
Q 1206 -91 779 398 
Q 353 888 353 1747 
Q 353 2609 779 3096 
Q 1206 3584 1959 3584 
z
" transform="scale(0.015625)"/>
      <path id="DejaVuSans-79" d="M 2059 -325 
Q 1816 -950 1584 -1140 
Q 1353 -1331 966 -1331 
L 506 -1331 
L 506 -850 
L 844 -850 
Q 1081 -850 1212 -737 
Q 1344 -625 1503 -206 
L 1606 56 
L 191 3500 
L 800 3500 
L 1894 763 
L 2988 3500 
L 3597 3500 
L 2059 -325 
z
" transform="scale(0.015625)"/>
     </defs>
     <use xlink:href="#DejaVuSans-67"/>
     <use xlink:href="#DejaVuSans-65" transform="translate(63.476562 0)"/>
     <use xlink:href="#DejaVuSans-74" transform="translate(125 0)"/>
     <use xlink:href="#DejaVuSans-5f" transform="translate(164.208984 0)"/>
     <use xlink:href="#DejaVuSans-73" transform="translate(214.208984 0)"/>
     <use xlink:href="#DejaVuSans-75" transform="translate(266.308594 0)"/>
     <use xlink:href="#DejaVuSans-62" transform="translate(329.6875 0)"/>
     <use xlink:href="#DejaVuSans-73" transform="translate(393.164062 0)"/>
     <use xlink:href="#DejaVuSans-63" transform="translate(445.263672 0)"/>
     <use xlink:href="#DejaVuSans-72" transform="translate(500.244141 0)"/>
     <use xlink:href="#DejaVuSans-69" transform="translate(541.357422 0)"/>
     <use xlink:href="#DejaVuSans-62" transform="translate(569.140625 0)"/>
     <use xlink:href="#DejaVuSans-65" transform="translate(632.617188 0)"/>
     <use xlink:href="#DejaVuSans-20" transform="translate(694.140625 0)"/>
     <use xlink:href="#DejaVuSans-68" transform="translate(725.927734 0)"/>
     <use xlink:href="#DejaVuSans-69" transform="translate(789.306641 0)"/>
     <use xlink:href="#DejaVuSans-73" transform="translate(817.089844 0)"/>
     <use xlink:href="#DejaVuSans-74" transform="translate(869.189453 0)"/>
     <use xlink:href="#DejaVuSans-6f" transform="translate(908.398438 0)"/>
     <use xlink:href="#DejaVuSans-72" transform="translate(969.580078 0)"/>
     <use xlink:href="#DejaVuSans-79" transform="translate(1010.693359 0)"/>
    </g>
   </g>
   <g id="legend_1">
    <g id="line2d_39">
     <path d="M 815.08 328.498438 
L 825.08 328.498438 
L 835.08 328.498438 
" style="fill: none; stroke: #1f77b4; stroke-width: 1.5; stroke-linecap: square"/>
    </g>
    <g id="text_20">
     <!-- star -->
     <g style="fill: #a9a9a9" transform="translate(843.08 331.998438) scale(0.1 -0.1)">
      <defs>
       <path id="DejaVuSans-61" d="M 2194 1759 
Q 1497 1759 1228 1600 
Q 959 1441 959 1056 
Q 959 750 1161 570 
Q 1363 391 1709 391 
Q 2188 391 2477 730 
Q 2766 1069 2766 1631 
L 2766 1759 
L 2194 1759 
z
M 3341 1997 
L 3341 0 
L 2766 0 
L 2766 531 
Q 2569 213 2275 61 
Q 1981 -91 1556 -91 
Q 1019 -91 701 211 
Q 384 513 384 1019 
Q 384 1609 779 1909 
Q 1175 2209 1959 2209 
L 2766 2209 
L 2766 2266 
Q 2766 2663 2505 2880 
Q 2244 3097 1772 3097 
Q 1472 3097 1187 3025 
Q 903 2953 641 2809 
L 641 3341 
Q 956 3463 1253 3523 
Q 1550 3584 1831 3584 
Q 2591 3584 2966 3190 
Q 3341 2797 3341 1997 
z
" transform="scale(0.015625)"/>
      </defs>
      <use xlink:href="#DejaVuSans-73"/>
      <use xlink:href="#DejaVuSans-74" transform="translate(52.099609 0)"/>
      <use xlink:href="#DejaVuSans-61" transform="translate(91.308594 0)"/>
      <use xlink:href="#DejaVuSans-72" transform="translate(152.587891 0)"/>
     </g>
    </g>
    <g id="line2d_40">
     <path d="M 815.08 343.176562 
L 825.08 343.176562 
L 835.08 343.176562 
" style="fill: none; stroke: #ff7f0e; stroke-width: 1.5; stroke-linecap: square"/>
    </g>
    <g id="text_21">
     <!-- fork -->
     <g style="fill: #a9a9a9" transform="translate(843.08 346.676562) scale(0.1 -0.1)">
      <defs>
       <path id="DejaVuSans-66" d="M 2375 4863 
L 2375 4384 
L 1825 4384 
Q 1516 4384 1395 4259 
Q 1275 4134 1275 3809 
L 1275 3500 
L 2222 3500 
L 2222 3053 
L 1275 3053 
L 1275 0 
L 697 0 
L 697 3053 
L 147 3053 
L 147 3500 
L 697 3500 
L 697 3744 
Q 697 4328 969 4595 
Q 1241 4863 1831 4863 
L 2375 4863 
z
" transform="scale(0.015625)"/>
       <path id="DejaVuSans-6b" d="M 581 4863 
L 1159 4863 
L 1159 1991 
L 2875 3500 
L 3609 3500 
L 1753 1863 
L 3688 0 
L 2938 0 
L 1159 1709 
L 1159 0 
L 581 0 
L 581 4863 
z
" transform="scale(0.015625)"/>
      </defs>
      <use xlink:href="#DejaVuSans-66"/>
      <use xlink:href="#DejaVuSans-6f" transform="translate(35.205078 0)"/>
      <use xlink:href="#DejaVuSans-72" transform="translate(96.386719 0)"/>
      <use xlink:href="#DejaVuSans-6b" transform="translate(137.5 0)"/>
     </g>
    </g>
   </g>
  </g>
 </g>
 <defs>
  <clipPath id="p48ace990c0">
   <rect x="108" y="43.2" width="669.6" height="277.2"/>
  </clipPath>
 </defs>
</svg>
