<?xml version="1.0" encoding="utf-8" standalone="no"?>
<!DOCTYPE svg PUBLIC "-//W3C//DTD SVG 1.1//EN"
  "http://www.w3.org/Graphics/SVG/1.1/DTD/svg11.dtd">
<svg xmlns:xlink="http://www.w3.org/1999/xlink" width="864pt" height="360pt" viewBox="0 0 864 360" xmlns="http://www.w3.org/2000/svg" version="1.1">
 <metadata>
  <rdf:RDF xmlns:dc="http://purl.org/dc/elements/1.1/" xmlns:cc="http://creativecommons.org/ns#" xmlns:rdf="http://www.w3.org/1999/02/22-rdf-syntax-ns#">
   <cc:Work>
    <dc:type rdf:resource="http://purl.org/dc/dcmitype/StillImage"/>
    <dc:date>2024-12-24T20:06:00.818857</dc:date>
    <dc:format>image/svg+xml</dc:format>
    <dc:creator>
     <cc:Agent>
      <dc:title>Matplotlib v3.10.0, https://matplotlib.org/</dc:title>
     </cc:Agent>
    </dc:creator>
   </cc:Work>
  </rdf:RDF>
 </metadata>
 <defs>
  <style type="text/css">*{stroke-linejoin: round; stroke-linecap: butt}</style>
 </defs>
 <g id="figure_1">
  <g id="patch_1">
   <path d="M 0 360 
L 864 360 
L 864 0 
L 0 0 
L 0 360 
z
" style="fill: none; opacity: 0"/>
  </g>
  <g id="axes_1">
   <g id="patch_2">
    <path d="M 108 320.4 
L 777.6 320.4 
L 777.6 43.2 
L 108 43.2 
L 108 320.4 
z
" style="fill: none; opacity: 0"/>
   </g>
   <g id="matplotlib.axis_1">
    <g id="xtick_1">
     <g id="line2d_1">
      <path d="M 127.226814 320.4 
L 127.226814 43.2 
" clip-path="url(#p4a68f26f49)" style="fill: none; stroke-dasharray: 5.12,1.28,0.8,1.28; stroke-dashoffset: 0; stroke: #b0b0b0; stroke-width: 0.8"/>
     </g>
     <g id="line2d_2">
      <defs>
       <path id="mee21f7d3ab" d="M 0 0 
L 0 3.5 
" style="stroke: #a9a9a9; stroke-width: 0.8"/>
      </defs>
      <g>
       <use xlink:href="#mee21f7d3ab" x="127.226814" y="320.4" style="fill: #a9a9a9; stroke: #a9a9a9; stroke-width: 0.8"/>
      </g>
     </g>
     <g id="text_1">
      <!-- 2021-07 -->
      <g style="fill: #a9a9a9" transform="translate(106.335408 334.998438) scale(0.1 -0.1)">
       <defs>
        <path id="DejaVuSans-32" d="M 1228 531 
L 3431 531 
L 3431 0 
L 469 0 
L 469 531 
Q 828 903 1448 1529 
Q 2069 2156 2228 2338 
Q 2531 2678 2651 2914 
Q 2772 3150 2772 3378 
Q 2772 3750 2511 3984 
Q 2250 4219 1831 4219 
Q 1534 4219 1204 4116 
Q 875 4013 500 3803 
L 500 4441 
Q 881 4594 1212 4672 
Q 1544 4750 1819 4750 
Q 2544 4750 2975 4387 
Q 3406 4025 3406 3419 
Q 3406 3131 3298 2873 
Q 3191 2616 2906 2266 
Q 2828 2175 2409 1742 
Q 1991 1309 1228 531 
z
" transform="scale(0.015625)"/>
        <path id="DejaVuSans-30" d="M 2034 4250 
Q 1547 4250 1301 3770 
Q 1056 3291 1056 2328 
Q 1056 1369 1301 889 
Q 1547 409 2034 409 
Q 2525 409 2770 889 
Q 3016 1369 3016 2328 
Q 3016 3291 2770 3770 
Q 2525 4250 2034 4250 
z
M 2034 4750 
Q 2819 4750 3233 4129 
Q 3647 3509 3647 2328 
Q 3647 1150 3233 529 
Q 2819 -91 2034 -91 
Q 1250 -91 836 529 
Q 422 1150 422 2328 
Q 422 3509 836 4129 
Q 1250 4750 2034 4750 
z
" transform="scale(0.015625)"/>
        <path id="DejaVuSans-31" d="M 794 531 
L 1825 531 
L 1825 4091 
L 703 3866 
L 703 4441 
L 1819 4666 
L 2450 4666 
L 2450 531 
L 3481 531 
L 3481 0 
L 794 0 
L 794 531 
z
" transform="scale(0.015625)"/>
        <path id="DejaVuSans-2d" d="M 313 2009 
L 1997 2009 
L 1997 1497 
L 313 1497 
L 313 2009 
z
" transform="scale(0.015625)"/>
        <path id="DejaVuSans-37" d="M 525 4666 
L 3525 4666 
L 3525 4397 
L 1831 0 
L 1172 0 
L 2766 4134 
L 525 4134 
L 525 4666 
z
" transform="scale(0.015625)"/>
       </defs>
       <use xlink:href="#DejaVuSans-32"/>
       <use xlink:href="#DejaVuSans-30" transform="translate(63.623047 0)"/>
       <use xlink:href="#DejaVuSans-32" transform="translate(127.246094 0)"/>
       <use xlink:href="#DejaVuSans-31" transform="translate(190.869141 0)"/>
       <use xlink:href="#DejaVuSans-2d" transform="translate(254.492188 0)"/>
       <use xlink:href="#DejaVuSans-30" transform="translate(290.576172 0)"/>
       <use xlink:href="#DejaVuSans-37" transform="translate(354.199219 0)"/>
      </g>
     </g>
    </g>
    <g id="xtick_2">
     <g id="line2d_3">
      <path d="M 216.90321 320.4 
L 216.90321 43.2 
" clip-path="url(#p4a68f26f49)" style="fill: none; stroke-dasharray: 5.12,1.28,0.8,1.28; stroke-dashoffset: 0; stroke: #b0b0b0; stroke-width: 0.8"/>
     </g>
     <g id="line2d_4">
      <g>
       <use xlink:href="#mee21f7d3ab" x="216.90321" y="320.4" style="fill: #a9a9a9; stroke: #a9a9a9; stroke-width: 0.8"/>
      </g>
     </g>
     <g id="text_2">
      <!-- 2022-01 -->
      <g style="fill: #a9a9a9" transform="translate(196.011804 334.998438) scale(0.1 -0.1)">
       <use xlink:href="#DejaVuSans-32"/>
       <use xlink:href="#DejaVuSans-30" transform="translate(63.623047 0)"/>
       <use xlink:href="#DejaVuSans-32" transform="translate(127.246094 0)"/>
       <use xlink:href="#DejaVuSans-32" transform="translate(190.869141 0)"/>
       <use xlink:href="#DejaVuSans-2d" transform="translate(254.492188 0)"/>
       <use xlink:href="#DejaVuSans-30" transform="translate(290.576172 0)"/>
       <use xlink:href="#DejaVuSans-31" transform="translate(354.199219 0)"/>
      </g>
     </g>
    </g>
    <g id="xtick_3">
     <g id="line2d_5">
      <path d="M 305.11749 320.4 
L 305.11749 43.2 
" clip-path="url(#p4a68f26f49)" style="fill: none; stroke-dasharray: 5.12,1.28,0.8,1.28; stroke-dashoffset: 0; stroke: #b0b0b0; stroke-width: 0.8"/>
     </g>
     <g id="line2d_6">
      <g>
       <use xlink:href="#mee21f7d3ab" x="305.11749" y="320.4" style="fill: #a9a9a9; stroke: #a9a9a9; stroke-width: 0.8"/>
      </g>
     </g>
     <g id="text_3">
      <!-- 2022-07 -->
      <g style="fill: #a9a9a9" transform="translate(284.226084 334.998438) scale(0.1 -0.1)">
       <use xlink:href="#DejaVuSans-32"/>
       <use xlink:href="#DejaVuSans-30" transform="translate(63.623047 0)"/>
       <use xlink:href="#DejaVuSans-32" transform="translate(127.246094 0)"/>
       <use xlink:href="#DejaVuSans-32" transform="translate(190.869141 0)"/>
       <use xlink:href="#DejaVuSans-2d" transform="translate(254.492188 0)"/>
       <use xlink:href="#DejaVuSans-30" transform="translate(290.576172 0)"/>
       <use xlink:href="#DejaVuSans-37" transform="translate(354.199219 0)"/>
      </g>
     </g>
    </g>
    <g id="xtick_4">
     <g id="line2d_7">
      <path d="M 394.793886 320.4 
L 394.793886 43.2 
" clip-path="url(#p4a68f26f49)" style="fill: none; stroke-dasharray: 5.12,1.28,0.8,1.28; stroke-dashoffset: 0; stroke: #b0b0b0; stroke-width: 0.8"/>
     </g>
     <g id="line2d_8">
      <g>
       <use xlink:href="#mee21f7d3ab" x="394.793886" y="320.4" style="fill: #a9a9a9; stroke: #a9a9a9; stroke-width: 0.8"/>
      </g>
     </g>
     <g id="text_4">
      <!-- 2023-01 -->
      <g style="fill: #a9a9a9" transform="translate(373.90248 334.998438) scale(0.1 -0.1)">
       <defs>
        <path id="DejaVuSans-33" d="M 2597 2516 
Q 3050 2419 3304 2112 
Q 3559 1806 3559 1356 
Q 3559 666 3084 287 
Q 2609 -91 1734 -91 
Q 1441 -91 1130 -33 
Q 819 25 488 141 
L 488 750 
Q 750 597 1062 519 
Q 1375 441 1716 441 
Q 2309 441 2620 675 
Q 2931 909 2931 1356 
Q 2931 1769 2642 2001 
Q 2353 2234 1838 2234 
L 1294 2234 
L 1294 2753 
L 1863 2753 
Q 2328 2753 2575 2939 
Q 2822 3125 2822 3475 
Q 2822 3834 2567 4026 
Q 2313 4219 1838 4219 
Q 1578 4219 1281 4162 
Q 984 4106 628 3988 
L 628 4550 
Q 988 4650 1302 4700 
Q 1616 4750 1894 4750 
Q 2613 4750 3031 4423 
Q 3450 4097 3450 3541 
Q 3450 3153 3228 2886 
Q 3006 2619 2597 2516 
z
" transform="scale(0.015625)"/>
       </defs>
       <use xlink:href="#DejaVuSans-32"/>
       <use xlink:href="#DejaVuSans-30" transform="translate(63.623047 0)"/>
       <use xlink:href="#DejaVuSans-32" transform="translate(127.246094 0)"/>
       <use xlink:href="#DejaVuSans-33" transform="translate(190.869141 0)"/>
       <use xlink:href="#DejaVuSans-2d" transform="translate(254.492188 0)"/>
       <use xlink:href="#DejaVuSans-30" transform="translate(290.576172 0)"/>
       <use xlink:href="#DejaVuSans-31" transform="translate(354.199219 0)"/>
      </g>
     </g>
    </g>
    <g id="xtick_5">
     <g id="line2d_9">
      <path d="M 483.008167 320.4 
L 483.008167 43.2 
" clip-path="url(#p4a68f26f49)" style="fill: none; stroke-dasharray: 5.12,1.28,0.8,1.28; stroke-dashoffset: 0; stroke: #b0b0b0; stroke-width: 0.8"/>
     </g>
     <g id="line2d_10">
      <g>
       <use xlink:href="#mee21f7d3ab" x="483.008167" y="320.4" style="fill: #a9a9a9; stroke: #a9a9a9; stroke-width: 0.8"/>
      </g>
     </g>
     <g id="text_5">
      <!-- 2023-07 -->
      <g style="fill: #a9a9a9" transform="translate(462.11676 334.998438) scale(0.1 -0.1)">
       <use xlink:href="#DejaVuSans-32"/>
       <use xlink:href="#DejaVuSans-30" transform="translate(63.623047 0)"/>
       <use xlink:href="#DejaVuSans-32" transform="translate(127.246094 0)"/>
       <use xlink:href="#DejaVuSans-33" transform="translate(190.869141 0)"/>
       <use xlink:href="#DejaVuSans-2d" transform="translate(254.492188 0)"/>
       <use xlink:href="#DejaVuSans-30" transform="translate(290.576172 0)"/>
       <use xlink:href="#DejaVuSans-37" transform="translate(354.199219 0)"/>
      </g>
     </g>
    </g>
    <g id="xtick_6">
     <g id="line2d_11">
      <path d="M 572.684562 320.4 
L 572.684562 43.2 
" clip-path="url(#p4a68f26f49)" style="fill: none; stroke-dasharray: 5.12,1.28,0.8,1.28; stroke-dashoffset: 0; stroke: #b0b0b0; stroke-width: 0.8"/>
     </g>
     <g id="line2d_12">
      <g>
       <use xlink:href="#mee21f7d3ab" x="572.684562" y="320.4" style="fill: #a9a9a9; stroke: #a9a9a9; stroke-width: 0.8"/>
      </g>
     </g>
     <g id="text_6">
      <!-- 2024-01 -->
      <g style="fill: #a9a9a9" transform="translate(551.793156 334.998438) scale(0.1 -0.1)">
       <defs>
        <path id="DejaVuSans-34" d="M 2419 4116 
L 825 1625 
L 2419 1625 
L 2419 4116 
z
M 2253 4666 
L 3047 4666 
L 3047 1625 
L 3713 1625 
L 3713 1100 
L 3047 1100 
L 3047 0 
L 2419 0 
L 2419 1100 
L 313 1100 
L 313 1709 
L 2253 4666 
z
" transform="scale(0.015625)"/>
       </defs>
       <use xlink:href="#DejaVuSans-32"/>
       <use xlink:href="#DejaVuSans-30" transform="translate(63.623047 0)"/>
       <use xlink:href="#DejaVuSans-32" transform="translate(127.246094 0)"/>
       <use xlink:href="#DejaVuSans-34" transform="translate(190.869141 0)"/>
       <use xlink:href="#DejaVuSans-2d" transform="translate(254.492188 0)"/>
       <use xlink:href="#DejaVuSans-30" transform="translate(290.576172 0)"/>
       <use xlink:href="#DejaVuSans-31" transform="translate(354.199219 0)"/>
      </g>
     </g>
    </g>
    <g id="xtick_7">
     <g id="line2d_13">
      <path d="M 661.386214 320.4 
L 661.386214 43.2 
" clip-path="url(#p4a68f26f49)" style="fill: none; stroke-dasharray: 5.12,1.28,0.8,1.28; stroke-dashoffset: 0; stroke: #b0b0b0; stroke-width: 0.8"/>
     </g>
     <g id="line2d_14">
      <g>
       <use xlink:href="#mee21f7d3ab" x="661.386214" y="320.4" style="fill: #a9a9a9; stroke: #a9a9a9; stroke-width: 0.8"/>
      </g>
     </g>
     <g id="text_7">
      <!-- 2024-07 -->
      <g style="fill: #a9a9a9" transform="translate(640.494808 334.998438) scale(0.1 -0.1)">
       <use xlink:href="#DejaVuSans-32"/>
       <use xlink:href="#DejaVuSans-30" transform="translate(63.623047 0)"/>
       <use xlink:href="#DejaVuSans-32" transform="translate(127.246094 0)"/>
       <use xlink:href="#DejaVuSans-34" transform="translate(190.869141 0)"/>
       <use xlink:href="#DejaVuSans-2d" transform="translate(254.492188 0)"/>
       <use xlink:href="#DejaVuSans-30" transform="translate(290.576172 0)"/>
       <use xlink:href="#DejaVuSans-37" transform="translate(354.199219 0)"/>
      </g>
     </g>
    </g>
    <g id="xtick_8">
     <g id="line2d_15">
      <path d="M 751.06261 320.4 
L 751.06261 43.2 
" clip-path="url(#p4a68f26f49)" style="fill: none; stroke-dasharray: 5.12,1.28,0.8,1.28; stroke-dashoffset: 0; stroke: #b0b0b0; stroke-width: 0.8"/>
     </g>
     <g id="line2d_16">
      <g>
       <use xlink:href="#mee21f7d3ab" x="751.06261" y="320.4" style="fill: #a9a9a9; stroke: #a9a9a9; stroke-width: 0.8"/>
      </g>
     </g>
     <g id="text_8">
      <!-- 2025-01 -->
      <g style="fill: #a9a9a9" transform="translate(730.171204 334.998438) scale(0.1 -0.1)">
       <defs>
        <path id="DejaVuSans-35" d="M 691 4666 
L 3169 4666 
L 3169 4134 
L 1269 4134 
L 1269 2991 
Q 1406 3038 1543 3061 
Q 1681 3084 1819 3084 
Q 2600 3084 3056 2656 
Q 3513 2228 3513 1497 
Q 3513 744 3044 326 
Q 2575 -91 1722 -91 
Q 1428 -91 1123 -41 
Q 819 9 494 109 
L 494 744 
Q 775 591 1075 516 
Q 1375 441 1709 441 
Q 2250 441 2565 725 
Q 2881 1009 2881 1497 
Q 2881 1984 2565 2268 
Q 2250 2553 1709 2553 
Q 1456 2553 1204 2497 
Q 953 2441 691 2322 
L 691 4666 
z
" transform="scale(0.015625)"/>
       </defs>
       <use xlink:href="#DejaVuSans-32"/>
       <use xlink:href="#DejaVuSans-30" transform="translate(63.623047 0)"/>
       <use xlink:href="#DejaVuSans-32" transform="translate(127.246094 0)"/>
       <use xlink:href="#DejaVuSans-35" transform="translate(190.869141 0)"/>
       <use xlink:href="#DejaVuSans-2d" transform="translate(254.492188 0)"/>
       <use xlink:href="#DejaVuSans-30" transform="translate(290.576172 0)"/>
       <use xlink:href="#DejaVuSans-31" transform="translate(354.199219 0)"/>
      </g>
     </g>
    </g>
   </g>
   <g id="matplotlib.axis_2">
    <g id="ytick_1">
     <g id="line2d_17">
      <path d="M 108 307.835344 
L 777.6 307.835344 
" clip-path="url(#p4a68f26f49)" style="fill: none; stroke-dasharray: 5.12,1.28,0.8,1.28; stroke-dashoffset: 0; stroke: #b0b0b0; stroke-width: 0.8"/>
     </g>
     <g id="line2d_18">
      <defs>
       <path id="m1f8404ea71" d="M 0 0 
L -3.5 0 
" style="stroke: #a9a9a9; stroke-width: 0.8"/>
      </defs>
      <g>
       <use xlink:href="#m1f8404ea71" x="108" y="307.835344" style="fill: #a9a9a9; stroke: #a9a9a9; stroke-width: 0.8"/>
      </g>
     </g>
     <g id="text_9">
      <!-- 0 -->
      <g style="fill: #a9a9a9" transform="translate(94.6375 311.634562) scale(0.1 -0.1)">
       <use xlink:href="#DejaVuSans-30"/>
      </g>
     </g>
    </g>
    <g id="ytick_2">
     <g id="line2d_19">
      <path d="M 108 279.560449 
L 777.6 279.560449 
" clip-path="url(#p4a68f26f49)" style="fill: none; stroke-dasharray: 5.12,1.28,0.8,1.28; stroke-dashoffset: 0; stroke: #b0b0b0; stroke-width: 0.8"/>
     </g>
     <g id="line2d_20">
      <g>
       <use xlink:href="#m1f8404ea71" x="108" y="279.560449" style="fill: #a9a9a9; stroke: #a9a9a9; stroke-width: 0.8"/>
      </g>
     </g>
     <g id="text_10">
      <!-- 800 -->
      <g style="fill: #a9a9a9" transform="translate(81.9125 283.359668) scale(0.1 -0.1)">
       <defs>
        <path id="DejaVuSans-38" d="M 2034 2216 
Q 1584 2216 1326 1975 
Q 1069 1734 1069 1313 
Q 1069 891 1326 650 
Q 1584 409 2034 409 
Q 2484 409 2743 651 
Q 3003 894 3003 1313 
Q 3003 1734 2745 1975 
Q 2488 2216 2034 2216 
z
M 1403 2484 
Q 997 2584 770 2862 
Q 544 3141 544 3541 
Q 544 4100 942 4425 
Q 1341 4750 2034 4750 
Q 2731 4750 3128 4425 
Q 3525 4100 3525 3541 
Q 3525 3141 3298 2862 
Q 3072 2584 2669 2484 
Q 3125 2378 3379 2068 
Q 3634 1759 3634 1313 
Q 3634 634 3220 271 
Q 2806 -91 2034 -91 
Q 1263 -91 848 271 
Q 434 634 434 1313 
Q 434 1759 690 2068 
Q 947 2378 1403 2484 
z
M 1172 3481 
Q 1172 3119 1398 2916 
Q 1625 2713 2034 2713 
Q 2441 2713 2670 2916 
Q 2900 3119 2900 3481 
Q 2900 3844 2670 4047 
Q 2441 4250 2034 4250 
Q 1625 4250 1398 4047 
Q 1172 3844 1172 3481 
z
" transform="scale(0.015625)"/>
       </defs>
       <use xlink:href="#DejaVuSans-38"/>
       <use xlink:href="#DejaVuSans-30" transform="translate(63.623047 0)"/>
       <use xlink:href="#DejaVuSans-30" transform="translate(127.246094 0)"/>
      </g>
     </g>
    </g>
    <g id="ytick_3">
     <g id="line2d_21">
      <path d="M 108 251.285554 
L 777.6 251.285554 
" clip-path="url(#p4a68f26f49)" style="fill: none; stroke-dasharray: 5.12,1.28,0.8,1.28; stroke-dashoffset: 0; stroke: #b0b0b0; stroke-width: 0.8"/>
     </g>
     <g id="line2d_22">
      <g>
       <use xlink:href="#m1f8404ea71" x="108" y="251.285554" style="fill: #a9a9a9; stroke: #a9a9a9; stroke-width: 0.8"/>
      </g>
     </g>
     <g id="text_11">
      <!-- 1600 -->
      <g style="fill: #a9a9a9" transform="translate(75.55 255.084773) scale(0.1 -0.1)">
       <defs>
        <path id="DejaVuSans-36" d="M 2113 2584 
Q 1688 2584 1439 2293 
Q 1191 2003 1191 1497 
Q 1191 994 1439 701 
Q 1688 409 2113 409 
Q 2538 409 2786 701 
Q 3034 994 3034 1497 
Q 3034 2003 2786 2293 
Q 2538 2584 2113 2584 
z
M 3366 4563 
L 3366 3988 
Q 3128 4100 2886 4159 
Q 2644 4219 2406 4219 
Q 1781 4219 1451 3797 
Q 1122 3375 1075 2522 
Q 1259 2794 1537 2939 
Q 1816 3084 2150 3084 
Q 2853 3084 3261 2657 
Q 3669 2231 3669 1497 
Q 3669 778 3244 343 
Q 2819 -91 2113 -91 
Q 1303 -91 875 529 
Q 447 1150 447 2328 
Q 447 3434 972 4092 
Q 1497 4750 2381 4750 
Q 2619 4750 2861 4703 
Q 3103 4656 3366 4563 
z
" transform="scale(0.015625)"/>
       </defs>
       <use xlink:href="#DejaVuSans-31"/>
       <use xlink:href="#DejaVuSans-36" transform="translate(63.623047 0)"/>
       <use xlink:href="#DejaVuSans-30" transform="translate(127.246094 0)"/>
       <use xlink:href="#DejaVuSans-30" transform="translate(190.869141 0)"/>
      </g>
     </g>
    </g>
    <g id="ytick_4">
     <g id="line2d_23">
      <path d="M 108 223.010659 
L 777.6 223.010659 
" clip-path="url(#p4a68f26f49)" style="fill: none; stroke-dasharray: 5.12,1.28,0.8,1.28; stroke-dashoffset: 0; stroke: #b0b0b0; stroke-width: 0.8"/>
     </g>
     <g id="line2d_24">
      <g>
       <use xlink:href="#m1f8404ea71" x="108" y="223.010659" style="fill: #a9a9a9; stroke: #a9a9a9; stroke-width: 0.8"/>
      </g>
     </g>
     <g id="text_12">
      <!-- 2400 -->
      <g style="fill: #a9a9a9" transform="translate(75.55 226.809878) scale(0.1 -0.1)">
       <use xlink:href="#DejaVuSans-32"/>
       <use xlink:href="#DejaVuSans-34" transform="translate(63.623047 0)"/>
       <use xlink:href="#DejaVuSans-30" transform="translate(127.246094 0)"/>
       <use xlink:href="#DejaVuSans-30" transform="translate(190.869141 0)"/>
      </g>
     </g>
    </g>
    <g id="ytick_5">
     <g id="line2d_25">
      <path d="M 108 194.735764 
L 777.6 194.735764 
" clip-path="url(#p4a68f26f49)" style="fill: none; stroke-dasharray: 5.12,1.28,0.8,1.28; stroke-dashoffset: 0; stroke: #b0b0b0; stroke-width: 0.8"/>
     </g>
     <g id="line2d_26">
      <g>
       <use xlink:href="#m1f8404ea71" x="108" y="194.735764" style="fill: #a9a9a9; stroke: #a9a9a9; stroke-width: 0.8"/>
      </g>
     </g>
     <g id="text_13">
      <!-- 3200 -->
      <g style="fill: #a9a9a9" transform="translate(75.55 198.534983) scale(0.1 -0.1)">
       <use xlink:href="#DejaVuSans-33"/>
       <use xlink:href="#DejaVuSans-32" transform="translate(63.623047 0)"/>
       <use xlink:href="#DejaVuSans-30" transform="translate(127.246094 0)"/>
       <use xlink:href="#DejaVuSans-30" transform="translate(190.869141 0)"/>
      </g>
     </g>
    </g>
    <g id="ytick_6">
     <g id="line2d_27">
      <path d="M 108 166.46087 
L 777.6 166.46087 
" clip-path="url(#p4a68f26f49)" style="fill: none; stroke-dasharray: 5.12,1.28,0.8,1.28; stroke-dashoffset: 0; stroke: #b0b0b0; stroke-width: 0.8"/>
     </g>
     <g id="line2d_28">
      <g>
       <use xlink:href="#m1f8404ea71" x="108" y="166.46087" style="fill: #a9a9a9; stroke: #a9a9a9; stroke-width: 0.8"/>
      </g>
     </g>
     <g id="text_14">
      <!-- 4000 -->
      <g style="fill: #a9a9a9" transform="translate(75.55 170.260088) scale(0.1 -0.1)">
       <use xlink:href="#DejaVuSans-34"/>
       <use xlink:href="#DejaVuSans-30" transform="translate(63.623047 0)"/>
       <use xlink:href="#DejaVuSans-30" transform="translate(127.246094 0)"/>
       <use xlink:href="#DejaVuSans-30" transform="translate(190.869141 0)"/>
      </g>
     </g>
    </g>
    <g id="ytick_7">
     <g id="line2d_29">
      <path d="M 108 138.185975 
L 777.6 138.185975 
" clip-path="url(#p4a68f26f49)" style="fill: none; stroke-dasharray: 5.12,1.28,0.8,1.28; stroke-dashoffset: 0; stroke: #b0b0b0; stroke-width: 0.8"/>
     </g>
     <g id="line2d_30">
      <g>
       <use xlink:href="#m1f8404ea71" x="108" y="138.185975" style="fill: #a9a9a9; stroke: #a9a9a9; stroke-width: 0.8"/>
      </g>
     </g>
     <g id="text_15">
      <!-- 4800 -->
      <g style="fill: #a9a9a9" transform="translate(75.55 141.985194) scale(0.1 -0.1)">
       <use xlink:href="#DejaVuSans-34"/>
       <use xlink:href="#DejaVuSans-38" transform="translate(63.623047 0)"/>
       <use xlink:href="#DejaVuSans-30" transform="translate(127.246094 0)"/>
       <use xlink:href="#DejaVuSans-30" transform="translate(190.869141 0)"/>
      </g>
     </g>
    </g>
    <g id="ytick_8">
     <g id="line2d_31">
      <path d="M 108 109.91108 
L 777.6 109.91108 
" clip-path="url(#p4a68f26f49)" style="fill: none; stroke-dasharray: 5.12,1.28,0.8,1.28; stroke-dashoffset: 0; stroke: #b0b0b0; stroke-width: 0.8"/>
     </g>
     <g id="line2d_32">
      <g>
       <use xlink:href="#m1f8404ea71" x="108" y="109.91108" style="fill: #a9a9a9; stroke: #a9a9a9; stroke-width: 0.8"/>
      </g>
     </g>
     <g id="text_16">
      <!-- 5600 -->
      <g style="fill: #a9a9a9" transform="translate(75.55 113.710299) scale(0.1 -0.1)">
       <use xlink:href="#DejaVuSans-35"/>
       <use xlink:href="#DejaVuSans-36" transform="translate(63.623047 0)"/>
       <use xlink:href="#DejaVuSans-30" transform="translate(127.246094 0)"/>
       <use xlink:href="#DejaVuSans-30" transform="translate(190.869141 0)"/>
      </g>
     </g>
    </g>
    <g id="ytick_9">
     <g id="line2d_33">
      <path d="M 108 81.636185 
L 777.6 81.636185 
" clip-path="url(#p4a68f26f49)" style="fill: none; stroke-dasharray: 5.12,1.28,0.8,1.28; stroke-dashoffset: 0; stroke: #b0b0b0; stroke-width: 0.8"/>
     </g>
     <g id="line2d_34">
      <g>
       <use xlink:href="#m1f8404ea71" x="108" y="81.636185" style="fill: #a9a9a9; stroke: #a9a9a9; stroke-width: 0.8"/>
      </g>
     </g>
     <g id="text_17">
      <!-- 6400 -->
      <g style="fill: #a9a9a9" transform="translate(75.55 85.435404) scale(0.1 -0.1)">
       <use xlink:href="#DejaVuSans-36"/>
       <use xlink:href="#DejaVuSans-34" transform="translate(63.623047 0)"/>
       <use xlink:href="#DejaVuSans-30" transform="translate(127.246094 0)"/>
       <use xlink:href="#DejaVuSans-30" transform="translate(190.869141 0)"/>
      </g>
     </g>
    </g>
    <g id="ytick_10">
     <g id="line2d_35">
      <path d="M 108 53.36129 
L 777.6 53.36129 
" clip-path="url(#p4a68f26f49)" style="fill: none; stroke-dasharray: 5.12,1.28,0.8,1.28; stroke-dashoffset: 0; stroke: #b0b0b0; stroke-width: 0.8"/>
     </g>
     <g id="line2d_36">
      <g>
       <use xlink:href="#m1f8404ea71" x="108" y="53.36129" style="fill: #a9a9a9; stroke: #a9a9a9; stroke-width: 0.8"/>
      </g>
     </g>
     <g id="text_18">
      <!-- 7200 -->
      <g style="fill: #a9a9a9" transform="translate(75.55 57.160509) scale(0.1 -0.1)">
       <use xlink:href="#DejaVuSans-37"/>
       <use xlink:href="#DejaVuSans-32" transform="translate(63.623047 0)"/>
       <use xlink:href="#DejaVuSans-30" transform="translate(127.246094 0)"/>
       <use xlink:href="#DejaVuSans-30" transform="translate(190.869141 0)"/>
      </g>
     </g>
    </g>
   </g>
   <g id="line2d_37">
    <path d="M 138.436364 307.729313 
L 141.360594 307.481907 
L 141.847966 307.269846 
L 143.797453 307.02244 
L 145.746939 306.633661 
L 146.721683 306.492286 
L 149.158541 306.280224 
L 150.133285 305.891445 
L 150.620657 305.255259 
L 151.108028 304.901823 
L 151.5954 303.806171 
L 152.082772 303.735484 
L 152.570143 303.346704 
L 153.544887 302.851893 
L 155.494374 301.296774 
L 157.443861 300.342496 
L 158.905976 299.670968 
L 159.393347 298.893408 
L 160.368091 298.186536 
L 160.855463 297.974474 
L 165.72918 297.267602 
L 166.216551 297.05554 
L 169.628153 296.772791 
L 171.57764 296.313324 
L 175.476614 295.78317 
L 175.963986 295.535764 
L 176.451357 295.465077 
L 177.426101 295.146985 
L 180.837703 294.581487 
L 181.812446 294.298738 
L 186.198792 293.556522 
L 187.173535 293.34446 
L 188.148279 293.309116 
L 190.097765 292.849649 
L 190.585137 292.178121 
L 192.047252 291.612623 
L 193.509367 291.223843 
L 193.996739 290.976438 
L 194.971483 290.799719 
L 196.92097 290.234222 
L 197.895713 290.163534 
L 198.870456 289.916129 
L 200.819943 289.421318 
L 201.307315 289.385975 
L 202.282058 288.926508 
L 202.76943 288.85582 
L 203.256802 288.608415 
L 208.617891 287.724825 
L 210.567378 287.159327 
L 211.054749 286.841234 
L 213.491608 286.028331 
L 214.466351 285.356802 
L 215.928466 285.074053 
L 228.600131 281.504348 
L 229.087503 281.504348 
L 229.574874 281.292286 
L 230.549618 281.186255 
L 231.03699 281.009537 
L 232.986476 280.903506 
L 233.96122 280.726788 
L 234.935963 280.231978 
L 236.398078 279.701823 
L 236.88545 279.383731 
L 237.860194 278.959607 
L 238.347565 278.712202 
L 239.322309 278.394109 
L 239.80968 278.252735 
L 240.784424 277.651893 
L 241.271796 277.121739 
L 242.246539 275.637307 
L 242.733911 275.495933 
L 243.221282 275.495933 
L 244.683398 274.647686 
L 245.170769 274.400281 
L 245.658141 274.29425 
L 246.145513 273.834783 
L 247.120256 273.446003 
L 248.095 272.986536 
L 248.582371 272.385694 
L 249.069743 271.608135 
L 249.557115 271.290042 
L 250.044486 270.441795 
L 250.531858 269.911641 
L 253.456089 268.356522 
L 254.430832 267.578962 
L 254.918204 267.26087 
L 255.405575 266.518654 
L 255.892947 265.423001 
L 256.380319 264.680785 
L 256.867691 264.292006 
L 257.355062 264.079944 
L 260.766664 261.181767 
L 261.741408 260.015428 
L 263.203523 258.990463 
L 265.15301 257.824123 
L 266.127753 257.293969 
L 268.07724 256.269004 
L 270.514099 254.0777 
L 271.488842 253.68892 
L 272.463585 253.017391 
L 272.950957 252.734642 
L 273.438329 252.663955 
L 274.900444 251.851052 
L 275.387816 251.320898 
L 277.824674 250.013184 
L 278.312046 249.836466 
L 279.774161 248.846844 
L 287.084737 246.26676 
L 288.05948 245.38317 
L 289.034224 244.923703 
L 290.008967 244.393548 
L 290.496339 244.110799 
L 291.471082 243.82805 
L 291.958454 243.509958 
L 292.445826 243.368583 
L 293.907941 242.414306 
L 296.344799 241.848808 
L 297.806915 241.000561 
L 299.26903 240.682468 
L 299.756401 240.541094 
L 301.218517 239.445442 
L 303.168003 238.915288 
L 303.655375 238.526508 
L 306.579606 237.536886 
L 307.554349 237.360168 
L 308.529092 236.971388 
L 311.940694 235.734362 
L 312.915438 235.592987 
L 314.377553 235.098177 
L 316.814412 233.931837 
L 318.763898 232.871529 
L 322.662872 231.281066 
L 323.150244 231.210379 
L 324.124987 230.609537 
L 324.612359 230.53885 
L 326.561846 229.725947 
L 328.511333 229.478541 
L 329.486076 228.983731 
L 329.973448 228.559607 
L 330.46082 227.676017 
L 332.410306 227.145863 
L 333.872422 226.403647 
L 334.359793 226.297616 
L 338.258767 224.424404 
L 339.720882 224.141655 
L 340.695626 223.646844 
L 341.182997 223.434783 
L 341.670369 223.364095 
L 343.619856 222.480505 
L 345.081971 221.561571 
L 346.544086 221.278822 
L 348.980945 220.67798 
L 349.468316 220.289201 
L 350.930432 219.759046 
L 352.879918 218.981487 
L 353.36729 218.62805 
L 353.854662 218.451332 
L 354.829405 217.921178 
L 357.266264 217.108275 
L 358.728379 215.941935 
L 359.215751 215.835905 
L 360.190494 215.058345 
L 360.677866 214.987658 
L 361.165238 214.210098 
L 361.652609 213.998036 
L 362.139981 213.609257 
L 362.627353 213.538569 
L 363.602096 212.937728 
L 364.57684 212.619635 
L 365.064211 212.266199 
L 365.551583 212.089481 
L 367.013698 211.064516 
L 368.963185 210.039551 
L 369.450557 209.968864 
L 370.912672 209.226648 
L 371.400044 208.413745 
L 372.374787 207.706872 
L 372.862159 207.600842 
L 373.836902 207 
L 374.324274 206.893969 
L 375.299017 206.399158 
L 377.248504 205.444881 
L 377.735876 205.091445 
L 378.710619 204.137167 
L 379.685363 203.536325 
L 380.172735 203.218233 
L 380.660106 202.688079 
L 382.609593 201.345021 
L 383.096965 200.779523 
L 383.584337 200.390743 
L 384.55908 200.037307 
L 385.533823 199.365778 
L 386.995939 198.623562 
L 387.48331 198.552875 
L 388.945425 197.775316 
L 389.920169 197.174474 
L 394.793886 195.407293 
L 395.281258 195.018513 
L 397.230745 194.276297 
L 397.718116 194.134923 
L 398.69286 193.498738 
L 399.667603 193.074614 
L 400.642347 192.403086 
L 401.61709 190.459187 
L 402.591833 189.328191 
L 404.053949 188.585975 
L 405.028692 188.197195 
L 405.516064 188.126508 
L 406.003435 187.843759 
L 408.440294 187.066199 
L 408.927666 186.854137 
L 409.902409 186.182609 
L 411.364524 185.546424 
L 412.339268 185.016269 
L 412.826639 184.662833 
L 413.314011 184.450771 
L 413.801383 184.097335 
L 414.288755 183.567181 
L 415.263498 183.037027 
L 417.700357 181.729313 
L 420.624587 180.280224 
L 422.086702 179.856101 
L 423.548817 179.290603 
L 424.036189 178.937167 
L 425.010932 178.654418 
L 425.985676 178.265638 
L 426.473048 177.876858 
L 428.422534 177.20533 
L 429.397278 176.498457 
L 430.372021 176.074334 
L 431.346765 175.296774 
L 432.321508 174.943338 
L 432.80888 174.519215 
L 433.296252 174.448527 
L 434.270995 173.706311 
L 435.245738 173.211501 
L 435.73311 172.999439 
L 436.220482 172.504628 
L 439.632084 171.161571 
L 440.606827 170.737447 
L 442.068942 170.27798 
L 443.043686 170.136606 
L 443.531058 169.924544 
L 444.018429 169.853857 
L 444.993173 169.429734 
L 445.480544 169.39439 
L 447.430031 168.652174 
L 448.892146 167.627209 
L 449.379518 167.450491 
L 450.354262 166.920337 
L 450.841633 166.778962 
L 453.765864 165.153156 
L 454.253235 165.047125 
L 455.71535 164.198878 
L 457.177466 163.704067 
L 458.152209 163.385975 
L 460.101696 162.74979 
L 461.076439 162.431697 
L 463.025926 162.042917 
L 463.513298 161.830856 
L 464.00067 161.760168 
L 464.975413 161.336045 
L 465.462785 161.265358 
L 465.950156 161.017952 
L 466.9249 160.841234 
L 468.387015 160.31108 
L 469.361758 160.205049 
L 470.823874 159.886957 
L 473.260732 159.462833 
L 485.932397 155.787097 
L 486.419769 155.292286 
L 487.394512 154.903506 
L 491.293486 153.454418 
L 491.780857 153.171669 
L 493.242973 152.747546 
L 494.217716 152.50014 
L 494.705088 152.182048 
L 495.192459 152.076017 
L 495.679831 151.651893 
L 497.141946 151.369144 
L 498.11669 150.909677 
L 498.604061 150.34418 
L 500.553548 149.884712 
L 503.96515 149.17784 
L 504.452522 149.17784 
L 504.939894 148.965778 
L 506.889381 148.612342 
L 507.376752 148.400281 
L 509.326239 148.046844 
L 510.300983 147.622721 
L 511.275726 147.446003 
L 513.712585 146.845161 
L 515.662071 146.24432 
L 516.149443 146.138289 
L 516.636815 145.890884 
L 517.611558 145.643478 
L 518.09893 145.360729 
L 519.561045 144.865919 
L 520.048417 144.547826 
L 521.02316 144.265077 
L 524.922134 142.92202 
L 525.896878 142.851332 
L 527.846364 142.285835 
L 528.333736 142.003086 
L 529.30848 141.720337 
L 531.745338 140.624684 
L 532.23271 140.589341 
L 537.593799 138.716129 
L 540.030657 138.079944 
L 541.005401 137.620477 
L 542.467516 137.302384 
L 544.417003 135.711921 
L 545.391746 135.429173 
L 545.879118 135.040393 
L 548.803348 133.944741 
L 549.29072 133.626648 
L 550.265463 133.343899 
L 550.752835 133.025806 
L 553.189694 132.248247 
L 554.651809 131.4 
L 555.13918 131.293969 
L 557.576039 129.986255 
L 559.038154 129.35007 
L 559.525526 128.996634 
L 560.500269 128.678541 
L 561.475013 128.113043 
L 561.962384 127.936325 
L 562.449756 127.582889 
L 568.785588 125.356241 
L 569.27296 125.25021 
L 569.760332 124.932118 
L 571.709819 124.543338 
L 572.684562 124.154558 
L 575.608792 122.740813 
L 576.096164 122.670126 
L 577.558279 121.857223 
L 579.020394 121.362412 
L 582.431997 119.984011 
L 582.919368 119.842637 
L 583.40674 119.524544 
L 584.381483 119.418513 
L 584.868855 119.100421 
L 585.843599 118.923703 
L 586.818342 118.464236 
L 587.305714 118.252174 
L 587.793085 118.181487 
L 590.229944 117.227209 
L 591.692059 116.838429 
L 592.666803 116.591024 
L 594.128918 116.1669 
L 595.103661 115.778121 
L 597.053148 114.717812 
L 598.027891 114.329032 
L 598.515263 114.01094 
L 599.490007 113.798878 
L 599.977378 113.516129 
L 600.46475 113.410098 
L 601.926865 112.597195 
L 602.901609 112.208415 
L 604.851095 111.466199 
L 607.287954 110.653296 
L 608.262697 110.158485 
L 610.699556 109.345582 
L 613.623786 108.179243 
L 615.573273 107.295652 
L 620.44699 105.42244 
L 620.934362 105.104348 
L 622.883849 104.432819 
L 623.371221 104.432819 
L 624.345964 104.008696 
L 626.295451 102.453576 
L 626.782823 102.312202 
L 627.270194 101.994109 
L 627.757566 101.888079 
L 628.244938 101.640673 
L 628.732309 101.569986 
L 629.219681 101.21655 
L 629.707053 101.110519 
L 630.681796 100.509677 
L 632.143911 99.767461 
L 633.118655 99.378682 
L 633.606027 99.131276 
L 635.068142 98.813184 
L 637.505 98.000281 
L 638.479744 97.682188 
L 639.941859 96.939972 
L 640.916602 96.480505 
L 641.891346 96.2331 
L 643.353461 95.561571 
L 647.739806 93.971108 
L 649.201922 93.087518 
L 649.689293 92.981487 
L 650.664037 92.486676 
L 651.63878 92.13324 
L 652.126152 91.709116 
L 653.100895 91.320337 
L 656.025126 90.153997 
L 657.487241 89.729874 
L 657.974612 89.482468 
L 658.461984 89.411781 
L 659.924099 88.881627 
L 661.386214 88.351473 
L 662.360958 87.962693 
L 662.84833 87.573913 
L 664.310445 87.185133 
L 664.797816 86.902384 
L 665.77256 86.654979 
L 667.234675 85.842076 
L 667.722047 85.806732 
L 669.184162 85.347265 
L 670.158905 85.276578 
L 671.133649 84.887798 
L 674.057879 84.039551 
L 675.032622 84.004208 
L 678.931596 82.767181 
L 679.90634 82.237027 
L 680.393711 81.812903 
L 681.855826 80.964656 
L 682.83057 80.363815 
L 685.7548 79.444881 
L 686.242172 79.056101 
L 689.166402 77.854418 
L 691.115889 77.324264 
L 692.090633 76.90014 
L 692.578004 76.652735 
L 693.552748 76.369986 
L 694.040119 76.087237 
L 695.014863 75.910519 
L 697.451721 74.779523 
L 697.939093 74.496774 
L 699.401208 74.143338 
L 699.88858 73.825245 
L 700.375952 73.648527 
L 700.863323 73.224404 
L 701.350695 73.153717 
L 703.300182 72.376157 
L 705.249669 71.91669 
L 705.737041 71.846003 
L 706.224412 71.633941 
L 706.711784 71.598597 
L 707.686527 71.280505 
L 708.173899 71.245161 
L 709.636014 70.679663 
L 711.585501 70.114165 
L 712.560245 69.37195 
L 714.509731 68.311641 
L 715.971847 67.81683 
L 718.896077 66.509116 
L 719.87082 65.978962 
L 720.358192 65.731557 
L 720.845564 65.27209 
L 723.769794 64.317812 
L 724.744537 63.929032 
L 725.719281 63.646283 
L 726.206653 63.398878 
L 726.694024 62.939411 
L 728.643511 62.4446 
L 729.130883 62.091164 
L 735.466715 59.793829 
L 736.441459 59.617111 
L 740.827804 58.097335 
L 741.802547 57.84993 
L 742.289919 57.637868 
L 742.777291 57.602525 
L 743.752034 57.213745 
L 744.726778 56.612903 
L 745.21415 56.436185 
L 745.701521 56.400842 
L 747.163636 55.8 
L 747.163636 55.8 
" clip-path="url(#p4a68f26f49)" style="fill: none; stroke: #1f77b4; stroke-width: 1.5; stroke-linecap: square"/>
   </g>
   <g id="line2d_38">
    <path d="M 138.923735 307.8 
L 143.310081 307.693969 
L 147.209055 307.517251 
L 149.158541 307.517251 
L 149.645913 307.375877 
L 152.082772 307.269846 
L 155.007002 306.951753 
L 157.931232 306.845722 
L 158.905976 306.739691 
L 162.317578 306.598317 
L 165.72918 306.492286 
L 168.166038 306.421599 
L 174.501871 306.315568 
L 176.938729 306.244881 
L 180.350331 306.13885 
L 182.78719 306.068163 
L 188.148279 305.962132 
L 190.097765 305.785414 
L 192.047252 305.75007 
L 194.971483 305.644039 
L 196.92097 305.608696 
L 199.357828 305.538008 
L 201.307315 305.36129 
L 205.69366 305.255259 
L 206.668404 305.184572 
L 208.617891 305.078541 
L 211.542121 304.972511 
L 213.491608 304.86648 
L 222.264299 304.336325 
L 225.675901 304.230295 
L 227.138016 304.08892 
L 229.574874 303.982889 
L 234.448592 303.735484 
L 239.322309 303.664797 
L 241.271796 303.452735 
L 243.221282 303.346704 
L 248.582371 302.851893 
L 251.993973 302.463114 
L 253.456089 302.392426 
L 257.842434 301.862272 
L 260.279293 301.791585 
L 261.741408 301.65021 
L 263.203523 301.54418 
L 276.849931 300.519215 
L 277.824674 300.342496 
L 280.748905 300.236466 
L 288.546852 299.776999 
L 291.958454 299.670968 
L 293.907941 299.458906 
L 296.344799 299.352875 
L 299.26903 299.246844 
L 301.705888 299.140813 
L 303.655375 299.10547 
L 306.092234 299.034783 
L 307.066977 298.893408 
L 313.890181 298.787377 
L 314.864925 298.681346 
L 320.713385 298.575316 
L 325.099731 298.363254 
L 328.511333 298.257223 
L 330.46082 298.045161 
L 333.872422 297.93913 
L 334.847165 297.762412 
L 337.284024 297.691725 
L 342.157741 297.621038 
L 344.594599 297.373633 
L 347.51883 297.267602 
L 349.468316 297.090884 
L 354.342034 296.843478 
L 359.215751 296.737447 
L 363.602096 296.525386 
L 365.064211 296.490042 
L 366.038955 296.348668 
L 368.475813 296.242637 
L 369.450557 296.17195 
L 370.4253 296.101262 
L 371.400044 296.030575 
L 375.786389 295.959888 
L 377.248504 295.853857 
L 390.407541 295.00561 
L 392.844399 294.899579 
L 395.281258 294.828892 
L 402.104462 294.722861 
L 403.079205 294.581487 
L 409.902409 294.475456 
L 414.776126 294.22805 
L 415.75087 294.192707 
L 416.725613 294.086676 
L 419.162472 293.980645 
L 421.59933 293.909958 
L 424.036189 293.803927 
L 426.473048 293.73324 
L 430.859393 293.627209 
L 433.783623 293.521178 
L 440.606827 293.415147 
L 445.967916 293.132398 
L 447.917403 293.061711 
L 449.379518 292.95568 
L 456.202722 292.849649 
L 459.126952 292.743619 
L 467.899643 292.637588 
L 469.84913 292.602244 
L 475.697591 292.531557 
L 476.672334 292.46087 
L 483.495538 292.354839 
L 485.445025 292.319495 
L 498.11669 292.213464 
L 499.578805 292.07209 
L 521.510532 291.966059 
L 523.947391 291.895372 
L 536.619055 291.789341 
L 537.593799 291.718654 
L 540.030657 291.647966 
L 541.492772 291.506592 
L 544.417003 291.400561 
L 547.828605 291.259187 
L 552.21495 291.153156 
L 554.651809 291.082468 
L 558.063411 290.976438 
L 561.962384 290.799719 
L 564.399243 290.693689 
L 566.34873 290.658345 
L 570.735075 290.552314 
L 572.684562 290.516971 
L 579.020394 290.41094 
L 580.969881 290.375596 
L 583.40674 290.269565 
L 586.33097 290.163534 
L 589.742572 290.092847 
L 590.717316 290.02216 
L 602.414237 289.916129 
L 608.750069 289.562693 
L 611.186928 289.492006 
L 612.161671 289.385975 
L 613.136415 289.315288 
L 617.035388 289.209257 
L 619.959619 289.103226 
L 624.833336 288.997195 
L 627.270194 288.74979 
L 632.143911 288.643759 
L 633.118655 288.537728 
L 637.992372 288.431697 
L 640.429231 288.36101 
L 645.79032 288.325666 
L 646.765063 288.219635 
L 652.126152 288.113604 
L 653.100895 288.042917 
L 663.823073 287.936886 
L 666.747303 287.830856 
L 674.057879 287.724825 
L 676.007366 287.689481 
L 680.393711 287.618794 
L 681.368455 287.512763 
L 687.704287 287.406732 
L 690.141146 287.336045 
L 698.913837 287.230014 
L 700.375952 287.123983 
L 701.838067 287.017952 
L 703.300182 286.911921 
L 710.610758 286.805891 
L 713.534988 286.69986 
L 726.694024 286.593829 
L 731.08037 286.381767 
L 736.92883 286.275736 
L 737.903574 286.169705 
L 745.21415 286.099018 
L 746.188893 286.028331 
L 747.163636 285.992987 
L 747.163636 285.992987 
" clip-path="url(#p4a68f26f49)" style="fill: none; stroke: #ff7f0e; stroke-width: 1.5; stroke-linecap: square"/>
   </g>
   <g id="patch_3">
    <path d="M 108 320.4 
L 108 43.2 
" style="fill: none; stroke: #a9a9a9; stroke-width: 0.8; stroke-linejoin: miter; stroke-linecap: square"/>
   </g>
   <g id="patch_4">
    <path d="M 777.6 320.4 
L 777.6 43.2 
" style="fill: none"/>
   </g>
   <g id="patch_5">
    <path d="M 108 320.4 
L 777.6 320.4 
" style="fill: none; stroke: #a9a9a9; stroke-width: 0.8; stroke-linejoin: miter; stroke-linecap: square"/>
   </g>
   <g id="patch_6">
    <path d="M 108 43.2 
L 777.6 43.2 
" style="fill: none"/>
   </g>
   <g id="text_19">
    <!-- get_subscribe history -->
    <g style="fill: #a9a9a9" transform="translate(378.6075 37.2) scale(0.12 -0.12)">
     <defs>
      <path id="DejaVuSans-67" d="M 2906 1791 
Q 2906 2416 2648 2759 
Q 2391 3103 1925 3103 
Q 1463 3103 1205 2759 
Q 947 2416 947 1791 
Q 947 1169 1205 825 
Q 1463 481 1925 481 
Q 2391 481 2648 825 
Q 2906 1169 2906 1791 
z
M 3481 434 
Q 3481 -459 3084 -895 
Q 2688 -1331 1869 -1331 
Q 1566 -1331 1297 -1286 
Q 1028 -1241 775 -1147 
L 775 -588 
Q 1028 -725 1275 -790 
Q 1522 -856 1778 -856 
Q 2344 -856 2625 -561 
Q 2906 -266 2906 331 
L 2906 616 
Q 2728 306 2450 153 
Q 2172 0 1784 0 
Q 1141 0 747 490 
Q 353 981 353 1791 
Q 353 2603 747 3093 
Q 1141 3584 1784 3584 
Q 2172 3584 2450 3431 
Q 2728 3278 2906 2969 
L 2906 3500 
L 3481 3500 
L 3481 434 
z
" transform="scale(0.015625)"/>
      <path id="DejaVuSans-65" d="M 3597 1894 
L 3597 1613 
L 953 1613 
Q 991 1019 1311 708 
Q 1631 397 2203 397 
Q 2534 397 2845 478 
Q 3156 559 3463 722 
L 3463 178 
Q 3153 47 2828 -22 
Q 2503 -91 2169 -91 
Q 1331 -91 842 396 
Q 353 884 353 1716 
Q 353 2575 817 3079 
Q 1281 3584 2069 3584 
Q 2775 3584 3186 3129 
Q 3597 2675 3597 1894 
z
M 3022 2063 
Q 3016 2534 2758 2815 
Q 2500 3097 2075 3097 
Q 1594 3097 1305 2825 
Q 1016 2553 972 2059 
L 3022 2063 
z
" transform="scale(0.015625)"/>
      <path id="DejaVuSans-74" d="M 1172 4494 
L 1172 3500 
L 2356 3500 
L 2356 3053 
L 1172 3053 
L 1172 1153 
Q 1172 725 1289 603 
Q 1406 481 1766 481 
L 2356 481 
L 2356 0 
L 1766 0 
Q 1100 0 847 248 
Q 594 497 594 1153 
L 594 3053 
L 172 3053 
L 172 3500 
L 594 3500 
L 594 4494 
L 1172 4494 
z
" transform="scale(0.015625)"/>
      <path id="DejaVuSans-5f" d="M 3263 -1063 
L 3263 -1509 
L -63 -1509 
L -63 -1063 
L 3263 -1063 
z
" transform="scale(0.015625)"/>
      <path id="DejaVuSans-73" d="M 2834 3397 
L 2834 2853 
Q 2591 2978 2328 3040 
Q 2066 3103 1784 3103 
Q 1356 3103 1142 2972 
Q 928 2841 928 2578 
Q 928 2378 1081 2264 
Q 1234 2150 1697 2047 
L 1894 2003 
Q 2506 1872 2764 1633 
Q 3022 1394 3022 966 
Q 3022 478 2636 193 
Q 2250 -91 1575 -91 
Q 1294 -91 989 -36 
Q 684 19 347 128 
L 347 722 
Q 666 556 975 473 
Q 1284 391 1588 391 
Q 1994 391 2212 530 
Q 2431 669 2431 922 
Q 2431 1156 2273 1281 
Q 2116 1406 1581 1522 
L 1381 1569 
Q 847 1681 609 1914 
Q 372 2147 372 2553 
Q 372 3047 722 3315 
Q 1072 3584 1716 3584 
Q 2034 3584 2315 3537 
Q 2597 3491 2834 3397 
z
" transform="scale(0.015625)"/>
      <path id="DejaVuSans-75" d="M 544 1381 
L 544 3500 
L 1119 3500 
L 1119 1403 
Q 1119 906 1312 657 
Q 1506 409 1894 409 
Q 2359 409 2629 706 
Q 2900 1003 2900 1516 
L 2900 3500 
L 3475 3500 
L 3475 0 
L 2900 0 
L 2900 538 
Q 2691 219 2414 64 
Q 2138 -91 1772 -91 
Q 1169 -91 856 284 
Q 544 659 544 1381 
z
M 1991 3584 
L 1991 3584 
z
" transform="scale(0.015625)"/>
      <path id="DejaVuSans-62" d="M 3116 1747 
Q 3116 2381 2855 2742 
Q 2594 3103 2138 3103 
Q 1681 3103 1420 2742 
Q 1159 2381 1159 1747 
Q 1159 1113 1420 752 
Q 1681 391 2138 391 
Q 2594 391 2855 752 
Q 3116 1113 3116 1747 
z
M 1159 2969 
Q 1341 3281 1617 3432 
Q 1894 3584 2278 3584 
Q 2916 3584 3314 3078 
Q 3713 2572 3713 1747 
Q 3713 922 3314 415 
Q 2916 -91 2278 -91 
Q 1894 -91 1617 61 
Q 1341 213 1159 525 
L 1159 0 
L 581 0 
L 581 4863 
L 1159 4863 
L 1159 2969 
z
" transform="scale(0.015625)"/>
      <path id="DejaVuSans-63" d="M 3122 3366 
L 3122 2828 
Q 2878 2963 2633 3030 
Q 2388 3097 2138 3097 
Q 1578 3097 1268 2742 
Q 959 2388 959 1747 
Q 959 1106 1268 751 
Q 1578 397 2138 397 
Q 2388 397 2633 464 
Q 2878 531 3122 666 
L 3122 134 
Q 2881 22 2623 -34 
Q 2366 -91 2075 -91 
Q 1284 -91 818 406 
Q 353 903 353 1747 
Q 353 2603 823 3093 
Q 1294 3584 2113 3584 
Q 2378 3584 2631 3529 
Q 2884 3475 3122 3366 
z
" transform="scale(0.015625)"/>
      <path id="DejaVuSans-72" d="M 2631 2963 
Q 2534 3019 2420 3045 
Q 2306 3072 2169 3072 
Q 1681 3072 1420 2755 
Q 1159 2438 1159 1844 
L 1159 0 
L 581 0 
L 581 3500 
L 1159 3500 
L 1159 2956 
Q 1341 3275 1631 3429 
Q 1922 3584 2338 3584 
Q 2397 3584 2469 3576 
Q 2541 3569 2628 3553 
L 2631 2963 
z
" transform="scale(0.015625)"/>
      <path id="DejaVuSans-69" d="M 603 3500 
L 1178 3500 
L 1178 0 
L 603 0 
L 603 3500 
z
M 603 4863 
L 1178 4863 
L 1178 4134 
L 603 4134 
L 603 4863 
z
" transform="scale(0.015625)"/>
      <path id="DejaVuSans-20" transform="scale(0.015625)"/>
      <path id="DejaVuSans-68" d="M 3513 2113 
L 3513 0 
L 2938 0 
L 2938 2094 
Q 2938 2591 2744 2837 
Q 2550 3084 2163 3084 
Q 1697 3084 1428 2787 
Q 1159 2491 1159 1978 
L 1159 0 
L 581 0 
L 581 4863 
L 1159 4863 
L 1159 2956 
Q 1366 3272 1645 3428 
Q 1925 3584 2291 3584 
Q 2894 3584 3203 3211 
Q 3513 2838 3513 2113 
z
" transform="scale(0.015625)"/>
      <path id="DejaVuSans-6f" d="M 1959 3097 
Q 1497 3097 1228 2736 
Q 959 2375 959 1747 
Q 959 1119 1226 758 
Q 1494 397 1959 397 
Q 2419 397 2687 759 
Q 2956 1122 2956 1747 
Q 2956 2369 2687 2733 
Q 2419 3097 1959 3097 
z
M 1959 3584 
Q 2709 3584 3137 3096 
Q 3566 2609 3566 1747 
Q 3566 888 3137 398 
Q 2709 -91 1959 -91 
Q 1206 -91 779 398 
Q 353 888 353 1747 
Q 353 2609 779 3096 
Q 1206 3584 1959 3584 
z
" transform="scale(0.015625)"/>
      <path id="DejaVuSans-79" d="M 2059 -325 
Q 1816 -950 1584 -1140 
Q 1353 -1331 966 -1331 
L 506 -1331 
L 506 -850 
L 844 -850 
Q 1081 -850 1212 -737 
Q 1344 -625 1503 -206 
L 1606 56 
L 191 3500 
L 800 3500 
L 1894 763 
L 2988 3500 
L 3597 3500 
L 2059 -325 
z
" transform="scale(0.015625)"/>
     </defs>
     <use xlink:href="#DejaVuSans-67"/>
     <use xlink:href="#DejaVuSans-65" transform="translate(63.476562 0)"/>
     <use xlink:href="#DejaVuSans-74" transform="translate(125 0)"/>
     <use xlink:href="#DejaVuSans-5f" transform="translate(164.208984 0)"/>
     <use xlink:href="#DejaVuSans-73" transform="translate(214.208984 0)"/>
     <use xlink:href="#DejaVuSans-75" transform="translate(266.308594 0)"/>
     <use xlink:href="#DejaVuSans-62" transform="translate(329.6875 0)"/>
     <use xlink:href="#DejaVuSans-73" transform="translate(393.164062 0)"/>
     <use xlink:href="#DejaVuSans-63" transform="translate(445.263672 0)"/>
     <use xlink:href="#DejaVuSans-72" transform="translate(500.244141 0)"/>
     <use xlink:href="#DejaVuSans-69" transform="translate(541.357422 0)"/>
     <use xlink:href="#DejaVuSans-62" transform="translate(569.140625 0)"/>
     <use xlink:href="#DejaVuSans-65" transform="translate(632.617188 0)"/>
     <use xlink:href="#DejaVuSans-20" transform="translate(694.140625 0)"/>
     <use xlink:href="#DejaVuSans-68" transform="translate(725.927734 0)"/>
     <use xlink:href="#DejaVuSans-69" transform="translate(789.306641 0)"/>
     <use xlink:href="#DejaVuSans-73" transform="translate(817.089844 0)"/>
     <use xlink:href="#DejaVuSans-74" transform="translate(869.189453 0)"/>
     <use xlink:href="#DejaVuSans-6f" transform="translate(908.398438 0)"/>
     <use xlink:href="#DejaVuSans-72" transform="translate(969.580078 0)"/>
     <use xlink:href="#DejaVuSans-79" transform="translate(1010.693359 0)"/>
    </g>
   </g>
   <g id="legend_1">
    <g id="line2d_39">
     <path d="M 815.08 328.498438 
L 825.08 328.498438 
L 835.08 328.498438 
" style="fill: none; stroke: #1f77b4; stroke-width: 1.5; stroke-linecap: square"/>
    </g>
    <g id="text_20">
     <!-- star -->
     <g style="fill: #a9a9a9" transform="translate(843.08 331.998438) scale(0.1 -0.1)">
      <defs>
       <path id="DejaVuSans-61" d="M 2194 1759 
Q 1497 1759 1228 1600 
Q 959 1441 959 1056 
Q 959 750 1161 570 
Q 1363 391 1709 391 
Q 2188 391 2477 730 
Q 2766 1069 2766 1631 
L 2766 1759 
L 2194 1759 
z
M 3341 1997 
L 3341 0 
L 2766 0 
L 2766 531 
Q 2569 213 2275 61 
Q 1981 -91 1556 -91 
Q 1019 -91 701 211 
Q 384 513 384 1019 
Q 384 1609 779 1909 
Q 1175 2209 1959 2209 
L 2766 2209 
L 2766 2266 
Q 2766 2663 2505 2880 
Q 2244 3097 1772 3097 
Q 1472 3097 1187 3025 
Q 903 2953 641 2809 
L 641 3341 
Q 956 3463 1253 3523 
Q 1550 3584 1831 3584 
Q 2591 3584 2966 3190 
Q 3341 2797 3341 1997 
z
" transform="scale(0.015625)"/>
      </defs>
      <use xlink:href="#DejaVuSans-73"/>
      <use xlink:href="#DejaVuSans-74" transform="translate(52.099609 0)"/>
      <use xlink:href="#DejaVuSans-61" transform="translate(91.308594 0)"/>
      <use xlink:href="#DejaVuSans-72" transform="translate(152.587891 0)"/>
     </g>
    </g>
    <g id="line2d_40">
     <path d="M 815.08 343.176562 
L 825.08 343.176562 
L 835.08 343.176562 
" style="fill: none; stroke: #ff7f0e; stroke-width: 1.5; stroke-linecap: square"/>
    </g>
    <g id="text_21">
     <!-- fork -->
     <g style="fill: #a9a9a9" transform="translate(843.08 346.676562) scale(0.1 -0.1)">
      <defs>
       <path id="DejaVuSans-66" d="M 2375 4863 
L 2375 4384 
L 1825 4384 
Q 1516 4384 1395 4259 
Q 1275 4134 1275 3809 
L 1275 3500 
L 2222 3500 
L 2222 3053 
L 1275 3053 
L 1275 0 
L 697 0 
L 697 3053 
L 147 3053 
L 147 3500 
L 697 3500 
L 697 3744 
Q 697 4328 969 4595 
Q 1241 4863 1831 4863 
L 2375 4863 
z
" transform="scale(0.015625)"/>
       <path id="DejaVuSans-6b" d="M 581 4863 
L 1159 4863 
L 1159 1991 
L 2875 3500 
L 3609 3500 
L 1753 1863 
L 3688 0 
L 2938 0 
L 1159 1709 
L 1159 0 
L 581 0 
L 581 4863 
z
" transform="scale(0.015625)"/>
      </defs>
      <use xlink:href="#DejaVuSans-66"/>
      <use xlink:href="#DejaVuSans-6f" transform="translate(35.205078 0)"/>
      <use xlink:href="#DejaVuSans-72" transform="translate(96.386719 0)"/>
      <use xlink:href="#DejaVuSans-6b" transform="translate(137.5 0)"/>
     </g>
    </g>
   </g>
  </g>
 </g>
 <defs>
  <clipPath id="p4a68f26f49">
   <rect x="108" y="43.2" width="669.6" height="277.2"/>
  </clipPath>
 </defs>
</svg>
